G75*
%MOIN*%
%OFA0B0*%
%FSLAX25Y25*%
%IPPOS*%
%LPD*%
%AMOC8*
5,1,8,0,0,1.08239X$1,22.5*
%
%ADD10C,0.00400*%
%ADD11C,0.00300*%
%ADD12R,0.13140X0.00030*%
%ADD13C,0.00394*%
%ADD14R,0.19016X0.00091*%
%ADD15R,0.18744X0.00091*%
%ADD16R,0.18654X0.00091*%
%ADD17R,0.18382X0.00091*%
%ADD18R,0.18110X0.00091*%
%ADD19R,0.17929X0.00091*%
%ADD20R,0.17748X0.00091*%
%ADD21R,0.17567X0.00091*%
%ADD22R,0.17295X0.00091*%
%ADD23R,0.17205X0.00091*%
%ADD24R,0.16933X0.00091*%
%ADD25R,0.07969X0.00091*%
%ADD26R,0.08421X0.00091*%
%ADD27R,0.05976X0.00091*%
%ADD28R,0.01630X0.00091*%
%ADD29R,0.08059X0.00091*%
%ADD30R,0.05705X0.00091*%
%ADD31R,0.01358X0.00091*%
%ADD32R,0.07878X0.00091*%
%ADD33R,0.05614X0.00091*%
%ADD34R,0.01268X0.00091*%
%ADD35R,0.07606X0.00091*%
%ADD36R,0.05433X0.00091*%
%ADD37R,0.01177X0.00091*%
%ADD38R,0.07335X0.00091*%
%ADD39R,0.05343X0.00091*%
%ADD40R,0.00996X0.00091*%
%ADD41R,0.07154X0.00091*%
%ADD42R,0.05161X0.00091*%
%ADD43R,0.06972X0.00091*%
%ADD44R,0.04980X0.00091*%
%ADD45R,0.00815X0.00091*%
%ADD46R,0.06791X0.00091*%
%ADD47R,0.06520X0.00091*%
%ADD48R,0.04799X0.00091*%
%ADD49R,0.06429X0.00091*%
%ADD50R,0.00091X0.00091*%
%ADD51R,0.00724X0.00091*%
%ADD52R,0.06248X0.00091*%
%ADD53R,0.00272X0.00091*%
%ADD54R,0.04618X0.00091*%
%ADD55R,0.00362X0.00091*%
%ADD56R,0.04528X0.00091*%
%ADD57R,0.05795X0.00091*%
%ADD58R,0.00453X0.00091*%
%ADD59R,0.04437X0.00091*%
%ADD60R,0.00543X0.00091*%
%ADD61R,0.04346X0.00091*%
%ADD62R,0.00634X0.00091*%
%ADD63R,0.05252X0.00091*%
%ADD64R,0.04165X0.00091*%
%ADD65R,0.04890X0.00091*%
%ADD66R,0.00906X0.00091*%
%ADD67R,0.04709X0.00091*%
%ADD68R,0.04075X0.00091*%
%ADD69R,0.01087X0.00091*%
%ADD70R,0.03894X0.00091*%
%ADD71R,0.03984X0.00091*%
%ADD72R,0.03803X0.00091*%
%ADD73R,0.03713X0.00091*%
%ADD74R,0.03531X0.00091*%
%ADD75R,0.01539X0.00091*%
%ADD76R,0.03622X0.00091*%
%ADD77R,0.03260X0.00091*%
%ADD78R,0.02988X0.00091*%
%ADD79R,0.01720X0.00091*%
%ADD80R,0.02807X0.00091*%
%ADD81R,0.01811X0.00091*%
%ADD82R,0.03350X0.00091*%
%ADD83R,0.02535X0.00091*%
%ADD84R,0.01902X0.00091*%
%ADD85R,0.02264X0.00091*%
%ADD86R,0.02083X0.00091*%
%ADD87R,0.03169X0.00091*%
%ADD88R,0.03079X0.00091*%
%ADD89R,0.02354X0.00091*%
%ADD90R,0.02898X0.00091*%
%ADD91R,0.02626X0.00091*%
%ADD92R,0.02717X0.00091*%
%ADD93R,0.00181X0.00091*%
%ADD94R,0.02445X0.00091*%
%ADD95R,0.02173X0.00091*%
%ADD96R,0.04256X0.00091*%
%ADD97R,0.01449X0.00091*%
%ADD98R,0.03441X0.00091*%
%ADD99R,0.01992X0.00091*%
%ADD100R,0.05524X0.00091*%
%ADD101R,0.06157X0.00091*%
%ADD102R,0.06339X0.00091*%
%ADD103R,0.06610X0.00091*%
%ADD104R,0.07244X0.00091*%
%ADD105R,0.06067X0.00091*%
%ADD106R,0.05886X0.00091*%
%ADD107C,0.00200*%
%ADD108R,0.00986X0.00118*%
%ADD109C,0.00000*%
D10*
X0275385Y0039689D02*
X0275385Y0044411D01*
X0278533Y0044411D01*
X0280885Y0042837D02*
X0282459Y0042837D01*
X0283246Y0042050D01*
X0283246Y0041263D01*
X0280098Y0041263D01*
X0280098Y0042050D02*
X0280885Y0042837D01*
X0280098Y0042050D02*
X0280098Y0040476D01*
X0280885Y0039689D01*
X0282459Y0039689D01*
X0284810Y0040476D02*
X0285597Y0041263D01*
X0287959Y0041263D01*
X0287959Y0042050D02*
X0287959Y0039689D01*
X0285597Y0039689D01*
X0284810Y0040476D01*
X0287171Y0042837D02*
X0287959Y0042050D01*
X0287171Y0042837D02*
X0285597Y0042837D01*
X0289523Y0042837D02*
X0291097Y0042837D01*
X0290310Y0043624D02*
X0290310Y0040476D01*
X0291097Y0039689D01*
X0292665Y0039689D02*
X0292665Y0044411D01*
X0293452Y0042837D02*
X0295026Y0042837D01*
X0295813Y0042050D01*
X0295813Y0039689D01*
X0297378Y0040476D02*
X0297378Y0042050D01*
X0298165Y0042837D01*
X0299739Y0042837D01*
X0300526Y0042050D01*
X0300526Y0041263D01*
X0297378Y0041263D01*
X0297378Y0040476D02*
X0298165Y0039689D01*
X0299739Y0039689D01*
X0302090Y0039689D02*
X0302090Y0042837D01*
X0302090Y0041263D02*
X0303664Y0042837D01*
X0304451Y0042837D01*
X0306017Y0044411D02*
X0306017Y0039689D01*
X0307592Y0041263D01*
X0309166Y0039689D01*
X0309166Y0044411D01*
X0310730Y0042837D02*
X0311517Y0042837D01*
X0311517Y0039689D01*
X0310730Y0039689D02*
X0312304Y0039689D01*
X0313872Y0039689D02*
X0313872Y0042837D01*
X0316233Y0042837D01*
X0317020Y0042050D01*
X0317020Y0039689D01*
X0318585Y0040476D02*
X0319372Y0039689D01*
X0321733Y0039689D01*
X0321733Y0038902D02*
X0321733Y0042837D01*
X0319372Y0042837D01*
X0318585Y0042050D01*
X0318585Y0040476D01*
X0320946Y0038115D02*
X0321733Y0038902D01*
X0320946Y0038115D02*
X0320159Y0038115D01*
X0311517Y0044411D02*
X0311517Y0045198D01*
X0309166Y0047366D02*
X0306805Y0047366D01*
X0306017Y0048153D01*
X0306805Y0048940D01*
X0309166Y0048940D01*
X0309166Y0049727D02*
X0309166Y0047366D01*
X0303666Y0047366D02*
X0302092Y0047366D01*
X0301305Y0048153D01*
X0301305Y0049727D01*
X0302092Y0050514D01*
X0303666Y0050514D01*
X0304453Y0049727D01*
X0304453Y0048940D01*
X0301305Y0048940D01*
X0299737Y0050514D02*
X0298163Y0050514D01*
X0298950Y0051301D02*
X0298950Y0048153D01*
X0299737Y0047366D01*
X0296598Y0048153D02*
X0295811Y0048940D01*
X0294237Y0048940D01*
X0293450Y0049727D01*
X0294237Y0050514D01*
X0296598Y0050514D01*
X0291886Y0049727D02*
X0291886Y0047366D01*
X0289525Y0047366D01*
X0288738Y0048153D01*
X0289525Y0048940D01*
X0291886Y0048940D01*
X0291886Y0049727D02*
X0291099Y0050514D01*
X0289525Y0050514D01*
X0287171Y0050514D02*
X0286384Y0050514D01*
X0284810Y0048940D01*
X0284810Y0047366D02*
X0284810Y0050514D01*
X0283246Y0050514D02*
X0280885Y0050514D01*
X0280098Y0049727D01*
X0280098Y0048153D01*
X0280885Y0047366D01*
X0283246Y0047366D01*
X0283246Y0052088D01*
X0278533Y0050514D02*
X0278533Y0047366D01*
X0275385Y0047366D02*
X0275385Y0050514D01*
X0276959Y0052088D01*
X0278533Y0050514D01*
X0278533Y0049727D02*
X0275385Y0049727D01*
X0293450Y0047366D02*
X0295811Y0047366D01*
X0296598Y0048153D01*
X0306805Y0050514D02*
X0308379Y0050514D01*
X0309166Y0049727D01*
X0310730Y0049727D02*
X0313878Y0049727D01*
X0315443Y0052088D02*
X0317017Y0052088D01*
X0316230Y0052088D02*
X0316230Y0047366D01*
X0315443Y0047366D02*
X0317017Y0047366D01*
X0293452Y0042837D02*
X0292665Y0042050D01*
X0276959Y0042050D02*
X0275385Y0042050D01*
D11*
X0271951Y0040523D02*
X0271951Y0037080D01*
X0270803Y0037080D02*
X0273099Y0037080D01*
X0269655Y0038227D02*
X0269655Y0040523D01*
X0270803Y0039375D02*
X0271951Y0040523D01*
X0267360Y0040523D02*
X0267360Y0038227D01*
X0268507Y0037080D01*
X0269655Y0038227D01*
X0266211Y0038801D02*
X0263916Y0038801D01*
X0262767Y0037080D02*
X0261620Y0038227D01*
X0260472Y0037080D01*
X0260472Y0040523D01*
X0259323Y0040523D02*
X0259323Y0037080D01*
X0257028Y0037080D02*
X0257028Y0040523D01*
X0257028Y0038801D02*
X0259323Y0038801D01*
X0262767Y0037080D02*
X0262767Y0040523D01*
X0315709Y0060505D02*
X0317611Y0060505D01*
X0315709Y0060505D02*
X0315709Y0063357D01*
X0318610Y0063357D02*
X0320511Y0063357D01*
X0319560Y0063357D02*
X0319560Y0060505D01*
X0321510Y0060505D02*
X0323411Y0060505D01*
X0322460Y0061931D02*
X0321510Y0061931D01*
X0321510Y0063357D02*
X0321510Y0060505D01*
X0321510Y0063357D02*
X0323411Y0063357D01*
X0269380Y0108618D02*
X0268905Y0108143D01*
X0267954Y0108143D01*
X0267479Y0108618D01*
X0269380Y0110519D01*
X0269380Y0108618D01*
X0267479Y0108618D02*
X0267479Y0110519D01*
X0267954Y0110995D01*
X0268905Y0110995D01*
X0269380Y0110519D01*
X0266480Y0110519D02*
X0264579Y0108618D01*
X0265054Y0108143D01*
X0266005Y0108143D01*
X0266480Y0108618D01*
X0266480Y0110519D01*
X0266005Y0110995D01*
X0265054Y0110995D01*
X0264579Y0110519D01*
X0264579Y0108618D01*
X0263580Y0108618D02*
X0263105Y0108143D01*
X0262154Y0108143D01*
X0261679Y0108618D01*
X0263580Y0110519D01*
X0263580Y0108618D01*
X0261679Y0108618D02*
X0261679Y0110519D01*
X0262154Y0110995D01*
X0263105Y0110995D01*
X0263580Y0110519D01*
X0260680Y0110995D02*
X0259729Y0110519D01*
X0258779Y0109569D01*
X0260205Y0109569D01*
X0260680Y0109093D01*
X0260680Y0108618D01*
X0260205Y0108143D01*
X0259254Y0108143D01*
X0258779Y0108618D01*
X0258779Y0109569D01*
X0257780Y0110044D02*
X0257304Y0109569D01*
X0257780Y0109093D01*
X0257780Y0108618D01*
X0257304Y0108143D01*
X0256354Y0108143D01*
X0255878Y0108618D01*
X0254880Y0108143D02*
X0252978Y0108143D01*
X0253929Y0108143D02*
X0253929Y0110995D01*
X0252978Y0110044D01*
X0251980Y0108143D02*
X0250078Y0108143D01*
X0251029Y0108143D02*
X0251029Y0110995D01*
X0250078Y0110044D01*
X0249079Y0108143D02*
X0247178Y0108143D01*
X0248129Y0108143D02*
X0248129Y0110995D01*
X0247178Y0110044D01*
X0246179Y0110519D02*
X0244278Y0108618D01*
X0244753Y0108143D01*
X0245704Y0108143D01*
X0246179Y0108618D01*
X0246179Y0110519D01*
X0245704Y0110995D01*
X0244753Y0110995D01*
X0244278Y0110519D01*
X0244278Y0108618D01*
X0243279Y0108618D02*
X0242804Y0108143D01*
X0241853Y0108143D01*
X0241378Y0108618D01*
X0241378Y0109569D02*
X0242329Y0110044D01*
X0242804Y0110044D01*
X0243279Y0109569D01*
X0243279Y0108618D01*
X0241378Y0109569D02*
X0241378Y0110995D01*
X0243279Y0110995D01*
X0239428Y0110995D02*
X0238478Y0110044D01*
X0239428Y0110995D02*
X0239428Y0108143D01*
X0238478Y0108143D02*
X0240379Y0108143D01*
X0237479Y0108618D02*
X0237479Y0109093D01*
X0237004Y0109569D01*
X0235578Y0109569D01*
X0235578Y0108618D01*
X0236053Y0108143D01*
X0237004Y0108143D01*
X0237479Y0108618D01*
X0236528Y0110519D02*
X0235578Y0109569D01*
X0234579Y0110044D02*
X0232678Y0108143D01*
X0234579Y0108143D01*
X0234579Y0110044D02*
X0234579Y0110519D01*
X0234104Y0110995D01*
X0233153Y0110995D01*
X0232678Y0110519D01*
X0236528Y0110519D02*
X0237479Y0110995D01*
X0255878Y0110519D02*
X0256354Y0110995D01*
X0257304Y0110995D01*
X0257780Y0110519D01*
X0257780Y0110044D01*
X0257304Y0109569D02*
X0256829Y0109569D01*
X0313780Y0114130D02*
X0314255Y0113654D01*
X0315206Y0113654D01*
X0315681Y0114130D01*
X0315681Y0115080D01*
X0314731Y0115080D01*
X0313780Y0116031D02*
X0313780Y0114130D01*
X0313780Y0116031D02*
X0314255Y0116506D01*
X0315206Y0116506D01*
X0315681Y0116031D01*
X0316680Y0116506D02*
X0318581Y0113654D01*
X0318581Y0116506D01*
X0319580Y0116031D02*
X0319580Y0115556D01*
X0320055Y0115080D01*
X0321006Y0115080D01*
X0321481Y0114605D01*
X0321481Y0114130D01*
X0321006Y0113654D01*
X0320055Y0113654D01*
X0319580Y0114130D01*
X0319580Y0116031D02*
X0320055Y0116506D01*
X0321006Y0116506D01*
X0321481Y0116031D01*
X0322480Y0116031D02*
X0322480Y0115556D01*
X0322956Y0115080D01*
X0323906Y0115080D01*
X0324382Y0114605D01*
X0324382Y0114130D01*
X0323906Y0113654D01*
X0322956Y0113654D01*
X0322480Y0114130D01*
X0322480Y0116031D02*
X0322956Y0116506D01*
X0323906Y0116506D01*
X0324382Y0116031D01*
X0316680Y0116506D02*
X0316680Y0113654D01*
X0187102Y0113443D02*
X0185201Y0113443D01*
X0184250Y0112492D01*
X0185201Y0111542D01*
X0187102Y0111542D01*
X0186627Y0110543D02*
X0184725Y0110543D01*
X0184250Y0110068D01*
X0184250Y0108642D01*
X0187102Y0108642D01*
X0187102Y0110068D01*
X0186627Y0110543D01*
X0185676Y0111542D02*
X0185676Y0113443D01*
X0178047Y0113443D02*
X0178047Y0111542D01*
X0175195Y0111542D01*
X0175670Y0110543D02*
X0175195Y0110068D01*
X0175195Y0109117D01*
X0175670Y0108642D01*
X0177572Y0108642D01*
X0178047Y0109117D01*
X0178047Y0110068D01*
X0177572Y0110543D01*
X0177572Y0107643D02*
X0178047Y0107168D01*
X0178047Y0106217D01*
X0177572Y0105741D01*
X0176621Y0106217D02*
X0176621Y0107168D01*
X0177096Y0107643D01*
X0177572Y0107643D01*
X0175670Y0107643D02*
X0175195Y0107168D01*
X0175195Y0106217D01*
X0175670Y0105741D01*
X0176145Y0105741D01*
X0176621Y0106217D01*
X0184250Y0106217D02*
X0184725Y0105741D01*
X0185201Y0105741D01*
X0185676Y0106217D01*
X0185676Y0107168D01*
X0186151Y0107643D01*
X0186627Y0107643D01*
X0187102Y0107168D01*
X0187102Y0106217D01*
X0186627Y0105741D01*
X0184250Y0106217D02*
X0184250Y0107168D01*
X0184725Y0107643D01*
X0156876Y0111768D02*
X0156876Y0112243D01*
X0156400Y0112718D01*
X0154974Y0112718D01*
X0154974Y0111768D01*
X0155450Y0111292D01*
X0156400Y0111292D01*
X0156876Y0111768D01*
X0155925Y0113669D02*
X0154974Y0112718D01*
X0155925Y0113669D02*
X0156876Y0114144D01*
X0146836Y0114141D02*
X0146836Y0112240D01*
X0146361Y0111765D01*
X0145410Y0111765D01*
X0144935Y0112240D01*
X0145410Y0113191D02*
X0146836Y0113191D01*
X0146836Y0114141D02*
X0146361Y0114617D01*
X0145410Y0114617D01*
X0144935Y0114141D01*
X0144935Y0113666D01*
X0145410Y0113191D01*
X0142702Y0111686D02*
X0140801Y0111686D01*
X0141752Y0111686D02*
X0141752Y0114538D01*
X0140801Y0113587D01*
X0139802Y0114538D02*
X0137901Y0111686D01*
X0139802Y0111686D02*
X0137901Y0114538D01*
X0136902Y0114538D02*
X0135001Y0114538D01*
X0135952Y0114538D02*
X0135952Y0111686D01*
X0134002Y0112161D02*
X0134002Y0114538D01*
X0132101Y0114538D02*
X0132101Y0112161D01*
X0132576Y0111686D01*
X0133527Y0111686D01*
X0134002Y0112161D01*
X0109920Y0107600D02*
X0108019Y0107600D01*
X0109445Y0109026D01*
X0109445Y0106174D01*
X0107020Y0106174D02*
X0106069Y0107125D01*
X0106545Y0107125D02*
X0105119Y0107125D01*
X0105119Y0106174D02*
X0105119Y0109026D01*
X0106545Y0109026D01*
X0107020Y0108551D01*
X0107020Y0107600D01*
X0106545Y0107125D01*
X0105944Y0111686D02*
X0104043Y0111686D01*
X0104993Y0111686D02*
X0104993Y0114538D01*
X0104043Y0113587D01*
X0106943Y0114063D02*
X0107418Y0114538D01*
X0108369Y0114538D01*
X0108844Y0114063D01*
X0108844Y0113587D01*
X0108369Y0113112D01*
X0108844Y0112637D01*
X0108844Y0112161D01*
X0108369Y0111686D01*
X0107418Y0111686D01*
X0106943Y0112161D01*
X0107893Y0113112D02*
X0108369Y0113112D01*
X0098608Y0112637D02*
X0098608Y0114538D01*
X0096707Y0114538D02*
X0096707Y0112637D01*
X0097657Y0111686D01*
X0098608Y0112637D01*
X0095708Y0113112D02*
X0095708Y0112161D01*
X0095232Y0111686D01*
X0094282Y0111686D01*
X0093806Y0112161D01*
X0093806Y0113112D02*
X0094757Y0113587D01*
X0095232Y0113587D01*
X0095708Y0113112D01*
X0095708Y0114538D02*
X0093806Y0114538D01*
X0093806Y0113112D01*
X0089947Y0112080D02*
X0089947Y0114932D01*
X0088045Y0114932D02*
X0089947Y0112080D01*
X0088045Y0112080D02*
X0088045Y0114932D01*
X0087046Y0114932D02*
X0085145Y0114932D01*
X0085145Y0112080D01*
X0087046Y0112080D01*
X0086096Y0113506D02*
X0085145Y0113506D01*
X0082466Y0114932D02*
X0080565Y0114932D01*
X0081516Y0114932D02*
X0081516Y0112080D01*
X0079566Y0112080D02*
X0079566Y0113981D01*
X0078615Y0114932D01*
X0077665Y0113981D01*
X0077665Y0112080D01*
X0076666Y0112555D02*
X0076191Y0112080D01*
X0074765Y0112080D01*
X0074765Y0114932D01*
X0076191Y0114932D01*
X0076666Y0114456D01*
X0076666Y0113981D01*
X0076191Y0113506D01*
X0074765Y0113506D01*
X0076191Y0113506D02*
X0076666Y0113030D01*
X0076666Y0112555D01*
X0077665Y0113506D02*
X0079566Y0113506D01*
X0085589Y0094309D02*
X0086064Y0093359D01*
X0087015Y0092408D01*
X0087015Y0093834D01*
X0087490Y0094309D01*
X0087965Y0094309D01*
X0088441Y0093834D01*
X0088441Y0092883D01*
X0087965Y0092408D01*
X0087015Y0092408D01*
X0087015Y0091409D02*
X0087490Y0090934D01*
X0087490Y0089508D01*
X0087490Y0090458D02*
X0088441Y0091409D01*
X0087015Y0091409D02*
X0086064Y0091409D01*
X0085589Y0090934D01*
X0085589Y0089508D01*
X0088441Y0089508D01*
X0139135Y0053048D02*
X0141152Y0055065D01*
X0141152Y0053721D01*
X0142496Y0053721D01*
X0140480Y0051704D01*
X0141522Y0051334D02*
X0141522Y0050662D01*
X0142194Y0049989D01*
X0142866Y0049989D01*
X0144211Y0051334D01*
X0144211Y0052006D01*
X0143539Y0052678D01*
X0142866Y0052678D01*
X0141522Y0051334D01*
X0144581Y0050292D02*
X0144581Y0049619D01*
X0145253Y0048947D01*
X0145253Y0048275D01*
X0144917Y0047939D01*
X0144245Y0047939D01*
X0143573Y0048611D01*
X0143573Y0049283D01*
X0144581Y0050292D02*
X0144917Y0050628D01*
X0145589Y0050628D01*
X0146261Y0049955D01*
X0146261Y0049283D01*
X0147304Y0048913D02*
X0147976Y0048241D01*
X0147640Y0048577D02*
X0145623Y0046560D01*
X0145287Y0046896D02*
X0145959Y0046224D01*
X0152732Y0049295D02*
X0152732Y0049967D01*
X0152732Y0049295D02*
X0153404Y0048622D01*
X0154076Y0048622D01*
X0154412Y0048958D01*
X0154412Y0049631D01*
X0153740Y0050303D01*
X0153740Y0050975D01*
X0154076Y0051311D01*
X0154748Y0051311D01*
X0155420Y0050639D01*
X0155420Y0049967D01*
X0156127Y0049261D02*
X0154782Y0047916D01*
X0154782Y0047244D01*
X0155454Y0046572D01*
X0156127Y0046572D01*
X0157471Y0047916D01*
X0157471Y0048588D01*
X0156799Y0049261D01*
X0156127Y0049261D01*
X0153381Y0052678D02*
X0151364Y0050662D01*
X0151028Y0050998D02*
X0151701Y0050326D01*
X0150322Y0051704D02*
X0152339Y0053721D01*
X0150994Y0053721D01*
X0150994Y0055065D01*
X0148978Y0053048D01*
X0153045Y0053014D02*
X0153717Y0052342D01*
X0158473Y0053396D02*
X0159145Y0052724D01*
X0159817Y0052724D01*
X0161498Y0054404D01*
X0161868Y0053362D02*
X0162540Y0053362D01*
X0163212Y0052690D01*
X0163212Y0052017D01*
X0160523Y0052017D01*
X0160523Y0051345D01*
X0161196Y0050673D01*
X0161868Y0050673D01*
X0163212Y0052017D01*
X0164255Y0051647D02*
X0165263Y0050639D01*
X0165263Y0049967D01*
X0164591Y0049295D01*
X0163919Y0049295D01*
X0162910Y0050303D01*
X0162238Y0049631D02*
X0164255Y0051647D01*
X0161868Y0053362D02*
X0160523Y0052017D01*
X0158473Y0053396D02*
X0158473Y0054068D01*
X0160153Y0055749D01*
X0167134Y0054068D02*
X0167134Y0053396D01*
X0167806Y0052724D01*
X0168479Y0052724D01*
X0170159Y0054404D01*
X0170529Y0053362D02*
X0171201Y0053362D01*
X0171874Y0052690D01*
X0171874Y0052017D01*
X0169185Y0052017D01*
X0169185Y0051345D01*
X0169857Y0050673D01*
X0170529Y0050673D01*
X0171874Y0052017D01*
X0172916Y0051647D02*
X0174261Y0050303D01*
X0173588Y0050975D02*
X0171572Y0048958D01*
X0172950Y0047580D02*
X0176311Y0048252D01*
X0174967Y0049597D02*
X0174294Y0046236D01*
X0167650Y0048252D02*
X0164289Y0047580D01*
X0163582Y0048286D02*
X0163582Y0049631D01*
X0166305Y0049597D02*
X0165633Y0046236D01*
X0169185Y0052017D02*
X0170529Y0053362D01*
X0168815Y0055749D02*
X0167134Y0054068D01*
X0181923Y0049631D02*
X0183940Y0051647D01*
X0183267Y0048286D01*
X0185284Y0050303D01*
X0185654Y0049261D02*
X0184310Y0047916D01*
X0184310Y0047244D01*
X0184982Y0046572D01*
X0185654Y0046572D01*
X0186999Y0047916D02*
X0186999Y0048588D01*
X0186326Y0049261D01*
X0185654Y0049261D01*
X0136941Y0048252D02*
X0134252Y0048252D01*
X0134924Y0048252D02*
X0134924Y0046236D01*
X0133580Y0047580D02*
X0135597Y0049597D01*
X0134554Y0049967D02*
X0134554Y0050639D01*
X0133882Y0051311D01*
X0133210Y0051311D01*
X0131865Y0049967D01*
X0131865Y0049295D01*
X0132538Y0048622D01*
X0133210Y0048622D01*
X0131159Y0050673D02*
X0130487Y0050673D01*
X0129815Y0051345D01*
X0129815Y0052017D01*
X0130823Y0052354D02*
X0131495Y0051681D01*
X0131495Y0051009D01*
X0131159Y0050673D01*
X0130823Y0052354D02*
X0130823Y0053026D01*
X0131159Y0053362D01*
X0131831Y0053362D01*
X0132504Y0052690D01*
X0132504Y0052017D01*
X0127156Y0048588D02*
X0126484Y0049261D01*
X0125812Y0049261D01*
X0125476Y0048924D01*
X0125476Y0048252D01*
X0126148Y0047580D01*
X0126148Y0046908D01*
X0125812Y0046572D01*
X0125139Y0046572D01*
X0124467Y0047244D01*
X0124467Y0047916D01*
X0123761Y0048622D02*
X0123089Y0048622D01*
X0122417Y0049295D01*
X0122417Y0049967D01*
X0123761Y0051311D01*
X0124433Y0051311D01*
X0125106Y0050639D01*
X0125106Y0049967D01*
X0123055Y0052017D02*
X0123055Y0052690D01*
X0122383Y0053362D01*
X0121710Y0053362D01*
X0121374Y0053026D01*
X0121374Y0052354D01*
X0122046Y0051681D01*
X0122046Y0051009D01*
X0121710Y0050673D01*
X0121038Y0050673D01*
X0120366Y0051345D01*
X0120366Y0052017D01*
X0114927Y0050975D02*
X0114927Y0049631D01*
X0113582Y0048286D01*
X0114591Y0049295D02*
X0113246Y0050639D01*
X0113582Y0050975D02*
X0114927Y0050975D01*
X0113582Y0050975D02*
X0112238Y0049631D01*
X0115297Y0048588D02*
X0116641Y0047244D01*
X0115297Y0046572D02*
X0117314Y0048588D01*
X0115297Y0048588D01*
X0107077Y0048588D02*
X0107077Y0047916D01*
X0106741Y0047580D01*
X0106069Y0047580D01*
X0106069Y0046908D01*
X0105733Y0046572D01*
X0105061Y0046572D01*
X0104389Y0047244D01*
X0104389Y0047916D01*
X0103346Y0048286D02*
X0104691Y0049631D01*
X0104691Y0050975D01*
X0103346Y0050975D01*
X0102002Y0049631D01*
X0103010Y0050639D02*
X0104355Y0049295D01*
X0105733Y0049261D02*
X0106405Y0049261D01*
X0107077Y0048588D01*
X0106069Y0047580D02*
X0105733Y0047916D01*
X0097235Y0047916D02*
X0097235Y0048588D01*
X0096563Y0049261D01*
X0095890Y0049261D01*
X0094848Y0049631D02*
X0093504Y0048286D01*
X0094210Y0047580D02*
X0096899Y0047580D01*
X0097235Y0047916D01*
X0095554Y0046236D02*
X0094210Y0047580D01*
X0094512Y0049295D02*
X0093168Y0050639D01*
X0093504Y0050975D02*
X0094848Y0050975D01*
X0094848Y0049631D01*
X0093504Y0050975D02*
X0092159Y0049631D01*
X0087450Y0048531D02*
X0085433Y0046514D01*
X0084761Y0047186D02*
X0086106Y0045842D01*
X0086106Y0048531D02*
X0087450Y0048531D01*
X0085399Y0049237D02*
X0084055Y0047892D01*
X0085063Y0048901D02*
X0083719Y0050245D01*
X0084055Y0050581D02*
X0085399Y0050581D01*
X0085399Y0049237D01*
X0084055Y0050581D02*
X0082710Y0049237D01*
X0077550Y0048195D02*
X0077550Y0047522D01*
X0074861Y0047522D01*
X0074861Y0046850D01*
X0075533Y0046178D01*
X0076205Y0046178D01*
X0077550Y0047522D01*
X0077550Y0048195D02*
X0076878Y0048867D01*
X0076205Y0048867D01*
X0074861Y0047522D01*
X0073819Y0047892D02*
X0075163Y0049237D01*
X0075163Y0050581D01*
X0073819Y0050581D01*
X0072474Y0049237D01*
X0073483Y0050245D02*
X0074827Y0048901D01*
X0048253Y0048315D02*
X0048253Y0047839D01*
X0047778Y0047364D01*
X0048253Y0046889D01*
X0048253Y0046413D01*
X0047778Y0045938D01*
X0046827Y0045938D01*
X0046352Y0046413D01*
X0045353Y0046889D02*
X0044402Y0045938D01*
X0043452Y0046889D01*
X0043452Y0048790D01*
X0042453Y0048315D02*
X0042453Y0047839D01*
X0041978Y0047364D01*
X0042453Y0046889D01*
X0042453Y0046413D01*
X0041978Y0045938D01*
X0041027Y0045938D01*
X0040552Y0046413D01*
X0041502Y0047364D02*
X0041978Y0047364D01*
X0042453Y0048315D02*
X0041978Y0048790D01*
X0041027Y0048790D01*
X0040552Y0048315D01*
X0039198Y0048790D02*
X0037297Y0048790D01*
X0038247Y0048790D02*
X0038247Y0045938D01*
X0036298Y0046413D02*
X0035823Y0045938D01*
X0034872Y0045938D01*
X0034397Y0046413D01*
X0034872Y0047364D02*
X0035823Y0047364D01*
X0036298Y0046889D01*
X0036298Y0046413D01*
X0034872Y0047364D02*
X0034397Y0047839D01*
X0034397Y0048315D01*
X0034872Y0048790D01*
X0035823Y0048790D01*
X0036298Y0048315D01*
X0033398Y0048315D02*
X0033398Y0047364D01*
X0032922Y0046889D01*
X0031496Y0046889D01*
X0031496Y0045938D02*
X0031496Y0048790D01*
X0032922Y0048790D01*
X0033398Y0048315D01*
X0032447Y0046889D02*
X0033398Y0045938D01*
X0045353Y0046889D02*
X0045353Y0048790D01*
X0046352Y0048315D02*
X0046827Y0048790D01*
X0047778Y0048790D01*
X0048253Y0048315D01*
X0047778Y0047364D02*
X0047302Y0047364D01*
X0034671Y0052158D02*
X0032770Y0052158D01*
X0034671Y0054060D01*
X0034671Y0054535D01*
X0034196Y0055010D01*
X0033245Y0055010D01*
X0032770Y0054535D01*
X0031771Y0054535D02*
X0031771Y0053584D01*
X0031295Y0053109D01*
X0029869Y0053109D01*
X0029869Y0052158D02*
X0029869Y0055010D01*
X0031295Y0055010D01*
X0031771Y0054535D01*
X0030820Y0053109D02*
X0031771Y0052158D01*
X0127156Y0048588D02*
X0127156Y0047916D01*
D12*
X0299034Y0109873D03*
X0299034Y0109903D03*
D13*
X0305409Y0110053D02*
X0292659Y0110053D01*
X0292659Y0113533D01*
X0305409Y0113533D01*
X0305409Y0110053D01*
X0305409Y0110070D02*
X0292659Y0110070D01*
X0292659Y0110463D02*
X0305409Y0110463D01*
X0305409Y0110855D02*
X0292659Y0110855D01*
X0292659Y0111247D02*
X0305409Y0111247D01*
X0305409Y0111639D02*
X0292659Y0111639D01*
X0292659Y0112032D02*
X0305409Y0112032D01*
X0305409Y0112424D02*
X0292659Y0112424D01*
X0292659Y0112816D02*
X0305409Y0112816D01*
X0305409Y0113208D02*
X0292659Y0113208D01*
X0292659Y0113353D02*
X0293649Y0113353D01*
X0293649Y0119323D01*
X0305409Y0119323D01*
X0305409Y0122773D01*
X0292659Y0122773D01*
X0292659Y0113353D01*
X0292659Y0113600D02*
X0293649Y0113600D01*
X0293649Y0113993D02*
X0292659Y0113993D01*
X0292659Y0114385D02*
X0293649Y0114385D01*
X0293649Y0114777D02*
X0292659Y0114777D01*
X0292659Y0115169D02*
X0293649Y0115169D01*
X0293649Y0115561D02*
X0292659Y0115561D01*
X0292659Y0115954D02*
X0293649Y0115954D01*
X0293649Y0116346D02*
X0292659Y0116346D01*
X0292659Y0116738D02*
X0293649Y0116738D01*
X0293649Y0117130D02*
X0292659Y0117130D01*
X0292659Y0117523D02*
X0293649Y0117523D01*
X0293649Y0117915D02*
X0292659Y0117915D01*
X0292659Y0118307D02*
X0293649Y0118307D01*
X0293649Y0118699D02*
X0292659Y0118699D01*
X0292659Y0119091D02*
X0293649Y0119091D01*
X0292659Y0119484D02*
X0305409Y0119484D01*
X0305313Y0119484D01*
X0305259Y0119443D02*
X0305379Y0119533D01*
X0305409Y0119533D01*
X0305409Y0113383D01*
X0301599Y0113383D01*
X0302799Y0115243D01*
X0300489Y0115243D01*
X0300699Y0115603D01*
X0303009Y0115603D01*
X0303999Y0117373D01*
X0301749Y0117373D01*
X0301869Y0117583D01*
X0304149Y0117583D01*
X0305259Y0119443D01*
X0305409Y0119091D02*
X0305049Y0119091D01*
X0304815Y0118699D02*
X0305409Y0118699D01*
X0305409Y0118307D02*
X0304581Y0118307D01*
X0304347Y0117915D02*
X0305409Y0117915D01*
X0305409Y0117523D02*
X0301834Y0117523D01*
X0303644Y0116738D02*
X0305409Y0116738D01*
X0305409Y0116346D02*
X0303424Y0116346D01*
X0303205Y0115954D02*
X0305409Y0115954D01*
X0305409Y0115561D02*
X0300675Y0115561D01*
X0302245Y0114385D02*
X0305409Y0114385D01*
X0305409Y0114777D02*
X0302498Y0114777D01*
X0302751Y0115169D02*
X0305409Y0115169D01*
X0305409Y0113993D02*
X0301992Y0113993D01*
X0301739Y0113600D02*
X0305409Y0113600D01*
X0300849Y0119233D02*
X0297549Y0113653D01*
X0295869Y0113443D02*
X0295269Y0113323D01*
X0295779Y0114103D01*
X0295869Y0113443D01*
X0295847Y0113600D02*
X0295450Y0113600D01*
X0295707Y0113993D02*
X0295794Y0113993D01*
X0295419Y0116893D02*
X0295779Y0117373D01*
X0297369Y0117373D01*
X0297459Y0116863D01*
X0298959Y0119293D01*
X0295419Y0119113D01*
X0295419Y0116893D01*
X0295419Y0117130D02*
X0295597Y0117130D01*
X0295419Y0117523D02*
X0297866Y0117523D01*
X0298108Y0117915D02*
X0295419Y0117915D01*
X0295419Y0118307D02*
X0298350Y0118307D01*
X0298592Y0118699D02*
X0295419Y0118699D01*
X0295419Y0119091D02*
X0298834Y0119091D01*
X0292659Y0119876D02*
X0305409Y0119876D01*
X0305409Y0120268D02*
X0292659Y0120268D01*
X0292659Y0120660D02*
X0305409Y0120660D01*
X0305409Y0121052D02*
X0292659Y0121052D01*
X0292659Y0121445D02*
X0305409Y0121445D01*
X0305409Y0121837D02*
X0292659Y0121837D01*
X0292659Y0122229D02*
X0305409Y0122229D01*
X0305409Y0122621D02*
X0292659Y0122621D01*
X0297412Y0117130D02*
X0297624Y0117130D01*
X0303863Y0117130D02*
X0305409Y0117130D01*
D14*
X0298329Y0078989D03*
D15*
X0298283Y0079079D03*
D16*
X0298238Y0079170D03*
D17*
X0298193Y0079260D03*
D18*
X0298148Y0079351D03*
D19*
X0298057Y0079441D03*
D20*
X0298057Y0079532D03*
D21*
X0297967Y0079623D03*
D22*
X0297921Y0079713D03*
D23*
X0297876Y0079804D03*
D24*
X0297831Y0079894D03*
D25*
X0293439Y0079985D03*
D26*
X0301906Y0079985D03*
D27*
X0301407Y0080981D03*
X0292443Y0080075D03*
D28*
X0296427Y0080075D03*
X0300593Y0082701D03*
X0307112Y0082067D03*
X0292805Y0084422D03*
X0292805Y0084512D03*
D29*
X0301906Y0080075D03*
D30*
X0292398Y0080166D03*
X0299280Y0092119D03*
D31*
X0299280Y0095831D03*
X0299280Y0095922D03*
X0293937Y0086595D03*
X0300547Y0082792D03*
X0296382Y0080166D03*
X0307339Y0081886D03*
D32*
X0301906Y0080166D03*
D33*
X0301317Y0081162D03*
X0292352Y0080256D03*
D34*
X0296337Y0080256D03*
X0307474Y0081796D03*
X0304667Y0086595D03*
X0295522Y0088678D03*
X0293892Y0086686D03*
D35*
X0301860Y0080256D03*
D36*
X0301226Y0081252D03*
X0292352Y0080347D03*
D37*
X0296382Y0080347D03*
X0300547Y0082882D03*
X0307520Y0081705D03*
X0304713Y0086686D03*
X0299280Y0096012D03*
D38*
X0299280Y0090760D03*
X0301815Y0080347D03*
D39*
X0292307Y0080438D03*
X0299280Y0092390D03*
X0299280Y0092481D03*
D40*
X0299280Y0096103D03*
X0299280Y0096193D03*
X0304713Y0086776D03*
X0296291Y0082158D03*
X0296382Y0080528D03*
X0296382Y0080438D03*
X0293846Y0086776D03*
D41*
X0299098Y0090579D03*
X0299280Y0090851D03*
X0301724Y0080438D03*
D42*
X0292307Y0080528D03*
X0299280Y0092571D03*
D43*
X0299280Y0091032D03*
X0299280Y0090941D03*
X0299008Y0090489D03*
X0298917Y0090398D03*
X0301724Y0080528D03*
D44*
X0292307Y0080619D03*
X0292307Y0080709D03*
X0299280Y0092662D03*
X0299280Y0092752D03*
D45*
X0299280Y0096284D03*
X0299280Y0096375D03*
X0295567Y0088497D03*
X0304713Y0086867D03*
X0298102Y0084331D03*
X0297559Y0083697D03*
X0296382Y0081977D03*
X0296382Y0081886D03*
X0296382Y0081796D03*
X0296382Y0080800D03*
X0296382Y0080709D03*
X0296382Y0080619D03*
X0300547Y0082973D03*
X0307972Y0081343D03*
D46*
X0301634Y0080619D03*
X0298827Y0090308D03*
X0299280Y0091123D03*
X0299280Y0091213D03*
D47*
X0298510Y0090126D03*
X0301589Y0080709D03*
D48*
X0292307Y0080800D03*
X0292307Y0080890D03*
X0299280Y0092843D03*
X0299280Y0092934D03*
D49*
X0299280Y0091485D03*
X0301543Y0080800D03*
D50*
X0300457Y0083245D03*
X0297287Y0085056D03*
X0296472Y0083788D03*
X0296563Y0083607D03*
X0296654Y0083426D03*
X0308606Y0080800D03*
X0299280Y0096918D03*
D51*
X0304758Y0086957D03*
X0298057Y0084422D03*
X0298057Y0084241D03*
X0297514Y0083607D03*
X0297061Y0083154D03*
X0296427Y0081705D03*
X0296427Y0081615D03*
X0296427Y0081524D03*
X0296427Y0081434D03*
X0296427Y0081343D03*
X0296427Y0081252D03*
X0296427Y0081162D03*
X0296427Y0081071D03*
X0296427Y0080981D03*
X0296427Y0080890D03*
X0293801Y0086867D03*
D52*
X0299280Y0091575D03*
X0299280Y0091666D03*
X0301453Y0080890D03*
D53*
X0300457Y0083154D03*
X0297287Y0083788D03*
X0296744Y0083245D03*
X0295657Y0083154D03*
X0295657Y0083063D03*
X0295657Y0082973D03*
X0295657Y0082882D03*
X0295839Y0082339D03*
X0295929Y0082249D03*
X0295657Y0084422D03*
X0295657Y0084512D03*
X0295748Y0084693D03*
X0295839Y0084875D03*
X0295929Y0084965D03*
X0296020Y0085146D03*
X0296110Y0085237D03*
X0296654Y0084784D03*
X0296744Y0084875D03*
X0296563Y0084603D03*
X0296472Y0084422D03*
X0297469Y0084875D03*
X0304803Y0087229D03*
X0308516Y0080890D03*
X0299280Y0096737D03*
X0299280Y0096827D03*
D54*
X0299280Y0093115D03*
X0299280Y0093024D03*
X0292307Y0080981D03*
D55*
X0295703Y0082520D03*
X0295703Y0082611D03*
X0295703Y0082701D03*
X0295703Y0082792D03*
X0295793Y0082430D03*
X0296699Y0082430D03*
X0296789Y0082611D03*
X0297876Y0083788D03*
X0297967Y0083878D03*
X0297967Y0084603D03*
X0296970Y0085146D03*
X0296880Y0085056D03*
X0296789Y0084965D03*
X0296246Y0085327D03*
X0296337Y0085508D03*
X0293711Y0087048D03*
X0295703Y0088315D03*
X0308380Y0080981D03*
D56*
X0292352Y0081071D03*
D57*
X0301317Y0081071D03*
X0298057Y0089855D03*
X0299234Y0092028D03*
D58*
X0304803Y0087138D03*
X0296382Y0085418D03*
X0298012Y0084060D03*
X0298012Y0083969D03*
X0297378Y0083335D03*
X0297287Y0083245D03*
X0296925Y0082792D03*
X0296835Y0082701D03*
X0296744Y0082520D03*
X0296654Y0082339D03*
X0308244Y0081071D03*
X0299280Y0096646D03*
D59*
X0299280Y0093205D03*
X0304350Y0084512D03*
X0301091Y0081615D03*
X0292307Y0081162D03*
D60*
X0296970Y0082882D03*
X0296970Y0082973D03*
X0297423Y0083426D03*
X0297967Y0084512D03*
X0293711Y0086957D03*
X0300502Y0083063D03*
X0308199Y0081162D03*
X0304758Y0087048D03*
D61*
X0304305Y0084603D03*
X0304396Y0084422D03*
X0292352Y0081343D03*
X0292352Y0081252D03*
D62*
X0296563Y0082249D03*
X0297016Y0083063D03*
X0297469Y0083516D03*
X0298012Y0084150D03*
X0308063Y0081252D03*
X0295657Y0088406D03*
X0299280Y0096465D03*
X0299280Y0096556D03*
D63*
X0297604Y0089674D03*
X0301136Y0081343D03*
D64*
X0301045Y0081705D03*
X0292352Y0081524D03*
X0292352Y0081434D03*
X0304305Y0084693D03*
X0296970Y0089493D03*
D65*
X0301136Y0081434D03*
D66*
X0296337Y0082067D03*
X0307837Y0081434D03*
D67*
X0301136Y0081524D03*
X0297333Y0089583D03*
D68*
X0304350Y0084784D03*
X0304622Y0084241D03*
X0292398Y0081615D03*
X0299280Y0093477D03*
X0299280Y0093567D03*
D69*
X0295522Y0088587D03*
X0307656Y0081615D03*
X0307656Y0081615D03*
D70*
X0304803Y0084060D03*
X0304350Y0084875D03*
X0292398Y0081796D03*
X0292398Y0081705D03*
X0299280Y0093658D03*
X0299280Y0093749D03*
D71*
X0304758Y0084150D03*
X0300955Y0081796D03*
D72*
X0300955Y0081886D03*
X0304939Y0083969D03*
X0304396Y0084965D03*
X0292443Y0081886D03*
D73*
X0292398Y0081977D03*
X0305075Y0083878D03*
X0299280Y0093839D03*
D74*
X0299280Y0093930D03*
X0299280Y0094020D03*
X0296654Y0089402D03*
X0305256Y0083697D03*
X0300909Y0081977D03*
X0292488Y0082249D03*
D75*
X0292850Y0084603D03*
X0293303Y0085418D03*
X0293394Y0085599D03*
X0293575Y0085871D03*
X0293665Y0086052D03*
X0293846Y0086323D03*
X0293937Y0086504D03*
X0295476Y0088768D03*
X0304622Y0086414D03*
X0307248Y0081977D03*
X0299280Y0095650D03*
X0299280Y0095741D03*
D76*
X0304396Y0085056D03*
X0305120Y0083788D03*
X0292443Y0082158D03*
X0292443Y0082067D03*
D77*
X0300864Y0082067D03*
X0305482Y0083516D03*
D78*
X0305799Y0083245D03*
X0300819Y0082158D03*
X0299280Y0094382D03*
X0299280Y0094473D03*
D79*
X0299280Y0095560D03*
X0304622Y0086323D03*
X0307067Y0082158D03*
X0292760Y0084241D03*
X0292760Y0084331D03*
D80*
X0292579Y0082973D03*
X0300819Y0082249D03*
X0304531Y0085599D03*
X0305890Y0083154D03*
X0305980Y0083063D03*
X0299280Y0094563D03*
X0299280Y0094654D03*
D81*
X0295522Y0088859D03*
X0292715Y0084150D03*
X0292715Y0084060D03*
X0306931Y0082249D03*
D82*
X0305346Y0083607D03*
X0304441Y0085237D03*
X0292488Y0082430D03*
X0292488Y0082339D03*
X0299280Y0094111D03*
X0299280Y0094201D03*
D83*
X0296065Y0089221D03*
X0304486Y0085780D03*
X0306207Y0082882D03*
X0306297Y0082792D03*
X0300774Y0082339D03*
D84*
X0300638Y0082611D03*
X0306795Y0082339D03*
X0304622Y0086233D03*
X0292669Y0083969D03*
X0299280Y0095378D03*
X0299280Y0095469D03*
D85*
X0299280Y0095107D03*
X0299280Y0095016D03*
X0304531Y0085961D03*
X0306524Y0082611D03*
X0300728Y0082430D03*
X0292669Y0083607D03*
D86*
X0292669Y0083788D03*
X0292669Y0083878D03*
X0300638Y0082520D03*
X0306614Y0082520D03*
X0306705Y0082430D03*
X0299280Y0095197D03*
X0299280Y0095288D03*
D87*
X0299280Y0094292D03*
X0304441Y0085327D03*
X0305528Y0083426D03*
X0292488Y0082611D03*
X0292488Y0082520D03*
D88*
X0292533Y0082701D03*
X0304486Y0085418D03*
X0305663Y0083335D03*
X0296337Y0089312D03*
D89*
X0295884Y0089130D03*
X0292624Y0083516D03*
X0292624Y0083426D03*
X0306388Y0082701D03*
D90*
X0304486Y0085508D03*
X0292533Y0082882D03*
X0292533Y0082792D03*
D91*
X0292579Y0083154D03*
X0292579Y0083245D03*
X0304531Y0085689D03*
X0306071Y0082973D03*
X0299280Y0094745D03*
X0299280Y0094835D03*
D92*
X0292533Y0083063D03*
D93*
X0295612Y0083245D03*
X0295612Y0083335D03*
X0295612Y0083426D03*
X0295612Y0083516D03*
X0295612Y0083607D03*
X0295612Y0083697D03*
X0295612Y0083788D03*
X0295612Y0083878D03*
X0295612Y0083969D03*
X0295612Y0084060D03*
X0295612Y0084150D03*
X0295612Y0084241D03*
X0295612Y0084331D03*
X0295703Y0084603D03*
X0295793Y0084784D03*
X0295974Y0085056D03*
X0296337Y0085599D03*
X0296880Y0085237D03*
X0297423Y0084965D03*
X0297333Y0084784D03*
X0297242Y0084693D03*
X0297242Y0084603D03*
X0297152Y0084512D03*
X0297152Y0084422D03*
X0297152Y0084331D03*
X0297152Y0084241D03*
X0297152Y0084150D03*
X0297152Y0084060D03*
X0297242Y0083969D03*
X0297242Y0083878D03*
X0296608Y0083516D03*
X0296699Y0083335D03*
X0296518Y0083697D03*
X0296427Y0083878D03*
X0296427Y0083969D03*
X0296427Y0084060D03*
X0296427Y0084150D03*
X0296427Y0084241D03*
X0296427Y0084331D03*
X0296518Y0084512D03*
X0296608Y0084693D03*
X0297876Y0084693D03*
X0295703Y0088225D03*
X0293620Y0087138D03*
X0304848Y0087319D03*
D94*
X0304531Y0085871D03*
X0292579Y0083335D03*
X0299280Y0094926D03*
D95*
X0295703Y0089040D03*
X0304577Y0086052D03*
X0292624Y0083697D03*
D96*
X0304531Y0084331D03*
X0299280Y0093296D03*
X0299280Y0093386D03*
D97*
X0304667Y0086504D03*
X0293892Y0086414D03*
X0293801Y0086233D03*
X0293711Y0086142D03*
X0293620Y0085961D03*
X0293530Y0085780D03*
X0293439Y0085689D03*
X0293348Y0085508D03*
X0293258Y0085327D03*
X0293167Y0085237D03*
X0293167Y0085146D03*
X0293077Y0085056D03*
X0292986Y0084965D03*
X0292986Y0084875D03*
X0292896Y0084784D03*
X0292896Y0084693D03*
D98*
X0304396Y0085146D03*
D99*
X0304577Y0086142D03*
X0295612Y0088949D03*
D100*
X0297831Y0089764D03*
X0299280Y0092209D03*
X0299280Y0092300D03*
D101*
X0298238Y0089945D03*
D102*
X0298419Y0090036D03*
D103*
X0298646Y0090217D03*
X0299280Y0091304D03*
X0299280Y0091394D03*
D104*
X0299234Y0090670D03*
D105*
X0299280Y0091756D03*
X0299280Y0091847D03*
D106*
X0299280Y0091937D03*
D107*
X0068548Y0109372D02*
X0068122Y0108945D01*
X0066843Y0108945D01*
X0066843Y0108093D02*
X0066843Y0110651D01*
X0068122Y0110651D01*
X0068548Y0110224D01*
X0068548Y0109372D01*
X0066011Y0108519D02*
X0066011Y0110651D01*
X0064305Y0110651D02*
X0064305Y0108519D01*
X0064732Y0108093D01*
X0065584Y0108093D01*
X0066011Y0108519D01*
X0063473Y0108093D02*
X0061768Y0108093D01*
X0061768Y0110651D01*
X0063473Y0110651D01*
X0062620Y0109372D02*
X0061768Y0109372D01*
X0060936Y0110651D02*
X0059230Y0108945D01*
X0059656Y0109372D02*
X0060936Y0108093D01*
X0059230Y0108093D02*
X0059230Y0110651D01*
X0058398Y0109798D02*
X0057545Y0110651D01*
X0056693Y0109798D01*
X0056693Y0108093D01*
X0055860Y0108093D02*
X0055860Y0110651D01*
X0056693Y0109372D02*
X0058398Y0109372D01*
X0058398Y0109798D02*
X0058398Y0108093D01*
X0055860Y0108093D02*
X0055008Y0108945D01*
X0054155Y0108093D01*
X0054155Y0110651D01*
X0045478Y0110651D02*
X0043773Y0110651D01*
X0042940Y0110651D02*
X0041235Y0110651D01*
X0041235Y0108093D01*
X0042940Y0108093D01*
X0042088Y0109372D02*
X0041235Y0109372D01*
X0040403Y0108945D02*
X0040403Y0108519D01*
X0039976Y0108093D01*
X0039124Y0108093D01*
X0038697Y0108519D01*
X0037865Y0108093D02*
X0036160Y0108093D01*
X0036160Y0110651D01*
X0037865Y0110651D01*
X0038697Y0110224D02*
X0038697Y0109798D01*
X0039124Y0109372D01*
X0039976Y0109372D01*
X0040403Y0108945D01*
X0040403Y0110224D02*
X0039976Y0110651D01*
X0039124Y0110651D01*
X0038697Y0110224D01*
X0037012Y0109372D02*
X0036160Y0109372D01*
X0035328Y0109372D02*
X0035328Y0110224D01*
X0034901Y0110651D01*
X0033622Y0110651D01*
X0033622Y0108093D01*
X0033622Y0108945D02*
X0034901Y0108945D01*
X0035328Y0109372D01*
X0034475Y0108945D02*
X0035328Y0108093D01*
X0032327Y0105565D02*
X0032327Y0105139D01*
X0032327Y0104286D02*
X0031900Y0104286D01*
X0032327Y0104286D02*
X0032327Y0102581D01*
X0032753Y0102581D02*
X0031900Y0102581D01*
X0031068Y0102581D02*
X0029789Y0102581D01*
X0029363Y0103007D01*
X0029363Y0103860D01*
X0029789Y0104286D01*
X0031068Y0104286D01*
X0031068Y0102154D01*
X0030642Y0101728D01*
X0030216Y0101728D01*
X0027248Y0102581D02*
X0027248Y0104286D01*
X0027248Y0103434D02*
X0028101Y0104286D01*
X0028527Y0104286D01*
X0026416Y0103860D02*
X0026416Y0102581D01*
X0025137Y0102581D01*
X0024711Y0103007D01*
X0025137Y0103434D01*
X0026416Y0103434D01*
X0026416Y0103860D02*
X0025990Y0104286D01*
X0025137Y0104286D01*
X0023878Y0103860D02*
X0023878Y0102581D01*
X0023878Y0103860D02*
X0023452Y0104286D01*
X0022599Y0104286D01*
X0022173Y0103860D01*
X0021341Y0104713D02*
X0020914Y0105139D01*
X0020062Y0105139D01*
X0019635Y0104713D01*
X0019635Y0103007D01*
X0020062Y0102581D01*
X0020914Y0102581D01*
X0021341Y0103007D01*
X0022173Y0102581D02*
X0022173Y0105139D01*
X0033592Y0104286D02*
X0033592Y0102581D01*
X0033592Y0104286D02*
X0034871Y0104286D01*
X0035298Y0103860D01*
X0035298Y0102581D01*
X0036130Y0103007D02*
X0036130Y0103860D01*
X0036556Y0104286D01*
X0037835Y0104286D01*
X0037835Y0102154D01*
X0037409Y0101728D01*
X0036983Y0101728D01*
X0036556Y0102581D02*
X0037835Y0102581D01*
X0036556Y0102581D02*
X0036130Y0103007D01*
X0044625Y0108093D02*
X0044625Y0110651D01*
X0030959Y0082042D02*
X0029680Y0082042D01*
X0029254Y0081616D01*
X0029680Y0081189D01*
X0030533Y0081189D01*
X0030959Y0080763D01*
X0030533Y0080337D01*
X0029254Y0080337D01*
X0028422Y0080337D02*
X0028422Y0082042D01*
X0026716Y0082042D02*
X0026716Y0080763D01*
X0027142Y0080337D01*
X0028422Y0080337D01*
X0025877Y0080337D02*
X0025451Y0080763D01*
X0025451Y0082468D01*
X0025877Y0082042D02*
X0025024Y0082042D01*
X0024192Y0081616D02*
X0024192Y0080337D01*
X0022913Y0080337D01*
X0022487Y0080763D01*
X0022913Y0081189D01*
X0024192Y0081189D01*
X0024192Y0081616D02*
X0023766Y0082042D01*
X0022913Y0082042D01*
X0021648Y0082042D02*
X0020795Y0082042D01*
X0021221Y0082468D02*
X0021221Y0080763D01*
X0021648Y0080337D01*
X0019963Y0080763D02*
X0019537Y0080337D01*
X0018684Y0080337D01*
X0018257Y0080763D01*
X0018684Y0081616D02*
X0019537Y0081616D01*
X0019963Y0081189D01*
X0019963Y0080763D01*
X0018684Y0081616D02*
X0018257Y0082042D01*
X0018257Y0082468D01*
X0018684Y0082895D01*
X0019537Y0082895D01*
X0019963Y0082468D01*
X0019340Y0067344D02*
X0019766Y0066917D01*
X0019766Y0066065D01*
X0019340Y0065638D01*
X0018061Y0065638D01*
X0018061Y0064786D02*
X0018061Y0067344D01*
X0019340Y0067344D01*
X0020598Y0066065D02*
X0020598Y0065212D01*
X0021025Y0064786D01*
X0021877Y0064786D01*
X0022304Y0065212D01*
X0022304Y0066065D01*
X0021877Y0066491D01*
X0021025Y0066491D01*
X0020598Y0066065D01*
X0023136Y0066491D02*
X0023136Y0065212D01*
X0023562Y0064786D01*
X0023989Y0065212D01*
X0024415Y0064786D01*
X0024841Y0065212D01*
X0024841Y0066491D01*
X0025673Y0066065D02*
X0025673Y0065212D01*
X0026100Y0064786D01*
X0026952Y0064786D01*
X0027379Y0065638D02*
X0025673Y0065638D01*
X0025673Y0066065D02*
X0026100Y0066491D01*
X0026952Y0066491D01*
X0027379Y0066065D01*
X0027379Y0065638D01*
X0028211Y0065638D02*
X0029064Y0066491D01*
X0029490Y0066491D01*
X0028211Y0066491D02*
X0028211Y0064786D01*
X0051804Y0046790D02*
X0052591Y0047577D01*
X0053378Y0046790D01*
X0053378Y0045216D01*
X0054160Y0045216D02*
X0054160Y0047577D01*
X0055340Y0047577D01*
X0055734Y0047183D01*
X0055734Y0046396D01*
X0055340Y0046003D01*
X0054160Y0046003D01*
X0054947Y0046003D02*
X0055734Y0045216D01*
X0056516Y0045216D02*
X0058090Y0045216D01*
X0058873Y0045216D02*
X0058873Y0047577D01*
X0060447Y0047577D01*
X0059660Y0046396D02*
X0058873Y0046396D01*
X0058090Y0047577D02*
X0056516Y0047577D01*
X0056516Y0045216D01*
X0056516Y0046396D02*
X0057303Y0046396D01*
X0053378Y0046396D02*
X0051804Y0046396D01*
X0051804Y0046790D02*
X0051804Y0045216D01*
X0062661Y0045657D02*
X0063055Y0045264D01*
X0063842Y0045264D01*
X0064235Y0045657D01*
X0064235Y0046444D01*
X0063448Y0046444D01*
X0062661Y0047231D02*
X0062661Y0045657D01*
X0062661Y0047231D02*
X0063055Y0047625D01*
X0063842Y0047625D01*
X0064235Y0047231D01*
X0065018Y0047625D02*
X0066592Y0045264D01*
X0066592Y0047625D01*
X0067374Y0047625D02*
X0068555Y0047625D01*
X0068948Y0047231D01*
X0068948Y0045657D01*
X0068555Y0045264D01*
X0067374Y0045264D01*
X0067374Y0047625D01*
X0065018Y0047625D02*
X0065018Y0045264D01*
D108*
X0307745Y0081516D03*
D109*
X0316053Y0035158D02*
X0021268Y0035158D01*
X0021026Y0035161D01*
X0020785Y0035170D01*
X0020544Y0035184D01*
X0020303Y0035205D01*
X0020063Y0035231D01*
X0019823Y0035263D01*
X0019584Y0035301D01*
X0019347Y0035344D01*
X0019110Y0035394D01*
X0018875Y0035449D01*
X0018641Y0035509D01*
X0018409Y0035576D01*
X0018178Y0035647D01*
X0017949Y0035725D01*
X0017722Y0035808D01*
X0017497Y0035896D01*
X0017274Y0035990D01*
X0017054Y0036089D01*
X0016836Y0036194D01*
X0016621Y0036303D01*
X0016408Y0036418D01*
X0016198Y0036538D01*
X0015992Y0036663D01*
X0015788Y0036793D01*
X0015587Y0036928D01*
X0015390Y0037068D01*
X0015196Y0037212D01*
X0015006Y0037361D01*
X0014820Y0037515D01*
X0014637Y0037673D01*
X0014458Y0037835D01*
X0014283Y0038002D01*
X0014112Y0038173D01*
X0013945Y0038348D01*
X0013783Y0038527D01*
X0013625Y0038710D01*
X0013471Y0038896D01*
X0013322Y0039086D01*
X0013178Y0039280D01*
X0013038Y0039477D01*
X0012903Y0039678D01*
X0012773Y0039882D01*
X0012648Y0040088D01*
X0012528Y0040298D01*
X0012413Y0040511D01*
X0012304Y0040726D01*
X0012199Y0040944D01*
X0012100Y0041164D01*
X0012006Y0041387D01*
X0011918Y0041612D01*
X0011835Y0041839D01*
X0011757Y0042068D01*
X0011686Y0042299D01*
X0011619Y0042531D01*
X0011559Y0042765D01*
X0011504Y0043000D01*
X0011454Y0043237D01*
X0011411Y0043474D01*
X0011373Y0043713D01*
X0011341Y0043953D01*
X0011315Y0044193D01*
X0011294Y0044434D01*
X0011280Y0044675D01*
X0011271Y0044916D01*
X0011268Y0045158D01*
X0011268Y0115158D01*
X0011271Y0115400D01*
X0011280Y0115641D01*
X0011294Y0115882D01*
X0011315Y0116123D01*
X0011341Y0116363D01*
X0011373Y0116603D01*
X0011411Y0116842D01*
X0011454Y0117079D01*
X0011504Y0117316D01*
X0011559Y0117551D01*
X0011619Y0117785D01*
X0011686Y0118017D01*
X0011757Y0118248D01*
X0011835Y0118477D01*
X0011918Y0118704D01*
X0012006Y0118929D01*
X0012100Y0119152D01*
X0012199Y0119372D01*
X0012304Y0119590D01*
X0012413Y0119805D01*
X0012528Y0120018D01*
X0012648Y0120228D01*
X0012773Y0120434D01*
X0012903Y0120638D01*
X0013038Y0120839D01*
X0013178Y0121036D01*
X0013322Y0121230D01*
X0013471Y0121420D01*
X0013625Y0121606D01*
X0013783Y0121789D01*
X0013945Y0121968D01*
X0014112Y0122143D01*
X0014283Y0122314D01*
X0014458Y0122481D01*
X0014637Y0122643D01*
X0014820Y0122801D01*
X0015006Y0122955D01*
X0015196Y0123104D01*
X0015390Y0123248D01*
X0015587Y0123388D01*
X0015788Y0123523D01*
X0015992Y0123653D01*
X0016198Y0123778D01*
X0016408Y0123898D01*
X0016621Y0124013D01*
X0016836Y0124122D01*
X0017054Y0124227D01*
X0017274Y0124326D01*
X0017497Y0124420D01*
X0017722Y0124508D01*
X0017949Y0124591D01*
X0018178Y0124669D01*
X0018409Y0124740D01*
X0018641Y0124807D01*
X0018875Y0124867D01*
X0019110Y0124922D01*
X0019347Y0124972D01*
X0019584Y0125015D01*
X0019823Y0125053D01*
X0020063Y0125085D01*
X0020303Y0125111D01*
X0020544Y0125132D01*
X0020785Y0125146D01*
X0021026Y0125155D01*
X0021268Y0125158D01*
X0315211Y0125158D01*
X0315477Y0125155D01*
X0315743Y0125145D01*
X0316009Y0125129D01*
X0316274Y0125107D01*
X0316539Y0125078D01*
X0316803Y0125042D01*
X0317066Y0125001D01*
X0317328Y0124953D01*
X0317588Y0124898D01*
X0317848Y0124838D01*
X0318105Y0124771D01*
X0318361Y0124698D01*
X0318615Y0124619D01*
X0318868Y0124533D01*
X0319118Y0124442D01*
X0319365Y0124345D01*
X0319611Y0124241D01*
X0319854Y0124132D01*
X0320094Y0124017D01*
X0320331Y0123896D01*
X0320565Y0123770D01*
X0320796Y0123637D01*
X0321024Y0123500D01*
X0321248Y0123356D01*
X0321469Y0123208D01*
X0321687Y0123054D01*
X0321900Y0122895D01*
X0322110Y0122731D01*
X0322315Y0122561D01*
X0322517Y0122387D01*
X0322714Y0122208D01*
X0322906Y0122025D01*
X0323095Y0121836D01*
X0323278Y0121644D01*
X0323457Y0121447D01*
X0323631Y0121245D01*
X0323801Y0121040D01*
X0323965Y0120830D01*
X0324124Y0120617D01*
X0324278Y0120399D01*
X0324426Y0120178D01*
X0324570Y0119954D01*
X0324707Y0119726D01*
X0324840Y0119495D01*
X0324966Y0119261D01*
X0325087Y0119024D01*
X0325202Y0118784D01*
X0325311Y0118541D01*
X0325415Y0118295D01*
X0325512Y0118048D01*
X0325603Y0117798D01*
X0325689Y0117545D01*
X0325768Y0117291D01*
X0325841Y0117035D01*
X0325908Y0116778D01*
X0325968Y0116518D01*
X0326023Y0116258D01*
X0326071Y0115996D01*
X0326112Y0115733D01*
X0326148Y0115469D01*
X0326177Y0115204D01*
X0326199Y0114939D01*
X0326215Y0114673D01*
X0326225Y0114407D01*
X0326228Y0114141D01*
X0326228Y0045333D01*
X0326225Y0045087D01*
X0326216Y0044841D01*
X0326201Y0044596D01*
X0326180Y0044351D01*
X0326154Y0044107D01*
X0326121Y0043863D01*
X0326083Y0043620D01*
X0326038Y0043378D01*
X0325988Y0043137D01*
X0325932Y0042898D01*
X0325871Y0042660D01*
X0325803Y0042424D01*
X0325730Y0042189D01*
X0325651Y0041956D01*
X0325567Y0041725D01*
X0325477Y0041496D01*
X0325381Y0041269D01*
X0325280Y0041045D01*
X0325174Y0040824D01*
X0325063Y0040604D01*
X0324946Y0040388D01*
X0324824Y0040175D01*
X0324696Y0039964D01*
X0324564Y0039757D01*
X0324427Y0039553D01*
X0324285Y0039352D01*
X0324138Y0039155D01*
X0323986Y0038962D01*
X0323830Y0038772D01*
X0323669Y0038586D01*
X0323504Y0038404D01*
X0323334Y0038226D01*
X0323160Y0038052D01*
X0322982Y0037882D01*
X0322800Y0037717D01*
X0322614Y0037556D01*
X0322424Y0037400D01*
X0322231Y0037248D01*
X0322034Y0037101D01*
X0321833Y0036959D01*
X0321629Y0036822D01*
X0321422Y0036690D01*
X0321211Y0036562D01*
X0320998Y0036440D01*
X0320782Y0036323D01*
X0320562Y0036212D01*
X0320341Y0036106D01*
X0320117Y0036005D01*
X0319890Y0035909D01*
X0319661Y0035819D01*
X0319430Y0035735D01*
X0319197Y0035656D01*
X0318962Y0035583D01*
X0318726Y0035515D01*
X0318488Y0035454D01*
X0318249Y0035398D01*
X0318008Y0035348D01*
X0317766Y0035303D01*
X0317523Y0035265D01*
X0317279Y0035232D01*
X0317035Y0035206D01*
X0316790Y0035185D01*
X0316545Y0035170D01*
X0316299Y0035161D01*
X0316053Y0035158D01*
X0196268Y0045158D02*
X0196270Y0045299D01*
X0196276Y0045440D01*
X0196286Y0045580D01*
X0196300Y0045720D01*
X0196318Y0045860D01*
X0196339Y0045999D01*
X0196365Y0046138D01*
X0196394Y0046276D01*
X0196428Y0046412D01*
X0196465Y0046548D01*
X0196506Y0046683D01*
X0196551Y0046817D01*
X0196600Y0046949D01*
X0196652Y0047080D01*
X0196708Y0047209D01*
X0196768Y0047336D01*
X0196831Y0047462D01*
X0196897Y0047586D01*
X0196968Y0047709D01*
X0197041Y0047829D01*
X0197118Y0047947D01*
X0197198Y0048063D01*
X0197282Y0048176D01*
X0197368Y0048287D01*
X0197458Y0048396D01*
X0197551Y0048502D01*
X0197646Y0048605D01*
X0197745Y0048706D01*
X0197846Y0048804D01*
X0197950Y0048899D01*
X0198057Y0048991D01*
X0198166Y0049080D01*
X0198278Y0049165D01*
X0198392Y0049248D01*
X0198508Y0049328D01*
X0198627Y0049404D01*
X0198748Y0049476D01*
X0198870Y0049546D01*
X0198995Y0049611D01*
X0199121Y0049674D01*
X0199249Y0049732D01*
X0199379Y0049787D01*
X0199510Y0049839D01*
X0199643Y0049886D01*
X0199777Y0049930D01*
X0199912Y0049971D01*
X0200048Y0050007D01*
X0200185Y0050039D01*
X0200323Y0050068D01*
X0200461Y0050093D01*
X0200601Y0050113D01*
X0200741Y0050130D01*
X0200881Y0050143D01*
X0201022Y0050152D01*
X0201162Y0050157D01*
X0201303Y0050158D01*
X0201444Y0050155D01*
X0201585Y0050148D01*
X0201725Y0050137D01*
X0201865Y0050122D01*
X0202005Y0050103D01*
X0202144Y0050081D01*
X0202282Y0050054D01*
X0202420Y0050024D01*
X0202556Y0049989D01*
X0202692Y0049951D01*
X0202826Y0049909D01*
X0202960Y0049863D01*
X0203092Y0049814D01*
X0203222Y0049760D01*
X0203351Y0049703D01*
X0203478Y0049643D01*
X0203604Y0049579D01*
X0203727Y0049511D01*
X0203849Y0049440D01*
X0203969Y0049366D01*
X0204086Y0049288D01*
X0204201Y0049207D01*
X0204314Y0049123D01*
X0204425Y0049036D01*
X0204533Y0048945D01*
X0204638Y0048852D01*
X0204741Y0048755D01*
X0204841Y0048656D01*
X0204938Y0048554D01*
X0205032Y0048449D01*
X0205123Y0048342D01*
X0205211Y0048232D01*
X0205296Y0048120D01*
X0205378Y0048005D01*
X0205457Y0047888D01*
X0205532Y0047769D01*
X0205604Y0047648D01*
X0205672Y0047525D01*
X0205737Y0047400D01*
X0205799Y0047273D01*
X0205856Y0047144D01*
X0205911Y0047014D01*
X0205961Y0046883D01*
X0206008Y0046750D01*
X0206051Y0046616D01*
X0206090Y0046480D01*
X0206125Y0046344D01*
X0206157Y0046207D01*
X0206184Y0046069D01*
X0206208Y0045930D01*
X0206228Y0045790D01*
X0206244Y0045650D01*
X0206256Y0045510D01*
X0206264Y0045369D01*
X0206268Y0045228D01*
X0206268Y0045088D01*
X0206264Y0044947D01*
X0206256Y0044806D01*
X0206244Y0044666D01*
X0206228Y0044526D01*
X0206208Y0044386D01*
X0206184Y0044247D01*
X0206157Y0044109D01*
X0206125Y0043972D01*
X0206090Y0043836D01*
X0206051Y0043700D01*
X0206008Y0043566D01*
X0205961Y0043433D01*
X0205911Y0043302D01*
X0205856Y0043172D01*
X0205799Y0043043D01*
X0205737Y0042916D01*
X0205672Y0042791D01*
X0205604Y0042668D01*
X0205532Y0042547D01*
X0205457Y0042428D01*
X0205378Y0042311D01*
X0205296Y0042196D01*
X0205211Y0042084D01*
X0205123Y0041974D01*
X0205032Y0041867D01*
X0204938Y0041762D01*
X0204841Y0041660D01*
X0204741Y0041561D01*
X0204638Y0041464D01*
X0204533Y0041371D01*
X0204425Y0041280D01*
X0204314Y0041193D01*
X0204201Y0041109D01*
X0204086Y0041028D01*
X0203969Y0040950D01*
X0203849Y0040876D01*
X0203727Y0040805D01*
X0203604Y0040737D01*
X0203478Y0040673D01*
X0203351Y0040613D01*
X0203222Y0040556D01*
X0203092Y0040502D01*
X0202960Y0040453D01*
X0202826Y0040407D01*
X0202692Y0040365D01*
X0202556Y0040327D01*
X0202420Y0040292D01*
X0202282Y0040262D01*
X0202144Y0040235D01*
X0202005Y0040213D01*
X0201865Y0040194D01*
X0201725Y0040179D01*
X0201585Y0040168D01*
X0201444Y0040161D01*
X0201303Y0040158D01*
X0201162Y0040159D01*
X0201022Y0040164D01*
X0200881Y0040173D01*
X0200741Y0040186D01*
X0200601Y0040203D01*
X0200461Y0040223D01*
X0200323Y0040248D01*
X0200185Y0040277D01*
X0200048Y0040309D01*
X0199912Y0040345D01*
X0199777Y0040386D01*
X0199643Y0040430D01*
X0199510Y0040477D01*
X0199379Y0040529D01*
X0199249Y0040584D01*
X0199121Y0040642D01*
X0198995Y0040705D01*
X0198870Y0040770D01*
X0198748Y0040840D01*
X0198627Y0040912D01*
X0198508Y0040988D01*
X0198392Y0041068D01*
X0198278Y0041151D01*
X0198166Y0041236D01*
X0198057Y0041325D01*
X0197950Y0041417D01*
X0197846Y0041512D01*
X0197745Y0041610D01*
X0197646Y0041711D01*
X0197551Y0041814D01*
X0197458Y0041920D01*
X0197368Y0042029D01*
X0197282Y0042140D01*
X0197198Y0042253D01*
X0197118Y0042369D01*
X0197041Y0042487D01*
X0196968Y0042607D01*
X0196897Y0042730D01*
X0196831Y0042854D01*
X0196768Y0042980D01*
X0196708Y0043107D01*
X0196652Y0043236D01*
X0196600Y0043367D01*
X0196551Y0043499D01*
X0196506Y0043633D01*
X0196465Y0043768D01*
X0196428Y0043904D01*
X0196394Y0044040D01*
X0196365Y0044178D01*
X0196339Y0044317D01*
X0196318Y0044456D01*
X0196300Y0044596D01*
X0196286Y0044736D01*
X0196276Y0044876D01*
X0196270Y0045017D01*
X0196268Y0045158D01*
X0030362Y0064489D02*
X0030364Y0064568D01*
X0030370Y0064647D01*
X0030380Y0064726D01*
X0030394Y0064804D01*
X0030411Y0064881D01*
X0030433Y0064957D01*
X0030458Y0065032D01*
X0030488Y0065105D01*
X0030520Y0065177D01*
X0030557Y0065248D01*
X0030597Y0065316D01*
X0030640Y0065382D01*
X0030686Y0065446D01*
X0030736Y0065508D01*
X0030789Y0065567D01*
X0030844Y0065623D01*
X0030903Y0065677D01*
X0030964Y0065727D01*
X0031027Y0065775D01*
X0031093Y0065819D01*
X0031161Y0065860D01*
X0031231Y0065897D01*
X0031302Y0065931D01*
X0031376Y0065961D01*
X0031450Y0065987D01*
X0031526Y0066009D01*
X0031603Y0066028D01*
X0031681Y0066043D01*
X0031759Y0066054D01*
X0031838Y0066061D01*
X0031917Y0066064D01*
X0031996Y0066063D01*
X0032075Y0066058D01*
X0032154Y0066049D01*
X0032232Y0066036D01*
X0032309Y0066019D01*
X0032386Y0065999D01*
X0032461Y0065974D01*
X0032535Y0065946D01*
X0032608Y0065914D01*
X0032678Y0065879D01*
X0032747Y0065840D01*
X0032814Y0065797D01*
X0032879Y0065751D01*
X0032941Y0065703D01*
X0033001Y0065651D01*
X0033058Y0065596D01*
X0033112Y0065538D01*
X0033163Y0065478D01*
X0033211Y0065415D01*
X0033256Y0065350D01*
X0033298Y0065282D01*
X0033336Y0065213D01*
X0033370Y0065142D01*
X0033401Y0065069D01*
X0033429Y0064994D01*
X0033452Y0064919D01*
X0033472Y0064842D01*
X0033488Y0064765D01*
X0033500Y0064686D01*
X0033508Y0064608D01*
X0033512Y0064529D01*
X0033512Y0064449D01*
X0033508Y0064370D01*
X0033500Y0064292D01*
X0033488Y0064213D01*
X0033472Y0064136D01*
X0033452Y0064059D01*
X0033429Y0063984D01*
X0033401Y0063909D01*
X0033370Y0063836D01*
X0033336Y0063765D01*
X0033298Y0063696D01*
X0033256Y0063628D01*
X0033211Y0063563D01*
X0033163Y0063500D01*
X0033112Y0063440D01*
X0033058Y0063382D01*
X0033001Y0063327D01*
X0032941Y0063275D01*
X0032879Y0063227D01*
X0032814Y0063181D01*
X0032747Y0063138D01*
X0032678Y0063099D01*
X0032608Y0063064D01*
X0032535Y0063032D01*
X0032461Y0063004D01*
X0032386Y0062979D01*
X0032309Y0062959D01*
X0032232Y0062942D01*
X0032154Y0062929D01*
X0032075Y0062920D01*
X0031996Y0062915D01*
X0031917Y0062914D01*
X0031838Y0062917D01*
X0031759Y0062924D01*
X0031681Y0062935D01*
X0031603Y0062950D01*
X0031526Y0062969D01*
X0031450Y0062991D01*
X0031376Y0063017D01*
X0031302Y0063047D01*
X0031231Y0063081D01*
X0031161Y0063118D01*
X0031093Y0063159D01*
X0031027Y0063203D01*
X0030964Y0063251D01*
X0030903Y0063301D01*
X0030844Y0063355D01*
X0030789Y0063411D01*
X0030736Y0063470D01*
X0030686Y0063532D01*
X0030640Y0063596D01*
X0030597Y0063662D01*
X0030557Y0063730D01*
X0030520Y0063801D01*
X0030488Y0063873D01*
X0030458Y0063946D01*
X0030433Y0064021D01*
X0030411Y0064097D01*
X0030394Y0064174D01*
X0030380Y0064252D01*
X0030370Y0064331D01*
X0030364Y0064410D01*
X0030362Y0064489D01*
X0030362Y0084174D02*
X0030364Y0084253D01*
X0030370Y0084332D01*
X0030380Y0084411D01*
X0030394Y0084489D01*
X0030411Y0084566D01*
X0030433Y0084642D01*
X0030458Y0084717D01*
X0030488Y0084790D01*
X0030520Y0084862D01*
X0030557Y0084933D01*
X0030597Y0085001D01*
X0030640Y0085067D01*
X0030686Y0085131D01*
X0030736Y0085193D01*
X0030789Y0085252D01*
X0030844Y0085308D01*
X0030903Y0085362D01*
X0030964Y0085412D01*
X0031027Y0085460D01*
X0031093Y0085504D01*
X0031161Y0085545D01*
X0031231Y0085582D01*
X0031302Y0085616D01*
X0031376Y0085646D01*
X0031450Y0085672D01*
X0031526Y0085694D01*
X0031603Y0085713D01*
X0031681Y0085728D01*
X0031759Y0085739D01*
X0031838Y0085746D01*
X0031917Y0085749D01*
X0031996Y0085748D01*
X0032075Y0085743D01*
X0032154Y0085734D01*
X0032232Y0085721D01*
X0032309Y0085704D01*
X0032386Y0085684D01*
X0032461Y0085659D01*
X0032535Y0085631D01*
X0032608Y0085599D01*
X0032678Y0085564D01*
X0032747Y0085525D01*
X0032814Y0085482D01*
X0032879Y0085436D01*
X0032941Y0085388D01*
X0033001Y0085336D01*
X0033058Y0085281D01*
X0033112Y0085223D01*
X0033163Y0085163D01*
X0033211Y0085100D01*
X0033256Y0085035D01*
X0033298Y0084967D01*
X0033336Y0084898D01*
X0033370Y0084827D01*
X0033401Y0084754D01*
X0033429Y0084679D01*
X0033452Y0084604D01*
X0033472Y0084527D01*
X0033488Y0084450D01*
X0033500Y0084371D01*
X0033508Y0084293D01*
X0033512Y0084214D01*
X0033512Y0084134D01*
X0033508Y0084055D01*
X0033500Y0083977D01*
X0033488Y0083898D01*
X0033472Y0083821D01*
X0033452Y0083744D01*
X0033429Y0083669D01*
X0033401Y0083594D01*
X0033370Y0083521D01*
X0033336Y0083450D01*
X0033298Y0083381D01*
X0033256Y0083313D01*
X0033211Y0083248D01*
X0033163Y0083185D01*
X0033112Y0083125D01*
X0033058Y0083067D01*
X0033001Y0083012D01*
X0032941Y0082960D01*
X0032879Y0082912D01*
X0032814Y0082866D01*
X0032747Y0082823D01*
X0032678Y0082784D01*
X0032608Y0082749D01*
X0032535Y0082717D01*
X0032461Y0082689D01*
X0032386Y0082664D01*
X0032309Y0082644D01*
X0032232Y0082627D01*
X0032154Y0082614D01*
X0032075Y0082605D01*
X0031996Y0082600D01*
X0031917Y0082599D01*
X0031838Y0082602D01*
X0031759Y0082609D01*
X0031681Y0082620D01*
X0031603Y0082635D01*
X0031526Y0082654D01*
X0031450Y0082676D01*
X0031376Y0082702D01*
X0031302Y0082732D01*
X0031231Y0082766D01*
X0031161Y0082803D01*
X0031093Y0082844D01*
X0031027Y0082888D01*
X0030964Y0082936D01*
X0030903Y0082986D01*
X0030844Y0083040D01*
X0030789Y0083096D01*
X0030736Y0083155D01*
X0030686Y0083217D01*
X0030640Y0083281D01*
X0030597Y0083347D01*
X0030557Y0083415D01*
X0030520Y0083486D01*
X0030488Y0083558D01*
X0030458Y0083631D01*
X0030433Y0083706D01*
X0030411Y0083782D01*
X0030394Y0083859D01*
X0030380Y0083937D01*
X0030370Y0084016D01*
X0030364Y0084095D01*
X0030362Y0084174D01*
X0196268Y0115158D02*
X0196270Y0115299D01*
X0196276Y0115440D01*
X0196286Y0115580D01*
X0196300Y0115720D01*
X0196318Y0115860D01*
X0196339Y0115999D01*
X0196365Y0116138D01*
X0196394Y0116276D01*
X0196428Y0116412D01*
X0196465Y0116548D01*
X0196506Y0116683D01*
X0196551Y0116817D01*
X0196600Y0116949D01*
X0196652Y0117080D01*
X0196708Y0117209D01*
X0196768Y0117336D01*
X0196831Y0117462D01*
X0196897Y0117586D01*
X0196968Y0117709D01*
X0197041Y0117829D01*
X0197118Y0117947D01*
X0197198Y0118063D01*
X0197282Y0118176D01*
X0197368Y0118287D01*
X0197458Y0118396D01*
X0197551Y0118502D01*
X0197646Y0118605D01*
X0197745Y0118706D01*
X0197846Y0118804D01*
X0197950Y0118899D01*
X0198057Y0118991D01*
X0198166Y0119080D01*
X0198278Y0119165D01*
X0198392Y0119248D01*
X0198508Y0119328D01*
X0198627Y0119404D01*
X0198748Y0119476D01*
X0198870Y0119546D01*
X0198995Y0119611D01*
X0199121Y0119674D01*
X0199249Y0119732D01*
X0199379Y0119787D01*
X0199510Y0119839D01*
X0199643Y0119886D01*
X0199777Y0119930D01*
X0199912Y0119971D01*
X0200048Y0120007D01*
X0200185Y0120039D01*
X0200323Y0120068D01*
X0200461Y0120093D01*
X0200601Y0120113D01*
X0200741Y0120130D01*
X0200881Y0120143D01*
X0201022Y0120152D01*
X0201162Y0120157D01*
X0201303Y0120158D01*
X0201444Y0120155D01*
X0201585Y0120148D01*
X0201725Y0120137D01*
X0201865Y0120122D01*
X0202005Y0120103D01*
X0202144Y0120081D01*
X0202282Y0120054D01*
X0202420Y0120024D01*
X0202556Y0119989D01*
X0202692Y0119951D01*
X0202826Y0119909D01*
X0202960Y0119863D01*
X0203092Y0119814D01*
X0203222Y0119760D01*
X0203351Y0119703D01*
X0203478Y0119643D01*
X0203604Y0119579D01*
X0203727Y0119511D01*
X0203849Y0119440D01*
X0203969Y0119366D01*
X0204086Y0119288D01*
X0204201Y0119207D01*
X0204314Y0119123D01*
X0204425Y0119036D01*
X0204533Y0118945D01*
X0204638Y0118852D01*
X0204741Y0118755D01*
X0204841Y0118656D01*
X0204938Y0118554D01*
X0205032Y0118449D01*
X0205123Y0118342D01*
X0205211Y0118232D01*
X0205296Y0118120D01*
X0205378Y0118005D01*
X0205457Y0117888D01*
X0205532Y0117769D01*
X0205604Y0117648D01*
X0205672Y0117525D01*
X0205737Y0117400D01*
X0205799Y0117273D01*
X0205856Y0117144D01*
X0205911Y0117014D01*
X0205961Y0116883D01*
X0206008Y0116750D01*
X0206051Y0116616D01*
X0206090Y0116480D01*
X0206125Y0116344D01*
X0206157Y0116207D01*
X0206184Y0116069D01*
X0206208Y0115930D01*
X0206228Y0115790D01*
X0206244Y0115650D01*
X0206256Y0115510D01*
X0206264Y0115369D01*
X0206268Y0115228D01*
X0206268Y0115088D01*
X0206264Y0114947D01*
X0206256Y0114806D01*
X0206244Y0114666D01*
X0206228Y0114526D01*
X0206208Y0114386D01*
X0206184Y0114247D01*
X0206157Y0114109D01*
X0206125Y0113972D01*
X0206090Y0113836D01*
X0206051Y0113700D01*
X0206008Y0113566D01*
X0205961Y0113433D01*
X0205911Y0113302D01*
X0205856Y0113172D01*
X0205799Y0113043D01*
X0205737Y0112916D01*
X0205672Y0112791D01*
X0205604Y0112668D01*
X0205532Y0112547D01*
X0205457Y0112428D01*
X0205378Y0112311D01*
X0205296Y0112196D01*
X0205211Y0112084D01*
X0205123Y0111974D01*
X0205032Y0111867D01*
X0204938Y0111762D01*
X0204841Y0111660D01*
X0204741Y0111561D01*
X0204638Y0111464D01*
X0204533Y0111371D01*
X0204425Y0111280D01*
X0204314Y0111193D01*
X0204201Y0111109D01*
X0204086Y0111028D01*
X0203969Y0110950D01*
X0203849Y0110876D01*
X0203727Y0110805D01*
X0203604Y0110737D01*
X0203478Y0110673D01*
X0203351Y0110613D01*
X0203222Y0110556D01*
X0203092Y0110502D01*
X0202960Y0110453D01*
X0202826Y0110407D01*
X0202692Y0110365D01*
X0202556Y0110327D01*
X0202420Y0110292D01*
X0202282Y0110262D01*
X0202144Y0110235D01*
X0202005Y0110213D01*
X0201865Y0110194D01*
X0201725Y0110179D01*
X0201585Y0110168D01*
X0201444Y0110161D01*
X0201303Y0110158D01*
X0201162Y0110159D01*
X0201022Y0110164D01*
X0200881Y0110173D01*
X0200741Y0110186D01*
X0200601Y0110203D01*
X0200461Y0110223D01*
X0200323Y0110248D01*
X0200185Y0110277D01*
X0200048Y0110309D01*
X0199912Y0110345D01*
X0199777Y0110386D01*
X0199643Y0110430D01*
X0199510Y0110477D01*
X0199379Y0110529D01*
X0199249Y0110584D01*
X0199121Y0110642D01*
X0198995Y0110705D01*
X0198870Y0110770D01*
X0198748Y0110840D01*
X0198627Y0110912D01*
X0198508Y0110988D01*
X0198392Y0111068D01*
X0198278Y0111151D01*
X0198166Y0111236D01*
X0198057Y0111325D01*
X0197950Y0111417D01*
X0197846Y0111512D01*
X0197745Y0111610D01*
X0197646Y0111711D01*
X0197551Y0111814D01*
X0197458Y0111920D01*
X0197368Y0112029D01*
X0197282Y0112140D01*
X0197198Y0112253D01*
X0197118Y0112369D01*
X0197041Y0112487D01*
X0196968Y0112607D01*
X0196897Y0112730D01*
X0196831Y0112854D01*
X0196768Y0112980D01*
X0196708Y0113107D01*
X0196652Y0113236D01*
X0196600Y0113367D01*
X0196551Y0113499D01*
X0196506Y0113633D01*
X0196465Y0113768D01*
X0196428Y0113904D01*
X0196394Y0114040D01*
X0196365Y0114178D01*
X0196339Y0114317D01*
X0196318Y0114456D01*
X0196300Y0114596D01*
X0196286Y0114736D01*
X0196276Y0114876D01*
X0196270Y0115017D01*
X0196268Y0115158D01*
M02*
