G75*
%MOIN*%
%OFA0B0*%
%FSLAX25Y25*%
%IPPOS*%
%LPD*%
%AMOC8*
5,1,8,0,0,1.08239X$1,22.5*
%
%ADD10C,0.13780*%
%ADD11C,0.05906*%
%ADD12C,0.02756*%
%ADD13C,0.05020*%
%ADD14C,0.03740*%
%ADD15C,0.02362*%
%ADD16C,0.04134*%
%ADD17C,0.01969*%
%ADD18C,0.00787*%
D10*
X0021268Y0045158D03*
X0021268Y0115158D03*
D11*
X0076268Y0120158D03*
X0086268Y0120158D03*
X0096268Y0120158D03*
X0106268Y0120158D03*
X0116268Y0120158D03*
X0126268Y0120158D03*
X0136268Y0120158D03*
X0146268Y0120158D03*
X0156268Y0120158D03*
X0166268Y0120158D03*
X0176268Y0120158D03*
X0186268Y0120158D03*
X0186268Y0040158D03*
X0176268Y0040158D03*
X0166268Y0040158D03*
X0156268Y0040158D03*
X0146268Y0040158D03*
X0136268Y0040158D03*
X0126268Y0040158D03*
X0116268Y0040158D03*
X0106268Y0040158D03*
X0096268Y0040158D03*
X0086268Y0040158D03*
X0076268Y0040158D03*
X0066268Y0040158D03*
X0056268Y0040158D03*
X0046268Y0040158D03*
X0036268Y0040158D03*
D12*
X0153197Y0084567D03*
X0153197Y0090079D03*
X0153197Y0095591D03*
D13*
X0036071Y0088997D03*
X0036071Y0059666D03*
D14*
X0021110Y0059075D03*
X0021110Y0089587D03*
D15*
X0038236Y0112126D03*
X0038236Y0118032D03*
X0063433Y0118426D03*
X0063433Y0112520D03*
D16*
X0069640Y0121608D03*
X0053695Y0121608D03*
X0047839Y0121608D03*
X0031894Y0121608D03*
D17*
X0028354Y0122343D03*
X0043236Y0121004D03*
X0058709Y0121214D03*
X0081110Y0122973D03*
X0091346Y0122973D03*
X0101189Y0122973D03*
X0111031Y0122973D03*
X0121268Y0122973D03*
X0131110Y0122973D03*
X0141346Y0122973D03*
X0151189Y0122973D03*
X0161425Y0122973D03*
X0171268Y0122973D03*
X0181110Y0122973D03*
X0192134Y0122973D03*
X0209949Y0117776D03*
X0209594Y0114115D03*
X0218098Y0118170D03*
X0226642Y0113721D03*
X0218551Y0109961D03*
X0226031Y0108189D03*
X0228610Y0105847D03*
X0226425Y0103662D03*
X0225047Y0098937D03*
X0228512Y0093229D03*
X0228492Y0090079D03*
X0221878Y0091241D03*
X0211287Y0088682D03*
X0215815Y0086497D03*
X0210815Y0083760D03*
X0215992Y0080827D03*
X0207724Y0080040D03*
X0198846Y0083918D03*
X0188827Y0081615D03*
X0183098Y0081556D03*
X0176602Y0081418D03*
X0174654Y0087126D03*
X0176504Y0092382D03*
X0173472Y0097737D03*
X0177409Y0101693D03*
X0179772Y0105630D03*
X0181327Y0108524D03*
X0184890Y0107599D03*
X0196839Y0104036D03*
X0200264Y0106004D03*
X0204142Y0105296D03*
X0209476Y0109981D03*
X0188906Y0112737D03*
X0172744Y0115040D03*
X0169535Y0115473D03*
X0166169Y0109449D03*
X0160106Y0109548D03*
X0156937Y0109567D03*
X0148728Y0109371D03*
X0141583Y0109961D03*
X0134161Y0107441D03*
X0128354Y0105020D03*
X0132291Y0104036D03*
X0128315Y0101241D03*
X0124417Y0101319D03*
X0119417Y0097973D03*
X0113177Y0097638D03*
X0110500Y0101772D03*
X0110362Y0104843D03*
X0105421Y0104922D03*
X0091228Y0104705D03*
X0085677Y0102875D03*
X0083709Y0106241D03*
X0091720Y0111693D03*
X0091327Y0117205D03*
X0081091Y0116812D03*
X0073295Y0112599D03*
X0064417Y0106024D03*
X0058354Y0100453D03*
X0063236Y0097363D03*
X0065992Y0099725D03*
X0067862Y0097619D03*
X0075736Y0096044D03*
X0075854Y0098800D03*
X0081937Y0095394D03*
X0089654Y0096004D03*
X0101386Y0096024D03*
X0104772Y0092048D03*
X0109339Y0090315D03*
X0115756Y0091063D03*
X0118906Y0091398D03*
X0123079Y0088878D03*
X0119142Y0087914D03*
X0126031Y0084174D03*
X0119929Y0082008D03*
X0108906Y0086339D03*
X0100421Y0086339D03*
X0090776Y0086339D03*
X0077685Y0089961D03*
X0073591Y0087422D03*
X0066248Y0085434D03*
X0062567Y0090571D03*
X0062291Y0093367D03*
X0043551Y0097363D03*
X0041189Y0100906D03*
X0036465Y0103268D03*
X0029535Y0100375D03*
X0020441Y0100414D03*
X0018157Y0104252D03*
X0014083Y0108229D03*
X0032685Y0109036D03*
X0037409Y0108249D03*
X0043315Y0109823D03*
X0049063Y0111930D03*
X0056307Y0111831D03*
X0027803Y0095886D03*
X0036071Y0093327D03*
X0043079Y0093603D03*
X0036031Y0084587D03*
X0031898Y0079508D03*
X0021110Y0082796D03*
X0018472Y0081910D03*
X0018472Y0076792D03*
X0023728Y0072697D03*
X0028059Y0072835D03*
X0042823Y0073938D03*
X0048492Y0073957D03*
X0043748Y0069213D03*
X0053000Y0067048D03*
X0056543Y0067048D03*
X0060874Y0067048D03*
X0065205Y0067048D03*
X0068748Y0067048D03*
X0068748Y0063898D03*
X0068748Y0058780D03*
X0073866Y0057934D03*
X0068748Y0056024D03*
X0065008Y0056024D03*
X0067685Y0052776D03*
X0078197Y0052815D03*
X0088827Y0055178D03*
X0099142Y0049981D03*
X0105382Y0054508D03*
X0109299Y0057599D03*
X0116780Y0057599D03*
X0116780Y0054843D03*
X0121110Y0054449D03*
X0124102Y0055060D03*
X0133787Y0057599D03*
X0136091Y0055079D03*
X0135244Y0060158D03*
X0123669Y0063721D03*
X0118787Y0064804D03*
X0124516Y0067264D03*
X0130953Y0072166D03*
X0124575Y0073347D03*
X0129299Y0077953D03*
X0115756Y0077284D03*
X0108906Y0076497D03*
X0104457Y0079075D03*
X0098709Y0077107D03*
X0091228Y0076595D03*
X0087685Y0073071D03*
X0081602Y0072756D03*
X0068748Y0076497D03*
X0063709Y0070414D03*
X0053000Y0063898D03*
X0048433Y0061398D03*
X0053000Y0058780D03*
X0053000Y0056024D03*
X0056543Y0056024D03*
X0060087Y0056024D03*
X0055126Y0050926D03*
X0044772Y0050079D03*
X0041366Y0050119D03*
X0031346Y0044548D03*
X0031346Y0037461D03*
X0041189Y0037461D03*
X0050992Y0037382D03*
X0061228Y0037776D03*
X0071268Y0037619D03*
X0081110Y0037619D03*
X0090953Y0037619D03*
X0101189Y0037619D03*
X0111425Y0037619D03*
X0121268Y0037619D03*
X0131268Y0037520D03*
X0141268Y0037560D03*
X0151504Y0037560D03*
X0161228Y0037540D03*
X0171189Y0037560D03*
X0181425Y0037560D03*
X0192055Y0037953D03*
X0181425Y0043229D03*
X0171425Y0043229D03*
X0161268Y0043229D03*
X0157902Y0046182D03*
X0151425Y0043229D03*
X0131346Y0043229D03*
X0121268Y0043229D03*
X0112961Y0046182D03*
X0101425Y0043229D03*
X0071898Y0043426D03*
X0070323Y0046182D03*
X0061327Y0042343D03*
X0051091Y0043130D03*
X0014772Y0052619D03*
X0029142Y0059626D03*
X0021071Y0062776D03*
X0043354Y0079252D03*
X0082134Y0063052D03*
X0106543Y0070808D03*
X0109555Y0061359D03*
X0146661Y0066260D03*
X0152114Y0066004D03*
X0154181Y0063898D03*
X0157843Y0060119D03*
X0157902Y0055020D03*
X0153787Y0054056D03*
X0167567Y0052875D03*
X0175303Y0049981D03*
X0187232Y0053721D03*
X0188295Y0049981D03*
X0193906Y0050965D03*
X0197055Y0053327D03*
X0200244Y0054843D03*
X0210657Y0055571D03*
X0220028Y0052500D03*
X0215756Y0051241D03*
X0218965Y0049154D03*
X0221504Y0045788D03*
X0226209Y0045670D03*
X0223492Y0043504D03*
X0229004Y0043032D03*
X0232941Y0043032D03*
X0236425Y0043032D03*
X0240402Y0043819D03*
X0249752Y0040689D03*
X0255165Y0041851D03*
X0255362Y0038701D03*
X0259890Y0043583D03*
X0263453Y0043583D03*
X0267508Y0043583D03*
X0271307Y0043583D03*
X0274457Y0045886D03*
X0286504Y0044567D03*
X0290047Y0044646D03*
X0294378Y0044567D03*
X0313039Y0044312D03*
X0323276Y0048249D03*
X0323531Y0052323D03*
X0323531Y0055473D03*
X0322606Y0059351D03*
X0310283Y0058485D03*
X0305559Y0055335D03*
X0300165Y0059863D03*
X0294732Y0057993D03*
X0290598Y0060453D03*
X0294811Y0062461D03*
X0300047Y0064981D03*
X0305402Y0062461D03*
X0311465Y0065571D03*
X0316189Y0064784D03*
X0319102Y0065020D03*
X0313827Y0068603D03*
X0311543Y0070650D03*
X0305874Y0070650D03*
X0303197Y0068327D03*
X0308866Y0068052D03*
X0300323Y0071004D03*
X0297528Y0068327D03*
X0294575Y0071004D03*
X0288236Y0071083D03*
X0285283Y0068327D03*
X0291386Y0068327D03*
X0282724Y0071083D03*
X0279575Y0071871D03*
X0279063Y0068249D03*
X0277469Y0065060D03*
X0282449Y0062382D03*
X0268295Y0066871D03*
X0263630Y0065867D03*
X0260618Y0069075D03*
X0264319Y0069548D03*
X0255106Y0069115D03*
X0249594Y0069036D03*
X0244004Y0068997D03*
X0230303Y0064508D03*
X0226622Y0064686D03*
X0225224Y0067382D03*
X0223413Y0072107D03*
X0213453Y0074134D03*
X0211051Y0069745D03*
X0201110Y0067245D03*
X0198276Y0065867D03*
X0197154Y0068957D03*
X0187980Y0063563D03*
X0184496Y0063504D03*
X0172685Y0065867D03*
X0169831Y0066162D03*
X0171110Y0068623D03*
X0167685Y0070375D03*
X0173000Y0073662D03*
X0179772Y0071378D03*
X0183177Y0075453D03*
X0189201Y0075256D03*
X0201602Y0075256D03*
X0221681Y0077225D03*
X0227803Y0083780D03*
X0227606Y0086930D03*
X0240343Y0088504D03*
X0240362Y0085158D03*
X0240303Y0082008D03*
X0240539Y0078603D03*
X0240717Y0075158D03*
X0246839Y0075060D03*
X0257862Y0075256D03*
X0264280Y0077540D03*
X0257902Y0080611D03*
X0252350Y0080571D03*
X0264280Y0080689D03*
X0264201Y0085886D03*
X0257902Y0086083D03*
X0252272Y0086083D03*
X0264201Y0091910D03*
X0261858Y0093623D03*
X0258768Y0094863D03*
X0257902Y0092186D03*
X0255028Y0092304D03*
X0249260Y0093032D03*
X0252213Y0095000D03*
X0244713Y0093150D03*
X0265008Y0094804D03*
X0268551Y0095689D03*
X0275303Y0096437D03*
X0282370Y0099154D03*
X0288079Y0098406D03*
X0291386Y0098642D03*
X0294575Y0098563D03*
X0296898Y0095886D03*
X0300835Y0096674D03*
X0303984Y0095886D03*
X0308945Y0095532D03*
X0311465Y0098249D03*
X0313787Y0096123D03*
X0313118Y0093721D03*
X0315953Y0092343D03*
X0320008Y0092343D03*
X0323551Y0092225D03*
X0323650Y0088386D03*
X0323591Y0084351D03*
X0319929Y0084390D03*
X0314614Y0083682D03*
X0313039Y0080532D03*
X0310677Y0078170D03*
X0307528Y0077776D03*
X0304378Y0077776D03*
X0301228Y0077776D03*
X0297685Y0077776D03*
X0294142Y0077776D03*
X0290598Y0077776D03*
X0287055Y0077776D03*
X0283512Y0077776D03*
X0280362Y0078563D03*
X0280028Y0083839D03*
X0280028Y0086989D03*
X0280815Y0090532D03*
X0282783Y0094075D03*
X0285480Y0095886D03*
X0305795Y0098130D03*
X0306740Y0105335D03*
X0303197Y0105335D03*
X0299654Y0105335D03*
X0296110Y0105335D03*
X0292567Y0105335D03*
X0289024Y0105335D03*
X0285480Y0105335D03*
X0280933Y0104804D03*
X0277272Y0103918D03*
X0266583Y0106910D03*
X0257114Y0106910D03*
X0253925Y0107835D03*
X0249457Y0108386D03*
X0244496Y0107008D03*
X0242114Y0112737D03*
X0253965Y0115040D03*
X0249260Y0117914D03*
X0241602Y0118052D03*
X0236996Y0118170D03*
X0259476Y0122914D03*
X0264201Y0122914D03*
X0268925Y0122914D03*
X0273650Y0122914D03*
X0278374Y0122914D03*
X0283098Y0122914D03*
X0287823Y0122914D03*
X0292547Y0122914D03*
X0297272Y0122914D03*
X0301996Y0122914D03*
X0306720Y0122914D03*
X0311445Y0122914D03*
X0316169Y0122914D03*
X0319713Y0120945D03*
X0322469Y0118189D03*
X0323728Y0115000D03*
X0323335Y0112048D03*
X0319969Y0112028D03*
X0315480Y0112028D03*
X0313433Y0108091D03*
X0310283Y0105729D03*
X0308689Y0115434D03*
X0289398Y0119371D03*
X0278374Y0118977D03*
X0278374Y0113071D03*
X0203354Y0095060D03*
X0188453Y0088563D03*
X0185677Y0102875D03*
X0173256Y0106142D03*
X0140106Y0112993D03*
X0138039Y0115079D03*
X0132941Y0112678D03*
X0131091Y0117205D03*
X0121130Y0117756D03*
X0111012Y0117205D03*
X0111287Y0111221D03*
X0141209Y0117776D03*
X0128079Y0093032D03*
X0134142Y0085099D03*
X0151858Y0070630D03*
X0148787Y0070237D03*
X0171504Y0058780D03*
X0188079Y0058445D03*
X0205933Y0060689D03*
X0209693Y0063898D03*
X0220283Y0061004D03*
X0225047Y0061536D03*
X0228591Y0058386D03*
X0220795Y0055886D03*
X0232075Y0054075D03*
X0241327Y0054213D03*
X0244476Y0054213D03*
X0249083Y0053682D03*
X0253925Y0054016D03*
X0257094Y0052894D03*
X0260185Y0052697D03*
X0263374Y0053229D03*
X0275913Y0052953D03*
X0280047Y0053249D03*
X0283906Y0054941D03*
X0256366Y0046575D03*
X0208591Y0044804D03*
X0314614Y0054941D03*
D18*
X0019950Y0036836D02*
X0017443Y0037651D01*
X0015310Y0039200D01*
X0013761Y0041333D01*
X0012946Y0043840D01*
X0012843Y0045158D01*
X0012843Y0115158D01*
X0012946Y0116476D01*
X0013761Y0118983D01*
X0015310Y0121115D01*
X0017443Y0122665D01*
X0019950Y0123479D01*
X0021268Y0123583D01*
X0029052Y0123583D01*
X0028827Y0123247D01*
X0028566Y0122617D01*
X0028433Y0121948D01*
X0028433Y0121854D01*
X0031648Y0121854D01*
X0031648Y0121361D01*
X0032140Y0121361D01*
X0032140Y0118147D01*
X0032235Y0118147D01*
X0032903Y0118280D01*
X0033533Y0118541D01*
X0034100Y0118920D01*
X0034582Y0119402D01*
X0034960Y0119968D01*
X0035221Y0120598D01*
X0035354Y0121267D01*
X0035354Y0121361D01*
X0032140Y0121361D01*
X0032140Y0121854D01*
X0035354Y0121854D01*
X0035354Y0121948D01*
X0035221Y0122617D01*
X0034960Y0123247D01*
X0034736Y0123583D01*
X0044997Y0123583D01*
X0044772Y0123247D01*
X0044511Y0122617D01*
X0044378Y0121948D01*
X0044378Y0121854D01*
X0047592Y0121854D01*
X0047592Y0121361D01*
X0048085Y0121361D01*
X0048085Y0118147D01*
X0048179Y0118147D01*
X0048848Y0118280D01*
X0049478Y0118541D01*
X0050045Y0118920D01*
X0050527Y0119402D01*
X0050905Y0119968D01*
X0050989Y0120169D01*
X0051109Y0119879D01*
X0051967Y0119021D01*
X0053088Y0118556D01*
X0054302Y0118556D01*
X0055424Y0119021D01*
X0056282Y0119879D01*
X0056740Y0120986D01*
X0056740Y0120398D01*
X0057893Y0119245D01*
X0059524Y0119245D01*
X0060677Y0120398D01*
X0060677Y0122029D01*
X0059524Y0123182D01*
X0057893Y0123182D01*
X0056746Y0122036D01*
X0056746Y0122214D01*
X0056282Y0123336D01*
X0056035Y0123583D01*
X0067301Y0123583D01*
X0067053Y0123336D01*
X0066589Y0122214D01*
X0066589Y0121001D01*
X0067053Y0119879D01*
X0067912Y0119021D01*
X0069033Y0118556D01*
X0070247Y0118556D01*
X0071369Y0119021D01*
X0072227Y0119879D01*
X0072331Y0120130D01*
X0072331Y0119375D01*
X0072930Y0117928D01*
X0074038Y0116820D01*
X0075485Y0116221D01*
X0077051Y0116221D01*
X0078498Y0116820D01*
X0079605Y0117928D01*
X0080205Y0119375D01*
X0080205Y0120941D01*
X0079605Y0122388D01*
X0078498Y0123496D01*
X0078286Y0123583D01*
X0084249Y0123583D01*
X0084038Y0123496D01*
X0082930Y0122388D01*
X0082331Y0120941D01*
X0082331Y0119375D01*
X0082930Y0117928D01*
X0084038Y0116820D01*
X0085485Y0116221D01*
X0087051Y0116221D01*
X0088498Y0116820D01*
X0089605Y0117928D01*
X0090205Y0119375D01*
X0090205Y0120941D01*
X0089605Y0122388D01*
X0088498Y0123496D01*
X0088286Y0123583D01*
X0094249Y0123583D01*
X0094038Y0123496D01*
X0092930Y0122388D01*
X0092331Y0120941D01*
X0092331Y0119375D01*
X0092930Y0117928D01*
X0094038Y0116820D01*
X0095485Y0116221D01*
X0097051Y0116221D01*
X0098498Y0116820D01*
X0099605Y0117928D01*
X0100205Y0119375D01*
X0100205Y0120941D01*
X0099605Y0122388D01*
X0098498Y0123496D01*
X0098286Y0123583D01*
X0104249Y0123583D01*
X0104038Y0123496D01*
X0102930Y0122388D01*
X0102331Y0120941D01*
X0102331Y0119375D01*
X0102930Y0117928D01*
X0104038Y0116820D01*
X0105485Y0116221D01*
X0107051Y0116221D01*
X0108498Y0116820D01*
X0109605Y0117928D01*
X0110205Y0119375D01*
X0110205Y0120941D01*
X0109605Y0122388D01*
X0108498Y0123496D01*
X0108286Y0123583D01*
X0114249Y0123583D01*
X0114038Y0123496D01*
X0112930Y0122388D01*
X0112331Y0120941D01*
X0112331Y0119375D01*
X0112930Y0117928D01*
X0114038Y0116820D01*
X0115485Y0116221D01*
X0117051Y0116221D01*
X0118498Y0116820D01*
X0119605Y0117928D01*
X0120205Y0119375D01*
X0120205Y0120941D01*
X0119605Y0122388D01*
X0118498Y0123496D01*
X0118286Y0123583D01*
X0124249Y0123583D01*
X0124038Y0123496D01*
X0122930Y0122388D01*
X0122331Y0120941D01*
X0122331Y0119375D01*
X0122930Y0117928D01*
X0124038Y0116820D01*
X0125485Y0116221D01*
X0127051Y0116221D01*
X0128498Y0116820D01*
X0129605Y0117928D01*
X0130205Y0119375D01*
X0130205Y0120941D01*
X0129605Y0122388D01*
X0128498Y0123496D01*
X0128286Y0123583D01*
X0134249Y0123583D01*
X0134038Y0123496D01*
X0132930Y0122388D01*
X0132331Y0120941D01*
X0132331Y0119375D01*
X0132930Y0117928D01*
X0134038Y0116820D01*
X0135485Y0116221D01*
X0136397Y0116221D01*
X0136071Y0115895D01*
X0136071Y0114264D01*
X0137224Y0113111D01*
X0138855Y0113111D01*
X0140008Y0114264D01*
X0140008Y0115895D01*
X0138855Y0117048D01*
X0138725Y0117048D01*
X0139605Y0117928D01*
X0140205Y0119375D01*
X0140205Y0120941D01*
X0139605Y0122388D01*
X0138498Y0123496D01*
X0138286Y0123583D01*
X0144249Y0123583D01*
X0144038Y0123496D01*
X0142930Y0122388D01*
X0142331Y0120941D01*
X0142331Y0119375D01*
X0142930Y0117928D01*
X0144038Y0116820D01*
X0145485Y0116221D01*
X0147051Y0116221D01*
X0148498Y0116820D01*
X0149605Y0117928D01*
X0150205Y0119375D01*
X0150205Y0120941D01*
X0149605Y0122388D01*
X0148498Y0123496D01*
X0148286Y0123583D01*
X0154249Y0123583D01*
X0154038Y0123496D01*
X0152930Y0122388D01*
X0152331Y0120941D01*
X0152331Y0119375D01*
X0152930Y0117928D01*
X0154038Y0116820D01*
X0155485Y0116221D01*
X0157051Y0116221D01*
X0158498Y0116820D01*
X0159605Y0117928D01*
X0160205Y0119375D01*
X0160205Y0120941D01*
X0159605Y0122388D01*
X0158498Y0123496D01*
X0158286Y0123583D01*
X0164249Y0123583D01*
X0164038Y0123496D01*
X0162930Y0122388D01*
X0162331Y0120941D01*
X0162331Y0119375D01*
X0162930Y0117928D01*
X0164038Y0116820D01*
X0165485Y0116221D01*
X0167051Y0116221D01*
X0167817Y0116538D01*
X0167567Y0116288D01*
X0167567Y0114658D01*
X0168720Y0113504D01*
X0170351Y0113504D01*
X0171504Y0114658D01*
X0171504Y0116288D01*
X0170351Y0117441D01*
X0169119Y0117441D01*
X0169605Y0117928D01*
X0170205Y0119375D01*
X0170205Y0120941D01*
X0169605Y0122388D01*
X0168498Y0123496D01*
X0168286Y0123583D01*
X0174249Y0123583D01*
X0174038Y0123496D01*
X0172930Y0122388D01*
X0172331Y0120941D01*
X0172331Y0119375D01*
X0172930Y0117928D01*
X0174038Y0116820D01*
X0175485Y0116221D01*
X0177051Y0116221D01*
X0178498Y0116820D01*
X0179605Y0117928D01*
X0180205Y0119375D01*
X0180205Y0120941D01*
X0179605Y0122388D01*
X0178498Y0123496D01*
X0178286Y0123583D01*
X0184249Y0123583D01*
X0184038Y0123496D01*
X0182930Y0122388D01*
X0182331Y0120941D01*
X0182331Y0119375D01*
X0182930Y0117928D01*
X0184038Y0116820D01*
X0185485Y0116221D01*
X0187051Y0116221D01*
X0188498Y0116820D01*
X0189605Y0117928D01*
X0190205Y0119375D01*
X0190205Y0120941D01*
X0189605Y0122388D01*
X0188498Y0123496D01*
X0188286Y0123583D01*
X0315211Y0123583D01*
X0316688Y0123467D01*
X0319498Y0122554D01*
X0321888Y0120817D01*
X0323624Y0118427D01*
X0324537Y0115618D01*
X0324654Y0114141D01*
X0324654Y0045333D01*
X0324548Y0043988D01*
X0323716Y0041429D01*
X0322134Y0039252D01*
X0319958Y0037670D01*
X0317398Y0036839D01*
X0316053Y0036733D01*
X0188286Y0036733D01*
X0188498Y0036820D01*
X0189605Y0037928D01*
X0190205Y0039375D01*
X0190205Y0040941D01*
X0189605Y0042388D01*
X0188498Y0043496D01*
X0187051Y0044095D01*
X0185485Y0044095D01*
X0184038Y0043496D01*
X0182930Y0042388D01*
X0182331Y0040941D01*
X0182331Y0039375D01*
X0182930Y0037928D01*
X0184038Y0036820D01*
X0184249Y0036733D01*
X0178286Y0036733D01*
X0178498Y0036820D01*
X0179605Y0037928D01*
X0180205Y0039375D01*
X0180205Y0040941D01*
X0179605Y0042388D01*
X0178498Y0043496D01*
X0177051Y0044095D01*
X0175485Y0044095D01*
X0174038Y0043496D01*
X0172930Y0042388D01*
X0172331Y0040941D01*
X0172331Y0039375D01*
X0172930Y0037928D01*
X0174038Y0036820D01*
X0174249Y0036733D01*
X0168286Y0036733D01*
X0168498Y0036820D01*
X0169605Y0037928D01*
X0170205Y0039375D01*
X0170205Y0040941D01*
X0169605Y0042388D01*
X0168498Y0043496D01*
X0167051Y0044095D01*
X0165485Y0044095D01*
X0164038Y0043496D01*
X0162930Y0042388D01*
X0162331Y0040941D01*
X0162331Y0039375D01*
X0162930Y0037928D01*
X0164038Y0036820D01*
X0164249Y0036733D01*
X0158286Y0036733D01*
X0158498Y0036820D01*
X0159605Y0037928D01*
X0160205Y0039375D01*
X0160205Y0040941D01*
X0159605Y0042388D01*
X0158498Y0043496D01*
X0157051Y0044095D01*
X0155485Y0044095D01*
X0154038Y0043496D01*
X0152930Y0042388D01*
X0152331Y0040941D01*
X0152331Y0039375D01*
X0152930Y0037928D01*
X0154038Y0036820D01*
X0154249Y0036733D01*
X0148286Y0036733D01*
X0148498Y0036820D01*
X0149605Y0037928D01*
X0150205Y0039375D01*
X0150205Y0040941D01*
X0149605Y0042388D01*
X0148498Y0043496D01*
X0147051Y0044095D01*
X0145485Y0044095D01*
X0144038Y0043496D01*
X0142930Y0042388D01*
X0142331Y0040941D01*
X0142331Y0039375D01*
X0142930Y0037928D01*
X0144038Y0036820D01*
X0144249Y0036733D01*
X0138286Y0036733D01*
X0138498Y0036820D01*
X0139605Y0037928D01*
X0140205Y0039375D01*
X0140205Y0040941D01*
X0139605Y0042388D01*
X0138498Y0043496D01*
X0137051Y0044095D01*
X0135485Y0044095D01*
X0134038Y0043496D01*
X0132930Y0042388D01*
X0132331Y0040941D01*
X0132331Y0039375D01*
X0132930Y0037928D01*
X0134038Y0036820D01*
X0134249Y0036733D01*
X0128286Y0036733D01*
X0128498Y0036820D01*
X0129605Y0037928D01*
X0130205Y0039375D01*
X0130205Y0040941D01*
X0129605Y0042388D01*
X0128498Y0043496D01*
X0127051Y0044095D01*
X0125485Y0044095D01*
X0124038Y0043496D01*
X0122930Y0042388D01*
X0122331Y0040941D01*
X0122331Y0039375D01*
X0122930Y0037928D01*
X0124038Y0036820D01*
X0124249Y0036733D01*
X0118286Y0036733D01*
X0118498Y0036820D01*
X0119605Y0037928D01*
X0120205Y0039375D01*
X0120205Y0040941D01*
X0119605Y0042388D01*
X0118498Y0043496D01*
X0117051Y0044095D01*
X0115485Y0044095D01*
X0114038Y0043496D01*
X0112930Y0042388D01*
X0112331Y0040941D01*
X0112331Y0039375D01*
X0112930Y0037928D01*
X0114038Y0036820D01*
X0114249Y0036733D01*
X0108286Y0036733D01*
X0108498Y0036820D01*
X0109605Y0037928D01*
X0110205Y0039375D01*
X0110205Y0040941D01*
X0109605Y0042388D01*
X0108498Y0043496D01*
X0107051Y0044095D01*
X0105485Y0044095D01*
X0104038Y0043496D01*
X0102930Y0042388D01*
X0102331Y0040941D01*
X0102331Y0039375D01*
X0102930Y0037928D01*
X0104038Y0036820D01*
X0104249Y0036733D01*
X0098286Y0036733D01*
X0098498Y0036820D01*
X0099605Y0037928D01*
X0100205Y0039375D01*
X0100205Y0040941D01*
X0099605Y0042388D01*
X0098498Y0043496D01*
X0097051Y0044095D01*
X0095485Y0044095D01*
X0094038Y0043496D01*
X0092930Y0042388D01*
X0092331Y0040941D01*
X0092331Y0039375D01*
X0092930Y0037928D01*
X0094038Y0036820D01*
X0094249Y0036733D01*
X0088286Y0036733D01*
X0088498Y0036820D01*
X0089605Y0037928D01*
X0090205Y0039375D01*
X0090205Y0040941D01*
X0089605Y0042388D01*
X0088498Y0043496D01*
X0087051Y0044095D01*
X0085485Y0044095D01*
X0084038Y0043496D01*
X0082930Y0042388D01*
X0082331Y0040941D01*
X0082331Y0039375D01*
X0082930Y0037928D01*
X0084038Y0036820D01*
X0084249Y0036733D01*
X0078286Y0036733D01*
X0078498Y0036820D01*
X0079605Y0037928D01*
X0080205Y0039375D01*
X0080205Y0040941D01*
X0079605Y0042388D01*
X0078498Y0043496D01*
X0077051Y0044095D01*
X0075485Y0044095D01*
X0074038Y0043496D01*
X0073866Y0043324D01*
X0073866Y0044241D01*
X0072713Y0045394D01*
X0072291Y0045394D01*
X0072291Y0046997D01*
X0071138Y0048150D01*
X0069507Y0048150D01*
X0068354Y0046997D01*
X0068354Y0045366D01*
X0069507Y0044213D01*
X0069929Y0044213D01*
X0069929Y0042610D01*
X0071082Y0041457D01*
X0072544Y0041457D01*
X0072331Y0040941D01*
X0072331Y0039375D01*
X0072930Y0037928D01*
X0074038Y0036820D01*
X0074249Y0036733D01*
X0068948Y0036733D01*
X0069099Y0036843D01*
X0069583Y0037326D01*
X0069985Y0037880D01*
X0070296Y0038490D01*
X0070507Y0039140D01*
X0070606Y0039764D01*
X0066661Y0039764D01*
X0066661Y0040552D01*
X0065874Y0040552D01*
X0065874Y0044496D01*
X0065250Y0044397D01*
X0064599Y0044186D01*
X0063990Y0043875D01*
X0063436Y0043473D01*
X0062952Y0042989D01*
X0062550Y0042436D01*
X0062240Y0041826D01*
X0062028Y0041176D01*
X0061929Y0040552D01*
X0065874Y0040552D01*
X0065874Y0039764D01*
X0061929Y0039764D01*
X0062028Y0039140D01*
X0062240Y0038490D01*
X0062550Y0037880D01*
X0062952Y0037326D01*
X0063436Y0036843D01*
X0063587Y0036733D01*
X0058286Y0036733D01*
X0058498Y0036820D01*
X0059605Y0037928D01*
X0060205Y0039375D01*
X0060205Y0040941D01*
X0059605Y0042388D01*
X0058498Y0043496D01*
X0057051Y0044095D01*
X0055485Y0044095D01*
X0054038Y0043496D01*
X0052930Y0042388D01*
X0052331Y0040941D01*
X0052331Y0039375D01*
X0052930Y0037928D01*
X0054038Y0036820D01*
X0054249Y0036733D01*
X0048286Y0036733D01*
X0048498Y0036820D01*
X0049605Y0037928D01*
X0050205Y0039375D01*
X0050205Y0040941D01*
X0049605Y0042388D01*
X0048498Y0043496D01*
X0047051Y0044095D01*
X0045485Y0044095D01*
X0044038Y0043496D01*
X0042930Y0042388D01*
X0042331Y0040941D01*
X0042331Y0039375D01*
X0042930Y0037928D01*
X0044038Y0036820D01*
X0044249Y0036733D01*
X0038286Y0036733D01*
X0038498Y0036820D01*
X0039605Y0037928D01*
X0040205Y0039375D01*
X0040205Y0040941D01*
X0039605Y0042388D01*
X0038498Y0043496D01*
X0037051Y0044095D01*
X0035485Y0044095D01*
X0034038Y0043496D01*
X0032930Y0042388D01*
X0032331Y0040941D01*
X0032331Y0039375D01*
X0032930Y0037928D01*
X0034038Y0036820D01*
X0034249Y0036733D01*
X0021268Y0036733D01*
X0019950Y0036836D01*
X0019701Y0037284D02*
X0022834Y0037284D01*
X0025728Y0038483D01*
X0027943Y0040698D01*
X0029142Y0043592D01*
X0029142Y0046724D01*
X0027943Y0049618D01*
X0025728Y0051833D01*
X0022834Y0053032D01*
X0019701Y0053032D01*
X0016807Y0051833D01*
X0014592Y0049618D01*
X0013394Y0046724D01*
X0013394Y0043592D01*
X0014592Y0040698D01*
X0016807Y0038483D01*
X0019701Y0037284D01*
X0019142Y0037516D02*
X0017859Y0037516D01*
X0017245Y0038302D02*
X0016547Y0038302D01*
X0016203Y0039088D02*
X0015466Y0039088D01*
X0015417Y0039873D02*
X0014821Y0039873D01*
X0014631Y0040659D02*
X0014250Y0040659D01*
X0014283Y0041445D02*
X0013724Y0041445D01*
X0013957Y0042231D02*
X0013469Y0042231D01*
X0013632Y0043017D02*
X0013214Y0043017D01*
X0013394Y0043803D02*
X0012958Y0043803D01*
X0012887Y0044589D02*
X0013394Y0044589D01*
X0013394Y0045375D02*
X0012843Y0045375D01*
X0012843Y0046161D02*
X0013394Y0046161D01*
X0013486Y0046947D02*
X0012843Y0046947D01*
X0012843Y0047733D02*
X0013811Y0047733D01*
X0014137Y0048518D02*
X0012843Y0048518D01*
X0012843Y0049304D02*
X0014462Y0049304D01*
X0015065Y0050090D02*
X0012843Y0050090D01*
X0012843Y0050876D02*
X0015850Y0050876D01*
X0016636Y0051662D02*
X0012843Y0051662D01*
X0012843Y0052448D02*
X0018292Y0052448D01*
X0024244Y0052448D02*
X0152611Y0052448D01*
X0152972Y0052087D02*
X0151819Y0053240D01*
X0151819Y0054871D01*
X0152972Y0056024D01*
X0154603Y0056024D01*
X0155756Y0054871D01*
X0155756Y0053240D01*
X0154603Y0052087D01*
X0152972Y0052087D01*
X0151825Y0053234D02*
X0122679Y0053234D01*
X0123079Y0053634D02*
X0121926Y0052481D01*
X0120295Y0052481D01*
X0119142Y0053634D01*
X0119142Y0055265D01*
X0120295Y0056418D01*
X0121926Y0056418D01*
X0123079Y0055265D01*
X0123079Y0053634D01*
X0123079Y0054020D02*
X0151819Y0054020D01*
X0151819Y0054806D02*
X0123079Y0054806D01*
X0122752Y0055592D02*
X0152540Y0055592D01*
X0155035Y0055592D02*
X0155933Y0055592D01*
X0155933Y0055836D02*
X0155933Y0054205D01*
X0157086Y0053052D01*
X0158717Y0053052D01*
X0159870Y0054205D01*
X0159870Y0055836D01*
X0158717Y0056989D01*
X0157086Y0056989D01*
X0155933Y0055836D01*
X0156475Y0056378D02*
X0135350Y0056378D01*
X0135756Y0056784D02*
X0135756Y0058189D01*
X0136059Y0058189D01*
X0137213Y0059343D01*
X0137213Y0060973D01*
X0136059Y0062126D01*
X0134429Y0062126D01*
X0133276Y0060973D01*
X0133276Y0059567D01*
X0132972Y0059567D01*
X0131819Y0058414D01*
X0131819Y0056784D01*
X0132972Y0055630D01*
X0134603Y0055630D01*
X0135756Y0056784D01*
X0135756Y0057164D02*
X0170337Y0057164D01*
X0170689Y0056812D02*
X0169535Y0057965D01*
X0169535Y0059595D01*
X0170689Y0060749D01*
X0172319Y0060749D01*
X0173472Y0059595D01*
X0173472Y0057965D01*
X0172319Y0056812D01*
X0170689Y0056812D01*
X0169551Y0057949D02*
X0135756Y0057949D01*
X0136605Y0058735D02*
X0156442Y0058735D01*
X0155874Y0059303D02*
X0157027Y0058150D01*
X0158658Y0058150D01*
X0159811Y0059303D01*
X0159811Y0060934D01*
X0158658Y0062087D01*
X0157027Y0062087D01*
X0155874Y0060934D01*
X0155874Y0059303D01*
X0155874Y0059521D02*
X0137213Y0059521D01*
X0137213Y0060307D02*
X0155874Y0060307D01*
X0156033Y0061093D02*
X0137093Y0061093D01*
X0136307Y0061879D02*
X0156819Y0061879D01*
X0155732Y0062665D02*
X0182552Y0062665D01*
X0182528Y0062689D02*
X0183681Y0061536D01*
X0185311Y0061536D01*
X0186268Y0062492D01*
X0187165Y0061595D01*
X0188796Y0061595D01*
X0189949Y0062748D01*
X0189949Y0064379D01*
X0188796Y0065532D01*
X0187165Y0065532D01*
X0186209Y0064576D01*
X0185311Y0065473D01*
X0183681Y0065473D01*
X0182528Y0064320D01*
X0182528Y0062689D01*
X0182528Y0063451D02*
X0156150Y0063451D01*
X0156150Y0063083D02*
X0154996Y0061930D01*
X0153366Y0061930D01*
X0152213Y0063083D01*
X0152213Y0064714D01*
X0153366Y0065867D01*
X0154996Y0065867D01*
X0156150Y0064714D01*
X0156150Y0063083D01*
X0156150Y0064237D02*
X0171531Y0064237D01*
X0171870Y0063898D02*
X0170717Y0065051D01*
X0170717Y0066654D01*
X0170295Y0066654D01*
X0169142Y0067807D01*
X0169142Y0069047D01*
X0168500Y0068406D01*
X0166870Y0068406D01*
X0165717Y0069559D01*
X0165717Y0071190D01*
X0166870Y0072343D01*
X0168500Y0072343D01*
X0169654Y0071190D01*
X0169654Y0069950D01*
X0170295Y0070591D01*
X0171926Y0070591D01*
X0173079Y0069438D01*
X0173079Y0067835D01*
X0173500Y0067835D01*
X0174654Y0066682D01*
X0174654Y0065051D01*
X0173500Y0063898D01*
X0171870Y0063898D01*
X0170745Y0065023D02*
X0155840Y0065023D01*
X0155055Y0065809D02*
X0170717Y0065809D01*
X0170717Y0066594D02*
X0148630Y0066594D01*
X0148630Y0067076D02*
X0147477Y0068229D01*
X0145846Y0068229D01*
X0144693Y0067076D01*
X0144693Y0065445D01*
X0145846Y0064292D01*
X0147477Y0064292D01*
X0148630Y0065445D01*
X0148630Y0067076D01*
X0148325Y0067380D02*
X0169568Y0067380D01*
X0169142Y0068166D02*
X0147539Y0068166D01*
X0145784Y0068166D02*
X0070413Y0068166D01*
X0070717Y0067863D02*
X0069563Y0069016D01*
X0067933Y0069016D01*
X0066976Y0068060D01*
X0066020Y0069016D01*
X0064389Y0069016D01*
X0063236Y0067863D01*
X0063236Y0066232D01*
X0064389Y0065079D01*
X0066020Y0065079D01*
X0066976Y0066036D01*
X0067539Y0065473D01*
X0066780Y0064714D01*
X0066780Y0063083D01*
X0067933Y0061930D01*
X0069563Y0061930D01*
X0070717Y0063083D01*
X0070717Y0064714D01*
X0069957Y0065473D01*
X0070717Y0066232D01*
X0070717Y0067863D01*
X0070717Y0067380D02*
X0144998Y0067380D01*
X0144693Y0066594D02*
X0070717Y0066594D01*
X0070293Y0065809D02*
X0144693Y0065809D01*
X0145115Y0065023D02*
X0070407Y0065023D01*
X0070717Y0064237D02*
X0152213Y0064237D01*
X0152213Y0063451D02*
X0070717Y0063451D01*
X0070299Y0062665D02*
X0152630Y0062665D01*
X0152522Y0065023D02*
X0148208Y0065023D01*
X0148630Y0065809D02*
X0153308Y0065809D01*
X0158866Y0061879D02*
X0183338Y0061879D01*
X0185655Y0061879D02*
X0186881Y0061879D01*
X0187263Y0060414D02*
X0186110Y0059261D01*
X0186110Y0057630D01*
X0187263Y0056477D01*
X0188894Y0056477D01*
X0190047Y0057630D01*
X0190047Y0059261D01*
X0188894Y0060414D01*
X0187263Y0060414D01*
X0187157Y0060307D02*
X0172761Y0060307D01*
X0173472Y0059521D02*
X0186371Y0059521D01*
X0186110Y0058735D02*
X0173472Y0058735D01*
X0173457Y0057949D02*
X0186110Y0057949D01*
X0186577Y0057164D02*
X0172671Y0057164D01*
X0169535Y0058735D02*
X0159243Y0058735D01*
X0159811Y0059521D02*
X0169535Y0059521D01*
X0170247Y0060307D02*
X0159811Y0060307D01*
X0159652Y0061093D02*
X0218315Y0061093D01*
X0218315Y0061820D02*
X0218315Y0060189D01*
X0219468Y0059036D01*
X0221099Y0059036D01*
X0222252Y0060189D01*
X0222252Y0061820D01*
X0221099Y0062973D01*
X0219468Y0062973D01*
X0218315Y0061820D01*
X0218374Y0061879D02*
X0189080Y0061879D01*
X0189866Y0062665D02*
X0208142Y0062665D01*
X0207724Y0063083D02*
X0208878Y0061930D01*
X0210508Y0061930D01*
X0211661Y0063083D01*
X0211661Y0064714D01*
X0210508Y0065867D01*
X0208878Y0065867D01*
X0207724Y0064714D01*
X0207724Y0063083D01*
X0207724Y0063451D02*
X0189949Y0063451D01*
X0189949Y0064237D02*
X0197122Y0064237D01*
X0197460Y0063898D02*
X0196307Y0065051D01*
X0196307Y0066682D01*
X0197460Y0067835D01*
X0199091Y0067835D01*
X0200244Y0066682D01*
X0200244Y0065051D01*
X0199091Y0063898D01*
X0197460Y0063898D01*
X0196336Y0065023D02*
X0189305Y0065023D01*
X0186656Y0065023D02*
X0185762Y0065023D01*
X0183230Y0065023D02*
X0174625Y0065023D01*
X0174654Y0065809D02*
X0196307Y0065809D01*
X0196307Y0066594D02*
X0174654Y0066594D01*
X0173955Y0067380D02*
X0197005Y0067380D01*
X0199546Y0067380D02*
X0262360Y0067380D01*
X0262815Y0067835D02*
X0261661Y0066682D01*
X0261661Y0065051D01*
X0262815Y0063898D01*
X0264445Y0063898D01*
X0265598Y0065051D01*
X0265598Y0066682D01*
X0264445Y0067835D01*
X0262815Y0067835D01*
X0261661Y0066594D02*
X0227497Y0066594D01*
X0227437Y0066654D02*
X0225807Y0066654D01*
X0224654Y0065501D01*
X0224654Y0063870D01*
X0225019Y0063504D01*
X0224232Y0063504D01*
X0223079Y0062351D01*
X0223079Y0060721D01*
X0224232Y0059567D01*
X0225863Y0059567D01*
X0227016Y0060721D01*
X0227016Y0062351D01*
X0226650Y0062717D01*
X0227437Y0062717D01*
X0228591Y0063870D01*
X0228591Y0065501D01*
X0227437Y0066654D01*
X0228283Y0065809D02*
X0261661Y0065809D01*
X0261690Y0065023D02*
X0228591Y0065023D01*
X0228591Y0064237D02*
X0262476Y0064237D01*
X0264784Y0064237D02*
X0324654Y0064237D01*
X0324654Y0065023D02*
X0265570Y0065023D01*
X0265598Y0065809D02*
X0324654Y0065809D01*
X0324654Y0066594D02*
X0265598Y0066594D01*
X0264900Y0067380D02*
X0324654Y0067380D01*
X0324654Y0068166D02*
X0173079Y0068166D01*
X0173079Y0068952D02*
X0324654Y0068952D01*
X0324654Y0069738D02*
X0180915Y0069738D01*
X0180587Y0069410D02*
X0181740Y0070563D01*
X0181740Y0072194D01*
X0180587Y0073347D01*
X0178956Y0073347D01*
X0177803Y0072194D01*
X0177803Y0070563D01*
X0178956Y0069410D01*
X0180587Y0069410D01*
X0181701Y0070524D02*
X0324654Y0070524D01*
X0324654Y0071310D02*
X0181740Y0071310D01*
X0181740Y0072096D02*
X0324654Y0072096D01*
X0324654Y0072882D02*
X0214984Y0072882D01*
X0215421Y0073319D02*
X0214268Y0072166D01*
X0212637Y0072166D01*
X0211484Y0073319D01*
X0211484Y0074950D01*
X0212637Y0076103D01*
X0214268Y0076103D01*
X0215421Y0074950D01*
X0215421Y0073319D01*
X0215421Y0073668D02*
X0324654Y0073668D01*
X0324654Y0074454D02*
X0215421Y0074454D01*
X0215131Y0075240D02*
X0324654Y0075240D01*
X0324654Y0076025D02*
X0214346Y0076025D01*
X0212560Y0076025D02*
X0185146Y0076025D01*
X0185146Y0076269D02*
X0183993Y0077422D01*
X0182362Y0077422D01*
X0181209Y0076269D01*
X0181209Y0074638D01*
X0182362Y0073485D01*
X0183993Y0073485D01*
X0185146Y0074638D01*
X0185146Y0076269D01*
X0184603Y0076811D02*
X0324654Y0076811D01*
X0324654Y0077597D02*
X0117724Y0077597D01*
X0117724Y0078099D02*
X0116571Y0079252D01*
X0114941Y0079252D01*
X0113787Y0078099D01*
X0113787Y0076469D01*
X0114941Y0075315D01*
X0116571Y0075315D01*
X0117724Y0076469D01*
X0117724Y0078099D01*
X0117441Y0078383D02*
X0206597Y0078383D01*
X0206909Y0078071D02*
X0208540Y0078071D01*
X0209693Y0079224D01*
X0209693Y0080855D01*
X0208540Y0082008D01*
X0206909Y0082008D01*
X0205756Y0080855D01*
X0205756Y0079224D01*
X0206909Y0078071D01*
X0205811Y0079169D02*
X0116655Y0079169D01*
X0114857Y0079169D02*
X0045323Y0079169D01*
X0045323Y0078437D02*
X0044170Y0077284D01*
X0042539Y0077284D01*
X0041386Y0078437D01*
X0041386Y0080068D01*
X0042539Y0081221D01*
X0044170Y0081221D01*
X0045323Y0080068D01*
X0045323Y0078437D01*
X0045269Y0078383D02*
X0067851Y0078383D01*
X0067933Y0078465D02*
X0066780Y0077312D01*
X0066780Y0075681D01*
X0067933Y0074528D01*
X0069563Y0074528D01*
X0070717Y0075681D01*
X0070717Y0077312D01*
X0069563Y0078465D01*
X0067933Y0078465D01*
X0067065Y0077597D02*
X0044483Y0077597D01*
X0042226Y0077597D02*
X0012843Y0077597D01*
X0012843Y0076811D02*
X0066780Y0076811D01*
X0066780Y0076025D02*
X0012843Y0076025D01*
X0012843Y0075240D02*
X0046991Y0075240D01*
X0046524Y0074773D02*
X0046524Y0073142D01*
X0047677Y0071989D01*
X0049308Y0071989D01*
X0050461Y0073142D01*
X0050461Y0074773D01*
X0049308Y0075926D01*
X0047677Y0075926D01*
X0046524Y0074773D01*
X0046524Y0074454D02*
X0024756Y0074454D01*
X0024544Y0074666D02*
X0022913Y0074666D01*
X0021760Y0073513D01*
X0021760Y0071882D01*
X0022913Y0070729D01*
X0024544Y0070729D01*
X0025697Y0071882D01*
X0025697Y0073513D01*
X0024544Y0074666D01*
X0025542Y0073668D02*
X0046524Y0073668D01*
X0046784Y0072882D02*
X0025697Y0072882D01*
X0025697Y0072096D02*
X0047570Y0072096D01*
X0049415Y0072096D02*
X0128984Y0072096D01*
X0128984Y0071350D02*
X0130137Y0070197D01*
X0131768Y0070197D01*
X0132921Y0071350D01*
X0132921Y0072981D01*
X0131768Y0074134D01*
X0130137Y0074134D01*
X0128984Y0072981D01*
X0128984Y0071350D01*
X0129025Y0071310D02*
X0025125Y0071310D01*
X0022332Y0071310D02*
X0012843Y0071310D01*
X0012843Y0072096D02*
X0021760Y0072096D01*
X0021760Y0072882D02*
X0012843Y0072882D01*
X0012843Y0073668D02*
X0021915Y0073668D01*
X0022701Y0074454D02*
X0012843Y0074454D01*
X0012843Y0078383D02*
X0041440Y0078383D01*
X0041386Y0079169D02*
X0012843Y0079169D01*
X0012843Y0079955D02*
X0041386Y0079955D01*
X0042059Y0080741D02*
X0012843Y0080741D01*
X0012843Y0081527D02*
X0019595Y0081527D01*
X0019142Y0081980D02*
X0020295Y0080827D01*
X0021926Y0080827D01*
X0023079Y0081980D01*
X0023079Y0083611D01*
X0021926Y0084764D01*
X0020295Y0084764D01*
X0019142Y0083611D01*
X0019142Y0081980D01*
X0019142Y0082313D02*
X0012843Y0082313D01*
X0012843Y0083099D02*
X0019142Y0083099D01*
X0019415Y0083885D02*
X0012843Y0083885D01*
X0012843Y0084670D02*
X0020201Y0084670D01*
X0020789Y0086323D02*
X0020963Y0086323D01*
X0020963Y0089439D01*
X0021258Y0089439D01*
X0021258Y0086323D01*
X0021432Y0086323D01*
X0022062Y0086449D01*
X0022656Y0086695D01*
X0023191Y0087052D01*
X0023645Y0087507D01*
X0024003Y0088041D01*
X0024249Y0088635D01*
X0024374Y0089266D01*
X0024374Y0089439D01*
X0021258Y0089439D01*
X0021258Y0089735D01*
X0020963Y0089735D01*
X0020963Y0092851D01*
X0020789Y0092851D01*
X0020158Y0092725D01*
X0019564Y0092479D01*
X0019030Y0092122D01*
X0018575Y0091668D01*
X0018218Y0091133D01*
X0017972Y0090539D01*
X0017846Y0089909D01*
X0017846Y0089735D01*
X0020963Y0089735D01*
X0020963Y0089439D01*
X0017846Y0089439D01*
X0017846Y0089266D01*
X0017972Y0088635D01*
X0018218Y0088041D01*
X0018575Y0087507D01*
X0019030Y0087052D01*
X0019564Y0086695D01*
X0020158Y0086449D01*
X0020789Y0086323D01*
X0020963Y0087028D02*
X0021258Y0087028D01*
X0021258Y0087814D02*
X0020963Y0087814D01*
X0020963Y0088600D02*
X0021258Y0088600D01*
X0021258Y0089386D02*
X0020963Y0089386D01*
X0021258Y0089735D02*
X0024374Y0089735D01*
X0024374Y0089909D01*
X0024249Y0090539D01*
X0024003Y0091133D01*
X0023645Y0091668D01*
X0023191Y0092122D01*
X0022656Y0092479D01*
X0022062Y0092725D01*
X0021432Y0092851D01*
X0021258Y0092851D01*
X0021258Y0089735D01*
X0021258Y0090172D02*
X0020963Y0090172D01*
X0020963Y0090958D02*
X0021258Y0090958D01*
X0021258Y0091744D02*
X0020963Y0091744D01*
X0020963Y0092530D02*
X0021258Y0092530D01*
X0022535Y0092530D02*
X0034400Y0092530D01*
X0034222Y0092456D02*
X0033582Y0092029D01*
X0033039Y0091485D01*
X0032612Y0090846D01*
X0032317Y0090135D01*
X0032169Y0089390D01*
X0035677Y0089390D01*
X0035677Y0088603D01*
X0032169Y0088603D01*
X0032317Y0087858D01*
X0032539Y0087323D01*
X0031311Y0087323D01*
X0030153Y0086844D01*
X0029267Y0085958D01*
X0028787Y0084800D01*
X0028787Y0083547D01*
X0029267Y0082390D01*
X0030153Y0081504D01*
X0031311Y0081024D01*
X0032563Y0081024D01*
X0033721Y0081504D01*
X0034607Y0082390D01*
X0035087Y0083547D01*
X0035087Y0084800D01*
X0034897Y0085258D01*
X0034932Y0085243D01*
X0035677Y0085095D01*
X0035677Y0088603D01*
X0036465Y0088603D01*
X0036465Y0089390D01*
X0039973Y0089390D01*
X0039824Y0090135D01*
X0039530Y0090846D01*
X0039103Y0091485D01*
X0038559Y0092029D01*
X0037920Y0092456D01*
X0037209Y0092750D01*
X0036465Y0092898D01*
X0036465Y0089390D01*
X0035677Y0089390D01*
X0035677Y0092898D01*
X0034932Y0092750D01*
X0034222Y0092456D01*
X0033298Y0091744D02*
X0023569Y0091744D01*
X0024075Y0090958D02*
X0032687Y0090958D01*
X0032333Y0090172D02*
X0024322Y0090172D01*
X0024374Y0089386D02*
X0035677Y0089386D01*
X0035677Y0090172D02*
X0036465Y0090172D01*
X0036465Y0090958D02*
X0035677Y0090958D01*
X0035677Y0091744D02*
X0036465Y0091744D01*
X0036465Y0092530D02*
X0035677Y0092530D01*
X0037742Y0092530D02*
X0114438Y0092530D01*
X0114941Y0093032D02*
X0113787Y0091879D01*
X0113787Y0090248D01*
X0114941Y0089095D01*
X0116571Y0089095D01*
X0117724Y0090248D01*
X0117724Y0091879D01*
X0116571Y0093032D01*
X0114941Y0093032D01*
X0113787Y0091744D02*
X0110694Y0091744D01*
X0110154Y0092284D02*
X0111307Y0091131D01*
X0111307Y0089500D01*
X0110154Y0088347D01*
X0108523Y0088347D01*
X0107370Y0089500D01*
X0107370Y0091131D01*
X0108523Y0092284D01*
X0110154Y0092284D01*
X0111307Y0090958D02*
X0113787Y0090958D01*
X0113864Y0090172D02*
X0111307Y0090172D01*
X0111193Y0089386D02*
X0114650Y0089386D01*
X0116862Y0089386D02*
X0117830Y0089386D01*
X0118326Y0089882D02*
X0117173Y0088729D01*
X0117173Y0087098D01*
X0118326Y0085945D01*
X0119957Y0085945D01*
X0121110Y0087098D01*
X0121110Y0088729D01*
X0119957Y0089882D01*
X0118326Y0089882D01*
X0117648Y0090172D02*
X0220163Y0090172D01*
X0219909Y0090425D02*
X0221063Y0089272D01*
X0222693Y0089272D01*
X0223846Y0090425D01*
X0223846Y0092056D01*
X0222693Y0093209D01*
X0221063Y0093209D01*
X0219909Y0092056D01*
X0219909Y0090425D01*
X0219909Y0090958D02*
X0177863Y0090958D01*
X0177319Y0090414D02*
X0178472Y0091567D01*
X0178472Y0093198D01*
X0177319Y0094351D01*
X0175689Y0094351D01*
X0174535Y0093198D01*
X0174535Y0091567D01*
X0175689Y0090414D01*
X0177319Y0090414D01*
X0178472Y0091744D02*
X0219909Y0091744D01*
X0220383Y0092530D02*
X0178472Y0092530D01*
X0178355Y0093316D02*
X0226543Y0093316D01*
X0226543Y0094044D02*
X0226543Y0092413D01*
X0227293Y0091664D01*
X0226524Y0090895D01*
X0226524Y0089264D01*
X0226889Y0088898D01*
X0226791Y0088898D01*
X0225638Y0087745D01*
X0225638Y0086114D01*
X0226496Y0085256D01*
X0225835Y0084595D01*
X0225835Y0082965D01*
X0226988Y0081812D01*
X0228619Y0081812D01*
X0229772Y0082965D01*
X0229772Y0084595D01*
X0228914Y0085453D01*
X0229575Y0086114D01*
X0229575Y0087745D01*
X0229209Y0088111D01*
X0229308Y0088111D01*
X0230461Y0089264D01*
X0230461Y0090895D01*
X0229711Y0091644D01*
X0230480Y0092413D01*
X0230480Y0094044D01*
X0229327Y0095197D01*
X0227696Y0095197D01*
X0226543Y0094044D01*
X0226601Y0094101D02*
X0177569Y0094101D01*
X0175439Y0094101D02*
X0129793Y0094101D01*
X0130047Y0093847D02*
X0128894Y0095000D01*
X0127263Y0095000D01*
X0126110Y0093847D01*
X0126110Y0092217D01*
X0127263Y0091063D01*
X0128894Y0091063D01*
X0130047Y0092217D01*
X0130047Y0093847D01*
X0130047Y0093316D02*
X0174653Y0093316D01*
X0174535Y0092530D02*
X0130047Y0092530D01*
X0129574Y0091744D02*
X0174535Y0091744D01*
X0175145Y0090958D02*
X0117724Y0090958D01*
X0117724Y0091744D02*
X0126583Y0091744D01*
X0126110Y0092530D02*
X0117074Y0092530D01*
X0107983Y0091744D02*
X0038844Y0091744D01*
X0039455Y0090958D02*
X0107370Y0090958D01*
X0107370Y0090172D02*
X0039809Y0090172D01*
X0039973Y0088603D02*
X0036465Y0088603D01*
X0036465Y0085095D01*
X0037209Y0085243D01*
X0037920Y0085537D01*
X0038559Y0085964D01*
X0039103Y0086508D01*
X0039530Y0087148D01*
X0039824Y0087858D01*
X0039973Y0088603D01*
X0039972Y0088600D02*
X0108270Y0088600D01*
X0108090Y0088308D02*
X0106937Y0087154D01*
X0106937Y0085524D01*
X0108090Y0084371D01*
X0109721Y0084371D01*
X0110874Y0085524D01*
X0110874Y0087154D01*
X0109721Y0088308D01*
X0108090Y0088308D01*
X0107597Y0087814D02*
X0039806Y0087814D01*
X0039450Y0087028D02*
X0106937Y0087028D01*
X0106937Y0086242D02*
X0038837Y0086242D01*
X0037725Y0085456D02*
X0107004Y0085456D01*
X0107790Y0084670D02*
X0035087Y0084670D01*
X0035087Y0083885D02*
X0119021Y0083885D01*
X0119114Y0083977D02*
X0117961Y0082824D01*
X0117961Y0081193D01*
X0119114Y0080040D01*
X0120745Y0080040D01*
X0121898Y0081193D01*
X0121898Y0082824D01*
X0120745Y0083977D01*
X0119114Y0083977D01*
X0118236Y0083099D02*
X0034901Y0083099D01*
X0034530Y0082313D02*
X0117961Y0082313D01*
X0117961Y0081527D02*
X0033744Y0081527D01*
X0030130Y0081527D02*
X0022625Y0081527D01*
X0023079Y0082313D02*
X0029344Y0082313D01*
X0028973Y0083099D02*
X0023079Y0083099D01*
X0022805Y0083885D02*
X0028787Y0083885D01*
X0028787Y0084670D02*
X0022019Y0084670D01*
X0023155Y0087028D02*
X0030598Y0087028D01*
X0029551Y0086242D02*
X0012843Y0086242D01*
X0012843Y0085456D02*
X0029059Y0085456D01*
X0032335Y0087814D02*
X0023851Y0087814D01*
X0024234Y0088600D02*
X0032170Y0088600D01*
X0035677Y0088600D02*
X0036465Y0088600D01*
X0036465Y0087814D02*
X0035677Y0087814D01*
X0035677Y0087028D02*
X0036465Y0087028D01*
X0036465Y0086242D02*
X0035677Y0086242D01*
X0035677Y0085456D02*
X0036465Y0085456D01*
X0036465Y0089386D02*
X0107484Y0089386D01*
X0110407Y0088600D02*
X0117173Y0088600D01*
X0117173Y0087814D02*
X0110214Y0087814D01*
X0110874Y0087028D02*
X0117243Y0087028D01*
X0118029Y0086242D02*
X0110874Y0086242D01*
X0110807Y0085456D02*
X0124530Y0085456D01*
X0124063Y0084989D02*
X0124063Y0083358D01*
X0125216Y0082205D01*
X0126847Y0082205D01*
X0128000Y0083358D01*
X0128000Y0084989D01*
X0126847Y0086142D01*
X0125216Y0086142D01*
X0124063Y0084989D01*
X0124063Y0084670D02*
X0110021Y0084670D01*
X0118413Y0080741D02*
X0044650Y0080741D01*
X0045323Y0079955D02*
X0175281Y0079955D01*
X0175787Y0079449D02*
X0177418Y0079449D01*
X0178571Y0080602D01*
X0178571Y0082233D01*
X0177418Y0083386D01*
X0175787Y0083386D01*
X0174634Y0082233D01*
X0174634Y0080602D01*
X0175787Y0079449D01*
X0174634Y0080741D02*
X0121446Y0080741D01*
X0121898Y0081527D02*
X0174634Y0081527D01*
X0174713Y0082313D02*
X0126954Y0082313D01*
X0127740Y0083099D02*
X0175499Y0083099D01*
X0177705Y0083099D02*
X0187527Y0083099D01*
X0188011Y0083583D02*
X0186858Y0082430D01*
X0186858Y0080799D01*
X0188011Y0079646D01*
X0189642Y0079646D01*
X0190795Y0080799D01*
X0190795Y0082430D01*
X0189642Y0083583D01*
X0188011Y0083583D01*
X0186858Y0082313D02*
X0178491Y0082313D01*
X0178571Y0081527D02*
X0186858Y0081527D01*
X0186917Y0080741D02*
X0178571Y0080741D01*
X0177923Y0079955D02*
X0187703Y0079955D01*
X0189951Y0079955D02*
X0205756Y0079955D01*
X0205756Y0080741D02*
X0190737Y0080741D01*
X0190795Y0081527D02*
X0206427Y0081527D01*
X0209021Y0081527D02*
X0214024Y0081527D01*
X0214024Y0081643D02*
X0214024Y0080012D01*
X0215177Y0078859D01*
X0216808Y0078859D01*
X0217961Y0080012D01*
X0217961Y0081643D01*
X0216808Y0082796D01*
X0215177Y0082796D01*
X0214024Y0081643D01*
X0214024Y0080741D02*
X0209693Y0080741D01*
X0209693Y0079955D02*
X0214080Y0079955D01*
X0214866Y0079169D02*
X0209638Y0079169D01*
X0208852Y0078383D02*
X0324654Y0078383D01*
X0324654Y0079169D02*
X0217118Y0079169D01*
X0217904Y0079955D02*
X0324654Y0079955D01*
X0324654Y0080741D02*
X0241820Y0080741D01*
X0242272Y0081193D02*
X0242272Y0082824D01*
X0241542Y0083554D01*
X0242331Y0084343D01*
X0242331Y0085973D01*
X0241463Y0086841D01*
X0242311Y0087689D01*
X0242311Y0089320D01*
X0241158Y0090473D01*
X0239527Y0090473D01*
X0238374Y0089320D01*
X0238374Y0087689D01*
X0239242Y0086821D01*
X0238394Y0085973D01*
X0238394Y0084343D01*
X0239124Y0083613D01*
X0238335Y0082824D01*
X0238335Y0081193D01*
X0239488Y0080040D01*
X0241119Y0080040D01*
X0242272Y0081193D01*
X0242272Y0081527D02*
X0324654Y0081527D01*
X0324654Y0082313D02*
X0242272Y0082313D01*
X0241997Y0083099D02*
X0324654Y0083099D01*
X0324654Y0083885D02*
X0241873Y0083885D01*
X0242331Y0084670D02*
X0324654Y0084670D01*
X0324654Y0085456D02*
X0242331Y0085456D01*
X0242062Y0086242D02*
X0324654Y0086242D01*
X0324654Y0087028D02*
X0241650Y0087028D01*
X0242311Y0087814D02*
X0324654Y0087814D01*
X0324654Y0088600D02*
X0242311Y0088600D01*
X0242245Y0089386D02*
X0324654Y0089386D01*
X0324654Y0090172D02*
X0241459Y0090172D01*
X0239226Y0090172D02*
X0230461Y0090172D01*
X0230461Y0089386D02*
X0238440Y0089386D01*
X0238374Y0088600D02*
X0229797Y0088600D01*
X0229506Y0087814D02*
X0238374Y0087814D01*
X0239035Y0087028D02*
X0229575Y0087028D01*
X0229575Y0086242D02*
X0238663Y0086242D01*
X0238394Y0085456D02*
X0228917Y0085456D01*
X0229697Y0084670D02*
X0238394Y0084670D01*
X0238852Y0083885D02*
X0229772Y0083885D01*
X0229772Y0083099D02*
X0238610Y0083099D01*
X0238335Y0082313D02*
X0229120Y0082313D01*
X0226487Y0082313D02*
X0217291Y0082313D01*
X0217961Y0081527D02*
X0238335Y0081527D01*
X0238787Y0080741D02*
X0217961Y0080741D01*
X0214694Y0082313D02*
X0212151Y0082313D01*
X0211630Y0081792D02*
X0212783Y0082945D01*
X0212783Y0084576D01*
X0211630Y0085729D01*
X0210000Y0085729D01*
X0208846Y0084576D01*
X0208846Y0082945D01*
X0210000Y0081792D01*
X0211630Y0081792D01*
X0212783Y0083099D02*
X0225835Y0083099D01*
X0225835Y0083885D02*
X0212783Y0083885D01*
X0212689Y0084670D02*
X0225910Y0084670D01*
X0226296Y0085456D02*
X0211903Y0085456D01*
X0209727Y0085456D02*
X0175767Y0085456D01*
X0175469Y0085158D02*
X0176622Y0086311D01*
X0176622Y0087942D01*
X0175469Y0089095D01*
X0173838Y0089095D01*
X0172685Y0087942D01*
X0172685Y0086311D01*
X0173838Y0085158D01*
X0175469Y0085158D01*
X0176553Y0086242D02*
X0225638Y0086242D01*
X0225638Y0087028D02*
X0176622Y0087028D01*
X0176622Y0087814D02*
X0225707Y0087814D01*
X0226493Y0088600D02*
X0175964Y0088600D01*
X0173343Y0088600D02*
X0121110Y0088600D01*
X0121110Y0087814D02*
X0172685Y0087814D01*
X0172685Y0087028D02*
X0121040Y0087028D01*
X0120254Y0086242D02*
X0172754Y0086242D01*
X0173540Y0085456D02*
X0127533Y0085456D01*
X0128000Y0084670D02*
X0208941Y0084670D01*
X0208846Y0083885D02*
X0128000Y0083885D01*
X0125109Y0082313D02*
X0121898Y0082313D01*
X0121623Y0083099D02*
X0124323Y0083099D01*
X0124063Y0083885D02*
X0120837Y0083885D01*
X0120454Y0089386D02*
X0220949Y0089386D01*
X0222807Y0089386D02*
X0226524Y0089386D01*
X0226524Y0090172D02*
X0223593Y0090172D01*
X0223846Y0090958D02*
X0226587Y0090958D01*
X0227213Y0091744D02*
X0223846Y0091744D01*
X0223373Y0092530D02*
X0226543Y0092530D01*
X0229811Y0091744D02*
X0247764Y0091744D01*
X0247291Y0092217D02*
X0248444Y0091063D01*
X0250075Y0091063D01*
X0251228Y0092217D01*
X0251228Y0093201D01*
X0251397Y0093032D01*
X0253028Y0093032D01*
X0254181Y0094185D01*
X0254181Y0095816D01*
X0253028Y0096969D01*
X0251397Y0096969D01*
X0250244Y0095816D01*
X0250244Y0094832D01*
X0250075Y0095000D01*
X0248444Y0095000D01*
X0247291Y0093847D01*
X0247291Y0092217D01*
X0247291Y0092530D02*
X0230480Y0092530D01*
X0230480Y0093316D02*
X0247291Y0093316D01*
X0247545Y0094101D02*
X0230423Y0094101D01*
X0229637Y0094887D02*
X0248331Y0094887D01*
X0250188Y0094887D02*
X0250244Y0094887D01*
X0250244Y0095673D02*
X0083905Y0095673D01*
X0083905Y0096210D02*
X0083905Y0094579D01*
X0082752Y0093426D01*
X0081122Y0093426D01*
X0079969Y0094579D01*
X0079969Y0096210D01*
X0081122Y0097363D01*
X0082752Y0097363D01*
X0083905Y0096210D01*
X0083656Y0096459D02*
X0250887Y0096459D01*
X0253538Y0096459D02*
X0263880Y0096459D01*
X0264192Y0096772D02*
X0263039Y0095619D01*
X0263039Y0095225D01*
X0262674Y0095591D01*
X0261043Y0095591D01*
X0259890Y0094438D01*
X0259890Y0092807D01*
X0261043Y0091654D01*
X0262674Y0091654D01*
X0263827Y0092807D01*
X0263827Y0093201D01*
X0264192Y0092835D01*
X0265823Y0092835D01*
X0266976Y0093988D01*
X0266976Y0095619D01*
X0265823Y0096772D01*
X0264192Y0096772D01*
X0263094Y0095673D02*
X0254181Y0095673D01*
X0254181Y0094887D02*
X0260339Y0094887D01*
X0259890Y0094101D02*
X0254097Y0094101D01*
X0253312Y0093316D02*
X0259890Y0093316D01*
X0260167Y0092530D02*
X0251228Y0092530D01*
X0250755Y0091744D02*
X0260953Y0091744D01*
X0262763Y0091744D02*
X0324654Y0091744D01*
X0324654Y0092530D02*
X0263549Y0092530D01*
X0266304Y0093316D02*
X0324654Y0093316D01*
X0324654Y0094101D02*
X0266976Y0094101D01*
X0266976Y0094887D02*
X0324654Y0094887D01*
X0324654Y0095673D02*
X0266922Y0095673D01*
X0266136Y0096459D02*
X0324654Y0096459D01*
X0324654Y0097245D02*
X0226139Y0097245D01*
X0225863Y0096969D02*
X0227016Y0098122D01*
X0227016Y0099753D01*
X0225863Y0100906D01*
X0224232Y0100906D01*
X0223079Y0099753D01*
X0223079Y0098122D01*
X0224232Y0096969D01*
X0225863Y0096969D01*
X0226925Y0098031D02*
X0324654Y0098031D01*
X0324654Y0098817D02*
X0227016Y0098817D01*
X0227016Y0099603D02*
X0324654Y0099603D01*
X0324654Y0100389D02*
X0226380Y0100389D01*
X0225610Y0101693D02*
X0227241Y0101693D01*
X0228394Y0102847D01*
X0228394Y0104477D01*
X0227241Y0105630D01*
X0225610Y0105630D01*
X0224457Y0104477D01*
X0224457Y0102847D01*
X0225610Y0101693D01*
X0225343Y0101961D02*
X0187547Y0101961D01*
X0187646Y0102059D02*
X0186493Y0100906D01*
X0184862Y0100906D01*
X0183709Y0102059D01*
X0183709Y0103690D01*
X0184862Y0104843D01*
X0186493Y0104843D01*
X0187646Y0103690D01*
X0187646Y0102059D01*
X0187646Y0102746D02*
X0224557Y0102746D01*
X0224457Y0103532D02*
X0187646Y0103532D01*
X0187017Y0104318D02*
X0199166Y0104318D01*
X0199448Y0104036D02*
X0201079Y0104036D01*
X0202232Y0105189D01*
X0202232Y0106820D01*
X0201079Y0107973D01*
X0199448Y0107973D01*
X0198295Y0106820D01*
X0198295Y0105189D01*
X0199448Y0104036D01*
X0198380Y0105104D02*
X0181740Y0105104D01*
X0181740Y0104815D02*
X0180587Y0103662D01*
X0178956Y0103662D01*
X0177803Y0104815D01*
X0177803Y0106446D01*
X0178956Y0107599D01*
X0180587Y0107599D01*
X0181740Y0106446D01*
X0181740Y0104815D01*
X0181243Y0104318D02*
X0184337Y0104318D01*
X0183709Y0103532D02*
X0178354Y0103532D01*
X0178225Y0103662D02*
X0176594Y0103662D01*
X0175441Y0102509D01*
X0175441Y0100878D01*
X0176594Y0099725D01*
X0178225Y0099725D01*
X0179378Y0100878D01*
X0179378Y0102509D01*
X0178225Y0103662D01*
X0178300Y0104318D02*
X0087017Y0104318D01*
X0086493Y0104843D02*
X0084862Y0104843D01*
X0083709Y0103690D01*
X0083709Y0102059D01*
X0084862Y0100906D01*
X0086493Y0100906D01*
X0087646Y0102059D01*
X0087646Y0103690D01*
X0086493Y0104843D01*
X0087646Y0103532D02*
X0176465Y0103532D01*
X0175679Y0102746D02*
X0087646Y0102746D01*
X0087547Y0101961D02*
X0175441Y0101961D01*
X0175441Y0101175D02*
X0086761Y0101175D01*
X0084593Y0101175D02*
X0067326Y0101175D01*
X0066808Y0101693D02*
X0065177Y0101693D01*
X0064024Y0100540D01*
X0064024Y0099331D01*
X0062421Y0099331D01*
X0061268Y0098178D01*
X0061268Y0096547D01*
X0062421Y0095394D01*
X0064052Y0095394D01*
X0065205Y0096547D01*
X0065205Y0097756D01*
X0066808Y0097756D01*
X0067961Y0098910D01*
X0067961Y0100540D01*
X0066808Y0101693D01*
X0067961Y0100389D02*
X0175930Y0100389D01*
X0178889Y0100389D02*
X0223715Y0100389D01*
X0223079Y0099603D02*
X0067961Y0099603D01*
X0067868Y0098817D02*
X0223079Y0098817D01*
X0223170Y0098031D02*
X0067082Y0098031D01*
X0065205Y0097245D02*
X0081004Y0097245D01*
X0080218Y0096459D02*
X0065117Y0096459D01*
X0064331Y0095673D02*
X0079969Y0095673D01*
X0079969Y0094887D02*
X0012843Y0094887D01*
X0012843Y0094101D02*
X0080446Y0094101D01*
X0083428Y0094101D02*
X0126364Y0094101D01*
X0126110Y0093316D02*
X0012843Y0093316D01*
X0012843Y0092530D02*
X0019685Y0092530D01*
X0018651Y0091744D02*
X0012843Y0091744D01*
X0012843Y0090958D02*
X0018145Y0090958D01*
X0017899Y0090172D02*
X0012843Y0090172D01*
X0012843Y0089386D02*
X0017846Y0089386D01*
X0017986Y0088600D02*
X0012843Y0088600D01*
X0012843Y0087814D02*
X0018370Y0087814D01*
X0019065Y0087028D02*
X0012843Y0087028D01*
X0012843Y0095673D02*
X0042457Y0095673D01*
X0042736Y0095394D02*
X0041583Y0096547D01*
X0041583Y0098178D01*
X0042736Y0099331D01*
X0044367Y0099331D01*
X0045520Y0098178D01*
X0045520Y0096547D01*
X0044367Y0095394D01*
X0042736Y0095394D01*
X0041671Y0096459D02*
X0012843Y0096459D01*
X0012843Y0097245D02*
X0041583Y0097245D01*
X0041583Y0098031D02*
X0012843Y0098031D01*
X0012843Y0098817D02*
X0042222Y0098817D01*
X0042004Y0098937D02*
X0043157Y0100091D01*
X0043157Y0101721D01*
X0042004Y0102874D01*
X0040374Y0102874D01*
X0039220Y0101721D01*
X0039220Y0100091D01*
X0040374Y0098937D01*
X0042004Y0098937D01*
X0042670Y0099603D02*
X0064024Y0099603D01*
X0064024Y0100389D02*
X0043157Y0100389D01*
X0043157Y0101175D02*
X0064658Y0101175D01*
X0065233Y0104056D02*
X0063602Y0104056D01*
X0062449Y0105209D01*
X0062449Y0106839D01*
X0063602Y0107993D01*
X0065233Y0107993D01*
X0066386Y0106839D01*
X0066386Y0105209D01*
X0065233Y0104056D01*
X0065495Y0104318D02*
X0084337Y0104318D01*
X0083709Y0103532D02*
X0038433Y0103532D01*
X0038433Y0104084D02*
X0038433Y0102453D01*
X0037280Y0101300D01*
X0035649Y0101300D01*
X0034496Y0102453D01*
X0034496Y0104084D01*
X0035649Y0105237D01*
X0037280Y0105237D01*
X0038433Y0104084D01*
X0038198Y0104318D02*
X0063339Y0104318D01*
X0062553Y0105104D02*
X0037412Y0105104D01*
X0035517Y0105104D02*
X0020090Y0105104D01*
X0020126Y0105068D02*
X0018973Y0106221D01*
X0017342Y0106221D01*
X0016189Y0105068D01*
X0016189Y0103437D01*
X0017342Y0102284D01*
X0018973Y0102284D01*
X0020126Y0103437D01*
X0020126Y0105068D01*
X0020126Y0104318D02*
X0034731Y0104318D01*
X0034496Y0103532D02*
X0020126Y0103532D01*
X0019435Y0102746D02*
X0034496Y0102746D01*
X0034988Y0101961D02*
X0012843Y0101961D01*
X0012843Y0102746D02*
X0016880Y0102746D01*
X0016189Y0103532D02*
X0012843Y0103532D01*
X0012843Y0104318D02*
X0016189Y0104318D01*
X0016225Y0105104D02*
X0012843Y0105104D01*
X0012843Y0105890D02*
X0017011Y0105890D01*
X0019304Y0105890D02*
X0062449Y0105890D01*
X0062449Y0106676D02*
X0012843Y0106676D01*
X0012843Y0107462D02*
X0019272Y0107462D01*
X0019701Y0107284D02*
X0022834Y0107284D01*
X0025728Y0108483D01*
X0027943Y0110698D01*
X0029142Y0113592D01*
X0029142Y0116724D01*
X0027943Y0119618D01*
X0025728Y0121833D01*
X0022834Y0123032D01*
X0019701Y0123032D01*
X0016807Y0121833D01*
X0014592Y0119618D01*
X0013394Y0116724D01*
X0013394Y0113592D01*
X0014592Y0110698D01*
X0016807Y0108483D01*
X0019701Y0107284D01*
X0017374Y0108248D02*
X0012843Y0108248D01*
X0012843Y0109034D02*
X0016256Y0109034D01*
X0015470Y0109820D02*
X0012843Y0109820D01*
X0012843Y0110606D02*
X0014685Y0110606D01*
X0014305Y0111392D02*
X0012843Y0111392D01*
X0012843Y0112177D02*
X0013980Y0112177D01*
X0013654Y0112963D02*
X0012843Y0112963D01*
X0012843Y0113749D02*
X0013394Y0113749D01*
X0013394Y0114535D02*
X0012843Y0114535D01*
X0012855Y0115321D02*
X0013394Y0115321D01*
X0013394Y0116107D02*
X0012917Y0116107D01*
X0013082Y0116893D02*
X0013464Y0116893D01*
X0013337Y0117679D02*
X0013789Y0117679D01*
X0013592Y0118465D02*
X0014115Y0118465D01*
X0013955Y0119251D02*
X0014440Y0119251D01*
X0014526Y0120037D02*
X0015011Y0120037D01*
X0015097Y0120822D02*
X0015797Y0120822D01*
X0015989Y0121608D02*
X0016583Y0121608D01*
X0017070Y0122394D02*
X0018162Y0122394D01*
X0019029Y0123180D02*
X0028799Y0123180D01*
X0028522Y0122394D02*
X0024373Y0122394D01*
X0025953Y0121608D02*
X0031648Y0121608D01*
X0031648Y0121361D02*
X0028433Y0121361D01*
X0028433Y0121267D01*
X0028566Y0120598D01*
X0028827Y0119968D01*
X0029206Y0119402D01*
X0029688Y0118920D01*
X0030254Y0118541D01*
X0030884Y0118280D01*
X0031553Y0118147D01*
X0031648Y0118147D01*
X0031648Y0121361D01*
X0031648Y0120822D02*
X0032140Y0120822D01*
X0032140Y0120037D02*
X0031648Y0120037D01*
X0031648Y0119251D02*
X0032140Y0119251D01*
X0032140Y0118465D02*
X0031648Y0118465D01*
X0030438Y0118465D02*
X0028421Y0118465D01*
X0028095Y0119251D02*
X0029357Y0119251D01*
X0028799Y0120037D02*
X0027525Y0120037D01*
X0026739Y0120822D02*
X0028521Y0120822D01*
X0032140Y0121608D02*
X0047592Y0121608D01*
X0047592Y0121361D02*
X0044378Y0121361D01*
X0044378Y0121267D01*
X0044511Y0120598D01*
X0044772Y0119968D01*
X0045151Y0119402D01*
X0045633Y0118920D01*
X0046199Y0118541D01*
X0046829Y0118280D01*
X0047498Y0118147D01*
X0047592Y0118147D01*
X0047592Y0121361D01*
X0047592Y0120822D02*
X0048085Y0120822D01*
X0048085Y0120037D02*
X0047592Y0120037D01*
X0047592Y0119251D02*
X0048085Y0119251D01*
X0048085Y0118465D02*
X0047592Y0118465D01*
X0046383Y0118465D02*
X0040402Y0118465D01*
X0040402Y0118929D02*
X0039133Y0120197D01*
X0037339Y0120197D01*
X0036071Y0118929D01*
X0036071Y0117135D01*
X0037339Y0115867D01*
X0039133Y0115867D01*
X0040402Y0117135D01*
X0040402Y0118929D01*
X0040080Y0119251D02*
X0045301Y0119251D01*
X0044744Y0120037D02*
X0039294Y0120037D01*
X0037179Y0120037D02*
X0034989Y0120037D01*
X0035266Y0120822D02*
X0044466Y0120822D01*
X0044467Y0122394D02*
X0035266Y0122394D01*
X0034988Y0123180D02*
X0044744Y0123180D01*
X0050376Y0119251D02*
X0051737Y0119251D01*
X0051043Y0120037D02*
X0050934Y0120037D01*
X0049294Y0118465D02*
X0061268Y0118465D01*
X0061268Y0119251D02*
X0059529Y0119251D01*
X0060315Y0120037D02*
X0061982Y0120037D01*
X0062536Y0120591D02*
X0061268Y0119323D01*
X0061268Y0117529D01*
X0062536Y0116260D01*
X0064330Y0116260D01*
X0065598Y0117529D01*
X0065598Y0119323D01*
X0064330Y0120591D01*
X0062536Y0120591D01*
X0060677Y0120822D02*
X0066663Y0120822D01*
X0066589Y0121608D02*
X0060677Y0121608D01*
X0060312Y0122394D02*
X0066663Y0122394D01*
X0066989Y0123180D02*
X0059526Y0123180D01*
X0057891Y0123180D02*
X0056346Y0123180D01*
X0056672Y0122394D02*
X0057105Y0122394D01*
X0056740Y0120822D02*
X0056673Y0120822D01*
X0056347Y0120037D02*
X0057102Y0120037D01*
X0057888Y0119251D02*
X0055653Y0119251D01*
X0061268Y0117679D02*
X0040402Y0117679D01*
X0040159Y0116893D02*
X0061904Y0116893D01*
X0064963Y0116893D02*
X0073965Y0116893D01*
X0073179Y0117679D02*
X0065598Y0117679D01*
X0065598Y0118465D02*
X0072708Y0118465D01*
X0072382Y0119251D02*
X0071598Y0119251D01*
X0072292Y0120037D02*
X0072331Y0120037D01*
X0067682Y0119251D02*
X0065598Y0119251D01*
X0064884Y0120037D02*
X0066988Y0120037D01*
X0064330Y0114686D02*
X0062536Y0114686D01*
X0061268Y0113417D01*
X0061268Y0111623D01*
X0062536Y0110355D01*
X0064330Y0110355D01*
X0065598Y0111623D01*
X0065598Y0113417D01*
X0064330Y0114686D01*
X0064480Y0114535D02*
X0136071Y0114535D01*
X0136071Y0115321D02*
X0029142Y0115321D01*
X0029142Y0114535D02*
X0062386Y0114535D01*
X0061600Y0113749D02*
X0050027Y0113749D01*
X0049878Y0113898D02*
X0048248Y0113898D01*
X0047094Y0112745D01*
X0047094Y0111114D01*
X0048248Y0109961D01*
X0049878Y0109961D01*
X0051031Y0111114D01*
X0051031Y0112745D01*
X0049878Y0113898D01*
X0050813Y0112963D02*
X0061268Y0112963D01*
X0061268Y0112177D02*
X0051031Y0112177D01*
X0051031Y0111392D02*
X0061499Y0111392D01*
X0062285Y0110606D02*
X0050523Y0110606D01*
X0047603Y0110606D02*
X0039778Y0110606D01*
X0040402Y0111230D02*
X0039133Y0109961D01*
X0037339Y0109961D01*
X0036071Y0111230D01*
X0036071Y0113023D01*
X0037339Y0114292D01*
X0039133Y0114292D01*
X0040402Y0113023D01*
X0040402Y0111230D01*
X0040402Y0111392D02*
X0047094Y0111392D01*
X0047094Y0112177D02*
X0040402Y0112177D01*
X0040402Y0112963D02*
X0047313Y0112963D01*
X0048099Y0113749D02*
X0039676Y0113749D01*
X0036797Y0113749D02*
X0029142Y0113749D01*
X0028881Y0112963D02*
X0036071Y0112963D01*
X0036071Y0112177D02*
X0028556Y0112177D01*
X0028230Y0111392D02*
X0036071Y0111392D01*
X0036695Y0110606D02*
X0027851Y0110606D01*
X0027065Y0109820D02*
X0139614Y0109820D01*
X0139614Y0109146D02*
X0140767Y0107993D01*
X0142398Y0107993D01*
X0143551Y0109146D01*
X0143551Y0110777D01*
X0142398Y0111930D01*
X0140767Y0111930D01*
X0139614Y0110777D01*
X0139614Y0109146D01*
X0139726Y0109034D02*
X0026279Y0109034D01*
X0025161Y0108248D02*
X0140512Y0108248D01*
X0142653Y0108248D02*
X0155473Y0108248D01*
X0154969Y0108752D02*
X0156122Y0107599D01*
X0157752Y0107599D01*
X0158905Y0108752D01*
X0158905Y0110383D01*
X0157752Y0111536D01*
X0156122Y0111536D01*
X0154969Y0110383D01*
X0154969Y0108752D01*
X0154969Y0109034D02*
X0143439Y0109034D01*
X0143551Y0109820D02*
X0154969Y0109820D01*
X0155191Y0110606D02*
X0143551Y0110606D01*
X0142936Y0111392D02*
X0155977Y0111392D01*
X0157897Y0111392D02*
X0195736Y0111392D01*
X0195694Y0111434D02*
X0197543Y0109584D01*
X0199960Y0108583D01*
X0202576Y0108583D01*
X0204992Y0109584D01*
X0206842Y0111434D01*
X0207843Y0113850D01*
X0207843Y0116466D01*
X0206842Y0118882D01*
X0204992Y0120732D01*
X0202576Y0121733D01*
X0199960Y0121733D01*
X0197543Y0120732D01*
X0195694Y0118882D01*
X0194693Y0116466D01*
X0194693Y0113850D01*
X0195694Y0111434D01*
X0195386Y0112177D02*
X0065598Y0112177D01*
X0065598Y0112963D02*
X0195060Y0112963D01*
X0194735Y0113749D02*
X0170596Y0113749D01*
X0171382Y0114535D02*
X0194693Y0114535D01*
X0194693Y0115321D02*
X0171504Y0115321D01*
X0171504Y0116107D02*
X0194693Y0116107D01*
X0194870Y0116893D02*
X0188570Y0116893D01*
X0189356Y0117679D02*
X0195195Y0117679D01*
X0195521Y0118465D02*
X0189828Y0118465D01*
X0190153Y0119251D02*
X0196062Y0119251D01*
X0196848Y0120037D02*
X0190205Y0120037D01*
X0190205Y0120822D02*
X0197762Y0120822D01*
X0199660Y0121608D02*
X0189928Y0121608D01*
X0189599Y0122394D02*
X0319718Y0122394D01*
X0320799Y0121608D02*
X0202876Y0121608D01*
X0204773Y0120822D02*
X0321881Y0120822D01*
X0322455Y0120037D02*
X0219016Y0120037D01*
X0218914Y0120138D02*
X0217283Y0120138D01*
X0216130Y0118985D01*
X0216130Y0117354D01*
X0217283Y0116201D01*
X0218914Y0116201D01*
X0220067Y0117354D01*
X0220067Y0118985D01*
X0218914Y0120138D01*
X0219801Y0119251D02*
X0247813Y0119251D01*
X0247291Y0118729D02*
X0248444Y0119882D01*
X0250075Y0119882D01*
X0251228Y0118729D01*
X0251228Y0117098D01*
X0250075Y0115945D01*
X0248444Y0115945D01*
X0247291Y0117098D01*
X0247291Y0118729D01*
X0247291Y0118465D02*
X0220067Y0118465D01*
X0220067Y0117679D02*
X0247291Y0117679D01*
X0247497Y0116893D02*
X0219605Y0116893D01*
X0216591Y0116893D02*
X0207666Y0116893D01*
X0207843Y0116107D02*
X0248283Y0116107D01*
X0250237Y0116107D02*
X0324378Y0116107D01*
X0324561Y0115321D02*
X0207843Y0115321D01*
X0207843Y0114535D02*
X0241129Y0114535D01*
X0241299Y0114705D02*
X0240146Y0113552D01*
X0240146Y0111921D01*
X0241299Y0110768D01*
X0242930Y0110768D01*
X0244083Y0111921D01*
X0244083Y0113552D01*
X0242930Y0114705D01*
X0241299Y0114705D01*
X0240343Y0113749D02*
X0207801Y0113749D01*
X0207475Y0112963D02*
X0240146Y0112963D01*
X0240146Y0112177D02*
X0207150Y0112177D01*
X0206799Y0111392D02*
X0217198Y0111392D01*
X0217736Y0111930D02*
X0216583Y0110777D01*
X0216583Y0109146D01*
X0217736Y0107993D01*
X0219367Y0107993D01*
X0220520Y0109146D01*
X0220520Y0110777D01*
X0219367Y0111930D01*
X0217736Y0111930D01*
X0216583Y0110606D02*
X0206014Y0110606D01*
X0205228Y0109820D02*
X0216583Y0109820D01*
X0216695Y0109034D02*
X0203663Y0109034D01*
X0201590Y0107462D02*
X0224063Y0107462D01*
X0224063Y0107374D02*
X0225216Y0106221D01*
X0226847Y0106221D01*
X0228000Y0107374D01*
X0228000Y0109005D01*
X0226847Y0110158D01*
X0225216Y0110158D01*
X0224063Y0109005D01*
X0224063Y0107374D01*
X0224063Y0108248D02*
X0219622Y0108248D01*
X0220408Y0109034D02*
X0224092Y0109034D01*
X0224878Y0109820D02*
X0220520Y0109820D01*
X0220520Y0110606D02*
X0324654Y0110606D01*
X0324654Y0111392D02*
X0243553Y0111392D01*
X0244083Y0112177D02*
X0324654Y0112177D01*
X0324654Y0112963D02*
X0244083Y0112963D01*
X0243885Y0113749D02*
X0324654Y0113749D01*
X0324622Y0114535D02*
X0243100Y0114535D01*
X0240675Y0111392D02*
X0219905Y0111392D01*
X0227185Y0109820D02*
X0248106Y0109820D01*
X0248641Y0110355D02*
X0247488Y0109202D01*
X0247488Y0107571D01*
X0248641Y0106418D01*
X0250272Y0106418D01*
X0251425Y0107571D01*
X0251425Y0109202D01*
X0250272Y0110355D01*
X0248641Y0110355D01*
X0247488Y0109034D02*
X0227971Y0109034D01*
X0228000Y0108248D02*
X0242952Y0108248D01*
X0242528Y0107824D02*
X0242528Y0106193D01*
X0243681Y0105040D01*
X0245311Y0105040D01*
X0246465Y0106193D01*
X0246465Y0107824D01*
X0245311Y0108977D01*
X0243681Y0108977D01*
X0242528Y0107824D01*
X0242528Y0107462D02*
X0228000Y0107462D01*
X0227302Y0106676D02*
X0242528Y0106676D01*
X0242830Y0105890D02*
X0202232Y0105890D01*
X0202232Y0106676D02*
X0224761Y0106676D01*
X0225084Y0105104D02*
X0202147Y0105104D01*
X0201362Y0104318D02*
X0224457Y0104318D01*
X0227767Y0105104D02*
X0243616Y0105104D01*
X0245376Y0105104D02*
X0324654Y0105104D01*
X0324654Y0104318D02*
X0228394Y0104318D01*
X0228394Y0103532D02*
X0324654Y0103532D01*
X0324654Y0102746D02*
X0228294Y0102746D01*
X0227508Y0101961D02*
X0324654Y0101961D01*
X0324654Y0101175D02*
X0186761Y0101175D01*
X0184593Y0101175D02*
X0179378Y0101175D01*
X0179378Y0101961D02*
X0183807Y0101961D01*
X0183709Y0102746D02*
X0179140Y0102746D01*
X0177803Y0105104D02*
X0066281Y0105104D01*
X0066386Y0105890D02*
X0177803Y0105890D01*
X0178033Y0106676D02*
X0066386Y0106676D01*
X0065763Y0107462D02*
X0178819Y0107462D01*
X0180724Y0107462D02*
X0182921Y0107462D01*
X0182921Y0106784D02*
X0184074Y0105630D01*
X0185705Y0105630D01*
X0186858Y0106784D01*
X0186858Y0108414D01*
X0185705Y0109567D01*
X0184074Y0109567D01*
X0182921Y0108414D01*
X0182921Y0106784D01*
X0183029Y0106676D02*
X0181510Y0106676D01*
X0181740Y0105890D02*
X0183815Y0105890D01*
X0185965Y0105890D02*
X0198295Y0105890D01*
X0198295Y0106676D02*
X0186751Y0106676D01*
X0186858Y0107462D02*
X0198937Y0107462D01*
X0198872Y0109034D02*
X0186239Y0109034D01*
X0186858Y0108248D02*
X0217481Y0108248D01*
X0197308Y0109820D02*
X0158905Y0109820D01*
X0158905Y0109034D02*
X0183541Y0109034D01*
X0182921Y0108248D02*
X0158401Y0108248D01*
X0158683Y0110606D02*
X0196522Y0110606D01*
X0207340Y0117679D02*
X0216130Y0117679D01*
X0216130Y0118465D02*
X0207015Y0118465D01*
X0206473Y0119251D02*
X0216395Y0119251D01*
X0217181Y0120037D02*
X0205687Y0120037D01*
X0188813Y0123180D02*
X0317570Y0123180D01*
X0323026Y0119251D02*
X0250707Y0119251D01*
X0251228Y0118465D02*
X0323597Y0118465D01*
X0323868Y0117679D02*
X0251228Y0117679D01*
X0251023Y0116893D02*
X0324123Y0116893D01*
X0324654Y0109820D02*
X0250807Y0109820D01*
X0251425Y0109034D02*
X0252340Y0109034D01*
X0251957Y0108651D02*
X0251957Y0107020D01*
X0253110Y0105867D01*
X0254741Y0105867D01*
X0255894Y0107020D01*
X0255894Y0108651D01*
X0254741Y0109804D01*
X0253110Y0109804D01*
X0251957Y0108651D01*
X0251957Y0108248D02*
X0251425Y0108248D01*
X0251316Y0107462D02*
X0251957Y0107462D01*
X0252300Y0106676D02*
X0250530Y0106676D01*
X0248383Y0106676D02*
X0246465Y0106676D01*
X0246465Y0107462D02*
X0247597Y0107462D01*
X0247488Y0108248D02*
X0246040Y0108248D01*
X0246162Y0105890D02*
X0253086Y0105890D01*
X0254764Y0105890D02*
X0324654Y0105890D01*
X0324654Y0106676D02*
X0255550Y0106676D01*
X0255894Y0107462D02*
X0324654Y0107462D01*
X0324654Y0108248D02*
X0255894Y0108248D01*
X0255510Y0109034D02*
X0324654Y0109034D01*
X0324654Y0090958D02*
X0230397Y0090958D01*
X0227386Y0094887D02*
X0129007Y0094887D01*
X0127150Y0094887D02*
X0083905Y0094887D01*
X0082870Y0097245D02*
X0223956Y0097245D01*
X0208846Y0083099D02*
X0190127Y0083099D01*
X0190795Y0082313D02*
X0209479Y0082313D01*
X0211774Y0075240D02*
X0185146Y0075240D01*
X0184961Y0074454D02*
X0211484Y0074454D01*
X0211484Y0073668D02*
X0184176Y0073668D01*
X0182179Y0073668D02*
X0132235Y0073668D01*
X0132921Y0072882D02*
X0178491Y0072882D01*
X0177803Y0072096D02*
X0168748Y0072096D01*
X0169533Y0071310D02*
X0177803Y0071310D01*
X0177842Y0070524D02*
X0171993Y0070524D01*
X0172779Y0069738D02*
X0178628Y0069738D01*
X0181052Y0072882D02*
X0211921Y0072882D01*
X0200244Y0066594D02*
X0225747Y0066594D01*
X0224961Y0065809D02*
X0210566Y0065809D01*
X0211352Y0065023D02*
X0224654Y0065023D01*
X0224654Y0064237D02*
X0211661Y0064237D01*
X0211661Y0063451D02*
X0224178Y0063451D01*
X0223392Y0062665D02*
X0221407Y0062665D01*
X0222193Y0061879D02*
X0223079Y0061879D01*
X0223079Y0061093D02*
X0222252Y0061093D01*
X0222252Y0060307D02*
X0223492Y0060307D01*
X0221584Y0059521D02*
X0226942Y0059521D01*
X0226622Y0059202D02*
X0226622Y0057571D01*
X0227775Y0056418D01*
X0229406Y0056418D01*
X0230559Y0057571D01*
X0230559Y0059202D01*
X0229406Y0060355D01*
X0227775Y0060355D01*
X0226622Y0059202D01*
X0226622Y0058735D02*
X0190047Y0058735D01*
X0190047Y0057949D02*
X0226622Y0057949D01*
X0227029Y0057164D02*
X0222302Y0057164D01*
X0222764Y0056702D02*
X0221611Y0057855D01*
X0219980Y0057855D01*
X0218827Y0056702D01*
X0218827Y0055071D01*
X0219980Y0053918D01*
X0221611Y0053918D01*
X0222764Y0055071D01*
X0222764Y0056702D01*
X0222764Y0056378D02*
X0293563Y0056378D01*
X0293917Y0056024D02*
X0292764Y0057177D01*
X0292764Y0058808D01*
X0293917Y0059961D01*
X0295548Y0059961D01*
X0296701Y0058808D01*
X0296701Y0057177D01*
X0295548Y0056024D01*
X0293917Y0056024D01*
X0292777Y0057164D02*
X0230152Y0057164D01*
X0230559Y0057949D02*
X0292764Y0057949D01*
X0292764Y0058735D02*
X0230559Y0058735D01*
X0230239Y0059521D02*
X0293477Y0059521D01*
X0295988Y0059521D02*
X0324654Y0059521D01*
X0324654Y0058735D02*
X0296701Y0058735D01*
X0296701Y0057949D02*
X0324654Y0057949D01*
X0324654Y0057164D02*
X0296687Y0057164D01*
X0295901Y0056378D02*
X0324654Y0056378D01*
X0324654Y0055592D02*
X0255134Y0055592D01*
X0254741Y0055985D02*
X0253110Y0055985D01*
X0251957Y0054832D01*
X0251957Y0053201D01*
X0253110Y0052048D01*
X0254741Y0052048D01*
X0255126Y0052433D01*
X0255126Y0052079D01*
X0256279Y0050926D01*
X0257910Y0050926D01*
X0259063Y0052079D01*
X0259063Y0053710D01*
X0257910Y0054863D01*
X0256279Y0054863D01*
X0255894Y0054477D01*
X0255894Y0054832D01*
X0254741Y0055985D01*
X0255894Y0054806D02*
X0256222Y0054806D01*
X0257967Y0054806D02*
X0262167Y0054806D01*
X0262559Y0055197D02*
X0261406Y0054044D01*
X0261406Y0052413D01*
X0262559Y0051260D01*
X0264189Y0051260D01*
X0265343Y0052413D01*
X0265343Y0054044D01*
X0264189Y0055197D01*
X0262559Y0055197D01*
X0261406Y0054020D02*
X0258753Y0054020D01*
X0259063Y0053234D02*
X0261406Y0053234D01*
X0261406Y0052448D02*
X0259063Y0052448D01*
X0258646Y0051662D02*
X0262157Y0051662D01*
X0264591Y0051662D02*
X0278850Y0051662D01*
X0279232Y0051280D02*
X0280863Y0051280D01*
X0282016Y0052433D01*
X0282016Y0054064D01*
X0280863Y0055217D01*
X0279232Y0055217D01*
X0278079Y0054064D01*
X0278079Y0052433D01*
X0279232Y0051280D01*
X0278079Y0052448D02*
X0265343Y0052448D01*
X0265343Y0053234D02*
X0278079Y0053234D01*
X0278079Y0054020D02*
X0265343Y0054020D01*
X0264581Y0054806D02*
X0278821Y0054806D01*
X0281274Y0054806D02*
X0324654Y0054806D01*
X0324654Y0054020D02*
X0282016Y0054020D01*
X0282016Y0053234D02*
X0324654Y0053234D01*
X0324654Y0052448D02*
X0282016Y0052448D01*
X0281245Y0051662D02*
X0324654Y0051662D01*
X0324654Y0050876D02*
X0220026Y0050876D01*
X0219780Y0051123D02*
X0218149Y0051123D01*
X0216996Y0049969D01*
X0216996Y0048339D01*
X0218149Y0047186D01*
X0219780Y0047186D01*
X0220933Y0048339D01*
X0220933Y0049969D01*
X0219780Y0051123D01*
X0220812Y0050090D02*
X0324654Y0050090D01*
X0324654Y0049304D02*
X0220933Y0049304D01*
X0220933Y0048518D02*
X0255525Y0048518D01*
X0255551Y0048544D02*
X0254398Y0047391D01*
X0254398Y0045760D01*
X0255551Y0044607D01*
X0257182Y0044607D01*
X0258335Y0045760D01*
X0258335Y0047391D01*
X0257182Y0048544D01*
X0255551Y0048544D01*
X0254740Y0047733D02*
X0222343Y0047733D01*
X0222319Y0047756D02*
X0220689Y0047756D01*
X0219535Y0046603D01*
X0219535Y0044973D01*
X0220689Y0043819D01*
X0222319Y0043819D01*
X0223472Y0044973D01*
X0223472Y0046603D01*
X0222319Y0047756D01*
X0223129Y0046947D02*
X0254398Y0046947D01*
X0254398Y0046161D02*
X0223472Y0046161D01*
X0223472Y0045375D02*
X0239173Y0045375D01*
X0239586Y0045788D02*
X0238433Y0044635D01*
X0238433Y0043004D01*
X0239586Y0041851D01*
X0241217Y0041851D01*
X0242370Y0043004D01*
X0242370Y0044635D01*
X0241217Y0045788D01*
X0239586Y0045788D01*
X0238433Y0044589D02*
X0223089Y0044589D01*
X0219919Y0044589D02*
X0207843Y0044589D01*
X0207843Y0043850D02*
X0206842Y0041434D01*
X0204992Y0039584D01*
X0202576Y0038583D01*
X0199960Y0038583D01*
X0197543Y0039584D01*
X0195694Y0041434D01*
X0194693Y0043850D01*
X0194693Y0046466D01*
X0195694Y0048882D01*
X0197543Y0050732D01*
X0199960Y0051733D01*
X0202576Y0051733D01*
X0204992Y0050732D01*
X0206842Y0048882D01*
X0207843Y0046466D01*
X0207843Y0043850D01*
X0207823Y0043803D02*
X0238433Y0043803D01*
X0238433Y0043017D02*
X0207497Y0043017D01*
X0207172Y0042231D02*
X0239206Y0042231D01*
X0241597Y0042231D02*
X0323977Y0042231D01*
X0323722Y0041445D02*
X0206846Y0041445D01*
X0206067Y0040659D02*
X0254536Y0040659D01*
X0254547Y0040670D02*
X0253394Y0039517D01*
X0253394Y0037886D01*
X0254547Y0036733D01*
X0256178Y0036733D01*
X0257331Y0037886D01*
X0257331Y0039517D01*
X0256178Y0040670D01*
X0254547Y0040670D01*
X0253750Y0039873D02*
X0205281Y0039873D01*
X0203793Y0039088D02*
X0253394Y0039088D01*
X0253394Y0038302D02*
X0189760Y0038302D01*
X0190086Y0039088D02*
X0198742Y0039088D01*
X0197254Y0039873D02*
X0190205Y0039873D01*
X0190205Y0040659D02*
X0196468Y0040659D01*
X0195689Y0041445D02*
X0189996Y0041445D01*
X0189670Y0042231D02*
X0195363Y0042231D01*
X0195038Y0043017D02*
X0188976Y0043017D01*
X0187756Y0043803D02*
X0194712Y0043803D01*
X0194693Y0044589D02*
X0159093Y0044589D01*
X0158717Y0044213D02*
X0159870Y0045366D01*
X0159870Y0046997D01*
X0158717Y0048150D01*
X0157086Y0048150D01*
X0155933Y0046997D01*
X0155933Y0045366D01*
X0157086Y0044213D01*
X0158717Y0044213D01*
X0157756Y0043803D02*
X0164780Y0043803D01*
X0163559Y0043017D02*
X0158976Y0043017D01*
X0159670Y0042231D02*
X0162865Y0042231D01*
X0162540Y0041445D02*
X0159996Y0041445D01*
X0160205Y0040659D02*
X0162331Y0040659D01*
X0162331Y0039873D02*
X0160205Y0039873D01*
X0160086Y0039088D02*
X0162450Y0039088D01*
X0162775Y0038302D02*
X0159760Y0038302D01*
X0159193Y0037516D02*
X0163342Y0037516D01*
X0169193Y0037516D02*
X0173342Y0037516D01*
X0172775Y0038302D02*
X0169760Y0038302D01*
X0170086Y0039088D02*
X0172450Y0039088D01*
X0172331Y0039873D02*
X0170205Y0039873D01*
X0170205Y0040659D02*
X0172331Y0040659D01*
X0172540Y0041445D02*
X0169996Y0041445D01*
X0169670Y0042231D02*
X0172865Y0042231D01*
X0173559Y0043017D02*
X0168976Y0043017D01*
X0167756Y0043803D02*
X0174780Y0043803D01*
X0177756Y0043803D02*
X0184780Y0043803D01*
X0183559Y0043017D02*
X0178976Y0043017D01*
X0179670Y0042231D02*
X0182865Y0042231D01*
X0182540Y0041445D02*
X0179996Y0041445D01*
X0180205Y0040659D02*
X0182331Y0040659D01*
X0182331Y0039873D02*
X0180205Y0039873D01*
X0180086Y0039088D02*
X0182450Y0039088D01*
X0182775Y0038302D02*
X0179760Y0038302D01*
X0179193Y0037516D02*
X0183342Y0037516D01*
X0189193Y0037516D02*
X0253764Y0037516D01*
X0256961Y0037516D02*
X0319482Y0037516D01*
X0320827Y0038302D02*
X0257331Y0038302D01*
X0257331Y0039088D02*
X0321908Y0039088D01*
X0322586Y0039873D02*
X0256974Y0039873D01*
X0256188Y0040659D02*
X0323157Y0040659D01*
X0324232Y0043017D02*
X0291202Y0043017D01*
X0290863Y0042678D02*
X0292016Y0043831D01*
X0292016Y0045462D01*
X0290863Y0046615D01*
X0289232Y0046615D01*
X0288079Y0045462D01*
X0288079Y0043831D01*
X0289232Y0042678D01*
X0290863Y0042678D01*
X0291988Y0043803D02*
X0324488Y0043803D01*
X0324595Y0044589D02*
X0292016Y0044589D01*
X0292016Y0045375D02*
X0324654Y0045375D01*
X0324654Y0046161D02*
X0291317Y0046161D01*
X0288778Y0046161D02*
X0258335Y0046161D01*
X0258335Y0046947D02*
X0324654Y0046947D01*
X0324654Y0047733D02*
X0257993Y0047733D01*
X0257207Y0048518D02*
X0324654Y0048518D01*
X0324654Y0060307D02*
X0229454Y0060307D01*
X0227728Y0060307D02*
X0226602Y0060307D01*
X0227016Y0061093D02*
X0324654Y0061093D01*
X0324654Y0061879D02*
X0227016Y0061879D01*
X0226702Y0062665D02*
X0324654Y0062665D01*
X0324654Y0063451D02*
X0228171Y0063451D01*
X0219160Y0062665D02*
X0211244Y0062665D01*
X0207724Y0064237D02*
X0199430Y0064237D01*
X0200216Y0065023D02*
X0208034Y0065023D01*
X0208819Y0065809D02*
X0200244Y0065809D01*
X0189001Y0060307D02*
X0218315Y0060307D01*
X0218983Y0059521D02*
X0189787Y0059521D01*
X0189581Y0057164D02*
X0219289Y0057164D01*
X0218827Y0056378D02*
X0201493Y0056378D01*
X0201059Y0056812D02*
X0199429Y0056812D01*
X0198276Y0055658D01*
X0198276Y0054028D01*
X0199429Y0052875D01*
X0201059Y0052875D01*
X0202213Y0054028D01*
X0202213Y0055658D01*
X0201059Y0056812D01*
X0202213Y0055592D02*
X0218827Y0055592D01*
X0219092Y0054806D02*
X0202213Y0054806D01*
X0202205Y0054020D02*
X0219878Y0054020D01*
X0221713Y0054020D02*
X0239358Y0054020D01*
X0239358Y0053398D02*
X0239358Y0055028D01*
X0240511Y0056182D01*
X0242142Y0056182D01*
X0242902Y0055422D01*
X0243661Y0056182D01*
X0245292Y0056182D01*
X0246445Y0055028D01*
X0246445Y0053398D01*
X0245292Y0052245D01*
X0243661Y0052245D01*
X0242902Y0053004D01*
X0242142Y0052245D01*
X0240511Y0052245D01*
X0239358Y0053398D01*
X0239522Y0053234D02*
X0201419Y0053234D01*
X0202746Y0051662D02*
X0255543Y0051662D01*
X0252709Y0052448D02*
X0245495Y0052448D01*
X0246281Y0053234D02*
X0251957Y0053234D01*
X0251957Y0054020D02*
X0246445Y0054020D01*
X0246445Y0054806D02*
X0251957Y0054806D01*
X0252717Y0055592D02*
X0245882Y0055592D01*
X0243071Y0055592D02*
X0242732Y0055592D01*
X0239922Y0055592D02*
X0222764Y0055592D01*
X0222499Y0054806D02*
X0239358Y0054806D01*
X0240308Y0052448D02*
X0169535Y0052448D01*
X0169535Y0052059D02*
X0168382Y0050906D01*
X0166752Y0050906D01*
X0165598Y0052059D01*
X0165598Y0053690D01*
X0166752Y0054843D01*
X0168382Y0054843D01*
X0169535Y0053690D01*
X0169535Y0052059D01*
X0169138Y0051662D02*
X0174201Y0051662D01*
X0174488Y0051949D02*
X0173335Y0050796D01*
X0173335Y0049165D01*
X0174488Y0048012D01*
X0176119Y0048012D01*
X0177272Y0049165D01*
X0177272Y0050796D01*
X0176119Y0051949D01*
X0174488Y0051949D01*
X0173415Y0050876D02*
X0101030Y0050876D01*
X0101110Y0050796D02*
X0099957Y0051949D01*
X0098326Y0051949D01*
X0097173Y0050796D01*
X0097173Y0049165D01*
X0098326Y0048012D01*
X0099957Y0048012D01*
X0101110Y0049165D01*
X0101110Y0050796D01*
X0101110Y0050090D02*
X0173335Y0050090D01*
X0173335Y0049304D02*
X0101110Y0049304D01*
X0100463Y0048518D02*
X0173982Y0048518D01*
X0176625Y0048518D02*
X0186974Y0048518D01*
X0187480Y0048012D02*
X0189111Y0048012D01*
X0190264Y0049165D01*
X0190264Y0050796D01*
X0189111Y0051949D01*
X0187480Y0051949D01*
X0186327Y0050796D01*
X0186327Y0049165D01*
X0187480Y0048012D01*
X0186327Y0049304D02*
X0177272Y0049304D01*
X0177272Y0050090D02*
X0186327Y0050090D01*
X0186407Y0050876D02*
X0177192Y0050876D01*
X0176406Y0051662D02*
X0187193Y0051662D01*
X0189398Y0051662D02*
X0199789Y0051662D01*
X0199069Y0053234D02*
X0169535Y0053234D01*
X0169205Y0054020D02*
X0198283Y0054020D01*
X0198276Y0054806D02*
X0168420Y0054806D01*
X0166714Y0054806D02*
X0159870Y0054806D01*
X0159870Y0055592D02*
X0198276Y0055592D01*
X0198995Y0056378D02*
X0159328Y0056378D01*
X0159685Y0054020D02*
X0165928Y0054020D01*
X0165598Y0053234D02*
X0158899Y0053234D01*
X0156904Y0053234D02*
X0155750Y0053234D01*
X0155756Y0054020D02*
X0156118Y0054020D01*
X0155933Y0054806D02*
X0155756Y0054806D01*
X0154964Y0052448D02*
X0165598Y0052448D01*
X0165995Y0051662D02*
X0100244Y0051662D01*
X0098039Y0051662D02*
X0045973Y0051662D01*
X0045587Y0052048D02*
X0043956Y0052048D01*
X0042803Y0050895D01*
X0042803Y0049264D01*
X0043956Y0048111D01*
X0045587Y0048111D01*
X0046740Y0049264D01*
X0046740Y0050895D01*
X0045587Y0052048D01*
X0046740Y0050876D02*
X0097253Y0050876D01*
X0097173Y0050090D02*
X0046740Y0050090D01*
X0046740Y0049304D02*
X0097173Y0049304D01*
X0097820Y0048518D02*
X0045995Y0048518D01*
X0043548Y0048518D02*
X0028399Y0048518D01*
X0028724Y0047733D02*
X0069090Y0047733D01*
X0068354Y0046947D02*
X0029050Y0046947D01*
X0029142Y0046161D02*
X0068354Y0046161D01*
X0068354Y0045375D02*
X0029142Y0045375D01*
X0029142Y0044589D02*
X0069132Y0044589D01*
X0068546Y0043875D02*
X0067936Y0044186D01*
X0067286Y0044397D01*
X0066661Y0044496D01*
X0066661Y0040552D01*
X0070606Y0040552D01*
X0070507Y0041176D01*
X0070296Y0041826D01*
X0069985Y0042436D01*
X0069583Y0042989D01*
X0069099Y0043473D01*
X0068546Y0043875D01*
X0068645Y0043803D02*
X0069929Y0043803D01*
X0069929Y0043017D02*
X0069555Y0043017D01*
X0070089Y0042231D02*
X0070308Y0042231D01*
X0070420Y0041445D02*
X0072540Y0041445D01*
X0072331Y0040659D02*
X0070589Y0040659D01*
X0070490Y0039088D02*
X0072450Y0039088D01*
X0072331Y0039873D02*
X0066661Y0039873D01*
X0066661Y0040659D02*
X0065874Y0040659D01*
X0065874Y0039873D02*
X0060205Y0039873D01*
X0060205Y0040659D02*
X0061946Y0040659D01*
X0062116Y0041445D02*
X0059996Y0041445D01*
X0059670Y0042231D02*
X0062446Y0042231D01*
X0062980Y0043017D02*
X0058976Y0043017D01*
X0057756Y0043803D02*
X0063890Y0043803D01*
X0065874Y0043803D02*
X0066661Y0043803D01*
X0066661Y0043017D02*
X0065874Y0043017D01*
X0065874Y0042231D02*
X0066661Y0042231D01*
X0066661Y0041445D02*
X0065874Y0041445D01*
X0062045Y0039088D02*
X0060086Y0039088D01*
X0059760Y0038302D02*
X0062335Y0038302D01*
X0062815Y0037516D02*
X0059193Y0037516D01*
X0053342Y0037516D02*
X0049193Y0037516D01*
X0049760Y0038302D02*
X0052775Y0038302D01*
X0052450Y0039088D02*
X0050086Y0039088D01*
X0050205Y0039873D02*
X0052331Y0039873D01*
X0052331Y0040659D02*
X0050205Y0040659D01*
X0049996Y0041445D02*
X0052540Y0041445D01*
X0052865Y0042231D02*
X0049670Y0042231D01*
X0048976Y0043017D02*
X0053559Y0043017D01*
X0054780Y0043803D02*
X0047756Y0043803D01*
X0044780Y0043803D02*
X0037756Y0043803D01*
X0038976Y0043017D02*
X0043559Y0043017D01*
X0042865Y0042231D02*
X0039670Y0042231D01*
X0039996Y0041445D02*
X0042540Y0041445D01*
X0042331Y0040659D02*
X0040205Y0040659D01*
X0040205Y0039873D02*
X0042331Y0039873D01*
X0042450Y0039088D02*
X0040086Y0039088D01*
X0039760Y0038302D02*
X0042775Y0038302D01*
X0043342Y0037516D02*
X0039193Y0037516D01*
X0033342Y0037516D02*
X0023393Y0037516D01*
X0025291Y0038302D02*
X0032775Y0038302D01*
X0032450Y0039088D02*
X0026333Y0039088D01*
X0027119Y0039873D02*
X0032331Y0039873D01*
X0032331Y0040659D02*
X0027905Y0040659D01*
X0028253Y0041445D02*
X0032540Y0041445D01*
X0032865Y0042231D02*
X0028578Y0042231D01*
X0028904Y0043017D02*
X0033559Y0043017D01*
X0034780Y0043803D02*
X0029142Y0043803D01*
X0028073Y0049304D02*
X0042803Y0049304D01*
X0042803Y0050090D02*
X0027471Y0050090D01*
X0026685Y0050876D02*
X0042803Y0050876D01*
X0043571Y0051662D02*
X0025899Y0051662D01*
X0022656Y0056183D02*
X0023191Y0056540D01*
X0023645Y0056995D01*
X0024003Y0057529D01*
X0024249Y0058123D01*
X0024374Y0058754D01*
X0024374Y0058928D01*
X0021258Y0058928D01*
X0021258Y0059223D01*
X0024374Y0059223D01*
X0024374Y0059397D01*
X0024249Y0060027D01*
X0024003Y0060621D01*
X0023645Y0061156D01*
X0023191Y0061610D01*
X0022656Y0061968D01*
X0022062Y0062214D01*
X0021432Y0062339D01*
X0021258Y0062339D01*
X0021258Y0059223D01*
X0020963Y0059223D01*
X0020963Y0062339D01*
X0020789Y0062339D01*
X0020158Y0062214D01*
X0019564Y0061968D01*
X0019030Y0061610D01*
X0018575Y0061156D01*
X0018218Y0060621D01*
X0017972Y0060027D01*
X0017846Y0059397D01*
X0017846Y0059223D01*
X0020963Y0059223D01*
X0020963Y0058928D01*
X0021258Y0058928D01*
X0021258Y0055812D01*
X0021432Y0055812D01*
X0022062Y0055937D01*
X0022656Y0056183D01*
X0022948Y0056378D02*
X0033966Y0056378D01*
X0034222Y0056207D02*
X0033582Y0056634D01*
X0033039Y0057177D01*
X0032612Y0057817D01*
X0032317Y0058527D01*
X0032169Y0059272D01*
X0035677Y0059272D01*
X0036465Y0059272D01*
X0036465Y0060060D01*
X0039973Y0060060D01*
X0039824Y0060804D01*
X0039530Y0061515D01*
X0039103Y0062154D01*
X0038559Y0062698D01*
X0037920Y0063125D01*
X0037209Y0063419D01*
X0036465Y0063568D01*
X0036465Y0060060D01*
X0035677Y0060060D01*
X0035677Y0063568D01*
X0034932Y0063419D01*
X0034897Y0063405D01*
X0035087Y0063862D01*
X0035087Y0065115D01*
X0034607Y0066273D01*
X0033721Y0067159D01*
X0032563Y0067638D01*
X0031311Y0067638D01*
X0030153Y0067159D01*
X0029267Y0066273D01*
X0028787Y0065115D01*
X0028787Y0063862D01*
X0029267Y0062705D01*
X0030153Y0061819D01*
X0031311Y0061339D01*
X0032539Y0061339D01*
X0032317Y0060804D01*
X0032169Y0060060D01*
X0035677Y0060060D01*
X0035677Y0059272D01*
X0035677Y0055764D01*
X0034932Y0055912D01*
X0034222Y0056207D01*
X0035677Y0056378D02*
X0036465Y0056378D01*
X0036465Y0055764D02*
X0037209Y0055912D01*
X0037920Y0056207D01*
X0038559Y0056634D01*
X0039103Y0057177D01*
X0039530Y0057817D01*
X0039824Y0058527D01*
X0039973Y0059272D01*
X0036465Y0059272D01*
X0036465Y0055764D01*
X0036465Y0057164D02*
X0035677Y0057164D01*
X0035677Y0057949D02*
X0036465Y0057949D01*
X0036465Y0058735D02*
X0035677Y0058735D01*
X0035677Y0059521D02*
X0024349Y0059521D01*
X0024370Y0058735D02*
X0032276Y0058735D01*
X0032557Y0057949D02*
X0024177Y0057949D01*
X0023758Y0057164D02*
X0033053Y0057164D01*
X0038176Y0056378D02*
X0051031Y0056378D01*
X0051031Y0056839D02*
X0051031Y0055209D01*
X0052185Y0054056D01*
X0053815Y0054056D01*
X0054772Y0055012D01*
X0055728Y0054056D01*
X0057359Y0054056D01*
X0058315Y0055012D01*
X0059271Y0054056D01*
X0060902Y0054056D01*
X0062055Y0055209D01*
X0062055Y0056839D01*
X0060902Y0057993D01*
X0059271Y0057993D01*
X0058315Y0057036D01*
X0057359Y0057993D01*
X0055728Y0057993D01*
X0054772Y0057036D01*
X0054406Y0057402D01*
X0054968Y0057965D01*
X0054968Y0059595D01*
X0053815Y0060749D01*
X0052185Y0060749D01*
X0051031Y0059595D01*
X0051031Y0057965D01*
X0051594Y0057402D01*
X0051031Y0056839D01*
X0051356Y0057164D02*
X0039089Y0057164D01*
X0039585Y0057949D02*
X0051047Y0057949D01*
X0051031Y0058735D02*
X0039866Y0058735D01*
X0036465Y0059521D02*
X0051031Y0059521D01*
X0051743Y0060307D02*
X0039923Y0060307D01*
X0039705Y0061093D02*
X0133395Y0061093D01*
X0133276Y0060307D02*
X0070005Y0060307D01*
X0069563Y0060749D02*
X0067933Y0060749D01*
X0066780Y0059595D01*
X0066780Y0057965D01*
X0067342Y0057402D01*
X0066878Y0056938D01*
X0065823Y0057993D01*
X0064192Y0057993D01*
X0063039Y0056839D01*
X0063039Y0055209D01*
X0064192Y0054056D01*
X0065823Y0054056D01*
X0066878Y0055110D01*
X0067933Y0054056D01*
X0069563Y0054056D01*
X0070717Y0055209D01*
X0070717Y0056839D01*
X0070154Y0057402D01*
X0070717Y0057965D01*
X0070717Y0059595D01*
X0069563Y0060749D01*
X0070717Y0059521D02*
X0108438Y0059521D01*
X0108484Y0059567D02*
X0107331Y0058414D01*
X0107331Y0056784D01*
X0108484Y0055630D01*
X0110115Y0055630D01*
X0111268Y0056784D01*
X0111268Y0058414D01*
X0110115Y0059567D01*
X0108484Y0059567D01*
X0107652Y0058735D02*
X0070717Y0058735D01*
X0070701Y0057949D02*
X0107331Y0057949D01*
X0107331Y0057164D02*
X0070392Y0057164D01*
X0070717Y0056378D02*
X0107737Y0056378D01*
X0110862Y0056378D02*
X0115217Y0056378D01*
X0114811Y0056784D02*
X0115964Y0055630D01*
X0117595Y0055630D01*
X0118748Y0056784D01*
X0118748Y0058414D01*
X0117595Y0059567D01*
X0115964Y0059567D01*
X0114811Y0058414D01*
X0114811Y0056784D01*
X0114811Y0057164D02*
X0111268Y0057164D01*
X0111268Y0057949D02*
X0114811Y0057949D01*
X0115132Y0058735D02*
X0110947Y0058735D01*
X0110161Y0059521D02*
X0115918Y0059521D01*
X0117641Y0059521D02*
X0132926Y0059521D01*
X0132140Y0058735D02*
X0118427Y0058735D01*
X0118748Y0057949D02*
X0131819Y0057949D01*
X0131819Y0057164D02*
X0118748Y0057164D01*
X0118342Y0056378D02*
X0120255Y0056378D01*
X0119469Y0055592D02*
X0070717Y0055592D01*
X0070314Y0054806D02*
X0119142Y0054806D01*
X0119142Y0054020D02*
X0012843Y0054020D01*
X0012843Y0054806D02*
X0051434Y0054806D01*
X0051031Y0055592D02*
X0012843Y0055592D01*
X0012843Y0056378D02*
X0019273Y0056378D01*
X0019030Y0056540D02*
X0019564Y0056183D01*
X0020158Y0055937D01*
X0020789Y0055812D01*
X0020963Y0055812D01*
X0020963Y0058928D01*
X0017846Y0058928D01*
X0017846Y0058754D01*
X0017972Y0058123D01*
X0018218Y0057529D01*
X0018575Y0056995D01*
X0019030Y0056540D01*
X0018462Y0057164D02*
X0012843Y0057164D01*
X0012843Y0057949D02*
X0018044Y0057949D01*
X0017850Y0058735D02*
X0012843Y0058735D01*
X0012843Y0059521D02*
X0017871Y0059521D01*
X0018088Y0060307D02*
X0012843Y0060307D01*
X0012843Y0061093D02*
X0018533Y0061093D01*
X0019432Y0061879D02*
X0012843Y0061879D01*
X0012843Y0062665D02*
X0029307Y0062665D01*
X0028958Y0063451D02*
X0012843Y0063451D01*
X0012843Y0064237D02*
X0028787Y0064237D01*
X0028787Y0065023D02*
X0012843Y0065023D01*
X0012843Y0065809D02*
X0029075Y0065809D01*
X0029589Y0066594D02*
X0012843Y0066594D01*
X0012843Y0067380D02*
X0030688Y0067380D01*
X0033186Y0067380D02*
X0042797Y0067380D01*
X0042933Y0067245D02*
X0044563Y0067245D01*
X0045717Y0068398D01*
X0045717Y0070028D01*
X0044563Y0071182D01*
X0042933Y0071182D01*
X0041780Y0070028D01*
X0041780Y0068398D01*
X0042933Y0067245D01*
X0042011Y0068166D02*
X0012843Y0068166D01*
X0012843Y0068952D02*
X0041780Y0068952D01*
X0041780Y0069738D02*
X0012843Y0069738D01*
X0012843Y0070524D02*
X0042275Y0070524D01*
X0045221Y0070524D02*
X0129811Y0070524D01*
X0132095Y0070524D02*
X0165717Y0070524D01*
X0165717Y0069738D02*
X0045717Y0069738D01*
X0045717Y0068952D02*
X0052121Y0068952D01*
X0052185Y0069016D02*
X0051031Y0067863D01*
X0051031Y0066232D01*
X0051791Y0065473D01*
X0051031Y0064714D01*
X0051031Y0063083D01*
X0052185Y0061930D01*
X0053815Y0061930D01*
X0054968Y0063083D01*
X0054968Y0064714D01*
X0054209Y0065473D01*
X0054772Y0066036D01*
X0055728Y0065079D01*
X0057359Y0065079D01*
X0058512Y0066232D01*
X0058512Y0067863D01*
X0057359Y0069016D01*
X0055728Y0069016D01*
X0054772Y0068060D01*
X0053815Y0069016D01*
X0052185Y0069016D01*
X0051335Y0068166D02*
X0045485Y0068166D01*
X0044699Y0067380D02*
X0051031Y0067380D01*
X0051031Y0066594D02*
X0034285Y0066594D01*
X0034799Y0065809D02*
X0051455Y0065809D01*
X0051341Y0065023D02*
X0035087Y0065023D01*
X0035087Y0064237D02*
X0051031Y0064237D01*
X0051031Y0063451D02*
X0037051Y0063451D01*
X0036465Y0063451D02*
X0035677Y0063451D01*
X0035090Y0063451D02*
X0034916Y0063451D01*
X0035677Y0062665D02*
X0036465Y0062665D01*
X0036465Y0061879D02*
X0035677Y0061879D01*
X0035677Y0061093D02*
X0036465Y0061093D01*
X0036465Y0060307D02*
X0035677Y0060307D01*
X0032437Y0061093D02*
X0023687Y0061093D01*
X0024133Y0060307D02*
X0032218Y0060307D01*
X0030092Y0061879D02*
X0022789Y0061879D01*
X0021258Y0061879D02*
X0020963Y0061879D01*
X0020963Y0061093D02*
X0021258Y0061093D01*
X0021258Y0060307D02*
X0020963Y0060307D01*
X0020963Y0059521D02*
X0021258Y0059521D01*
X0021258Y0058735D02*
X0020963Y0058735D01*
X0020963Y0057949D02*
X0021258Y0057949D01*
X0021258Y0057164D02*
X0020963Y0057164D01*
X0020963Y0056378D02*
X0021258Y0056378D01*
X0012843Y0053234D02*
X0119542Y0053234D01*
X0121966Y0056378D02*
X0132225Y0056378D01*
X0134181Y0061879D02*
X0039287Y0061879D01*
X0038592Y0062665D02*
X0051449Y0062665D01*
X0054551Y0062665D02*
X0067197Y0062665D01*
X0066780Y0063451D02*
X0054968Y0063451D01*
X0054968Y0064237D02*
X0066780Y0064237D01*
X0067089Y0065023D02*
X0054659Y0065023D01*
X0054545Y0065809D02*
X0054999Y0065809D01*
X0058088Y0065809D02*
X0059329Y0065809D01*
X0058906Y0066232D02*
X0060059Y0065079D01*
X0061689Y0065079D01*
X0062843Y0066232D01*
X0062843Y0067863D01*
X0061689Y0069016D01*
X0060059Y0069016D01*
X0058906Y0067863D01*
X0058906Y0066232D01*
X0058906Y0066594D02*
X0058512Y0066594D01*
X0058512Y0067380D02*
X0058906Y0067380D01*
X0059209Y0068166D02*
X0058209Y0068166D01*
X0057423Y0068952D02*
X0059995Y0068952D01*
X0061753Y0068952D02*
X0064325Y0068952D01*
X0063539Y0068166D02*
X0062539Y0068166D01*
X0062843Y0067380D02*
X0063236Y0067380D01*
X0063236Y0066594D02*
X0062843Y0066594D01*
X0062419Y0065809D02*
X0063660Y0065809D01*
X0066749Y0065809D02*
X0067203Y0065809D01*
X0067083Y0068166D02*
X0066870Y0068166D01*
X0066084Y0068952D02*
X0067869Y0068952D01*
X0069627Y0068952D02*
X0166323Y0068952D01*
X0169047Y0068952D02*
X0169142Y0068952D01*
X0169654Y0070524D02*
X0170228Y0070524D01*
X0166623Y0072096D02*
X0132921Y0072096D01*
X0132881Y0071310D02*
X0165837Y0071310D01*
X0181209Y0075240D02*
X0110432Y0075240D01*
X0110874Y0075681D02*
X0109721Y0074528D01*
X0108090Y0074528D01*
X0106937Y0075681D01*
X0106937Y0077312D01*
X0108090Y0078465D01*
X0109721Y0078465D01*
X0110874Y0077312D01*
X0110874Y0075681D01*
X0110874Y0076025D02*
X0114231Y0076025D01*
X0113787Y0076811D02*
X0110874Y0076811D01*
X0110589Y0077597D02*
X0113787Y0077597D01*
X0114071Y0078383D02*
X0109803Y0078383D01*
X0108008Y0078383D02*
X0069645Y0078383D01*
X0070431Y0077597D02*
X0107222Y0077597D01*
X0106937Y0076811D02*
X0070717Y0076811D01*
X0070717Y0076025D02*
X0106937Y0076025D01*
X0107379Y0075240D02*
X0070275Y0075240D01*
X0067221Y0075240D02*
X0049994Y0075240D01*
X0050461Y0074454D02*
X0181393Y0074454D01*
X0181209Y0076025D02*
X0117281Y0076025D01*
X0117724Y0076811D02*
X0181751Y0076811D01*
X0182528Y0064237D02*
X0173839Y0064237D01*
X0190184Y0050876D02*
X0197892Y0050876D01*
X0196902Y0050090D02*
X0190264Y0050090D01*
X0190264Y0049304D02*
X0196116Y0049304D01*
X0195543Y0048518D02*
X0189617Y0048518D01*
X0194892Y0046947D02*
X0159870Y0046947D01*
X0159870Y0046161D02*
X0194693Y0046161D01*
X0194693Y0045375D02*
X0159870Y0045375D01*
X0156710Y0044589D02*
X0114152Y0044589D01*
X0113776Y0044213D02*
X0114929Y0045366D01*
X0114929Y0046997D01*
X0113776Y0048150D01*
X0112145Y0048150D01*
X0110992Y0046997D01*
X0110992Y0045366D01*
X0112145Y0044213D01*
X0113776Y0044213D01*
X0114780Y0043803D02*
X0107756Y0043803D01*
X0108976Y0043017D02*
X0113559Y0043017D01*
X0112865Y0042231D02*
X0109670Y0042231D01*
X0109996Y0041445D02*
X0112540Y0041445D01*
X0112331Y0040659D02*
X0110205Y0040659D01*
X0110205Y0039873D02*
X0112331Y0039873D01*
X0112450Y0039088D02*
X0110086Y0039088D01*
X0109760Y0038302D02*
X0112775Y0038302D01*
X0113342Y0037516D02*
X0109193Y0037516D01*
X0103342Y0037516D02*
X0099193Y0037516D01*
X0099760Y0038302D02*
X0102775Y0038302D01*
X0102450Y0039088D02*
X0100086Y0039088D01*
X0100205Y0039873D02*
X0102331Y0039873D01*
X0102331Y0040659D02*
X0100205Y0040659D01*
X0099996Y0041445D02*
X0102540Y0041445D01*
X0102865Y0042231D02*
X0099670Y0042231D01*
X0098976Y0043017D02*
X0103559Y0043017D01*
X0104780Y0043803D02*
X0097756Y0043803D01*
X0094780Y0043803D02*
X0087756Y0043803D01*
X0088976Y0043017D02*
X0093559Y0043017D01*
X0092865Y0042231D02*
X0089670Y0042231D01*
X0089996Y0041445D02*
X0092540Y0041445D01*
X0092331Y0040659D02*
X0090205Y0040659D01*
X0090205Y0039873D02*
X0092331Y0039873D01*
X0092450Y0039088D02*
X0090086Y0039088D01*
X0089760Y0038302D02*
X0092775Y0038302D01*
X0093342Y0037516D02*
X0089193Y0037516D01*
X0083342Y0037516D02*
X0079193Y0037516D01*
X0079760Y0038302D02*
X0082775Y0038302D01*
X0082450Y0039088D02*
X0080086Y0039088D01*
X0080205Y0039873D02*
X0082331Y0039873D01*
X0082331Y0040659D02*
X0080205Y0040659D01*
X0079996Y0041445D02*
X0082540Y0041445D01*
X0082865Y0042231D02*
X0079670Y0042231D01*
X0078976Y0043017D02*
X0083559Y0043017D01*
X0084780Y0043803D02*
X0077756Y0043803D01*
X0074780Y0043803D02*
X0073866Y0043803D01*
X0073518Y0044589D02*
X0111769Y0044589D01*
X0110992Y0045375D02*
X0072732Y0045375D01*
X0072291Y0046161D02*
X0110992Y0046161D01*
X0110992Y0046947D02*
X0072291Y0046947D01*
X0071556Y0047733D02*
X0111728Y0047733D01*
X0114194Y0047733D02*
X0156669Y0047733D01*
X0155933Y0046947D02*
X0114929Y0046947D01*
X0114929Y0046161D02*
X0155933Y0046161D01*
X0155933Y0045375D02*
X0114929Y0045375D01*
X0117756Y0043803D02*
X0124780Y0043803D01*
X0123559Y0043017D02*
X0118976Y0043017D01*
X0119670Y0042231D02*
X0122865Y0042231D01*
X0122540Y0041445D02*
X0119996Y0041445D01*
X0120205Y0040659D02*
X0122331Y0040659D01*
X0122331Y0039873D02*
X0120205Y0039873D01*
X0120086Y0039088D02*
X0122450Y0039088D01*
X0122775Y0038302D02*
X0119760Y0038302D01*
X0119193Y0037516D02*
X0123342Y0037516D01*
X0129193Y0037516D02*
X0133342Y0037516D01*
X0132775Y0038302D02*
X0129760Y0038302D01*
X0130086Y0039088D02*
X0132450Y0039088D01*
X0132331Y0039873D02*
X0130205Y0039873D01*
X0130205Y0040659D02*
X0132331Y0040659D01*
X0132540Y0041445D02*
X0129996Y0041445D01*
X0129670Y0042231D02*
X0132865Y0042231D01*
X0133559Y0043017D02*
X0128976Y0043017D01*
X0127756Y0043803D02*
X0134780Y0043803D01*
X0137756Y0043803D02*
X0144780Y0043803D01*
X0143559Y0043017D02*
X0138976Y0043017D01*
X0139670Y0042231D02*
X0142865Y0042231D01*
X0142540Y0041445D02*
X0139996Y0041445D01*
X0140205Y0040659D02*
X0142331Y0040659D01*
X0142331Y0039873D02*
X0140205Y0039873D01*
X0140086Y0039088D02*
X0142450Y0039088D01*
X0142775Y0038302D02*
X0139760Y0038302D01*
X0139193Y0037516D02*
X0143342Y0037516D01*
X0149193Y0037516D02*
X0153342Y0037516D01*
X0152775Y0038302D02*
X0149760Y0038302D01*
X0150086Y0039088D02*
X0152450Y0039088D01*
X0152331Y0039873D02*
X0150205Y0039873D01*
X0150205Y0040659D02*
X0152331Y0040659D01*
X0152540Y0041445D02*
X0149996Y0041445D01*
X0149670Y0042231D02*
X0152865Y0042231D01*
X0153559Y0043017D02*
X0148976Y0043017D01*
X0147756Y0043803D02*
X0154780Y0043803D01*
X0159134Y0047733D02*
X0195218Y0047733D01*
X0204643Y0050876D02*
X0217903Y0050876D01*
X0217117Y0050090D02*
X0205634Y0050090D01*
X0206419Y0049304D02*
X0216996Y0049304D01*
X0216996Y0048518D02*
X0206992Y0048518D01*
X0207318Y0047733D02*
X0217602Y0047733D01*
X0219879Y0046947D02*
X0207643Y0046947D01*
X0207843Y0046161D02*
X0219535Y0046161D01*
X0219535Y0045375D02*
X0207843Y0045375D01*
X0220327Y0047733D02*
X0220665Y0047733D01*
X0241630Y0045375D02*
X0254783Y0045375D01*
X0257950Y0045375D02*
X0288079Y0045375D01*
X0288079Y0044589D02*
X0242370Y0044589D01*
X0242370Y0043803D02*
X0288106Y0043803D01*
X0288892Y0043017D02*
X0242370Y0043017D01*
X0242346Y0052448D02*
X0243458Y0052448D01*
X0129671Y0073668D02*
X0050461Y0073668D01*
X0050201Y0072882D02*
X0128984Y0072882D01*
X0067491Y0060307D02*
X0054257Y0060307D01*
X0054968Y0059521D02*
X0066780Y0059521D01*
X0066780Y0058735D02*
X0054968Y0058735D01*
X0054953Y0057949D02*
X0055685Y0057949D01*
X0054899Y0057164D02*
X0054644Y0057164D01*
X0057402Y0057949D02*
X0059228Y0057949D01*
X0058442Y0057164D02*
X0058188Y0057164D01*
X0060945Y0057949D02*
X0064149Y0057949D01*
X0063363Y0057164D02*
X0061731Y0057164D01*
X0062055Y0056378D02*
X0063039Y0056378D01*
X0063039Y0055592D02*
X0062055Y0055592D01*
X0061652Y0054806D02*
X0063442Y0054806D01*
X0066573Y0054806D02*
X0067182Y0054806D01*
X0067104Y0057164D02*
X0066652Y0057164D01*
X0066795Y0057949D02*
X0065866Y0057949D01*
X0058521Y0054806D02*
X0058109Y0054806D01*
X0054978Y0054806D02*
X0054566Y0054806D01*
X0054665Y0068166D02*
X0054878Y0068166D01*
X0055664Y0068952D02*
X0053879Y0068952D01*
X0062142Y0095673D02*
X0044646Y0095673D01*
X0045432Y0096459D02*
X0061356Y0096459D01*
X0061268Y0097245D02*
X0045520Y0097245D01*
X0045520Y0098031D02*
X0061268Y0098031D01*
X0061907Y0098817D02*
X0044881Y0098817D01*
X0039708Y0099603D02*
X0012843Y0099603D01*
X0012843Y0100389D02*
X0039220Y0100389D01*
X0039220Y0101175D02*
X0012843Y0101175D01*
X0023264Y0107462D02*
X0063071Y0107462D01*
X0064581Y0110606D02*
X0139614Y0110606D01*
X0140229Y0111392D02*
X0065367Y0111392D01*
X0065266Y0113749D02*
X0136585Y0113749D01*
X0139493Y0113749D02*
X0168475Y0113749D01*
X0167689Y0114535D02*
X0140008Y0114535D01*
X0140008Y0115321D02*
X0167567Y0115321D01*
X0167567Y0116107D02*
X0139795Y0116107D01*
X0139010Y0116893D02*
X0143965Y0116893D01*
X0143179Y0117679D02*
X0139356Y0117679D01*
X0139828Y0118465D02*
X0142708Y0118465D01*
X0142382Y0119251D02*
X0140153Y0119251D01*
X0140205Y0120037D02*
X0142331Y0120037D01*
X0142331Y0120822D02*
X0140205Y0120822D01*
X0139928Y0121608D02*
X0142607Y0121608D01*
X0142936Y0122394D02*
X0139599Y0122394D01*
X0138813Y0123180D02*
X0143722Y0123180D01*
X0148813Y0123180D02*
X0153722Y0123180D01*
X0152936Y0122394D02*
X0149599Y0122394D01*
X0149928Y0121608D02*
X0152607Y0121608D01*
X0152331Y0120822D02*
X0150205Y0120822D01*
X0150205Y0120037D02*
X0152331Y0120037D01*
X0152382Y0119251D02*
X0150153Y0119251D01*
X0149828Y0118465D02*
X0152708Y0118465D01*
X0153179Y0117679D02*
X0149356Y0117679D01*
X0148570Y0116893D02*
X0153965Y0116893D01*
X0158570Y0116893D02*
X0163965Y0116893D01*
X0163179Y0117679D02*
X0159356Y0117679D01*
X0159828Y0118465D02*
X0162708Y0118465D01*
X0162382Y0119251D02*
X0160153Y0119251D01*
X0160205Y0120037D02*
X0162331Y0120037D01*
X0162331Y0120822D02*
X0160205Y0120822D01*
X0159928Y0121608D02*
X0162607Y0121608D01*
X0162936Y0122394D02*
X0159599Y0122394D01*
X0158813Y0123180D02*
X0163722Y0123180D01*
X0168813Y0123180D02*
X0173722Y0123180D01*
X0172936Y0122394D02*
X0169599Y0122394D01*
X0169928Y0121608D02*
X0172607Y0121608D01*
X0172331Y0120822D02*
X0170205Y0120822D01*
X0170205Y0120037D02*
X0172331Y0120037D01*
X0172382Y0119251D02*
X0170153Y0119251D01*
X0169828Y0118465D02*
X0172708Y0118465D01*
X0173179Y0117679D02*
X0169356Y0117679D01*
X0170899Y0116893D02*
X0173965Y0116893D01*
X0178570Y0116893D02*
X0183965Y0116893D01*
X0183179Y0117679D02*
X0179356Y0117679D01*
X0179828Y0118465D02*
X0182708Y0118465D01*
X0182382Y0119251D02*
X0180153Y0119251D01*
X0180205Y0120037D02*
X0182331Y0120037D01*
X0182331Y0120822D02*
X0180205Y0120822D01*
X0179928Y0121608D02*
X0182607Y0121608D01*
X0182936Y0122394D02*
X0179599Y0122394D01*
X0178813Y0123180D02*
X0183722Y0123180D01*
X0136283Y0116107D02*
X0039373Y0116107D01*
X0037099Y0116107D02*
X0029142Y0116107D01*
X0029072Y0116893D02*
X0036313Y0116893D01*
X0036071Y0117679D02*
X0028746Y0117679D01*
X0033349Y0118465D02*
X0036071Y0118465D01*
X0036393Y0119251D02*
X0034431Y0119251D01*
X0038433Y0102746D02*
X0040246Y0102746D01*
X0039460Y0101961D02*
X0037941Y0101961D01*
X0042132Y0102746D02*
X0083709Y0102746D01*
X0083807Y0101961D02*
X0042918Y0101961D01*
X0078570Y0116893D02*
X0083965Y0116893D01*
X0083179Y0117679D02*
X0079356Y0117679D01*
X0079828Y0118465D02*
X0082708Y0118465D01*
X0082382Y0119251D02*
X0080153Y0119251D01*
X0080205Y0120037D02*
X0082331Y0120037D01*
X0082331Y0120822D02*
X0080205Y0120822D01*
X0079928Y0121608D02*
X0082607Y0121608D01*
X0082936Y0122394D02*
X0079599Y0122394D01*
X0078813Y0123180D02*
X0083722Y0123180D01*
X0088813Y0123180D02*
X0093722Y0123180D01*
X0092936Y0122394D02*
X0089599Y0122394D01*
X0089928Y0121608D02*
X0092607Y0121608D01*
X0092331Y0120822D02*
X0090205Y0120822D01*
X0090205Y0120037D02*
X0092331Y0120037D01*
X0092382Y0119251D02*
X0090153Y0119251D01*
X0089828Y0118465D02*
X0092708Y0118465D01*
X0093179Y0117679D02*
X0089356Y0117679D01*
X0088570Y0116893D02*
X0093965Y0116893D01*
X0098570Y0116893D02*
X0103965Y0116893D01*
X0103179Y0117679D02*
X0099356Y0117679D01*
X0099828Y0118465D02*
X0102708Y0118465D01*
X0102382Y0119251D02*
X0100153Y0119251D01*
X0100205Y0120037D02*
X0102331Y0120037D01*
X0102331Y0120822D02*
X0100205Y0120822D01*
X0099928Y0121608D02*
X0102607Y0121608D01*
X0102936Y0122394D02*
X0099599Y0122394D01*
X0098813Y0123180D02*
X0103722Y0123180D01*
X0108813Y0123180D02*
X0113722Y0123180D01*
X0112936Y0122394D02*
X0109599Y0122394D01*
X0109928Y0121608D02*
X0112607Y0121608D01*
X0112331Y0120822D02*
X0110205Y0120822D01*
X0110205Y0120037D02*
X0112331Y0120037D01*
X0112382Y0119251D02*
X0110153Y0119251D01*
X0109828Y0118465D02*
X0112708Y0118465D01*
X0113179Y0117679D02*
X0109356Y0117679D01*
X0108570Y0116893D02*
X0113965Y0116893D01*
X0118570Y0116893D02*
X0123965Y0116893D01*
X0123179Y0117679D02*
X0119356Y0117679D01*
X0119828Y0118465D02*
X0122708Y0118465D01*
X0122382Y0119251D02*
X0120153Y0119251D01*
X0120205Y0120037D02*
X0122331Y0120037D01*
X0122331Y0120822D02*
X0120205Y0120822D01*
X0119928Y0121608D02*
X0122607Y0121608D01*
X0122936Y0122394D02*
X0119599Y0122394D01*
X0118813Y0123180D02*
X0123722Y0123180D01*
X0128813Y0123180D02*
X0133722Y0123180D01*
X0132936Y0122394D02*
X0129599Y0122394D01*
X0129928Y0121608D02*
X0132607Y0121608D01*
X0132331Y0120822D02*
X0130205Y0120822D01*
X0130205Y0120037D02*
X0132331Y0120037D01*
X0132382Y0119251D02*
X0130153Y0119251D01*
X0129828Y0118465D02*
X0132708Y0118465D01*
X0133179Y0117679D02*
X0129356Y0117679D01*
X0128570Y0116893D02*
X0133965Y0116893D01*
X0072775Y0038302D02*
X0070200Y0038302D01*
X0069721Y0037516D02*
X0073342Y0037516D01*
M02*
