G75*
%MOIN*%
%OFA0B0*%
%FSLAX25Y25*%
%IPPOS*%
%LPD*%
%AMOC8*
5,1,8,0,0,1.08239X$1,22.5*
%
%ADD10R,0.02756X0.02756*%
%ADD11R,0.03543X0.04331*%
%ADD12R,0.02756X0.02362*%
%ADD13R,0.02394X0.03898*%
%ADD14R,0.03898X0.02394*%
%ADD15R,0.03898X0.03898*%
%ADD16R,0.04331X0.08268*%
%ADD17R,0.13386X0.08268*%
%ADD18C,0.10394*%
%ADD19C,0.15394*%
%ADD20C,0.07394*%
%ADD21R,0.02559X0.02756*%
%ADD22R,0.02756X0.02559*%
%ADD23R,0.05906X0.04331*%
%ADD24R,0.09055X0.04528*%
%ADD25R,0.04528X0.04331*%
%ADD26R,0.03937X0.04331*%
%ADD27R,0.02756X0.03543*%
%ADD28R,0.04016X0.01654*%
%ADD29C,0.00394*%
%ADD30R,0.01654X0.04016*%
%ADD31R,0.24409X0.24409*%
%ADD32C,0.05413*%
%ADD33C,0.04134*%
%ADD34C,0.03543*%
%ADD35R,0.05906X0.04921*%
%ADD36R,0.09055X0.05906*%
%ADD37R,0.03937X0.05906*%
%ADD38R,0.05118X0.02559*%
%ADD39C,0.02756*%
%ADD40R,0.05906X0.09055*%
%ADD41R,0.05906X0.03937*%
%ADD42R,0.03543X0.03937*%
%ADD43R,0.05512X0.01772*%
%ADD44R,0.04134X0.04331*%
%ADD45R,0.04724X0.04331*%
%ADD46R,0.05118X0.06299*%
D10*
X0065126Y0049331D03*
X0070323Y0049331D03*
X0070323Y0052875D03*
X0065126Y0052875D03*
X0091504Y0054528D03*
X0095047Y0054528D03*
X0099142Y0054528D03*
X0102685Y0054528D03*
X0127154Y0067304D03*
X0127154Y0070847D03*
X0122331Y0075355D03*
X0118709Y0074587D03*
X0126130Y0075827D03*
X0126130Y0079371D03*
X0122331Y0078898D03*
X0118709Y0078918D03*
X0142567Y0070197D03*
X0146110Y0070197D03*
X0173079Y0077087D03*
X0173079Y0080630D03*
X0186602Y0074823D03*
X0186602Y0071280D03*
X0215598Y0077343D03*
X0219142Y0077343D03*
X0173472Y0091654D03*
X0173472Y0095197D03*
X0173276Y0108642D03*
X0169732Y0108642D03*
X0169732Y0112323D03*
X0173276Y0112323D03*
X0166189Y0111930D03*
X0162646Y0111930D03*
X0152252Y0111930D03*
X0148709Y0111930D03*
X0137646Y0109961D03*
X0134102Y0109961D03*
X0130402Y0109115D03*
X0130402Y0112658D03*
X0116740Y0100158D03*
X0113197Y0100158D03*
X0109339Y0098623D03*
X0109339Y0094292D03*
X0112980Y0094686D03*
X0117311Y0094686D03*
X0121366Y0095000D03*
X0125106Y0095000D03*
X0125106Y0091457D03*
X0121366Y0091457D03*
X0080953Y0087323D03*
X0077409Y0087323D03*
X0077409Y0083780D03*
X0080953Y0083780D03*
X0065520Y0088839D03*
X0065520Y0092382D03*
X0049850Y0093623D03*
X0046307Y0093623D03*
X0188925Y0110099D03*
X0192469Y0110099D03*
X0212055Y0110099D03*
X0215598Y0110099D03*
X0285283Y0102087D03*
X0285283Y0098544D03*
X0297449Y0098544D03*
X0297449Y0102087D03*
X0301425Y0102087D03*
X0304969Y0102087D03*
X0305126Y0074528D03*
X0301583Y0074528D03*
X0297488Y0074528D03*
X0297488Y0070985D03*
X0285244Y0070985D03*
X0285244Y0074528D03*
X0271346Y0049725D03*
X0267508Y0049725D03*
X0263531Y0049725D03*
X0259594Y0049725D03*
X0259594Y0046182D03*
X0263531Y0046182D03*
X0267508Y0046182D03*
X0271346Y0046182D03*
X0236504Y0045611D03*
X0232961Y0045611D03*
X0229024Y0045611D03*
X0229024Y0049154D03*
X0232961Y0049154D03*
X0236504Y0049154D03*
D11*
X0082075Y0053071D03*
X0074594Y0053071D03*
X0078335Y0063308D03*
X0039358Y0069804D03*
X0031878Y0069804D03*
X0035618Y0080040D03*
D12*
X0308866Y0074528D03*
X0308866Y0070591D03*
X0308945Y0098150D03*
X0308945Y0102087D03*
D13*
X0272823Y0103662D03*
X0269673Y0103662D03*
X0266524Y0103662D03*
X0263374Y0103662D03*
X0260224Y0103662D03*
X0257075Y0103662D03*
X0253925Y0103662D03*
X0250776Y0103662D03*
X0247626Y0103662D03*
X0244476Y0103662D03*
X0241327Y0103662D03*
X0238177Y0103662D03*
X0235028Y0103662D03*
X0231878Y0103662D03*
X0233453Y0098937D03*
X0236602Y0098937D03*
X0239752Y0098937D03*
X0242902Y0098937D03*
X0246051Y0098937D03*
X0249201Y0098937D03*
X0252350Y0098937D03*
X0255500Y0098937D03*
X0258650Y0098937D03*
X0261799Y0098937D03*
X0264949Y0098937D03*
X0268098Y0098937D03*
X0271248Y0098937D03*
X0271248Y0062323D03*
X0268098Y0062323D03*
X0264949Y0062323D03*
X0261799Y0062323D03*
X0258650Y0062323D03*
X0255500Y0062323D03*
X0252350Y0062323D03*
X0249201Y0062323D03*
X0246051Y0062323D03*
X0242902Y0062323D03*
X0239752Y0062323D03*
X0236602Y0062323D03*
X0233453Y0062323D03*
X0235028Y0057599D03*
X0238177Y0057599D03*
X0241327Y0057599D03*
X0244476Y0057599D03*
X0247626Y0057599D03*
X0250776Y0057599D03*
X0253925Y0057599D03*
X0257075Y0057599D03*
X0260224Y0057599D03*
X0263374Y0057599D03*
X0266524Y0057599D03*
X0269673Y0057599D03*
X0272823Y0057599D03*
X0231878Y0057599D03*
D14*
X0232272Y0068032D03*
X0236996Y0069607D03*
X0232272Y0071182D03*
X0236996Y0072756D03*
X0232272Y0074331D03*
X0236996Y0075906D03*
X0232272Y0077481D03*
X0236996Y0079056D03*
X0232272Y0080630D03*
X0236996Y0082205D03*
X0232272Y0083780D03*
X0236996Y0085355D03*
X0232272Y0086930D03*
X0236996Y0088504D03*
X0232272Y0090079D03*
X0236996Y0091654D03*
X0232272Y0093229D03*
X0267705Y0091654D03*
X0272429Y0090079D03*
X0267705Y0088504D03*
X0272429Y0086930D03*
X0267705Y0085355D03*
X0272429Y0083780D03*
X0267705Y0082205D03*
X0272429Y0080630D03*
X0267705Y0079056D03*
X0272429Y0077481D03*
X0267705Y0075906D03*
X0272429Y0074331D03*
X0267705Y0072756D03*
X0272429Y0071182D03*
X0267705Y0069607D03*
X0272429Y0068032D03*
X0272429Y0093229D03*
D15*
X0260618Y0088898D03*
X0255106Y0088898D03*
X0249594Y0088898D03*
X0244083Y0088898D03*
X0244083Y0083386D03*
X0249594Y0083386D03*
X0255106Y0083386D03*
X0260618Y0083386D03*
X0260618Y0077875D03*
X0255106Y0077875D03*
X0249594Y0077875D03*
X0244083Y0077875D03*
X0244083Y0072363D03*
X0249594Y0072363D03*
X0255106Y0072363D03*
X0260618Y0072363D03*
D16*
X0104378Y0084764D03*
X0095323Y0084764D03*
X0086268Y0084764D03*
X0069929Y0084764D03*
X0060874Y0084764D03*
X0051819Y0084764D03*
D17*
X0060874Y0061536D03*
X0095323Y0061536D03*
D18*
X0201268Y0045158D03*
X0201268Y0115158D03*
D19*
X0021268Y0115158D03*
X0021268Y0045158D03*
D20*
X0036268Y0040158D03*
X0046268Y0040158D03*
X0056268Y0040158D03*
X0066268Y0040158D03*
X0076268Y0040158D03*
X0086268Y0040158D03*
X0096268Y0040158D03*
X0106268Y0040158D03*
X0116268Y0040158D03*
X0126268Y0040158D03*
X0136268Y0040158D03*
X0146268Y0040158D03*
X0156268Y0040158D03*
X0166268Y0040158D03*
X0176268Y0040158D03*
X0186268Y0040158D03*
X0186268Y0120158D03*
X0176268Y0120158D03*
X0166268Y0120158D03*
X0156268Y0120158D03*
X0146268Y0120158D03*
X0136268Y0120158D03*
X0126268Y0120158D03*
X0116268Y0120158D03*
X0106268Y0120158D03*
X0096268Y0120158D03*
X0086268Y0120158D03*
X0076268Y0120158D03*
D21*
X0180559Y0084764D03*
X0184496Y0084764D03*
X0183315Y0098937D03*
X0187252Y0098937D03*
X0212055Y0114036D03*
X0215992Y0114036D03*
X0244909Y0114961D03*
X0248846Y0114961D03*
X0248846Y0120591D03*
X0244909Y0120591D03*
X0289260Y0102087D03*
X0293197Y0102087D03*
X0293039Y0074528D03*
X0289102Y0074528D03*
X0179772Y0065808D03*
X0175835Y0065808D03*
X0175835Y0062107D03*
X0179772Y0062107D03*
X0179772Y0058445D03*
X0175835Y0058445D03*
X0175835Y0054764D03*
X0179772Y0054764D03*
X0026937Y0076300D03*
X0023000Y0076300D03*
X0023701Y0069941D03*
X0019764Y0069941D03*
D22*
X0024063Y0094410D03*
X0024063Y0098347D03*
X0043807Y0100945D03*
X0043807Y0104882D03*
X0086996Y0099981D03*
X0086996Y0096044D03*
X0121307Y0071319D03*
X0121307Y0067382D03*
X0185283Y0091457D03*
X0185283Y0095394D03*
X0201819Y0085552D03*
X0201819Y0081615D03*
X0220953Y0072245D03*
X0220953Y0068308D03*
D23*
X0237035Y0114430D03*
X0228374Y0118170D03*
X0237035Y0121910D03*
X0069148Y0121214D03*
X0069148Y0115702D03*
X0054187Y0115702D03*
X0047346Y0115702D03*
X0047346Y0121214D03*
X0054187Y0121214D03*
X0032386Y0121214D03*
X0032386Y0115702D03*
D24*
X0319929Y0107894D03*
X0319929Y0096280D03*
X0319929Y0080335D03*
X0319929Y0068721D03*
D25*
X0313925Y0074528D03*
X0313925Y0102087D03*
D26*
X0014654Y0104252D03*
X0014654Y0092441D03*
X0014654Y0086063D03*
X0014654Y0074252D03*
X0014654Y0068063D03*
X0014654Y0056252D03*
D27*
X0015244Y0062158D03*
X0015244Y0080158D03*
X0015244Y0098347D03*
D28*
X0137449Y0098937D03*
X0137449Y0100906D03*
X0137449Y0096969D03*
X0137449Y0095000D03*
X0137449Y0093032D03*
X0137449Y0091063D03*
X0137449Y0089095D03*
X0137449Y0087126D03*
X0137449Y0085158D03*
X0137449Y0083189D03*
X0137449Y0081221D03*
X0137449Y0079252D03*
X0168945Y0079252D03*
X0168945Y0081221D03*
X0168945Y0083189D03*
X0168945Y0085158D03*
X0168945Y0087126D03*
X0168945Y0089095D03*
X0168945Y0091063D03*
X0168945Y0093032D03*
X0168945Y0095000D03*
X0168945Y0096969D03*
X0168945Y0098937D03*
X0168945Y0100906D03*
D29*
X0167134Y0102245D02*
X0170756Y0102245D01*
X0170756Y0103504D01*
X0167331Y0103504D01*
X0167134Y0103308D01*
X0167134Y0102245D01*
X0167134Y0102618D02*
X0170756Y0102618D01*
X0170756Y0103011D02*
X0167134Y0103011D01*
X0167229Y0103403D02*
X0170756Y0103403D01*
X0166622Y0104213D02*
X0166425Y0104016D01*
X0165362Y0104016D01*
X0165362Y0107638D01*
X0166622Y0107638D01*
X0166622Y0104213D01*
X0166596Y0104187D02*
X0165362Y0104187D01*
X0165362Y0104580D02*
X0166622Y0104580D01*
X0166622Y0104972D02*
X0165362Y0104972D01*
X0165362Y0105364D02*
X0166622Y0105364D01*
X0166622Y0105756D02*
X0165362Y0105756D01*
X0165362Y0106148D02*
X0166622Y0106148D01*
X0166622Y0106541D02*
X0165362Y0106541D01*
X0165362Y0106933D02*
X0166622Y0106933D01*
X0166622Y0107325D02*
X0165362Y0107325D01*
X0141031Y0107325D02*
X0139772Y0107325D01*
X0139772Y0107638D02*
X0139772Y0104213D01*
X0139969Y0104016D01*
X0141031Y0104016D01*
X0141031Y0107638D01*
X0139772Y0107638D01*
X0139772Y0106933D02*
X0141031Y0106933D01*
X0141031Y0106541D02*
X0139772Y0106541D01*
X0139772Y0106148D02*
X0141031Y0106148D01*
X0141031Y0105756D02*
X0139772Y0105756D01*
X0139772Y0105364D02*
X0141031Y0105364D01*
X0141031Y0104972D02*
X0139772Y0104972D01*
X0139772Y0104580D02*
X0141031Y0104580D01*
X0141031Y0104187D02*
X0139797Y0104187D01*
X0139063Y0103504D02*
X0135638Y0103504D01*
X0135638Y0102245D01*
X0139260Y0102245D01*
X0139260Y0103308D01*
X0139063Y0103504D01*
X0139165Y0103403D02*
X0135638Y0103403D01*
X0135638Y0103011D02*
X0139260Y0103011D01*
X0139260Y0102618D02*
X0135638Y0102618D01*
X0135638Y0077914D02*
X0139260Y0077914D01*
X0139260Y0076851D01*
X0139063Y0076654D01*
X0135638Y0076654D01*
X0135638Y0077914D01*
X0135638Y0077909D02*
X0139260Y0077909D01*
X0139260Y0077517D02*
X0135638Y0077517D01*
X0135638Y0077125D02*
X0139260Y0077125D01*
X0139141Y0076732D02*
X0135638Y0076732D01*
X0139772Y0075945D02*
X0139969Y0076142D01*
X0141031Y0076142D01*
X0141031Y0072520D01*
X0139772Y0072520D01*
X0139772Y0075945D01*
X0139774Y0075948D02*
X0141031Y0075948D01*
X0141031Y0075556D02*
X0139772Y0075556D01*
X0139772Y0075164D02*
X0141031Y0075164D01*
X0141031Y0074771D02*
X0139772Y0074771D01*
X0139772Y0074379D02*
X0141031Y0074379D01*
X0141031Y0073987D02*
X0139772Y0073987D01*
X0139772Y0073595D02*
X0141031Y0073595D01*
X0141031Y0073203D02*
X0139772Y0073203D01*
X0139772Y0072810D02*
X0141031Y0072810D01*
X0165362Y0072810D02*
X0166622Y0072810D01*
X0166622Y0072520D02*
X0166622Y0075945D01*
X0166425Y0076142D01*
X0165362Y0076142D01*
X0165362Y0072520D01*
X0166622Y0072520D01*
X0166622Y0073203D02*
X0165362Y0073203D01*
X0165362Y0073595D02*
X0166622Y0073595D01*
X0166622Y0073987D02*
X0165362Y0073987D01*
X0165362Y0074379D02*
X0166622Y0074379D01*
X0166622Y0074771D02*
X0165362Y0074771D01*
X0165362Y0075164D02*
X0166622Y0075164D01*
X0166622Y0075556D02*
X0165362Y0075556D01*
X0165362Y0075948D02*
X0166619Y0075948D01*
X0167331Y0076654D02*
X0167134Y0076851D01*
X0167134Y0077914D01*
X0170756Y0077914D01*
X0170756Y0076654D01*
X0167331Y0076654D01*
X0167252Y0076732D02*
X0170756Y0076732D01*
X0170756Y0077125D02*
X0167134Y0077125D01*
X0167134Y0077517D02*
X0170756Y0077517D01*
X0170756Y0077909D02*
X0167134Y0077909D01*
D30*
X0164024Y0074331D03*
X0162055Y0074331D03*
X0160087Y0074331D03*
X0158118Y0074331D03*
X0156150Y0074331D03*
X0154181Y0074331D03*
X0152213Y0074331D03*
X0150244Y0074331D03*
X0148276Y0074331D03*
X0146307Y0074331D03*
X0144339Y0074331D03*
X0142370Y0074331D03*
X0142370Y0105827D03*
X0144339Y0105827D03*
X0146307Y0105827D03*
X0148276Y0105827D03*
X0150244Y0105827D03*
X0152213Y0105827D03*
X0154181Y0105827D03*
X0156150Y0105827D03*
X0158118Y0105827D03*
X0160087Y0105827D03*
X0162055Y0105827D03*
X0164024Y0105827D03*
D31*
X0153197Y0090079D03*
D32*
X0038581Y0088997D02*
X0033561Y0088997D01*
X0033561Y0059666D02*
X0038581Y0059666D01*
D33*
X0022980Y0059075D02*
X0019240Y0059075D01*
X0019240Y0089587D02*
X0022980Y0089587D01*
D34*
X0031937Y0084174D03*
X0031937Y0064489D03*
D35*
X0115657Y0104961D03*
X0124319Y0104961D03*
X0124319Y0111260D03*
X0115657Y0111260D03*
D36*
X0095126Y0100178D03*
X0077606Y0107658D03*
D37*
X0087646Y0107658D03*
X0105165Y0100178D03*
D38*
X0081937Y0099784D03*
X0071701Y0099784D03*
X0071701Y0096044D03*
X0071701Y0092304D03*
X0081937Y0092304D03*
D39*
X0063433Y0112520D03*
X0063433Y0118426D03*
X0038236Y0118032D03*
X0038236Y0112126D03*
D40*
X0057272Y0094252D03*
D41*
X0057272Y0104292D03*
D42*
X0246976Y0049312D03*
X0253276Y0049312D03*
D43*
X0215776Y0053327D03*
X0215776Y0055886D03*
X0215776Y0058445D03*
X0215776Y0061004D03*
X0215776Y0063563D03*
X0215776Y0066123D03*
X0215776Y0068682D03*
X0215776Y0071241D03*
X0192547Y0071241D03*
X0192547Y0068682D03*
X0192547Y0066123D03*
X0192547Y0063563D03*
X0192547Y0061004D03*
X0192547Y0058445D03*
X0192547Y0055886D03*
X0192547Y0053327D03*
X0192547Y0088701D03*
X0192547Y0091260D03*
X0192547Y0093819D03*
X0192547Y0096378D03*
X0192547Y0098937D03*
X0192547Y0101497D03*
X0192547Y0104056D03*
X0192547Y0106615D03*
X0215776Y0106615D03*
X0215776Y0104056D03*
X0215776Y0101497D03*
X0215776Y0098937D03*
X0215776Y0096378D03*
X0215776Y0093819D03*
X0215776Y0091260D03*
X0215776Y0088701D03*
D44*
X0101425Y0092245D03*
X0095126Y0092245D03*
D45*
X0094929Y0107599D03*
X0101622Y0107599D03*
X0044772Y0053583D03*
X0038079Y0053583D03*
D46*
X0051425Y0050906D03*
X0060087Y0050906D03*
M02*
