%
M48
M72
T01C0.00787
T02C0.01181
T03C0.02165
T04C0.02559
T05C0.03150
T06C0.03346
T07C0.03937
T08C0.09843
T09C0.10000
%
T01
X31346Y37461
X41189Y37461
X50992Y37382
X61228Y37776
X71268Y37619
X81110Y37619
X90953Y37619
X101189Y37619
X111425Y37619
X121268Y37619
X131268Y37520
X141268Y37560
X151504Y37560
X161228Y37540
X171189Y37560
X181425Y37560
X192055Y37953
X181425Y43229
X171425Y43229
X161268Y43229
X157902Y46182
X151425Y43229
X131346Y43229
X121268Y43229
X112961Y46182
X101425Y43229
X99142Y49981
X105382Y54508
X109299Y57599
X116780Y57599
X116780Y54843
X121110Y54449
X124102Y55060
X133787Y57599
X136091Y55079
X135244Y60158
X123669Y63721
X118787Y64804
X124516Y67264
X130953Y72166
X124575Y73347
X129299Y77953
X119929Y82008
X126031Y84174
X134142Y85099
X123079Y88878
X119142Y87914
X118906Y91398
X115756Y91063
X109339Y90315
X104772Y92048
X101386Y96024
X89654Y96004
X81937Y95394
X75736Y96044
X75854Y98800
X67862Y97619
X65992Y99725
X63236Y97363
X58354Y100453
X64417Y106024
X63433Y112520
X56307Y111831
X49063Y111930
X43315Y109823
X38236Y112126
X32685Y109036
X37409Y108249
X36465Y103268
X41189Y100906
X43551Y97363
X43079Y93603
X36071Y93327
X27803Y95886
X29535Y100375
X20441Y100414
X18157Y104252
X14083Y108229
X38236Y118032
X43236Y121004
X58709Y121214
X63433Y118426
X73295Y112599
X81091Y116812
X91327Y117205
X91720Y111693
X83709Y106241
X85677Y102875
X91228Y104705
X105421Y104922
X110362Y104843
X110500Y101772
X113177Y97638
X119417Y97973
X124417Y101319
X128315Y101241
X132291Y104036
X128354Y105020
X134161Y107441
X141583Y109961
X148728Y109371
X156937Y109567
X160106Y109548
X166169Y109449
X173256Y106142
X179772Y105630
X181327Y108524
X184890Y107599
X196839Y104036
X200264Y106004
X204142Y105296
X209476Y109981
X218551Y109961
X226031Y108189
X228610Y105847
X226425Y103662
X225047Y98937
X228512Y93229
X228492Y90079
X221878Y91241
X211287Y88682
X215815Y86497
X210815Y83760
X215992Y80827
X207724Y80040
X198846Y83918
X188827Y81615
X183098Y81556
X176602Y81418
X174654Y87126
X176504Y92382
X173472Y97737
X177409Y101693
X185677Y102875
X203354Y95060
X188453Y88563
X221681Y77225
X213453Y74134
X223413Y72107
X211051Y69745
X201110Y67245
X198276Y65867
X197154Y68957
X187980Y63563
X184496Y63504
X172685Y65867
X169831Y66162
X171110Y68623
X167685Y70375
X173000Y73662
X179772Y71378
X183177Y75453
X189201Y75256
X201602Y75256
X225224Y67382
X226622Y64686
X230303Y64508
X225047Y61536
X220283Y61004
X228591Y58386
X220795Y55886
X220028Y52500
X215756Y51241
X218965Y49154
X221504Y45788
X226209Y45670
X223492Y43504
X229004Y43032
X232941Y43032
X236425Y43032
X240402Y43819
X249752Y40689
X255165Y41851
X255362Y38701
X259890Y43583
X263453Y43583
X267508Y43583
X271307Y43583
X274457Y45886
X286504Y44567
X290047Y44646
X294378Y44567
X313039Y44312
X323276Y48249
X323531Y52323
X323531Y55473
X322606Y59351
X310283Y58485
X305559Y55335
X300165Y59863
X294732Y57993
X290598Y60453
X294811Y62461
X300047Y64981
X305402Y62461
X311465Y65571
X316189Y64784
X319102Y65020
X313827Y68603
X311543Y70650
X305874Y70650
X303197Y68327
X308866Y68052
X300323Y71004
X297528Y68327
X294575Y71004
X288236Y71083
X285283Y68327
X291386Y68327
X282724Y71083
X279575Y71871
X279063Y68249
X277469Y65060
X282449Y62382
X268295Y66871
X263630Y65867
X260618Y69075
X264319Y69548
X255106Y69115
X249594Y69036
X244004Y68997
X246839Y75060
X240717Y75158
X240539Y78603
X240303Y82008
X240362Y85158
X240343Y88504
X244713Y93150
X249260Y93032
X255028Y92304
X257902Y92186
X261858Y93623
X258768Y94863
X265008Y94804
X268551Y95689
X275303Y96437
X282370Y99154
X288079Y98406
X291386Y98642
X294575Y98563
X296898Y95886
X300835Y96674
X303984Y95886
X308945Y95532
X311465Y98249
X313787Y96123
X313118Y93721
X315953Y92343
X320008Y92343
X323551Y92225
X323650Y88386
X323591Y84351
X319929Y84390
X314614Y83682
X313039Y80532
X310677Y78170
X307528Y77776
X304378Y77776
X301228Y77776
X297685Y77776
X294142Y77776
X290598Y77776
X287055Y77776
X283512Y77776
X280362Y78563
X280028Y83839
X280028Y86989
X280815Y90532
X282783Y94075
X285480Y95886
X305795Y98130
X306740Y105335
X303197Y105335
X299654Y105335
X296110Y105335
X292567Y105335
X289024Y105335
X285480Y105335
X280933Y104804
X277272Y103918
X266583Y106910
X257114Y106910
X253925Y107835
X249457Y108386
X244496Y107008
X242114Y112737
X253965Y115040
X249260Y117914
X241602Y118052
X236996Y118170
X226642Y113721
X218098Y118170
X209949Y117776
X209594Y114115
X188906Y112737
X172744Y115040
X169535Y115473
X171268Y122973
X181110Y122973
X192134Y122973
X161425Y122973
X151189Y122973
X141346Y122973
X131110Y122973
X121268Y122973
X111031Y122973
X101189Y122973
X91346Y122973
X81110Y122973
X111012Y117205
X121130Y117756
X131091Y117205
X138039Y115079
X140106Y112993
X132941Y112678
X141209Y117776
X111287Y111221
X128079Y93032
X108906Y86339
X100421Y86339
X90776Y86339
X77685Y89961
X73591Y87422
X66248Y85434
X62567Y90571
X62291Y93367
X36031Y84587
X31898Y79508
X21110Y82796
X18472Y81910
X18472Y76792
X23728Y72697
X28059Y72835
X42823Y73938
X48492Y73957
X43748Y69213
X53000Y67048
X56543Y67048
X60874Y67048
X65205Y67048
X68748Y67048
X68748Y63898
X68748Y58780
X73866Y57934
X68748Y56024
X65008Y56024
X67685Y52776
X78197Y52815
X88827Y55178
X82134Y63052
X63709Y70414
X68748Y76497
X81602Y72756
X87685Y73071
X91228Y76595
X98709Y77107
X104457Y79075
X108906Y76497
X115756Y77284
X106543Y70808
X109555Y61359
X146661Y66260
X152114Y66004
X154181Y63898
X157843Y60119
X157902Y55020
X153787Y54056
X167567Y52875
X175303Y49981
X187232Y53721
X188295Y49981
X193906Y50965
X197055Y53327
X200244Y54843
X210657Y55571
X205933Y60689
X209693Y63898
X188079Y58445
X171504Y58780
X148787Y70237
X151858Y70630
X208591Y44804
X232075Y54075
X241327Y54213
X244476Y54213
X249083Y53682
X253925Y54016
X257094Y52894
X260185Y52697
X263374Y53229
X275913Y52953
X280047Y53249
X283906Y54941
X256366Y46575
X314614Y54941
X257862Y75256
X264280Y77540
X257902Y80611
X252350Y80571
X264280Y80689
X264201Y85886
X257902Y86083
X252272Y86083
X264201Y91910
X252213Y95000
X227606Y86930
X227803Y83780
X278374Y113071
X278374Y118977
X289398Y119371
X287823Y122914
X283098Y122914
X278374Y122914
X273650Y122914
X268925Y122914
X264201Y122914
X259476Y122914
X292547Y122914
X297272Y122914
X301996Y122914
X306720Y122914
X311445Y122914
X316169Y122914
X319713Y120945
X322469Y118189
X323728Y115000
X323335Y112048
X319969Y112028
X315480Y112028
X313433Y108091
X310283Y105729
X308689Y115434
X71898Y43426
X70323Y46182
X61327Y42343
X51091Y43130
X55126Y50926
X44772Y50079
X41366Y50119
X53000Y56024
X56543Y56024
X60087Y56024
X53000Y58780
X48433Y61398
X53000Y63898
X29142Y59626
X21071Y62776
X14772Y52619
X31346Y44548
X43354Y79252
X28354Y122343
T02
X153197Y95591
X153197Y90079
X153197Y84567
T03
X21110Y89587
X21110Y59075
T04
X31894Y121608
X47839Y121608
X53695Y121608
X69640Y121608
T05
X31937Y84174
X31937Y64489
T06
X36071Y59666
X36071Y88997
T07
X76268Y120158
X86268Y120158
X96268Y120158
X106268Y120158
X116268Y120158
X126268Y120158
X136268Y120158
X146268Y120158
X156268Y120158
X166268Y120158
X176268Y120158
X186268Y120158
X186268Y40158
X176268Y40158
X166268Y40158
X156268Y40158
X146268Y40158
X136268Y40158
X126268Y40158
X116268Y40158
X106268Y40158
X96268Y40158
X86268Y40158
X76268Y40158
X66268Y40158
X56268Y40158
X46268Y40158
X36268Y40158
T08
X21268Y45158
X21268Y115158
T09
X201268Y115158
X201268Y45158
M30
