G75*
%MOIN*%
%OFA0B0*%
%FSLAX25Y25*%
%IPPOS*%
%LPD*%
%AMOC8*
5,1,8,0,0,1.08239X$1,22.5*
%
%ADD10R,0.02756X0.02756*%
%ADD11R,0.04449X0.04331*%
%ADD12R,0.05512X0.02953*%
%ADD13R,0.07480X0.02283*%
%ADD14C,0.10394*%
%ADD15C,0.15394*%
%ADD16C,0.07394*%
%ADD17R,0.02756X0.02559*%
%ADD18C,0.06299*%
%ADD19R,0.02559X0.02756*%
%ADD20R,0.05512X0.02165*%
%ADD21C,0.05413*%
%ADD22C,0.04134*%
%ADD23C,0.03543*%
%ADD24R,0.02362X0.01575*%
%ADD25R,0.04331X0.18504*%
%ADD26R,0.06693X0.13780*%
%ADD27C,0.02756*%
%ADD28C,0.00394*%
%ADD29R,0.01969X0.03150*%
D10*
X0066169Y0070276D03*
X0066169Y0073819D03*
X0066189Y0079252D03*
X0066189Y0082796D03*
X0130185Y0075355D03*
X0133728Y0075355D03*
X0175854Y0075434D03*
X0175854Y0071890D03*
X0232961Y0049154D03*
X0236858Y0047166D03*
X0240402Y0047166D03*
X0232961Y0045611D03*
X0268335Y0069528D03*
X0268335Y0073071D03*
D11*
X0322567Y0063170D03*
X0322567Y0098327D03*
D12*
X0274969Y0093229D03*
X0274969Y0088229D03*
X0274969Y0083229D03*
X0274969Y0078229D03*
X0274969Y0073229D03*
X0274969Y0068229D03*
D13*
X0277409Y0062402D03*
X0300047Y0062402D03*
X0300047Y0099134D03*
X0277409Y0099134D03*
D14*
X0201268Y0115158D03*
X0201268Y0045158D03*
D15*
X0021268Y0045158D03*
X0021268Y0115158D03*
D16*
X0036268Y0040158D03*
X0046268Y0040158D03*
X0056268Y0040158D03*
X0066268Y0040158D03*
X0076268Y0040158D03*
X0086268Y0040158D03*
X0096268Y0040158D03*
X0106268Y0040158D03*
X0116268Y0040158D03*
X0126268Y0040158D03*
X0136268Y0040158D03*
X0146268Y0040158D03*
X0156268Y0040158D03*
X0166268Y0040158D03*
X0176268Y0040158D03*
X0186268Y0040158D03*
X0186268Y0120158D03*
X0176268Y0120158D03*
X0166268Y0120158D03*
X0156268Y0120158D03*
X0146268Y0120158D03*
X0136268Y0120158D03*
X0126268Y0120158D03*
X0116268Y0120158D03*
X0106268Y0120158D03*
X0096268Y0120158D03*
X0086268Y0120158D03*
X0076268Y0120158D03*
D17*
X0070953Y0101831D03*
X0070953Y0097894D03*
X0133709Y0092579D03*
X0133709Y0088642D03*
X0092370Y0053741D03*
X0083118Y0053741D03*
X0083118Y0049804D03*
X0092370Y0049804D03*
D18*
X0077016Y0061536D03*
X0077016Y0072441D03*
X0048276Y0066654D03*
X0046701Y0055237D03*
X0048669Y0081418D03*
X0077409Y0084567D03*
X0270047Y0054016D03*
X0290047Y0054016D03*
X0310047Y0054016D03*
X0300047Y0044016D03*
X0280047Y0044016D03*
X0320047Y0044016D03*
D19*
X0061799Y0073406D03*
X0057862Y0073406D03*
X0057724Y0079252D03*
X0061661Y0079252D03*
D20*
X0036071Y0079449D03*
X0036071Y0076890D03*
X0036071Y0074331D03*
X0036071Y0071772D03*
X0036071Y0069213D03*
D21*
X0033561Y0059666D02*
X0038581Y0059666D01*
X0038581Y0088997D02*
X0033561Y0088997D01*
D22*
X0022980Y0089587D02*
X0019240Y0089587D01*
X0019240Y0059075D02*
X0022980Y0059075D01*
D23*
X0031937Y0064489D03*
X0031937Y0084174D03*
D24*
X0045717Y0075926D03*
X0045717Y0073957D03*
X0045717Y0071989D03*
X0051228Y0071989D03*
X0051228Y0073957D03*
X0051228Y0075926D03*
D25*
X0054772Y0096378D03*
X0046898Y0096378D03*
D26*
X0038039Y0116851D03*
X0063630Y0116851D03*
D27*
X0063433Y0118426D03*
X0063433Y0112520D03*
X0038236Y0112126D03*
X0038236Y0118032D03*
D28*
X0137804Y0078642D02*
X0144102Y0078642D01*
X0144102Y0077462D01*
X0137804Y0077462D01*
X0137804Y0078642D01*
X0137804Y0077855D02*
X0144102Y0077855D01*
X0144102Y0078248D02*
X0137804Y0078248D01*
X0137804Y0078641D02*
X0144102Y0078641D01*
X0144102Y0076083D02*
X0137804Y0076083D01*
X0144102Y0076083D02*
X0144102Y0074903D01*
X0137804Y0074903D01*
X0137804Y0076083D01*
X0137804Y0075296D02*
X0144102Y0075296D01*
X0144102Y0075689D02*
X0137804Y0075689D01*
X0137804Y0076082D02*
X0144102Y0076082D01*
X0144102Y0073524D02*
X0137804Y0073524D01*
X0144102Y0073524D02*
X0144102Y0072344D01*
X0137804Y0072344D01*
X0137804Y0073524D01*
X0137804Y0072737D02*
X0144102Y0072737D01*
X0144102Y0073130D02*
X0137804Y0073130D01*
X0137804Y0073523D02*
X0144102Y0073523D01*
X0144102Y0070965D02*
X0137804Y0070965D01*
X0144102Y0070965D02*
X0144102Y0069785D01*
X0137804Y0069785D01*
X0137804Y0070965D01*
X0137804Y0070178D02*
X0144102Y0070178D01*
X0144102Y0070571D02*
X0137804Y0070571D01*
X0137804Y0070964D02*
X0144102Y0070964D01*
X0144102Y0068405D02*
X0137804Y0068405D01*
X0144102Y0068405D02*
X0144102Y0067225D01*
X0137804Y0067225D01*
X0137804Y0068405D01*
X0137804Y0067618D02*
X0144102Y0067618D01*
X0144102Y0068011D02*
X0137804Y0068011D01*
X0137804Y0068404D02*
X0144102Y0068404D01*
X0144102Y0065846D02*
X0137804Y0065846D01*
X0144102Y0065846D02*
X0144102Y0064666D01*
X0137804Y0064666D01*
X0137804Y0065846D01*
X0137804Y0065059D02*
X0144102Y0065059D01*
X0144102Y0065452D02*
X0137804Y0065452D01*
X0137804Y0065845D02*
X0144102Y0065845D01*
X0144102Y0063287D02*
X0137804Y0063287D01*
X0144102Y0063287D02*
X0144102Y0062107D01*
X0137804Y0062107D01*
X0137804Y0063287D01*
X0137804Y0062500D02*
X0144102Y0062500D01*
X0144102Y0062893D02*
X0137804Y0062893D01*
X0137804Y0063286D02*
X0144102Y0063286D01*
X0144102Y0060728D02*
X0137804Y0060728D01*
X0144102Y0060728D02*
X0144102Y0059548D01*
X0137804Y0059548D01*
X0137804Y0060728D01*
X0137804Y0059941D02*
X0144102Y0059941D01*
X0144102Y0060334D02*
X0137804Y0060334D01*
X0137804Y0060727D02*
X0144102Y0060727D01*
X0144102Y0058169D02*
X0137804Y0058169D01*
X0144102Y0058169D02*
X0144102Y0056989D01*
X0137804Y0056989D01*
X0137804Y0058169D01*
X0137804Y0057382D02*
X0144102Y0057382D01*
X0144102Y0057775D02*
X0137804Y0057775D01*
X0137804Y0058168D02*
X0144102Y0058168D01*
X0144102Y0055610D02*
X0137804Y0055610D01*
X0144102Y0055610D02*
X0144102Y0054430D01*
X0137804Y0054430D01*
X0137804Y0055610D01*
X0137804Y0054823D02*
X0144102Y0054823D01*
X0144102Y0055216D02*
X0137804Y0055216D01*
X0137804Y0055609D02*
X0144102Y0055609D01*
X0159851Y0055610D02*
X0166149Y0055610D01*
X0166149Y0054430D01*
X0159851Y0054430D01*
X0159851Y0055610D01*
X0159851Y0054823D02*
X0166149Y0054823D01*
X0166149Y0055216D02*
X0159851Y0055216D01*
X0159851Y0055609D02*
X0166149Y0055609D01*
X0166149Y0058169D02*
X0159851Y0058169D01*
X0166149Y0058169D02*
X0166149Y0056989D01*
X0159851Y0056989D01*
X0159851Y0058169D01*
X0159851Y0057382D02*
X0166149Y0057382D01*
X0166149Y0057775D02*
X0159851Y0057775D01*
X0159851Y0058168D02*
X0166149Y0058168D01*
X0166149Y0060728D02*
X0159851Y0060728D01*
X0166149Y0060728D02*
X0166149Y0059548D01*
X0159851Y0059548D01*
X0159851Y0060728D01*
X0159851Y0059941D02*
X0166149Y0059941D01*
X0166149Y0060334D02*
X0159851Y0060334D01*
X0159851Y0060727D02*
X0166149Y0060727D01*
X0166149Y0063287D02*
X0159851Y0063287D01*
X0166149Y0063287D02*
X0166149Y0062107D01*
X0159851Y0062107D01*
X0159851Y0063287D01*
X0159851Y0062500D02*
X0166149Y0062500D01*
X0166149Y0062893D02*
X0159851Y0062893D01*
X0159851Y0063286D02*
X0166149Y0063286D01*
X0166149Y0065846D02*
X0159851Y0065846D01*
X0166149Y0065846D02*
X0166149Y0064666D01*
X0159851Y0064666D01*
X0159851Y0065846D01*
X0159851Y0065059D02*
X0166149Y0065059D01*
X0166149Y0065452D02*
X0159851Y0065452D01*
X0159851Y0065845D02*
X0166149Y0065845D01*
X0166149Y0068405D02*
X0159851Y0068405D01*
X0166149Y0068405D02*
X0166149Y0067225D01*
X0159851Y0067225D01*
X0159851Y0068405D01*
X0159851Y0067618D02*
X0166149Y0067618D01*
X0166149Y0068011D02*
X0159851Y0068011D01*
X0159851Y0068404D02*
X0166149Y0068404D01*
X0166149Y0070965D02*
X0159851Y0070965D01*
X0166149Y0070965D02*
X0166149Y0069785D01*
X0159851Y0069785D01*
X0159851Y0070965D01*
X0159851Y0070178D02*
X0166149Y0070178D01*
X0166149Y0070571D02*
X0159851Y0070571D01*
X0159851Y0070964D02*
X0166149Y0070964D01*
X0166149Y0073524D02*
X0159851Y0073524D01*
X0166149Y0073524D02*
X0166149Y0072344D01*
X0159851Y0072344D01*
X0159851Y0073524D01*
X0159851Y0072737D02*
X0166149Y0072737D01*
X0166149Y0073130D02*
X0159851Y0073130D01*
X0159851Y0073523D02*
X0166149Y0073523D01*
X0166149Y0076083D02*
X0159851Y0076083D01*
X0166149Y0076083D02*
X0166149Y0074903D01*
X0159851Y0074903D01*
X0159851Y0076083D01*
X0159851Y0075296D02*
X0166149Y0075296D01*
X0166149Y0075689D02*
X0159851Y0075689D01*
X0159851Y0076082D02*
X0166149Y0076082D01*
X0166149Y0078642D02*
X0159851Y0078642D01*
X0166149Y0078642D02*
X0166149Y0077462D01*
X0159851Y0077462D01*
X0159851Y0078642D01*
X0159851Y0077855D02*
X0166149Y0077855D01*
X0166149Y0078248D02*
X0159851Y0078248D01*
X0159851Y0078641D02*
X0166149Y0078641D01*
D29*
X0152409Y0114292D03*
X0149654Y0114292D03*
M02*
