G75*
%MOIN*%
%OFA0B0*%
%FSLAX25Y25*%
%IPPOS*%
%LPD*%
%AMOC8*
5,1,8,0,0,1.08239X$1,22.5*
%
%ADD10C,0.00500*%
D10*
X0019220Y0057993D02*
X0023000Y0057993D01*
X0023041Y0057995D01*
X0023082Y0058000D01*
X0023122Y0058009D01*
X0023161Y0058021D01*
X0023199Y0058037D01*
X0023236Y0058056D01*
X0023271Y0058078D01*
X0023303Y0058103D01*
X0023334Y0058131D01*
X0023362Y0058162D01*
X0023387Y0058194D01*
X0023409Y0058229D01*
X0023428Y0058266D01*
X0023444Y0058304D01*
X0023456Y0058343D01*
X0023465Y0058383D01*
X0023470Y0058424D01*
X0023472Y0058465D01*
X0023472Y0059686D01*
X0023470Y0059727D01*
X0023465Y0059768D01*
X0023456Y0059808D01*
X0023444Y0059847D01*
X0023428Y0059885D01*
X0023409Y0059922D01*
X0023387Y0059957D01*
X0023362Y0059989D01*
X0023334Y0060020D01*
X0023303Y0060048D01*
X0023271Y0060073D01*
X0023236Y0060095D01*
X0023199Y0060114D01*
X0023161Y0060130D01*
X0023122Y0060142D01*
X0023082Y0060151D01*
X0023041Y0060156D01*
X0023000Y0060158D01*
X0019220Y0060158D01*
X0019179Y0060156D01*
X0019138Y0060151D01*
X0019098Y0060142D01*
X0019059Y0060130D01*
X0019021Y0060114D01*
X0018984Y0060095D01*
X0018949Y0060073D01*
X0018917Y0060048D01*
X0018886Y0060020D01*
X0018858Y0059989D01*
X0018833Y0059957D01*
X0018811Y0059922D01*
X0018792Y0059885D01*
X0018776Y0059847D01*
X0018764Y0059808D01*
X0018755Y0059768D01*
X0018750Y0059727D01*
X0018748Y0059686D01*
X0018748Y0058465D01*
X0018750Y0058424D01*
X0018755Y0058383D01*
X0018764Y0058343D01*
X0018776Y0058304D01*
X0018792Y0058266D01*
X0018811Y0058229D01*
X0018833Y0058194D01*
X0018858Y0058162D01*
X0018886Y0058131D01*
X0018917Y0058103D01*
X0018949Y0058078D01*
X0018984Y0058056D01*
X0019021Y0058037D01*
X0019059Y0058021D01*
X0019098Y0058009D01*
X0019138Y0058000D01*
X0019179Y0057995D01*
X0019220Y0057993D01*
X0033315Y0058583D02*
X0033315Y0060749D01*
X0033317Y0060795D01*
X0033322Y0060841D01*
X0033331Y0060887D01*
X0033344Y0060932D01*
X0033360Y0060975D01*
X0033379Y0061017D01*
X0033402Y0061058D01*
X0033428Y0061096D01*
X0033457Y0061133D01*
X0033488Y0061167D01*
X0033522Y0061198D01*
X0033559Y0061227D01*
X0033597Y0061253D01*
X0033638Y0061276D01*
X0033680Y0061295D01*
X0033723Y0061311D01*
X0033768Y0061324D01*
X0033814Y0061333D01*
X0033860Y0061338D01*
X0033906Y0061340D01*
X0033906Y0061339D02*
X0038236Y0061339D01*
X0038236Y0061340D02*
X0038282Y0061338D01*
X0038328Y0061333D01*
X0038374Y0061324D01*
X0038419Y0061311D01*
X0038462Y0061295D01*
X0038504Y0061276D01*
X0038545Y0061253D01*
X0038583Y0061227D01*
X0038620Y0061198D01*
X0038654Y0061167D01*
X0038685Y0061133D01*
X0038714Y0061096D01*
X0038740Y0061058D01*
X0038763Y0061017D01*
X0038782Y0060975D01*
X0038798Y0060932D01*
X0038811Y0060887D01*
X0038820Y0060841D01*
X0038825Y0060795D01*
X0038827Y0060749D01*
X0038827Y0058583D01*
X0038825Y0058537D01*
X0038820Y0058491D01*
X0038811Y0058445D01*
X0038798Y0058400D01*
X0038782Y0058357D01*
X0038763Y0058315D01*
X0038740Y0058274D01*
X0038714Y0058236D01*
X0038685Y0058199D01*
X0038654Y0058165D01*
X0038620Y0058134D01*
X0038583Y0058105D01*
X0038545Y0058079D01*
X0038504Y0058056D01*
X0038462Y0058037D01*
X0038419Y0058021D01*
X0038374Y0058008D01*
X0038328Y0057999D01*
X0038282Y0057994D01*
X0038236Y0057992D01*
X0038236Y0057993D02*
X0033906Y0057993D01*
X0033906Y0057992D02*
X0033860Y0057994D01*
X0033814Y0057999D01*
X0033768Y0058008D01*
X0033723Y0058021D01*
X0033680Y0058037D01*
X0033638Y0058056D01*
X0033597Y0058079D01*
X0033559Y0058105D01*
X0033522Y0058134D01*
X0033488Y0058165D01*
X0033457Y0058199D01*
X0033428Y0058236D01*
X0033402Y0058274D01*
X0033379Y0058315D01*
X0033360Y0058357D01*
X0033344Y0058400D01*
X0033331Y0058445D01*
X0033322Y0058491D01*
X0033317Y0058537D01*
X0033315Y0058583D01*
X0033906Y0087323D02*
X0038236Y0087323D01*
X0038282Y0087325D01*
X0038328Y0087330D01*
X0038374Y0087339D01*
X0038419Y0087352D01*
X0038462Y0087368D01*
X0038504Y0087387D01*
X0038545Y0087410D01*
X0038583Y0087436D01*
X0038620Y0087465D01*
X0038654Y0087496D01*
X0038685Y0087530D01*
X0038714Y0087567D01*
X0038740Y0087605D01*
X0038763Y0087646D01*
X0038782Y0087688D01*
X0038798Y0087731D01*
X0038811Y0087776D01*
X0038820Y0087822D01*
X0038825Y0087868D01*
X0038827Y0087914D01*
X0038827Y0090079D01*
X0038825Y0090125D01*
X0038820Y0090171D01*
X0038811Y0090217D01*
X0038798Y0090262D01*
X0038782Y0090305D01*
X0038763Y0090347D01*
X0038740Y0090388D01*
X0038714Y0090426D01*
X0038685Y0090463D01*
X0038654Y0090497D01*
X0038620Y0090528D01*
X0038583Y0090557D01*
X0038545Y0090583D01*
X0038504Y0090606D01*
X0038462Y0090625D01*
X0038419Y0090641D01*
X0038374Y0090654D01*
X0038328Y0090663D01*
X0038282Y0090668D01*
X0038236Y0090670D01*
X0033906Y0090670D01*
X0033860Y0090668D01*
X0033814Y0090663D01*
X0033768Y0090654D01*
X0033723Y0090641D01*
X0033680Y0090625D01*
X0033638Y0090606D01*
X0033597Y0090583D01*
X0033559Y0090557D01*
X0033522Y0090528D01*
X0033488Y0090497D01*
X0033457Y0090463D01*
X0033428Y0090426D01*
X0033402Y0090388D01*
X0033379Y0090347D01*
X0033360Y0090305D01*
X0033344Y0090262D01*
X0033331Y0090217D01*
X0033322Y0090171D01*
X0033317Y0090125D01*
X0033315Y0090079D01*
X0033315Y0087914D01*
X0033317Y0087868D01*
X0033322Y0087822D01*
X0033331Y0087776D01*
X0033344Y0087731D01*
X0033360Y0087688D01*
X0033379Y0087646D01*
X0033402Y0087605D01*
X0033428Y0087567D01*
X0033457Y0087530D01*
X0033488Y0087496D01*
X0033522Y0087465D01*
X0033559Y0087436D01*
X0033597Y0087410D01*
X0033638Y0087387D01*
X0033680Y0087368D01*
X0033723Y0087352D01*
X0033768Y0087339D01*
X0033814Y0087330D01*
X0033860Y0087325D01*
X0033906Y0087323D01*
X0023472Y0088977D02*
X0023472Y0090197D01*
X0023470Y0090238D01*
X0023465Y0090279D01*
X0023456Y0090319D01*
X0023444Y0090358D01*
X0023428Y0090396D01*
X0023409Y0090433D01*
X0023387Y0090468D01*
X0023362Y0090500D01*
X0023334Y0090531D01*
X0023303Y0090559D01*
X0023271Y0090584D01*
X0023236Y0090606D01*
X0023199Y0090625D01*
X0023161Y0090641D01*
X0023122Y0090653D01*
X0023082Y0090662D01*
X0023041Y0090667D01*
X0023000Y0090669D01*
X0023000Y0090670D02*
X0019220Y0090670D01*
X0019220Y0090669D02*
X0019179Y0090667D01*
X0019138Y0090662D01*
X0019098Y0090653D01*
X0019059Y0090641D01*
X0019021Y0090625D01*
X0018984Y0090606D01*
X0018949Y0090584D01*
X0018917Y0090559D01*
X0018886Y0090531D01*
X0018858Y0090500D01*
X0018833Y0090468D01*
X0018811Y0090433D01*
X0018792Y0090396D01*
X0018776Y0090358D01*
X0018764Y0090319D01*
X0018755Y0090279D01*
X0018750Y0090238D01*
X0018748Y0090197D01*
X0018748Y0088977D01*
X0018750Y0088936D01*
X0018755Y0088895D01*
X0018764Y0088855D01*
X0018776Y0088816D01*
X0018792Y0088778D01*
X0018811Y0088741D01*
X0018833Y0088706D01*
X0018858Y0088674D01*
X0018886Y0088643D01*
X0018917Y0088615D01*
X0018949Y0088590D01*
X0018984Y0088568D01*
X0019021Y0088549D01*
X0019059Y0088533D01*
X0019098Y0088521D01*
X0019138Y0088512D01*
X0019179Y0088507D01*
X0019220Y0088505D01*
X0019220Y0088504D02*
X0023000Y0088504D01*
X0023000Y0088505D02*
X0023041Y0088507D01*
X0023082Y0088512D01*
X0023122Y0088521D01*
X0023161Y0088533D01*
X0023199Y0088549D01*
X0023236Y0088568D01*
X0023271Y0088590D01*
X0023303Y0088615D01*
X0023334Y0088643D01*
X0023362Y0088674D01*
X0023387Y0088706D01*
X0023409Y0088741D01*
X0023428Y0088778D01*
X0023444Y0088816D01*
X0023456Y0088855D01*
X0023465Y0088895D01*
X0023470Y0088936D01*
X0023472Y0088977D01*
M02*
