G75*
%MOIN*%
%OFA0B0*%
%FSLAX25Y25*%
%IPPOS*%
%LPD*%
%AMOC8*
5,1,8,0,0,1.08239X$1,22.5*
%
%ADD10C,0.00300*%
%ADD11C,0.00500*%
%ADD12C,0.00000*%
%ADD13C,0.00400*%
%ADD14R,0.01004X0.00059*%
%ADD15R,0.00709X0.00059*%
%ADD16R,0.02421X0.00059*%
%ADD17R,0.01417X0.00059*%
%ADD18R,0.00827X0.00059*%
%ADD19R,0.03248X0.00059*%
%ADD20R,0.01831X0.00059*%
%ADD21R,0.00059X0.00059*%
%ADD22R,0.01654X0.00059*%
%ADD23R,0.03720X0.00059*%
%ADD24R,0.02185X0.00059*%
%ADD25R,0.00118X0.00059*%
%ADD26R,0.01890X0.00059*%
%ADD27R,0.04134X0.00059*%
%ADD28R,0.02539X0.00059*%
%ADD29R,0.00177X0.00059*%
%ADD30R,0.02008X0.00059*%
%ADD31R,0.04193X0.00059*%
%ADD32R,0.04547X0.00059*%
%ADD33R,0.02835X0.00059*%
%ADD34R,0.00236X0.00059*%
%ADD35R,0.02126X0.00059*%
%ADD36R,0.04606X0.00059*%
%ADD37R,0.04902X0.00059*%
%ADD38R,0.03071X0.00059*%
%ADD39R,0.00295X0.00059*%
%ADD40R,0.05138X0.00059*%
%ADD41R,0.03307X0.00059*%
%ADD42R,0.00354X0.00059*%
%ADD43R,0.02303X0.00059*%
%ADD44R,0.05197X0.00059*%
%ADD45R,0.05256X0.00059*%
%ADD46R,0.03543X0.00059*%
%ADD47R,0.00413X0.00059*%
%ADD48R,0.02362X0.00059*%
%ADD49R,0.05315X0.00059*%
%ADD50R,0.03780X0.00059*%
%ADD51R,0.05374X0.00059*%
%ADD52R,0.03957X0.00059*%
%ADD53R,0.00472X0.00059*%
%ADD54R,0.02480X0.00059*%
%ADD55R,0.05433X0.00059*%
%ADD56R,0.00531X0.00059*%
%ADD57R,0.04311X0.00059*%
%ADD58R,0.00591X0.00059*%
%ADD59R,0.05492X0.00059*%
%ADD60R,0.04488X0.00059*%
%ADD61R,0.00650X0.00059*%
%ADD62R,0.05551X0.00059*%
%ADD63R,0.01949X0.00059*%
%ADD64R,0.03012X0.00059*%
%ADD65R,0.01476X0.00059*%
%ADD66R,0.02657X0.00059*%
%ADD67R,0.01772X0.00059*%
%ADD68R,0.01299X0.00059*%
%ADD69R,0.01240X0.00059*%
%ADD70R,0.00768X0.00059*%
%ADD71R,0.01535X0.00059*%
%ADD72R,0.01181X0.00059*%
%ADD73R,0.01358X0.00059*%
%ADD74R,0.01063X0.00059*%
%ADD75R,0.02894X0.00059*%
%ADD76R,0.01122X0.00059*%
%ADD77R,0.00945X0.00059*%
%ADD78R,0.02244X0.00059*%
%ADD79R,0.02067X0.00059*%
%ADD80R,0.00886X0.00059*%
%ADD81R,0.05079X0.00059*%
%ADD82R,0.05020X0.00059*%
%ADD83R,0.05669X0.00059*%
%ADD84R,0.05728X0.00059*%
%ADD85R,0.05846X0.00059*%
%ADD86R,0.01594X0.00059*%
%ADD87R,0.05787X0.00059*%
%ADD88R,0.05906X0.00059*%
%ADD89R,0.05965X0.00059*%
%ADD90R,0.06024X0.00059*%
%ADD91R,0.06083X0.00059*%
%ADD92R,0.06142X0.00059*%
%ADD93R,0.05610X0.00059*%
%ADD94R,0.01713X0.00059*%
%ADD95R,0.03366X0.00059*%
%ADD96R,0.03661X0.00059*%
%ADD97R,0.03484X0.00059*%
%ADD98R,0.04429X0.00059*%
%ADD99R,0.04252X0.00059*%
%ADD100R,0.04783X0.00059*%
%ADD101R,0.03839X0.00059*%
%ADD102R,0.04665X0.00059*%
%ADD103R,0.03130X0.00059*%
%ADD104R,0.04075X0.00059*%
%ADD105R,0.04961X0.00059*%
%ADD106R,0.03189X0.00059*%
%ADD107R,0.02717X0.00059*%
%ADD108R,0.02598X0.00059*%
%ADD109R,0.04370X0.00059*%
%ADD110R,0.02953X0.00059*%
%ADD111R,0.04724X0.00059*%
%ADD112R,0.06319X0.00059*%
%ADD113R,0.06791X0.00059*%
%ADD114R,0.07736X0.00059*%
%ADD115R,0.07854X0.00059*%
%ADD116R,0.08150X0.00059*%
%ADD117R,0.08386X0.00059*%
%ADD118R,0.04843X0.00059*%
%ADD119R,0.04016X0.00059*%
%ADD120R,0.06850X0.00059*%
%ADD121R,0.06378X0.00059*%
%ADD122R,0.03425X0.00059*%
%ADD123R,0.07028X0.00059*%
%ADD124R,0.06969X0.00059*%
%ADD125R,0.06909X0.00059*%
%ADD126R,0.06732X0.00059*%
%ADD127R,0.06673X0.00059*%
%ADD128R,0.06614X0.00059*%
%ADD129R,0.06555X0.00059*%
%ADD130R,0.06496X0.00059*%
%ADD131R,0.02776X0.00059*%
%ADD132R,0.03898X0.00059*%
%ADD133R,0.03602X0.00059*%
D10*
X0076691Y0048615D02*
X0079543Y0048615D01*
X0079543Y0050041D01*
X0079067Y0050516D01*
X0078117Y0050516D01*
X0077641Y0050041D01*
X0077641Y0048615D01*
X0077641Y0049566D02*
X0076691Y0050516D01*
X0076691Y0051515D02*
X0076691Y0053417D01*
X0076691Y0052466D02*
X0079543Y0052466D01*
X0078592Y0051515D01*
X0078117Y0054415D02*
X0078117Y0055841D01*
X0077641Y0056317D01*
X0077166Y0056317D01*
X0076691Y0055841D01*
X0076691Y0054891D01*
X0077166Y0054415D01*
X0078117Y0054415D01*
X0079067Y0055366D01*
X0079543Y0056317D01*
X0084200Y0057755D02*
X0084676Y0057279D01*
X0085626Y0057279D01*
X0086102Y0057755D01*
X0086102Y0059656D01*
X0085626Y0060131D01*
X0084676Y0060131D01*
X0084200Y0059656D01*
X0087100Y0059656D02*
X0087100Y0057755D01*
X0087576Y0057279D01*
X0089002Y0057279D01*
X0089002Y0060131D01*
X0087576Y0060131D01*
X0087100Y0059656D01*
X0090001Y0059181D02*
X0090001Y0057279D01*
X0090001Y0058705D02*
X0091902Y0058705D01*
X0091902Y0059181D02*
X0091902Y0057279D01*
X0091902Y0059181D02*
X0090951Y0060131D01*
X0090001Y0059181D01*
X0095315Y0054415D02*
X0097217Y0056317D01*
X0097692Y0056317D01*
X0097692Y0054415D01*
X0095315Y0054415D02*
X0094840Y0054415D01*
X0094840Y0053417D02*
X0094840Y0051515D01*
X0094840Y0052466D02*
X0097692Y0052466D01*
X0096741Y0051515D01*
X0096266Y0050516D02*
X0095791Y0050041D01*
X0095791Y0048615D01*
X0095791Y0049566D02*
X0094840Y0050516D01*
X0096266Y0050516D02*
X0097217Y0050516D01*
X0097692Y0050041D01*
X0097692Y0048615D01*
X0094840Y0048615D01*
X0062988Y0068359D02*
X0062988Y0071211D01*
X0061562Y0071211D01*
X0061086Y0070736D01*
X0061086Y0069785D01*
X0061562Y0069310D01*
X0062988Y0069310D01*
X0062037Y0069310D02*
X0061086Y0068359D01*
X0060088Y0068359D02*
X0058186Y0068359D01*
X0059137Y0068359D02*
X0059137Y0071211D01*
X0060088Y0070261D01*
X0057188Y0070261D02*
X0056237Y0071211D01*
X0056237Y0068359D01*
X0057188Y0068359D02*
X0055286Y0068359D01*
X0055620Y0070566D02*
X0055620Y0071517D01*
X0055620Y0071042D02*
X0052768Y0071042D01*
X0052768Y0071517D02*
X0052768Y0070566D01*
X0053243Y0072500D02*
X0052768Y0072975D01*
X0052768Y0073926D01*
X0053243Y0074401D01*
X0053243Y0075400D02*
X0052768Y0075875D01*
X0052768Y0076826D01*
X0053243Y0077301D01*
X0053719Y0077301D01*
X0054194Y0076826D01*
X0054194Y0075400D01*
X0053243Y0075400D01*
X0054194Y0075400D02*
X0055145Y0076351D01*
X0055620Y0077301D01*
X0055145Y0074401D02*
X0055620Y0073926D01*
X0055620Y0072975D01*
X0055145Y0072500D01*
X0053243Y0072500D01*
X0068130Y0072778D02*
X0068606Y0072303D01*
X0069081Y0072303D01*
X0069556Y0072778D01*
X0069556Y0073729D01*
X0069081Y0074204D01*
X0068606Y0074204D01*
X0068130Y0073729D01*
X0068130Y0072778D01*
X0069556Y0072778D02*
X0070032Y0072303D01*
X0070507Y0072303D01*
X0070982Y0072778D01*
X0070982Y0073729D01*
X0070507Y0074204D01*
X0070032Y0074204D01*
X0069556Y0073729D01*
X0068606Y0071304D02*
X0068130Y0070828D01*
X0068130Y0069878D01*
X0068606Y0069402D01*
X0070507Y0069402D01*
X0070982Y0069878D01*
X0070982Y0070828D01*
X0070507Y0071304D01*
X0071078Y0077238D02*
X0069177Y0077238D01*
X0068701Y0077713D01*
X0068701Y0078664D01*
X0069177Y0079139D01*
X0068701Y0080138D02*
X0068701Y0082039D01*
X0068701Y0081088D02*
X0071553Y0081088D01*
X0070603Y0080138D01*
X0071078Y0079139D02*
X0071553Y0078664D01*
X0071553Y0077713D01*
X0071078Y0077238D01*
X0063480Y0081568D02*
X0063480Y0084420D01*
X0062054Y0084420D01*
X0061579Y0083945D01*
X0061579Y0082994D01*
X0062054Y0082518D01*
X0063480Y0082518D01*
X0062529Y0082518D02*
X0061579Y0081568D01*
X0060580Y0081568D02*
X0058678Y0081568D01*
X0059629Y0081568D02*
X0059629Y0084420D01*
X0060580Y0083469D01*
X0057680Y0083945D02*
X0057680Y0082043D01*
X0055778Y0083945D01*
X0055778Y0082043D01*
X0056254Y0081568D01*
X0057204Y0081568D01*
X0057680Y0082043D01*
X0057680Y0083945D02*
X0057204Y0084420D01*
X0056254Y0084420D01*
X0055778Y0083945D01*
X0068701Y0083513D02*
X0069177Y0083038D01*
X0071078Y0084939D01*
X0069177Y0084939D01*
X0068701Y0084464D01*
X0068701Y0083513D01*
X0069177Y0083038D02*
X0071078Y0083038D01*
X0071553Y0083513D01*
X0071553Y0084464D01*
X0071078Y0084939D01*
X0070518Y0088005D02*
X0070518Y0089431D01*
X0070993Y0089907D01*
X0071944Y0089907D01*
X0072419Y0089431D01*
X0072419Y0088005D01*
X0069567Y0088005D01*
X0070518Y0088956D02*
X0069567Y0089907D01*
X0070993Y0090905D02*
X0070993Y0092807D01*
X0070043Y0093805D02*
X0069567Y0094281D01*
X0069567Y0095232D01*
X0070043Y0095707D01*
X0070518Y0095707D01*
X0070993Y0095232D01*
X0070993Y0094756D01*
X0070993Y0095232D02*
X0071469Y0095707D01*
X0071944Y0095707D01*
X0072419Y0095232D01*
X0072419Y0094281D01*
X0071944Y0093805D01*
X0072419Y0092331D02*
X0069567Y0092331D01*
X0070993Y0090905D02*
X0072419Y0092331D01*
X0033797Y0100390D02*
X0033322Y0099914D01*
X0031421Y0099914D01*
X0030945Y0100390D01*
X0030945Y0101340D01*
X0031421Y0101816D01*
X0031421Y0102814D02*
X0033322Y0104716D01*
X0031421Y0104716D01*
X0030945Y0104240D01*
X0030945Y0103290D01*
X0031421Y0102814D01*
X0033322Y0102814D01*
X0033797Y0103290D01*
X0033797Y0104240D01*
X0033322Y0104716D01*
X0033797Y0105714D02*
X0030945Y0105714D01*
X0030945Y0107616D02*
X0033797Y0105714D01*
X0033797Y0107616D02*
X0030945Y0107616D01*
X0030945Y0108615D02*
X0032847Y0110516D01*
X0033322Y0110516D01*
X0033797Y0110041D01*
X0033797Y0109090D01*
X0033322Y0108615D01*
X0030945Y0108615D02*
X0030945Y0110516D01*
X0033322Y0101816D02*
X0033797Y0101340D01*
X0033797Y0100390D01*
X0127570Y0081582D02*
X0127570Y0081107D01*
X0128045Y0080632D01*
X0127570Y0080156D01*
X0127570Y0079681D01*
X0128045Y0079206D01*
X0128996Y0079206D01*
X0129471Y0079681D01*
X0130470Y0079206D02*
X0132371Y0079206D01*
X0130470Y0081107D01*
X0130470Y0081582D01*
X0130945Y0082058D01*
X0131896Y0082058D01*
X0132371Y0081582D01*
X0133370Y0081582D02*
X0133845Y0082058D01*
X0134796Y0082058D01*
X0135271Y0081582D01*
X0135271Y0079681D01*
X0134796Y0079206D01*
X0133845Y0079206D01*
X0133370Y0079681D01*
X0129471Y0081582D02*
X0128996Y0082058D01*
X0128045Y0082058D01*
X0127570Y0081582D01*
X0128045Y0080632D02*
X0128520Y0080632D01*
X0136260Y0086666D02*
X0139112Y0086666D01*
X0139112Y0088092D01*
X0138637Y0088568D01*
X0137686Y0088568D01*
X0137211Y0088092D01*
X0137211Y0086666D01*
X0137211Y0087617D02*
X0136260Y0088568D01*
X0136260Y0089566D02*
X0136260Y0091468D01*
X0136260Y0090517D02*
X0139112Y0090517D01*
X0138162Y0089566D01*
X0138637Y0092466D02*
X0139112Y0092942D01*
X0139112Y0093892D01*
X0138637Y0094368D01*
X0138162Y0094368D01*
X0136260Y0092466D01*
X0136260Y0094368D01*
X0156637Y0084656D02*
X0156637Y0081804D01*
X0157588Y0081804D02*
X0155686Y0081804D01*
X0158586Y0082279D02*
X0158586Y0084656D01*
X0157588Y0083705D02*
X0156637Y0084656D01*
X0160488Y0084656D02*
X0160488Y0082279D01*
X0160012Y0081804D01*
X0159062Y0081804D01*
X0158586Y0082279D01*
X0168996Y0077656D02*
X0168996Y0075754D01*
X0168996Y0076705D02*
X0171848Y0076705D01*
X0170898Y0075754D01*
X0170898Y0074756D02*
X0171373Y0074756D01*
X0171848Y0074280D01*
X0171848Y0073330D01*
X0171373Y0072854D01*
X0171373Y0071855D02*
X0171848Y0071380D01*
X0171848Y0070429D01*
X0171373Y0069954D01*
X0169472Y0069954D01*
X0168996Y0070429D01*
X0168996Y0071380D01*
X0169472Y0071855D01*
X0168996Y0072854D02*
X0170898Y0074756D01*
X0168996Y0074756D02*
X0168996Y0072854D01*
X0227638Y0051530D02*
X0227638Y0050580D01*
X0228114Y0050104D01*
X0229064Y0050104D02*
X0229540Y0051055D01*
X0229540Y0051530D01*
X0229064Y0052006D01*
X0228114Y0052006D01*
X0227638Y0051530D01*
X0229064Y0050104D02*
X0230490Y0050104D01*
X0230490Y0052006D01*
X0230490Y0049105D02*
X0230490Y0047204D01*
X0229064Y0047204D01*
X0229540Y0048155D01*
X0229540Y0048630D01*
X0229064Y0049105D01*
X0228114Y0049105D01*
X0227638Y0048630D01*
X0227638Y0047679D01*
X0228114Y0047204D01*
X0228114Y0046205D02*
X0227638Y0045730D01*
X0227638Y0044779D01*
X0228114Y0044304D01*
X0230015Y0044304D01*
X0230490Y0044779D01*
X0230490Y0045730D01*
X0230015Y0046205D01*
X0235778Y0050075D02*
X0236253Y0049599D01*
X0237204Y0049599D01*
X0237679Y0050075D01*
X0237679Y0051025D01*
X0236253Y0051025D01*
X0235778Y0050550D01*
X0235778Y0050075D01*
X0236729Y0051976D02*
X0237679Y0051025D01*
X0238678Y0051025D02*
X0239153Y0051501D01*
X0239629Y0051501D01*
X0240579Y0051025D01*
X0240579Y0052451D01*
X0238678Y0052451D01*
X0238678Y0051025D02*
X0238678Y0050075D01*
X0239153Y0049599D01*
X0240104Y0049599D01*
X0240579Y0050075D01*
X0241578Y0050075D02*
X0242053Y0049599D01*
X0243004Y0049599D01*
X0243479Y0050075D01*
X0243479Y0051976D01*
X0243004Y0052451D01*
X0242053Y0052451D01*
X0241578Y0051976D01*
X0236729Y0051976D02*
X0235778Y0052451D01*
X0266792Y0075967D02*
X0267267Y0075492D01*
X0269168Y0075492D01*
X0269644Y0075967D01*
X0269644Y0076918D01*
X0269168Y0077393D01*
X0269168Y0078392D02*
X0269644Y0078867D01*
X0269644Y0079818D01*
X0269168Y0080293D01*
X0268693Y0080293D01*
X0268218Y0079818D01*
X0267742Y0080293D01*
X0267267Y0080293D01*
X0266792Y0079818D01*
X0266792Y0078867D01*
X0267267Y0078392D01*
X0267267Y0077393D02*
X0266792Y0076918D01*
X0266792Y0075967D01*
X0268218Y0079343D02*
X0268218Y0079818D01*
X0314085Y0059889D02*
X0314560Y0060365D01*
X0315511Y0060365D01*
X0315986Y0059889D01*
X0316985Y0060365D02*
X0316985Y0057513D01*
X0318886Y0060365D01*
X0318886Y0057513D01*
X0319885Y0057988D02*
X0319885Y0059889D01*
X0320361Y0060365D01*
X0321311Y0060365D01*
X0321787Y0059889D01*
X0321787Y0057988D01*
X0321311Y0057513D01*
X0320361Y0057513D01*
X0319885Y0057988D01*
X0322785Y0057988D02*
X0323261Y0057513D01*
X0324211Y0057513D01*
X0324687Y0057988D01*
X0324687Y0059889D01*
X0324211Y0060365D01*
X0323261Y0060365D01*
X0322785Y0059889D01*
X0315986Y0057988D02*
X0315511Y0057513D01*
X0314560Y0057513D01*
X0314085Y0057988D01*
X0314085Y0058463D01*
X0314560Y0058939D01*
X0315036Y0058939D01*
X0314560Y0058939D02*
X0314085Y0059414D01*
X0314085Y0059889D01*
X0314366Y0101056D02*
X0312546Y0101056D01*
X0312546Y0102876D01*
X0313153Y0103483D01*
X0314366Y0103483D01*
X0314366Y0102269D02*
X0312546Y0102269D01*
X0311348Y0101056D02*
X0311348Y0103483D01*
X0309528Y0103483D01*
X0308921Y0102876D01*
X0308921Y0101056D01*
X0307723Y0101663D02*
X0307116Y0101056D01*
X0305903Y0101056D01*
X0305296Y0101663D01*
X0305296Y0102876D01*
X0305903Y0103483D01*
X0307116Y0103483D01*
X0307723Y0102876D01*
X0307723Y0101663D01*
X0314366Y0102269D02*
X0314973Y0101663D01*
X0314366Y0101056D01*
X0316171Y0101056D02*
X0316171Y0104696D01*
X0318598Y0104696D02*
X0316171Y0101056D01*
X0318598Y0101056D02*
X0318598Y0104696D01*
X0318992Y0106962D02*
X0318992Y0110665D01*
X0316523Y0106962D01*
X0316523Y0110665D01*
X0314691Y0109430D02*
X0315309Y0108813D01*
X0315309Y0107579D01*
X0314691Y0106962D01*
X0313457Y0106962D01*
X0312840Y0107579D01*
X0312840Y0108813D01*
X0313457Y0109430D01*
X0314691Y0109430D01*
X0311625Y0109430D02*
X0310391Y0109430D01*
X0311008Y0110047D02*
X0311008Y0107579D01*
X0310391Y0106962D01*
X0305487Y0107579D02*
X0305487Y0110047D01*
X0304870Y0110665D01*
X0303635Y0110665D01*
X0303018Y0110047D01*
X0301804Y0110665D02*
X0301804Y0106962D01*
X0299335Y0106962D01*
X0300569Y0108813D02*
X0301804Y0108813D01*
X0303018Y0107579D02*
X0303635Y0106962D01*
X0304870Y0106962D01*
X0305487Y0107579D01*
X0301804Y0110665D02*
X0299335Y0110665D01*
X0304873Y0111727D02*
X0304873Y0115430D01*
X0303021Y0115430D01*
X0302404Y0114813D01*
X0302404Y0113579D01*
X0303021Y0112962D01*
X0304873Y0112962D01*
X0301190Y0112962D02*
X0301190Y0115430D01*
X0301190Y0114196D02*
X0299955Y0115430D01*
X0299338Y0115430D01*
X0298121Y0114813D02*
X0298121Y0113579D01*
X0297503Y0112962D01*
X0296269Y0112962D01*
X0295652Y0113579D01*
X0295652Y0114813D01*
X0296269Y0115430D01*
X0297503Y0115430D01*
X0298121Y0114813D01*
X0294437Y0114813D02*
X0293203Y0114813D01*
X0291982Y0114813D02*
X0291365Y0115430D01*
X0290130Y0115430D01*
X0289513Y0114813D01*
X0289513Y0114196D01*
X0291982Y0114196D01*
X0291982Y0113579D02*
X0291982Y0114813D01*
X0291982Y0113579D02*
X0291365Y0112962D01*
X0290130Y0112962D01*
X0288299Y0112962D02*
X0286447Y0112962D01*
X0285830Y0113579D01*
X0286447Y0114196D01*
X0287682Y0114196D01*
X0288299Y0114813D01*
X0287682Y0115430D01*
X0285830Y0115430D01*
X0284616Y0114813D02*
X0283999Y0114196D01*
X0282764Y0114196D01*
X0282147Y0113579D01*
X0282764Y0112962D01*
X0284616Y0112962D01*
X0284616Y0114813D02*
X0283999Y0115430D01*
X0282147Y0115430D01*
X0280933Y0115430D02*
X0280315Y0115430D01*
X0280315Y0112962D01*
X0279698Y0112962D02*
X0280933Y0112962D01*
X0278477Y0113579D02*
X0278477Y0114813D01*
X0277860Y0115430D01*
X0276626Y0115430D01*
X0276008Y0114813D01*
X0276008Y0113579D01*
X0276626Y0112962D01*
X0277860Y0112962D01*
X0278477Y0113579D01*
X0274794Y0112962D02*
X0274794Y0115430D01*
X0272942Y0115430D01*
X0272325Y0114813D01*
X0272325Y0112962D01*
X0271111Y0113579D02*
X0270494Y0114196D01*
X0268642Y0114196D01*
X0268642Y0114813D02*
X0268642Y0112962D01*
X0270494Y0112962D01*
X0271111Y0113579D01*
X0269259Y0115430D02*
X0268642Y0114813D01*
X0269259Y0115430D02*
X0270494Y0115430D01*
X0267428Y0116665D02*
X0266811Y0116665D01*
X0266811Y0112962D01*
X0267428Y0112962D02*
X0266193Y0112962D01*
X0261289Y0113579D02*
X0260672Y0112962D01*
X0258820Y0112962D01*
X0258820Y0115430D01*
X0257606Y0114813D02*
X0256989Y0115430D01*
X0255137Y0115430D01*
X0253923Y0114813D02*
X0253306Y0115430D01*
X0252071Y0115430D01*
X0251454Y0114813D01*
X0251454Y0114196D01*
X0253923Y0114196D01*
X0253923Y0113579D02*
X0253923Y0114813D01*
X0253923Y0113579D02*
X0253306Y0112962D01*
X0252071Y0112962D01*
X0255137Y0113579D02*
X0255754Y0114196D01*
X0256989Y0114196D01*
X0257606Y0114813D01*
X0257606Y0112962D02*
X0255754Y0112962D01*
X0255137Y0113579D01*
X0261289Y0113579D02*
X0261289Y0115430D01*
X0256985Y0117727D02*
X0256368Y0117727D01*
X0255751Y0118344D01*
X0255751Y0121430D01*
X0253920Y0121430D02*
X0253920Y0120813D01*
X0253302Y0120813D01*
X0253302Y0121430D01*
X0253920Y0121430D01*
X0253920Y0119579D02*
X0253920Y0118962D01*
X0253302Y0118962D01*
X0253302Y0119579D01*
X0253920Y0119579D01*
X0253302Y0118962D02*
X0254537Y0117727D01*
X0255751Y0118962D02*
X0257603Y0118962D01*
X0258220Y0119579D01*
X0258220Y0121430D01*
X0260058Y0122665D02*
X0260058Y0118962D01*
X0260675Y0118962D02*
X0259441Y0118962D01*
X0261890Y0118962D02*
X0261890Y0120813D01*
X0262507Y0121430D01*
X0264358Y0121430D01*
X0264358Y0118962D01*
X0265573Y0119579D02*
X0266190Y0118962D01*
X0267424Y0118962D01*
X0268042Y0119579D01*
X0268042Y0120813D01*
X0267424Y0121430D01*
X0266190Y0121430D01*
X0265573Y0120813D01*
X0265573Y0119579D01*
X0260675Y0122665D02*
X0260058Y0122665D01*
X0272939Y0120813D02*
X0272939Y0118962D01*
X0275408Y0118962D02*
X0275408Y0121430D01*
X0273556Y0121430D01*
X0272939Y0120813D01*
X0276622Y0120813D02*
X0276622Y0119579D01*
X0277239Y0118962D01*
X0278474Y0118962D01*
X0279091Y0119579D01*
X0279091Y0120813D01*
X0278474Y0121430D01*
X0277239Y0121430D01*
X0276622Y0120813D01*
X0280312Y0118962D02*
X0281546Y0118962D01*
X0280929Y0118962D02*
X0280929Y0121430D01*
X0281546Y0121430D01*
X0282767Y0121430D02*
X0284002Y0121430D01*
X0283385Y0122047D02*
X0283385Y0119579D01*
X0282767Y0118962D01*
X0285216Y0118962D02*
X0287068Y0118962D01*
X0287685Y0119579D01*
X0287068Y0120196D01*
X0285216Y0120196D01*
X0285216Y0120813D02*
X0285216Y0118962D01*
X0288899Y0118962D02*
X0288899Y0121430D01*
X0287068Y0121430D02*
X0285833Y0121430D01*
X0285216Y0120813D01*
X0280929Y0122665D02*
X0280929Y0123282D01*
X0291368Y0121430D02*
X0291368Y0119579D01*
X0290751Y0118962D01*
X0288899Y0118962D01*
X0292589Y0118962D02*
X0293824Y0118962D01*
X0293206Y0118962D02*
X0293206Y0122665D01*
X0293824Y0122665D01*
X0295655Y0121430D02*
X0295038Y0120813D01*
X0295038Y0118962D01*
X0296890Y0118962D01*
X0297507Y0119579D01*
X0296890Y0120196D01*
X0295038Y0120196D01*
X0295655Y0121430D02*
X0296890Y0121430D01*
X0298721Y0121430D02*
X0299955Y0118962D01*
X0301190Y0121430D01*
X0302404Y0120813D02*
X0302404Y0120196D01*
X0304873Y0120196D01*
X0304873Y0119579D02*
X0304873Y0120813D01*
X0304256Y0121430D01*
X0303021Y0121430D01*
X0302404Y0120813D01*
X0304256Y0118962D02*
X0304873Y0119579D01*
X0304256Y0118962D02*
X0303021Y0118962D01*
X0309774Y0121430D02*
X0310391Y0121430D01*
X0311625Y0120196D01*
X0311625Y0118962D02*
X0311625Y0121430D01*
X0312840Y0120813D02*
X0313457Y0121430D01*
X0314691Y0121430D01*
X0315309Y0120813D01*
X0315309Y0119579D01*
X0314691Y0118962D01*
X0313457Y0118962D01*
X0312840Y0119579D01*
X0312840Y0120813D01*
X0316523Y0122665D02*
X0318992Y0122665D01*
X0318992Y0118962D01*
X0318992Y0116665D02*
X0316523Y0116665D01*
X0314691Y0115430D02*
X0315309Y0114813D01*
X0315309Y0113579D01*
X0314691Y0112962D01*
X0313457Y0112962D01*
X0312840Y0113579D01*
X0312840Y0114813D01*
X0313457Y0115430D01*
X0314691Y0115430D01*
X0311625Y0115430D02*
X0311625Y0112962D01*
X0311625Y0114196D02*
X0310391Y0115430D01*
X0309774Y0115430D01*
X0317757Y0114813D02*
X0318992Y0114813D01*
X0318992Y0112962D02*
X0318992Y0116665D01*
X0318992Y0120813D02*
X0317757Y0120813D01*
X0293820Y0116047D02*
X0293820Y0112962D01*
X0291969Y0110665D02*
X0294437Y0106962D01*
X0296241Y0105303D02*
X0296241Y0104696D01*
X0296241Y0103483D02*
X0296241Y0101056D01*
X0296847Y0101056D02*
X0295634Y0101056D01*
X0294430Y0101056D02*
X0294430Y0103483D01*
X0293824Y0103483D01*
X0293217Y0102876D01*
X0292610Y0103483D01*
X0292004Y0102876D01*
X0292004Y0101056D01*
X0293217Y0101056D02*
X0293217Y0102876D01*
X0290805Y0102876D02*
X0290805Y0101663D01*
X0290199Y0101056D01*
X0288379Y0101056D01*
X0287180Y0101663D02*
X0286574Y0102269D01*
X0284753Y0102269D01*
X0284753Y0102876D02*
X0284753Y0101056D01*
X0286574Y0101056D01*
X0287180Y0101663D01*
X0286574Y0103483D02*
X0285360Y0103483D01*
X0284753Y0102876D01*
X0283555Y0102269D02*
X0282342Y0103483D01*
X0281735Y0103483D01*
X0280534Y0102876D02*
X0280534Y0101663D01*
X0279927Y0101056D01*
X0278107Y0101056D01*
X0278107Y0104696D01*
X0278107Y0103483D02*
X0279927Y0103483D01*
X0280534Y0102876D01*
X0283555Y0103483D02*
X0283555Y0101056D01*
X0288379Y0103483D02*
X0290199Y0103483D01*
X0290805Y0102876D01*
X0296241Y0103483D02*
X0296847Y0103483D01*
X0298046Y0104089D02*
X0298652Y0104696D01*
X0299866Y0104696D01*
X0300472Y0104089D01*
X0300472Y0103483D01*
X0299866Y0102876D01*
X0298652Y0102876D01*
X0298046Y0102269D01*
X0298046Y0101663D01*
X0298652Y0101056D01*
X0299866Y0101056D01*
X0300472Y0101663D01*
X0287071Y0106962D02*
X0287071Y0110665D01*
X0284602Y0110665D01*
X0283388Y0110047D02*
X0283388Y0107579D01*
X0282771Y0106962D01*
X0281536Y0106962D01*
X0280919Y0107579D01*
X0279705Y0107579D02*
X0279088Y0106962D01*
X0277853Y0106962D01*
X0277236Y0107579D01*
X0277236Y0110047D02*
X0277853Y0110665D01*
X0279088Y0110665D01*
X0279705Y0110047D01*
X0279705Y0107579D01*
X0280919Y0110047D02*
X0281536Y0110665D01*
X0282771Y0110665D01*
X0283388Y0110047D01*
X0285837Y0108813D02*
X0287071Y0108813D01*
X0272339Y0107579D02*
X0271721Y0106962D01*
X0269870Y0106962D01*
X0269870Y0108813D01*
X0270487Y0109430D01*
X0271721Y0109430D01*
X0271721Y0108196D02*
X0269870Y0108196D01*
X0268655Y0109430D02*
X0266804Y0109430D01*
X0266187Y0108813D01*
X0266187Y0107579D01*
X0266804Y0106962D01*
X0268655Y0106962D01*
X0268655Y0105727D02*
X0268655Y0109430D01*
X0271721Y0108196D02*
X0272339Y0107579D01*
X0264972Y0106962D02*
X0263121Y0106962D01*
X0262504Y0107579D01*
X0262504Y0108813D01*
X0263121Y0109430D01*
X0264972Y0109430D01*
X0264972Y0105727D01*
X0261289Y0106962D02*
X0261289Y0109430D01*
X0261289Y0108196D02*
X0260055Y0109430D01*
X0259438Y0109430D01*
X0258220Y0108813D02*
X0257603Y0109430D01*
X0256368Y0109430D01*
X0255751Y0108813D01*
X0255751Y0107579D01*
X0256368Y0106962D01*
X0257603Y0106962D01*
X0258220Y0107579D01*
X0258220Y0108813D01*
X0254537Y0109430D02*
X0253302Y0106962D01*
X0252068Y0109430D01*
X0250854Y0108813D02*
X0250236Y0109430D01*
X0249002Y0109430D01*
X0248385Y0108813D01*
X0248385Y0108196D01*
X0250854Y0108196D01*
X0250854Y0107579D02*
X0250854Y0108813D01*
X0250854Y0107579D02*
X0250236Y0106962D01*
X0249002Y0106962D01*
X0247170Y0107579D02*
X0247170Y0108813D01*
X0246553Y0109430D01*
X0244702Y0109430D01*
X0244702Y0110665D02*
X0244702Y0106962D01*
X0246553Y0106962D01*
X0247170Y0107579D01*
X0239804Y0108813D02*
X0238570Y0108813D01*
X0237349Y0108813D02*
X0236732Y0109430D01*
X0235497Y0109430D01*
X0234880Y0108813D01*
X0234880Y0107579D01*
X0235497Y0106962D01*
X0236732Y0106962D01*
X0237349Y0107579D01*
X0237349Y0108813D01*
X0239187Y0110047D02*
X0239187Y0106962D01*
X0239187Y0110047D02*
X0238570Y0110665D01*
X0235500Y0111727D02*
X0234883Y0111727D01*
X0234266Y0112344D01*
X0234266Y0115430D01*
X0232435Y0115430D02*
X0232435Y0114813D01*
X0231817Y0114813D01*
X0231817Y0115430D01*
X0232435Y0115430D01*
X0236735Y0115430D02*
X0236735Y0113579D01*
X0236118Y0112962D01*
X0234266Y0112962D01*
X0233052Y0111727D02*
X0231817Y0112962D01*
X0232435Y0112962D01*
X0232435Y0113579D01*
X0231817Y0113579D01*
X0231817Y0112962D01*
X0237956Y0112962D02*
X0239190Y0112962D01*
X0238573Y0112962D02*
X0238573Y0116665D01*
X0239190Y0116665D01*
X0241022Y0115430D02*
X0240405Y0114813D01*
X0240405Y0112962D01*
X0242873Y0112962D02*
X0242873Y0115430D01*
X0241022Y0115430D01*
X0244088Y0114813D02*
X0244705Y0115430D01*
X0245939Y0115430D01*
X0246557Y0114813D01*
X0246557Y0113579D01*
X0245939Y0112962D01*
X0244705Y0112962D01*
X0244088Y0113579D01*
X0244088Y0114813D01*
X0233666Y0109430D02*
X0233666Y0106962D01*
X0233666Y0108196D02*
X0232431Y0109430D01*
X0231814Y0109430D01*
X0226913Y0109430D02*
X0226913Y0106962D01*
X0226913Y0108196D02*
X0225679Y0109430D01*
X0225062Y0109430D01*
X0223844Y0108813D02*
X0223227Y0109430D01*
X0221992Y0109430D01*
X0221375Y0108813D01*
X0221375Y0108196D01*
X0223844Y0108196D01*
X0223844Y0107579D02*
X0223844Y0108813D01*
X0223844Y0107579D02*
X0223227Y0106962D01*
X0221992Y0106962D01*
X0220161Y0106962D02*
X0218309Y0106962D01*
X0217692Y0107579D01*
X0218309Y0108196D01*
X0219544Y0108196D01*
X0220161Y0108813D01*
X0219544Y0109430D01*
X0217692Y0109430D01*
X0215860Y0109430D02*
X0214626Y0109430D01*
X0214009Y0108813D01*
X0214009Y0106962D01*
X0215860Y0106962D01*
X0216478Y0107579D01*
X0215860Y0108196D01*
X0214009Y0108196D01*
X0212794Y0106962D02*
X0211560Y0106962D01*
X0212177Y0106962D02*
X0212177Y0110665D01*
X0212794Y0110665D01*
X0210339Y0108813D02*
X0209722Y0109430D01*
X0208487Y0109430D01*
X0207870Y0108813D01*
X0207870Y0108196D01*
X0210339Y0108196D01*
X0210339Y0107579D02*
X0210339Y0108813D01*
X0210339Y0107579D02*
X0209722Y0106962D01*
X0208487Y0106962D01*
X0206656Y0105727D02*
X0205421Y0106962D01*
X0206039Y0106962D01*
X0206039Y0107579D01*
X0205421Y0107579D01*
X0205421Y0106962D01*
X0205421Y0108813D02*
X0206039Y0108813D01*
X0206039Y0109430D01*
X0205421Y0109430D01*
X0205421Y0108813D01*
X0154091Y0109127D02*
X0152567Y0109127D01*
X0152059Y0109635D01*
X0152059Y0111668D01*
X0152567Y0112176D01*
X0154091Y0112176D01*
X0154091Y0109127D01*
X0151010Y0109635D02*
X0151010Y0110651D01*
X0149486Y0110651D01*
X0148977Y0110143D01*
X0148977Y0109635D01*
X0149486Y0109127D01*
X0150502Y0109127D01*
X0151010Y0109635D01*
X0151010Y0110651D02*
X0149994Y0111668D01*
X0148977Y0112176D01*
X0280315Y0116665D02*
X0280315Y0117282D01*
X0293203Y0116665D02*
X0293820Y0116047D01*
D11*
X0197041Y0109478D02*
X0197041Y0105975D01*
X0195874Y0107143D01*
X0194706Y0105975D01*
X0194706Y0109478D01*
X0193358Y0108310D02*
X0193358Y0106559D01*
X0192774Y0105975D01*
X0191023Y0105975D01*
X0191023Y0108310D01*
X0191607Y0109478D02*
X0191607Y0110062D01*
X0192774Y0110062D02*
X0192774Y0109478D01*
X0189675Y0108310D02*
X0189675Y0105975D01*
X0189675Y0107143D02*
X0188507Y0108310D01*
X0187924Y0108310D01*
X0186606Y0108310D02*
X0185438Y0108310D01*
X0186022Y0108894D02*
X0186022Y0106559D01*
X0185438Y0105975D01*
X0184150Y0105975D02*
X0184150Y0109478D01*
X0183567Y0108310D02*
X0182399Y0108310D01*
X0181815Y0107726D01*
X0181815Y0105975D01*
X0182309Y0103478D02*
X0179973Y0103478D01*
X0178626Y0102310D02*
X0178626Y0100559D01*
X0178042Y0099975D01*
X0176290Y0099975D01*
X0176290Y0099391D02*
X0176874Y0098807D01*
X0177458Y0098807D01*
X0176290Y0099391D02*
X0176290Y0102310D01*
X0174942Y0102310D02*
X0173775Y0102310D01*
X0174359Y0102894D02*
X0174359Y0100559D01*
X0173775Y0099975D01*
X0172487Y0099975D02*
X0172487Y0103478D01*
X0171903Y0102310D02*
X0170736Y0102310D01*
X0170152Y0101726D01*
X0170152Y0099975D01*
X0168804Y0101726D02*
X0166469Y0101726D01*
X0165121Y0102310D02*
X0164537Y0101726D01*
X0163369Y0101726D01*
X0162785Y0101143D01*
X0162785Y0100559D01*
X0163369Y0099975D01*
X0164537Y0099975D01*
X0165121Y0100559D01*
X0165121Y0102310D02*
X0165121Y0102894D01*
X0164537Y0103478D01*
X0163369Y0103478D01*
X0162785Y0102894D01*
X0161438Y0102310D02*
X0160270Y0102310D01*
X0160854Y0102894D02*
X0160854Y0100559D01*
X0160270Y0099975D01*
X0158982Y0099975D02*
X0158982Y0102310D01*
X0158982Y0101143D02*
X0157815Y0102310D01*
X0157231Y0102310D01*
X0155329Y0102310D02*
X0154161Y0102310D01*
X0153578Y0101726D01*
X0153578Y0099975D01*
X0155329Y0099975D01*
X0155913Y0100559D01*
X0155329Y0101143D01*
X0153578Y0101143D01*
X0152230Y0100559D02*
X0150478Y0100559D01*
X0149894Y0101143D01*
X0150478Y0101726D01*
X0149894Y0102310D01*
X0150478Y0102894D01*
X0152230Y0102894D01*
X0152230Y0099391D01*
X0148547Y0100559D02*
X0148547Y0101726D01*
X0147963Y0102310D01*
X0146795Y0102310D01*
X0146211Y0101726D01*
X0146211Y0101143D01*
X0148547Y0101143D01*
X0148547Y0100559D02*
X0147963Y0099975D01*
X0146795Y0099975D01*
X0144863Y0099975D02*
X0142528Y0099975D01*
X0143696Y0099975D02*
X0143696Y0103478D01*
X0144863Y0102310D01*
X0140597Y0100559D02*
X0140597Y0099975D01*
X0140013Y0099975D01*
X0140013Y0100559D01*
X0140597Y0100559D01*
X0140013Y0099975D02*
X0141180Y0098807D01*
X0135042Y0099975D02*
X0135042Y0100559D01*
X0132706Y0102894D01*
X0132706Y0103478D01*
X0135042Y0103478D01*
X0131359Y0101726D02*
X0129023Y0101726D01*
X0127675Y0101726D02*
X0127675Y0100559D01*
X0127092Y0099975D01*
X0125924Y0099975D01*
X0125340Y0100559D01*
X0125340Y0101143D01*
X0125924Y0101726D01*
X0127675Y0101726D01*
X0126508Y0102894D01*
X0125340Y0103478D01*
X0123992Y0102894D02*
X0123409Y0103478D01*
X0122241Y0103478D01*
X0121657Y0102894D01*
X0121657Y0102310D01*
X0122241Y0101726D01*
X0121657Y0101143D01*
X0121657Y0100559D01*
X0122241Y0099975D01*
X0123409Y0099975D01*
X0123992Y0100559D01*
X0122825Y0101726D02*
X0122241Y0101726D01*
X0120309Y0101143D02*
X0120309Y0100559D01*
X0119725Y0099975D01*
X0118558Y0099975D01*
X0117974Y0100559D01*
X0117974Y0101143D01*
X0118558Y0101726D01*
X0119725Y0101726D01*
X0120309Y0102310D01*
X0120309Y0102894D01*
X0119725Y0103478D01*
X0118558Y0103478D01*
X0117974Y0102894D01*
X0117974Y0102310D01*
X0118558Y0101726D01*
X0119725Y0101726D02*
X0120309Y0101143D01*
X0112943Y0099975D02*
X0111775Y0101143D01*
X0110608Y0099975D01*
X0110608Y0103478D01*
X0108676Y0102310D02*
X0107508Y0102310D01*
X0106924Y0101726D01*
X0106924Y0099975D01*
X0108676Y0099975D01*
X0109260Y0100559D01*
X0108676Y0101143D01*
X0106924Y0101143D01*
X0105577Y0099975D02*
X0104409Y0099975D01*
X0104993Y0099975D02*
X0104993Y0103478D01*
X0105577Y0103478D01*
X0103121Y0101726D02*
X0102537Y0102310D01*
X0100786Y0102310D01*
X0100786Y0103478D02*
X0100786Y0099975D01*
X0102537Y0099975D01*
X0103121Y0100559D01*
X0103121Y0101726D01*
X0099438Y0101726D02*
X0099438Y0100559D01*
X0098854Y0099975D01*
X0097687Y0099975D01*
X0097103Y0101143D02*
X0099438Y0101143D01*
X0099438Y0101726D02*
X0098854Y0102310D01*
X0097687Y0102310D01*
X0097103Y0101726D01*
X0097103Y0101143D01*
X0095755Y0102310D02*
X0095755Y0099975D01*
X0095755Y0102310D02*
X0094003Y0102310D01*
X0093420Y0101726D01*
X0093420Y0099975D01*
X0092072Y0099975D02*
X0090320Y0099975D01*
X0089736Y0100559D01*
X0089736Y0101726D01*
X0090320Y0102310D01*
X0092072Y0102310D01*
X0092072Y0103478D02*
X0092072Y0099975D01*
X0088389Y0100559D02*
X0088389Y0102310D01*
X0088389Y0100559D02*
X0087805Y0099975D01*
X0086053Y0099975D01*
X0086053Y0102310D01*
X0084705Y0102310D02*
X0084705Y0099975D01*
X0084705Y0101143D02*
X0083538Y0102310D01*
X0082954Y0102310D01*
X0081636Y0101726D02*
X0081636Y0100559D01*
X0081052Y0099975D01*
X0079301Y0099975D01*
X0079301Y0099391D02*
X0079301Y0102310D01*
X0081052Y0102310D01*
X0081636Y0101726D01*
X0080469Y0098807D02*
X0079885Y0098807D01*
X0079301Y0099391D01*
X0079915Y0105975D02*
X0081666Y0107726D01*
X0082250Y0107143D02*
X0079915Y0109478D01*
X0078567Y0108894D02*
X0078567Y0106559D01*
X0077983Y0105975D01*
X0076815Y0105975D01*
X0076232Y0106559D01*
X0076232Y0107726D01*
X0077399Y0107726D01*
X0076232Y0108894D02*
X0076815Y0109478D01*
X0077983Y0109478D01*
X0078567Y0108894D01*
X0082250Y0109478D02*
X0082250Y0105975D01*
X0087191Y0105975D02*
X0087191Y0106559D01*
X0087775Y0106559D01*
X0087775Y0105975D01*
X0087191Y0105975D01*
X0089123Y0106559D02*
X0089123Y0107726D01*
X0089706Y0108310D01*
X0090874Y0108310D01*
X0091458Y0107726D01*
X0091458Y0106559D01*
X0090874Y0105975D01*
X0089706Y0105975D01*
X0089123Y0106559D01*
X0092806Y0106559D02*
X0093390Y0105975D01*
X0094557Y0105975D01*
X0095141Y0106559D01*
X0095141Y0108894D01*
X0094557Y0109478D01*
X0093390Y0109478D01*
X0092806Y0108894D01*
X0100172Y0107143D02*
X0101340Y0105975D01*
X0101924Y0105975D01*
X0102507Y0106559D01*
X0102507Y0107143D01*
X0101340Y0108310D01*
X0101340Y0108894D01*
X0101924Y0109478D01*
X0102507Y0108894D01*
X0102507Y0108310D01*
X0100172Y0105975D01*
X0107538Y0105975D02*
X0107538Y0109478D01*
X0107538Y0107726D02*
X0109874Y0107726D01*
X0111221Y0107726D02*
X0111221Y0106559D01*
X0111805Y0105975D01*
X0113557Y0105975D01*
X0113557Y0109478D01*
X0113557Y0108310D02*
X0111805Y0108310D01*
X0111221Y0107726D01*
X0109874Y0105975D02*
X0109874Y0109478D01*
X0114905Y0107726D02*
X0114905Y0105975D01*
X0116072Y0105975D02*
X0116072Y0107726D01*
X0115488Y0108310D01*
X0114905Y0107726D01*
X0116072Y0107726D02*
X0116656Y0108310D01*
X0117240Y0108310D01*
X0117240Y0105975D01*
X0118588Y0106559D02*
X0118588Y0107726D01*
X0119755Y0107726D01*
X0118588Y0106559D02*
X0119172Y0105975D01*
X0120339Y0105975D01*
X0120923Y0106559D01*
X0120923Y0108894D01*
X0120339Y0109478D01*
X0119172Y0109478D01*
X0118588Y0108894D01*
X0125954Y0108310D02*
X0127706Y0108310D01*
X0128289Y0107726D01*
X0127706Y0107143D01*
X0126538Y0107143D01*
X0125954Y0106559D01*
X0126538Y0105975D01*
X0128289Y0105975D01*
X0129637Y0106559D02*
X0130221Y0105975D01*
X0131389Y0105975D01*
X0131973Y0106559D01*
X0131973Y0107726D01*
X0131389Y0108310D01*
X0130221Y0108310D01*
X0129637Y0107726D01*
X0129637Y0106559D01*
X0133320Y0106559D02*
X0133904Y0105975D01*
X0135072Y0105975D01*
X0135656Y0106559D01*
X0135072Y0107726D02*
X0133904Y0107726D01*
X0133320Y0107143D01*
X0133320Y0106559D01*
X0135072Y0107726D02*
X0135656Y0108310D01*
X0135656Y0108894D01*
X0135072Y0109478D01*
X0133904Y0109478D01*
X0133320Y0108894D01*
X0137527Y0108310D02*
X0137527Y0105975D01*
X0138111Y0105975D02*
X0136943Y0105975D01*
X0139459Y0107143D02*
X0141794Y0107143D01*
X0141794Y0107726D02*
X0141794Y0106559D01*
X0141210Y0105975D01*
X0140043Y0105975D01*
X0139459Y0107143D02*
X0139459Y0107726D01*
X0140043Y0108310D01*
X0141210Y0108310D01*
X0141794Y0107726D01*
X0138111Y0108310D02*
X0137527Y0108310D01*
X0137527Y0109478D02*
X0137527Y0110062D01*
X0146795Y0108310D02*
X0148547Y0107143D01*
X0146795Y0105975D01*
X0148547Y0105975D02*
X0148547Y0109478D01*
X0150418Y0109478D02*
X0150418Y0110062D01*
X0150418Y0108310D02*
X0150418Y0105975D01*
X0151002Y0105975D02*
X0149834Y0105975D01*
X0152350Y0105975D02*
X0152350Y0107726D01*
X0152934Y0108310D01*
X0154685Y0108310D01*
X0154685Y0105975D01*
X0156033Y0106559D02*
X0156033Y0107726D01*
X0156617Y0108310D01*
X0157785Y0108310D01*
X0158368Y0107726D01*
X0158368Y0106559D01*
X0157785Y0105975D01*
X0156617Y0105975D01*
X0156033Y0106559D01*
X0159686Y0108310D02*
X0160270Y0108310D01*
X0161438Y0107143D01*
X0161438Y0108310D02*
X0161438Y0105975D01*
X0162725Y0105975D02*
X0163309Y0106559D01*
X0163309Y0108894D01*
X0163893Y0108310D02*
X0162725Y0108310D01*
X0165211Y0108310D02*
X0166962Y0107143D01*
X0165211Y0105975D01*
X0166962Y0105975D02*
X0166962Y0109478D01*
X0168310Y0107726D02*
X0168310Y0107143D01*
X0170645Y0107143D01*
X0170645Y0107726D02*
X0170645Y0106559D01*
X0170062Y0105975D01*
X0168894Y0105975D01*
X0171933Y0105975D02*
X0173101Y0105975D01*
X0172517Y0105975D02*
X0172517Y0109478D01*
X0173101Y0109478D01*
X0174449Y0109478D02*
X0176784Y0109478D01*
X0176784Y0105975D01*
X0174449Y0105975D01*
X0175616Y0107726D02*
X0176784Y0107726D01*
X0170645Y0107726D02*
X0170062Y0108310D01*
X0168894Y0108310D01*
X0168310Y0107726D01*
X0182309Y0103478D02*
X0182309Y0099975D01*
X0179973Y0099975D01*
X0181141Y0101726D02*
X0182309Y0101726D01*
X0183657Y0101726D02*
X0185992Y0101726D01*
X0187340Y0102310D02*
X0189675Y0099975D01*
X0191023Y0099975D02*
X0192774Y0099975D01*
X0193358Y0100559D01*
X0192774Y0101143D01*
X0191023Y0101143D01*
X0191023Y0101726D02*
X0191023Y0099975D01*
X0191023Y0101726D02*
X0191607Y0102310D01*
X0192774Y0102310D01*
X0194706Y0103478D02*
X0194706Y0099975D01*
X0197041Y0099975D02*
X0197041Y0103478D01*
X0195874Y0102310D01*
X0194706Y0103478D01*
X0189675Y0102310D02*
X0187340Y0099975D01*
X0172487Y0101726D02*
X0171903Y0102310D01*
X0183567Y0108310D02*
X0184150Y0107726D01*
X0151002Y0108310D02*
X0150418Y0108310D01*
X0150478Y0101726D02*
X0151062Y0101726D01*
X0131359Y0101726D02*
X0129607Y0103478D01*
X0129607Y0099975D01*
X0112943Y0099975D02*
X0112943Y0103478D01*
D12*
X0021268Y0035158D02*
X0316053Y0035158D01*
X0316299Y0035161D01*
X0316545Y0035170D01*
X0316790Y0035185D01*
X0317035Y0035206D01*
X0317279Y0035232D01*
X0317523Y0035265D01*
X0317766Y0035303D01*
X0318008Y0035348D01*
X0318249Y0035398D01*
X0318488Y0035454D01*
X0318726Y0035515D01*
X0318962Y0035583D01*
X0319197Y0035656D01*
X0319430Y0035735D01*
X0319661Y0035819D01*
X0319890Y0035909D01*
X0320117Y0036005D01*
X0320341Y0036106D01*
X0320562Y0036212D01*
X0320782Y0036323D01*
X0320998Y0036440D01*
X0321211Y0036562D01*
X0321422Y0036690D01*
X0321629Y0036822D01*
X0321833Y0036959D01*
X0322034Y0037101D01*
X0322231Y0037248D01*
X0322424Y0037400D01*
X0322614Y0037556D01*
X0322800Y0037717D01*
X0322982Y0037882D01*
X0323160Y0038052D01*
X0323334Y0038226D01*
X0323504Y0038404D01*
X0323669Y0038586D01*
X0323830Y0038772D01*
X0323986Y0038962D01*
X0324138Y0039155D01*
X0324285Y0039352D01*
X0324427Y0039553D01*
X0324564Y0039757D01*
X0324696Y0039964D01*
X0324824Y0040175D01*
X0324946Y0040388D01*
X0325063Y0040604D01*
X0325174Y0040824D01*
X0325280Y0041045D01*
X0325381Y0041269D01*
X0325477Y0041496D01*
X0325567Y0041725D01*
X0325651Y0041956D01*
X0325730Y0042189D01*
X0325803Y0042424D01*
X0325871Y0042660D01*
X0325932Y0042898D01*
X0325988Y0043137D01*
X0326038Y0043378D01*
X0326083Y0043620D01*
X0326121Y0043863D01*
X0326154Y0044107D01*
X0326180Y0044351D01*
X0326201Y0044596D01*
X0326216Y0044841D01*
X0326225Y0045087D01*
X0326228Y0045333D01*
X0326228Y0114141D01*
X0326225Y0114407D01*
X0326215Y0114673D01*
X0326199Y0114939D01*
X0326177Y0115204D01*
X0326148Y0115469D01*
X0326112Y0115733D01*
X0326071Y0115996D01*
X0326023Y0116258D01*
X0325968Y0116518D01*
X0325908Y0116778D01*
X0325841Y0117035D01*
X0325768Y0117291D01*
X0325689Y0117545D01*
X0325603Y0117798D01*
X0325512Y0118048D01*
X0325415Y0118295D01*
X0325311Y0118541D01*
X0325202Y0118784D01*
X0325087Y0119024D01*
X0324966Y0119261D01*
X0324840Y0119495D01*
X0324707Y0119726D01*
X0324570Y0119954D01*
X0324426Y0120178D01*
X0324278Y0120399D01*
X0324124Y0120617D01*
X0323965Y0120830D01*
X0323801Y0121040D01*
X0323631Y0121245D01*
X0323457Y0121447D01*
X0323278Y0121644D01*
X0323095Y0121836D01*
X0322906Y0122025D01*
X0322714Y0122208D01*
X0322517Y0122387D01*
X0322315Y0122561D01*
X0322110Y0122731D01*
X0321900Y0122895D01*
X0321687Y0123054D01*
X0321469Y0123208D01*
X0321248Y0123356D01*
X0321024Y0123500D01*
X0320796Y0123637D01*
X0320565Y0123770D01*
X0320331Y0123896D01*
X0320094Y0124017D01*
X0319854Y0124132D01*
X0319611Y0124241D01*
X0319365Y0124345D01*
X0319118Y0124442D01*
X0318868Y0124533D01*
X0318615Y0124619D01*
X0318361Y0124698D01*
X0318105Y0124771D01*
X0317848Y0124838D01*
X0317588Y0124898D01*
X0317328Y0124953D01*
X0317066Y0125001D01*
X0316803Y0125042D01*
X0316539Y0125078D01*
X0316274Y0125107D01*
X0316009Y0125129D01*
X0315743Y0125145D01*
X0315477Y0125155D01*
X0315211Y0125158D01*
X0021268Y0125158D01*
X0021026Y0125155D01*
X0020785Y0125146D01*
X0020544Y0125132D01*
X0020303Y0125111D01*
X0020063Y0125085D01*
X0019823Y0125053D01*
X0019584Y0125015D01*
X0019347Y0124972D01*
X0019110Y0124922D01*
X0018875Y0124867D01*
X0018641Y0124807D01*
X0018409Y0124740D01*
X0018178Y0124669D01*
X0017949Y0124591D01*
X0017722Y0124508D01*
X0017497Y0124420D01*
X0017274Y0124326D01*
X0017054Y0124227D01*
X0016836Y0124122D01*
X0016621Y0124013D01*
X0016408Y0123898D01*
X0016198Y0123778D01*
X0015992Y0123653D01*
X0015788Y0123523D01*
X0015587Y0123388D01*
X0015390Y0123248D01*
X0015196Y0123104D01*
X0015006Y0122955D01*
X0014820Y0122801D01*
X0014637Y0122643D01*
X0014458Y0122481D01*
X0014283Y0122314D01*
X0014112Y0122143D01*
X0013945Y0121968D01*
X0013783Y0121789D01*
X0013625Y0121606D01*
X0013471Y0121420D01*
X0013322Y0121230D01*
X0013178Y0121036D01*
X0013038Y0120839D01*
X0012903Y0120638D01*
X0012773Y0120434D01*
X0012648Y0120228D01*
X0012528Y0120018D01*
X0012413Y0119805D01*
X0012304Y0119590D01*
X0012199Y0119372D01*
X0012100Y0119152D01*
X0012006Y0118929D01*
X0011918Y0118704D01*
X0011835Y0118477D01*
X0011757Y0118248D01*
X0011686Y0118017D01*
X0011619Y0117785D01*
X0011559Y0117551D01*
X0011504Y0117316D01*
X0011454Y0117079D01*
X0011411Y0116842D01*
X0011373Y0116603D01*
X0011341Y0116363D01*
X0011315Y0116123D01*
X0011294Y0115882D01*
X0011280Y0115641D01*
X0011271Y0115400D01*
X0011268Y0115158D01*
X0011268Y0045158D01*
X0011271Y0044916D01*
X0011280Y0044675D01*
X0011294Y0044434D01*
X0011315Y0044193D01*
X0011341Y0043953D01*
X0011373Y0043713D01*
X0011411Y0043474D01*
X0011454Y0043237D01*
X0011504Y0043000D01*
X0011559Y0042765D01*
X0011619Y0042531D01*
X0011686Y0042299D01*
X0011757Y0042068D01*
X0011835Y0041839D01*
X0011918Y0041612D01*
X0012006Y0041387D01*
X0012100Y0041164D01*
X0012199Y0040944D01*
X0012304Y0040726D01*
X0012413Y0040511D01*
X0012528Y0040298D01*
X0012648Y0040088D01*
X0012773Y0039882D01*
X0012903Y0039678D01*
X0013038Y0039477D01*
X0013178Y0039280D01*
X0013322Y0039086D01*
X0013471Y0038896D01*
X0013625Y0038710D01*
X0013783Y0038527D01*
X0013945Y0038348D01*
X0014112Y0038173D01*
X0014283Y0038002D01*
X0014458Y0037835D01*
X0014637Y0037673D01*
X0014820Y0037515D01*
X0015006Y0037361D01*
X0015196Y0037212D01*
X0015390Y0037068D01*
X0015587Y0036928D01*
X0015788Y0036793D01*
X0015992Y0036663D01*
X0016198Y0036538D01*
X0016408Y0036418D01*
X0016621Y0036303D01*
X0016836Y0036194D01*
X0017054Y0036089D01*
X0017274Y0035990D01*
X0017497Y0035896D01*
X0017722Y0035808D01*
X0017949Y0035725D01*
X0018178Y0035647D01*
X0018409Y0035576D01*
X0018641Y0035509D01*
X0018875Y0035449D01*
X0019110Y0035394D01*
X0019347Y0035344D01*
X0019584Y0035301D01*
X0019823Y0035263D01*
X0020063Y0035231D01*
X0020303Y0035205D01*
X0020544Y0035184D01*
X0020785Y0035170D01*
X0021026Y0035161D01*
X0021268Y0035158D01*
X0030362Y0064489D02*
X0030364Y0064568D01*
X0030370Y0064647D01*
X0030380Y0064726D01*
X0030394Y0064804D01*
X0030411Y0064881D01*
X0030433Y0064957D01*
X0030458Y0065032D01*
X0030488Y0065105D01*
X0030520Y0065177D01*
X0030557Y0065248D01*
X0030597Y0065316D01*
X0030640Y0065382D01*
X0030686Y0065446D01*
X0030736Y0065508D01*
X0030789Y0065567D01*
X0030844Y0065623D01*
X0030903Y0065677D01*
X0030964Y0065727D01*
X0031027Y0065775D01*
X0031093Y0065819D01*
X0031161Y0065860D01*
X0031231Y0065897D01*
X0031302Y0065931D01*
X0031376Y0065961D01*
X0031450Y0065987D01*
X0031526Y0066009D01*
X0031603Y0066028D01*
X0031681Y0066043D01*
X0031759Y0066054D01*
X0031838Y0066061D01*
X0031917Y0066064D01*
X0031996Y0066063D01*
X0032075Y0066058D01*
X0032154Y0066049D01*
X0032232Y0066036D01*
X0032309Y0066019D01*
X0032386Y0065999D01*
X0032461Y0065974D01*
X0032535Y0065946D01*
X0032608Y0065914D01*
X0032678Y0065879D01*
X0032747Y0065840D01*
X0032814Y0065797D01*
X0032879Y0065751D01*
X0032941Y0065703D01*
X0033001Y0065651D01*
X0033058Y0065596D01*
X0033112Y0065538D01*
X0033163Y0065478D01*
X0033211Y0065415D01*
X0033256Y0065350D01*
X0033298Y0065282D01*
X0033336Y0065213D01*
X0033370Y0065142D01*
X0033401Y0065069D01*
X0033429Y0064994D01*
X0033452Y0064919D01*
X0033472Y0064842D01*
X0033488Y0064765D01*
X0033500Y0064686D01*
X0033508Y0064608D01*
X0033512Y0064529D01*
X0033512Y0064449D01*
X0033508Y0064370D01*
X0033500Y0064292D01*
X0033488Y0064213D01*
X0033472Y0064136D01*
X0033452Y0064059D01*
X0033429Y0063984D01*
X0033401Y0063909D01*
X0033370Y0063836D01*
X0033336Y0063765D01*
X0033298Y0063696D01*
X0033256Y0063628D01*
X0033211Y0063563D01*
X0033163Y0063500D01*
X0033112Y0063440D01*
X0033058Y0063382D01*
X0033001Y0063327D01*
X0032941Y0063275D01*
X0032879Y0063227D01*
X0032814Y0063181D01*
X0032747Y0063138D01*
X0032678Y0063099D01*
X0032608Y0063064D01*
X0032535Y0063032D01*
X0032461Y0063004D01*
X0032386Y0062979D01*
X0032309Y0062959D01*
X0032232Y0062942D01*
X0032154Y0062929D01*
X0032075Y0062920D01*
X0031996Y0062915D01*
X0031917Y0062914D01*
X0031838Y0062917D01*
X0031759Y0062924D01*
X0031681Y0062935D01*
X0031603Y0062950D01*
X0031526Y0062969D01*
X0031450Y0062991D01*
X0031376Y0063017D01*
X0031302Y0063047D01*
X0031231Y0063081D01*
X0031161Y0063118D01*
X0031093Y0063159D01*
X0031027Y0063203D01*
X0030964Y0063251D01*
X0030903Y0063301D01*
X0030844Y0063355D01*
X0030789Y0063411D01*
X0030736Y0063470D01*
X0030686Y0063532D01*
X0030640Y0063596D01*
X0030597Y0063662D01*
X0030557Y0063730D01*
X0030520Y0063801D01*
X0030488Y0063873D01*
X0030458Y0063946D01*
X0030433Y0064021D01*
X0030411Y0064097D01*
X0030394Y0064174D01*
X0030380Y0064252D01*
X0030370Y0064331D01*
X0030364Y0064410D01*
X0030362Y0064489D01*
X0030362Y0084174D02*
X0030364Y0084253D01*
X0030370Y0084332D01*
X0030380Y0084411D01*
X0030394Y0084489D01*
X0030411Y0084566D01*
X0030433Y0084642D01*
X0030458Y0084717D01*
X0030488Y0084790D01*
X0030520Y0084862D01*
X0030557Y0084933D01*
X0030597Y0085001D01*
X0030640Y0085067D01*
X0030686Y0085131D01*
X0030736Y0085193D01*
X0030789Y0085252D01*
X0030844Y0085308D01*
X0030903Y0085362D01*
X0030964Y0085412D01*
X0031027Y0085460D01*
X0031093Y0085504D01*
X0031161Y0085545D01*
X0031231Y0085582D01*
X0031302Y0085616D01*
X0031376Y0085646D01*
X0031450Y0085672D01*
X0031526Y0085694D01*
X0031603Y0085713D01*
X0031681Y0085728D01*
X0031759Y0085739D01*
X0031838Y0085746D01*
X0031917Y0085749D01*
X0031996Y0085748D01*
X0032075Y0085743D01*
X0032154Y0085734D01*
X0032232Y0085721D01*
X0032309Y0085704D01*
X0032386Y0085684D01*
X0032461Y0085659D01*
X0032535Y0085631D01*
X0032608Y0085599D01*
X0032678Y0085564D01*
X0032747Y0085525D01*
X0032814Y0085482D01*
X0032879Y0085436D01*
X0032941Y0085388D01*
X0033001Y0085336D01*
X0033058Y0085281D01*
X0033112Y0085223D01*
X0033163Y0085163D01*
X0033211Y0085100D01*
X0033256Y0085035D01*
X0033298Y0084967D01*
X0033336Y0084898D01*
X0033370Y0084827D01*
X0033401Y0084754D01*
X0033429Y0084679D01*
X0033452Y0084604D01*
X0033472Y0084527D01*
X0033488Y0084450D01*
X0033500Y0084371D01*
X0033508Y0084293D01*
X0033512Y0084214D01*
X0033512Y0084134D01*
X0033508Y0084055D01*
X0033500Y0083977D01*
X0033488Y0083898D01*
X0033472Y0083821D01*
X0033452Y0083744D01*
X0033429Y0083669D01*
X0033401Y0083594D01*
X0033370Y0083521D01*
X0033336Y0083450D01*
X0033298Y0083381D01*
X0033256Y0083313D01*
X0033211Y0083248D01*
X0033163Y0083185D01*
X0033112Y0083125D01*
X0033058Y0083067D01*
X0033001Y0083012D01*
X0032941Y0082960D01*
X0032879Y0082912D01*
X0032814Y0082866D01*
X0032747Y0082823D01*
X0032678Y0082784D01*
X0032608Y0082749D01*
X0032535Y0082717D01*
X0032461Y0082689D01*
X0032386Y0082664D01*
X0032309Y0082644D01*
X0032232Y0082627D01*
X0032154Y0082614D01*
X0032075Y0082605D01*
X0031996Y0082600D01*
X0031917Y0082599D01*
X0031838Y0082602D01*
X0031759Y0082609D01*
X0031681Y0082620D01*
X0031603Y0082635D01*
X0031526Y0082654D01*
X0031450Y0082676D01*
X0031376Y0082702D01*
X0031302Y0082732D01*
X0031231Y0082766D01*
X0031161Y0082803D01*
X0031093Y0082844D01*
X0031027Y0082888D01*
X0030964Y0082936D01*
X0030903Y0082986D01*
X0030844Y0083040D01*
X0030789Y0083096D01*
X0030736Y0083155D01*
X0030686Y0083217D01*
X0030640Y0083281D01*
X0030597Y0083347D01*
X0030557Y0083415D01*
X0030520Y0083486D01*
X0030488Y0083558D01*
X0030458Y0083631D01*
X0030433Y0083706D01*
X0030411Y0083782D01*
X0030394Y0083859D01*
X0030380Y0083937D01*
X0030370Y0084016D01*
X0030364Y0084095D01*
X0030362Y0084174D01*
X0196268Y0115158D02*
X0196270Y0115299D01*
X0196276Y0115440D01*
X0196286Y0115580D01*
X0196300Y0115720D01*
X0196318Y0115860D01*
X0196339Y0115999D01*
X0196365Y0116138D01*
X0196394Y0116276D01*
X0196428Y0116412D01*
X0196465Y0116548D01*
X0196506Y0116683D01*
X0196551Y0116817D01*
X0196600Y0116949D01*
X0196652Y0117080D01*
X0196708Y0117209D01*
X0196768Y0117336D01*
X0196831Y0117462D01*
X0196897Y0117586D01*
X0196968Y0117709D01*
X0197041Y0117829D01*
X0197118Y0117947D01*
X0197198Y0118063D01*
X0197282Y0118176D01*
X0197368Y0118287D01*
X0197458Y0118396D01*
X0197551Y0118502D01*
X0197646Y0118605D01*
X0197745Y0118706D01*
X0197846Y0118804D01*
X0197950Y0118899D01*
X0198057Y0118991D01*
X0198166Y0119080D01*
X0198278Y0119165D01*
X0198392Y0119248D01*
X0198508Y0119328D01*
X0198627Y0119404D01*
X0198748Y0119476D01*
X0198870Y0119546D01*
X0198995Y0119611D01*
X0199121Y0119674D01*
X0199249Y0119732D01*
X0199379Y0119787D01*
X0199510Y0119839D01*
X0199643Y0119886D01*
X0199777Y0119930D01*
X0199912Y0119971D01*
X0200048Y0120007D01*
X0200185Y0120039D01*
X0200323Y0120068D01*
X0200461Y0120093D01*
X0200601Y0120113D01*
X0200741Y0120130D01*
X0200881Y0120143D01*
X0201022Y0120152D01*
X0201162Y0120157D01*
X0201303Y0120158D01*
X0201444Y0120155D01*
X0201585Y0120148D01*
X0201725Y0120137D01*
X0201865Y0120122D01*
X0202005Y0120103D01*
X0202144Y0120081D01*
X0202282Y0120054D01*
X0202420Y0120024D01*
X0202556Y0119989D01*
X0202692Y0119951D01*
X0202826Y0119909D01*
X0202960Y0119863D01*
X0203092Y0119814D01*
X0203222Y0119760D01*
X0203351Y0119703D01*
X0203478Y0119643D01*
X0203604Y0119579D01*
X0203727Y0119511D01*
X0203849Y0119440D01*
X0203969Y0119366D01*
X0204086Y0119288D01*
X0204201Y0119207D01*
X0204314Y0119123D01*
X0204425Y0119036D01*
X0204533Y0118945D01*
X0204638Y0118852D01*
X0204741Y0118755D01*
X0204841Y0118656D01*
X0204938Y0118554D01*
X0205032Y0118449D01*
X0205123Y0118342D01*
X0205211Y0118232D01*
X0205296Y0118120D01*
X0205378Y0118005D01*
X0205457Y0117888D01*
X0205532Y0117769D01*
X0205604Y0117648D01*
X0205672Y0117525D01*
X0205737Y0117400D01*
X0205799Y0117273D01*
X0205856Y0117144D01*
X0205911Y0117014D01*
X0205961Y0116883D01*
X0206008Y0116750D01*
X0206051Y0116616D01*
X0206090Y0116480D01*
X0206125Y0116344D01*
X0206157Y0116207D01*
X0206184Y0116069D01*
X0206208Y0115930D01*
X0206228Y0115790D01*
X0206244Y0115650D01*
X0206256Y0115510D01*
X0206264Y0115369D01*
X0206268Y0115228D01*
X0206268Y0115088D01*
X0206264Y0114947D01*
X0206256Y0114806D01*
X0206244Y0114666D01*
X0206228Y0114526D01*
X0206208Y0114386D01*
X0206184Y0114247D01*
X0206157Y0114109D01*
X0206125Y0113972D01*
X0206090Y0113836D01*
X0206051Y0113700D01*
X0206008Y0113566D01*
X0205961Y0113433D01*
X0205911Y0113302D01*
X0205856Y0113172D01*
X0205799Y0113043D01*
X0205737Y0112916D01*
X0205672Y0112791D01*
X0205604Y0112668D01*
X0205532Y0112547D01*
X0205457Y0112428D01*
X0205378Y0112311D01*
X0205296Y0112196D01*
X0205211Y0112084D01*
X0205123Y0111974D01*
X0205032Y0111867D01*
X0204938Y0111762D01*
X0204841Y0111660D01*
X0204741Y0111561D01*
X0204638Y0111464D01*
X0204533Y0111371D01*
X0204425Y0111280D01*
X0204314Y0111193D01*
X0204201Y0111109D01*
X0204086Y0111028D01*
X0203969Y0110950D01*
X0203849Y0110876D01*
X0203727Y0110805D01*
X0203604Y0110737D01*
X0203478Y0110673D01*
X0203351Y0110613D01*
X0203222Y0110556D01*
X0203092Y0110502D01*
X0202960Y0110453D01*
X0202826Y0110407D01*
X0202692Y0110365D01*
X0202556Y0110327D01*
X0202420Y0110292D01*
X0202282Y0110262D01*
X0202144Y0110235D01*
X0202005Y0110213D01*
X0201865Y0110194D01*
X0201725Y0110179D01*
X0201585Y0110168D01*
X0201444Y0110161D01*
X0201303Y0110158D01*
X0201162Y0110159D01*
X0201022Y0110164D01*
X0200881Y0110173D01*
X0200741Y0110186D01*
X0200601Y0110203D01*
X0200461Y0110223D01*
X0200323Y0110248D01*
X0200185Y0110277D01*
X0200048Y0110309D01*
X0199912Y0110345D01*
X0199777Y0110386D01*
X0199643Y0110430D01*
X0199510Y0110477D01*
X0199379Y0110529D01*
X0199249Y0110584D01*
X0199121Y0110642D01*
X0198995Y0110705D01*
X0198870Y0110770D01*
X0198748Y0110840D01*
X0198627Y0110912D01*
X0198508Y0110988D01*
X0198392Y0111068D01*
X0198278Y0111151D01*
X0198166Y0111236D01*
X0198057Y0111325D01*
X0197950Y0111417D01*
X0197846Y0111512D01*
X0197745Y0111610D01*
X0197646Y0111711D01*
X0197551Y0111814D01*
X0197458Y0111920D01*
X0197368Y0112029D01*
X0197282Y0112140D01*
X0197198Y0112253D01*
X0197118Y0112369D01*
X0197041Y0112487D01*
X0196968Y0112607D01*
X0196897Y0112730D01*
X0196831Y0112854D01*
X0196768Y0112980D01*
X0196708Y0113107D01*
X0196652Y0113236D01*
X0196600Y0113367D01*
X0196551Y0113499D01*
X0196506Y0113633D01*
X0196465Y0113768D01*
X0196428Y0113904D01*
X0196394Y0114040D01*
X0196365Y0114178D01*
X0196339Y0114317D01*
X0196318Y0114456D01*
X0196300Y0114596D01*
X0196286Y0114736D01*
X0196276Y0114876D01*
X0196270Y0115017D01*
X0196268Y0115158D01*
X0196268Y0045158D02*
X0196270Y0045299D01*
X0196276Y0045440D01*
X0196286Y0045580D01*
X0196300Y0045720D01*
X0196318Y0045860D01*
X0196339Y0045999D01*
X0196365Y0046138D01*
X0196394Y0046276D01*
X0196428Y0046412D01*
X0196465Y0046548D01*
X0196506Y0046683D01*
X0196551Y0046817D01*
X0196600Y0046949D01*
X0196652Y0047080D01*
X0196708Y0047209D01*
X0196768Y0047336D01*
X0196831Y0047462D01*
X0196897Y0047586D01*
X0196968Y0047709D01*
X0197041Y0047829D01*
X0197118Y0047947D01*
X0197198Y0048063D01*
X0197282Y0048176D01*
X0197368Y0048287D01*
X0197458Y0048396D01*
X0197551Y0048502D01*
X0197646Y0048605D01*
X0197745Y0048706D01*
X0197846Y0048804D01*
X0197950Y0048899D01*
X0198057Y0048991D01*
X0198166Y0049080D01*
X0198278Y0049165D01*
X0198392Y0049248D01*
X0198508Y0049328D01*
X0198627Y0049404D01*
X0198748Y0049476D01*
X0198870Y0049546D01*
X0198995Y0049611D01*
X0199121Y0049674D01*
X0199249Y0049732D01*
X0199379Y0049787D01*
X0199510Y0049839D01*
X0199643Y0049886D01*
X0199777Y0049930D01*
X0199912Y0049971D01*
X0200048Y0050007D01*
X0200185Y0050039D01*
X0200323Y0050068D01*
X0200461Y0050093D01*
X0200601Y0050113D01*
X0200741Y0050130D01*
X0200881Y0050143D01*
X0201022Y0050152D01*
X0201162Y0050157D01*
X0201303Y0050158D01*
X0201444Y0050155D01*
X0201585Y0050148D01*
X0201725Y0050137D01*
X0201865Y0050122D01*
X0202005Y0050103D01*
X0202144Y0050081D01*
X0202282Y0050054D01*
X0202420Y0050024D01*
X0202556Y0049989D01*
X0202692Y0049951D01*
X0202826Y0049909D01*
X0202960Y0049863D01*
X0203092Y0049814D01*
X0203222Y0049760D01*
X0203351Y0049703D01*
X0203478Y0049643D01*
X0203604Y0049579D01*
X0203727Y0049511D01*
X0203849Y0049440D01*
X0203969Y0049366D01*
X0204086Y0049288D01*
X0204201Y0049207D01*
X0204314Y0049123D01*
X0204425Y0049036D01*
X0204533Y0048945D01*
X0204638Y0048852D01*
X0204741Y0048755D01*
X0204841Y0048656D01*
X0204938Y0048554D01*
X0205032Y0048449D01*
X0205123Y0048342D01*
X0205211Y0048232D01*
X0205296Y0048120D01*
X0205378Y0048005D01*
X0205457Y0047888D01*
X0205532Y0047769D01*
X0205604Y0047648D01*
X0205672Y0047525D01*
X0205737Y0047400D01*
X0205799Y0047273D01*
X0205856Y0047144D01*
X0205911Y0047014D01*
X0205961Y0046883D01*
X0206008Y0046750D01*
X0206051Y0046616D01*
X0206090Y0046480D01*
X0206125Y0046344D01*
X0206157Y0046207D01*
X0206184Y0046069D01*
X0206208Y0045930D01*
X0206228Y0045790D01*
X0206244Y0045650D01*
X0206256Y0045510D01*
X0206264Y0045369D01*
X0206268Y0045228D01*
X0206268Y0045088D01*
X0206264Y0044947D01*
X0206256Y0044806D01*
X0206244Y0044666D01*
X0206228Y0044526D01*
X0206208Y0044386D01*
X0206184Y0044247D01*
X0206157Y0044109D01*
X0206125Y0043972D01*
X0206090Y0043836D01*
X0206051Y0043700D01*
X0206008Y0043566D01*
X0205961Y0043433D01*
X0205911Y0043302D01*
X0205856Y0043172D01*
X0205799Y0043043D01*
X0205737Y0042916D01*
X0205672Y0042791D01*
X0205604Y0042668D01*
X0205532Y0042547D01*
X0205457Y0042428D01*
X0205378Y0042311D01*
X0205296Y0042196D01*
X0205211Y0042084D01*
X0205123Y0041974D01*
X0205032Y0041867D01*
X0204938Y0041762D01*
X0204841Y0041660D01*
X0204741Y0041561D01*
X0204638Y0041464D01*
X0204533Y0041371D01*
X0204425Y0041280D01*
X0204314Y0041193D01*
X0204201Y0041109D01*
X0204086Y0041028D01*
X0203969Y0040950D01*
X0203849Y0040876D01*
X0203727Y0040805D01*
X0203604Y0040737D01*
X0203478Y0040673D01*
X0203351Y0040613D01*
X0203222Y0040556D01*
X0203092Y0040502D01*
X0202960Y0040453D01*
X0202826Y0040407D01*
X0202692Y0040365D01*
X0202556Y0040327D01*
X0202420Y0040292D01*
X0202282Y0040262D01*
X0202144Y0040235D01*
X0202005Y0040213D01*
X0201865Y0040194D01*
X0201725Y0040179D01*
X0201585Y0040168D01*
X0201444Y0040161D01*
X0201303Y0040158D01*
X0201162Y0040159D01*
X0201022Y0040164D01*
X0200881Y0040173D01*
X0200741Y0040186D01*
X0200601Y0040203D01*
X0200461Y0040223D01*
X0200323Y0040248D01*
X0200185Y0040277D01*
X0200048Y0040309D01*
X0199912Y0040345D01*
X0199777Y0040386D01*
X0199643Y0040430D01*
X0199510Y0040477D01*
X0199379Y0040529D01*
X0199249Y0040584D01*
X0199121Y0040642D01*
X0198995Y0040705D01*
X0198870Y0040770D01*
X0198748Y0040840D01*
X0198627Y0040912D01*
X0198508Y0040988D01*
X0198392Y0041068D01*
X0198278Y0041151D01*
X0198166Y0041236D01*
X0198057Y0041325D01*
X0197950Y0041417D01*
X0197846Y0041512D01*
X0197745Y0041610D01*
X0197646Y0041711D01*
X0197551Y0041814D01*
X0197458Y0041920D01*
X0197368Y0042029D01*
X0197282Y0042140D01*
X0197198Y0042253D01*
X0197118Y0042369D01*
X0197041Y0042487D01*
X0196968Y0042607D01*
X0196897Y0042730D01*
X0196831Y0042854D01*
X0196768Y0042980D01*
X0196708Y0043107D01*
X0196652Y0043236D01*
X0196600Y0043367D01*
X0196551Y0043499D01*
X0196506Y0043633D01*
X0196465Y0043768D01*
X0196428Y0043904D01*
X0196394Y0044040D01*
X0196365Y0044178D01*
X0196339Y0044317D01*
X0196318Y0044456D01*
X0196300Y0044596D01*
X0196286Y0044736D01*
X0196276Y0044876D01*
X0196270Y0045017D01*
X0196268Y0045158D01*
D13*
X0035759Y0054299D02*
X0035301Y0053840D01*
X0034383Y0053840D01*
X0033925Y0054299D01*
X0032859Y0054299D02*
X0032401Y0053840D01*
X0031483Y0053840D01*
X0031025Y0054299D01*
X0031025Y0056133D01*
X0031483Y0056592D01*
X0032401Y0056592D01*
X0032859Y0056133D01*
X0032859Y0054299D01*
X0033925Y0056133D02*
X0034383Y0056592D01*
X0035301Y0056592D01*
X0035759Y0056133D01*
X0035759Y0054299D01*
X0029959Y0053840D02*
X0029959Y0056592D01*
X0028124Y0053840D01*
X0028124Y0056592D01*
X0027059Y0055674D02*
X0026142Y0056592D01*
X0026142Y0053840D01*
X0027059Y0053840D02*
X0025224Y0053840D01*
D14*
X0209142Y0077638D03*
X0209201Y0077697D03*
X0213807Y0077638D03*
X0213866Y0077579D03*
X0216996Y0077638D03*
X0217055Y0077697D03*
X0217114Y0077756D03*
X0218709Y0078878D03*
X0222016Y0077284D03*
X0230283Y0077756D03*
X0235126Y0074508D03*
X0235185Y0074449D03*
X0237665Y0075453D03*
X0237724Y0075394D03*
X0237843Y0077638D03*
X0242508Y0077579D03*
X0242567Y0077520D03*
X0246996Y0081595D03*
X0247055Y0081536D03*
X0245874Y0082540D03*
X0242567Y0072087D03*
X0242508Y0072028D03*
X0240618Y0070847D03*
X0235126Y0071969D03*
X0226563Y0072146D03*
X0226504Y0072087D03*
X0213866Y0072087D03*
X0213807Y0072028D03*
X0211917Y0070847D03*
X0208846Y0082067D03*
X0212862Y0085847D03*
X0212921Y0085788D03*
X0208020Y0090453D03*
X0207961Y0090512D03*
D15*
X0207754Y0090749D03*
X0206691Y0090749D03*
X0206691Y0090689D03*
X0206632Y0090808D03*
X0206632Y0090867D03*
X0206573Y0090926D03*
X0206514Y0091044D03*
X0206455Y0091162D03*
X0212656Y0086142D03*
X0219033Y0081772D03*
X0221159Y0081123D03*
X0226770Y0080768D03*
X0226770Y0080709D03*
X0226770Y0080650D03*
X0206396Y0077934D03*
X0229900Y0071674D03*
X0233797Y0070847D03*
D16*
X0230756Y0071969D03*
X0225382Y0071378D03*
X0234240Y0074863D03*
X0240382Y0070906D03*
X0211681Y0070906D03*
X0203000Y0078642D03*
X0215756Y0083189D03*
X0211209Y0085434D03*
X0206130Y0083957D03*
X0206543Y0088682D03*
X0209024Y0088623D03*
D17*
X0217793Y0082245D03*
X0206041Y0077402D03*
X0213482Y0071733D03*
X0233738Y0070906D03*
X0242183Y0071733D03*
D18*
X0242774Y0072560D03*
X0242774Y0072619D03*
X0242833Y0072737D03*
X0242833Y0072796D03*
X0242833Y0072855D03*
X0242833Y0072914D03*
X0242892Y0072973D03*
X0242892Y0073032D03*
X0242892Y0073091D03*
X0242892Y0073150D03*
X0242892Y0073209D03*
X0242951Y0073327D03*
X0242951Y0073386D03*
X0242951Y0073445D03*
X0242951Y0073504D03*
X0242951Y0073563D03*
X0242951Y0073623D03*
X0242951Y0073682D03*
X0242951Y0073741D03*
X0242951Y0073800D03*
X0242951Y0073859D03*
X0242951Y0073918D03*
X0242951Y0073977D03*
X0243010Y0074213D03*
X0243010Y0074272D03*
X0243010Y0074331D03*
X0243010Y0075276D03*
X0243010Y0075335D03*
X0243010Y0075394D03*
X0243010Y0075453D03*
X0243010Y0075512D03*
X0242951Y0075630D03*
X0242951Y0075689D03*
X0242951Y0075749D03*
X0242951Y0075808D03*
X0242951Y0075867D03*
X0242951Y0075926D03*
X0242951Y0075985D03*
X0242951Y0076044D03*
X0242951Y0076103D03*
X0242951Y0076162D03*
X0242951Y0076221D03*
X0242951Y0076280D03*
X0242951Y0076339D03*
X0242892Y0076398D03*
X0242892Y0076457D03*
X0242892Y0076516D03*
X0242892Y0076575D03*
X0242892Y0076634D03*
X0242892Y0076693D03*
X0242833Y0076752D03*
X0242833Y0076812D03*
X0242833Y0076871D03*
X0242833Y0076930D03*
X0242774Y0077048D03*
X0242774Y0077107D03*
X0247262Y0077107D03*
X0247262Y0077166D03*
X0247262Y0077225D03*
X0247262Y0077284D03*
X0247262Y0077343D03*
X0247262Y0077402D03*
X0247262Y0077461D03*
X0247262Y0077520D03*
X0247262Y0077579D03*
X0247262Y0077638D03*
X0247262Y0077697D03*
X0247262Y0077756D03*
X0247262Y0077815D03*
X0247262Y0077875D03*
X0247262Y0077934D03*
X0247262Y0078819D03*
X0247262Y0078878D03*
X0247262Y0078938D03*
X0247262Y0078997D03*
X0247262Y0079056D03*
X0247262Y0079115D03*
X0247262Y0079174D03*
X0247262Y0079233D03*
X0247262Y0079292D03*
X0247262Y0079351D03*
X0247262Y0079410D03*
X0247262Y0079469D03*
X0247262Y0079528D03*
X0247262Y0079587D03*
X0247262Y0079646D03*
X0247262Y0079705D03*
X0247262Y0079764D03*
X0247262Y0079823D03*
X0247262Y0079882D03*
X0247262Y0079941D03*
X0247262Y0080000D03*
X0247262Y0080060D03*
X0247262Y0080119D03*
X0247262Y0080178D03*
X0247262Y0080237D03*
X0247262Y0080296D03*
X0247262Y0080355D03*
X0247262Y0080414D03*
X0247262Y0080473D03*
X0247262Y0080532D03*
X0247262Y0080591D03*
X0247262Y0080650D03*
X0247262Y0080709D03*
X0247262Y0080768D03*
X0247262Y0080827D03*
X0247203Y0081004D03*
X0247203Y0081063D03*
X0247203Y0081123D03*
X0247262Y0077048D03*
X0247262Y0076989D03*
X0247262Y0076930D03*
X0247262Y0076871D03*
X0247262Y0076812D03*
X0247262Y0076752D03*
X0247262Y0076693D03*
X0247262Y0076634D03*
X0247262Y0076575D03*
X0247262Y0076516D03*
X0247262Y0076457D03*
X0247262Y0076398D03*
X0247262Y0076339D03*
X0247262Y0076280D03*
X0247262Y0076221D03*
X0247262Y0076162D03*
X0247262Y0076103D03*
X0247262Y0076044D03*
X0247262Y0075985D03*
X0247262Y0075926D03*
X0247262Y0075867D03*
X0247262Y0075808D03*
X0247262Y0075749D03*
X0247262Y0075689D03*
X0247262Y0075630D03*
X0247262Y0075571D03*
X0247262Y0075512D03*
X0247262Y0075453D03*
X0247262Y0075394D03*
X0247262Y0075335D03*
X0247262Y0075276D03*
X0247262Y0075217D03*
X0247262Y0075158D03*
X0247262Y0075099D03*
X0247262Y0075040D03*
X0247262Y0074981D03*
X0247262Y0074922D03*
X0247262Y0074863D03*
X0247262Y0074804D03*
X0247262Y0074745D03*
X0247262Y0074686D03*
X0247262Y0074626D03*
X0247262Y0074567D03*
X0247262Y0074508D03*
X0247262Y0074449D03*
X0247262Y0074390D03*
X0247262Y0074331D03*
X0247262Y0074272D03*
X0247262Y0074213D03*
X0247262Y0074154D03*
X0247262Y0074095D03*
X0247262Y0074036D03*
X0247262Y0073977D03*
X0247262Y0073918D03*
X0247262Y0073859D03*
X0247262Y0073800D03*
X0247262Y0073741D03*
X0247262Y0073682D03*
X0247262Y0073623D03*
X0247262Y0073563D03*
X0247262Y0073504D03*
X0247262Y0073445D03*
X0247262Y0073386D03*
X0247262Y0073327D03*
X0247262Y0073268D03*
X0247262Y0073209D03*
X0247262Y0073150D03*
X0247262Y0073091D03*
X0247262Y0073032D03*
X0247262Y0072973D03*
X0247262Y0072914D03*
X0247262Y0072855D03*
X0247262Y0072796D03*
X0247262Y0072737D03*
X0247262Y0072678D03*
X0247262Y0072619D03*
X0247262Y0072560D03*
X0247262Y0072500D03*
X0247262Y0072441D03*
X0247262Y0072382D03*
X0247262Y0072323D03*
X0247262Y0072264D03*
X0247262Y0072205D03*
X0247262Y0072146D03*
X0247262Y0072087D03*
X0247262Y0072028D03*
X0247262Y0071969D03*
X0247262Y0071910D03*
X0247262Y0071851D03*
X0247262Y0071792D03*
X0247262Y0071733D03*
X0247262Y0071674D03*
X0247262Y0071615D03*
X0247262Y0071556D03*
X0247262Y0071497D03*
X0247262Y0071438D03*
X0247262Y0071378D03*
X0247262Y0071319D03*
X0247262Y0071260D03*
X0247262Y0071201D03*
X0247262Y0071142D03*
X0247262Y0071083D03*
X0247262Y0071024D03*
X0247262Y0070965D03*
X0235333Y0072441D03*
X0235333Y0072500D03*
X0235333Y0072560D03*
X0235333Y0073918D03*
X0235333Y0073977D03*
X0235333Y0074036D03*
X0237577Y0075689D03*
X0237577Y0075749D03*
X0237518Y0075926D03*
X0237518Y0075985D03*
X0237518Y0076044D03*
X0237518Y0076103D03*
X0237518Y0076162D03*
X0237518Y0076221D03*
X0237518Y0076280D03*
X0237518Y0076339D03*
X0237518Y0076398D03*
X0237577Y0076575D03*
X0237577Y0076634D03*
X0237577Y0076693D03*
X0237577Y0076752D03*
X0237577Y0076812D03*
X0237577Y0076871D03*
X0237577Y0076930D03*
X0237636Y0077107D03*
X0237636Y0077166D03*
X0234860Y0077993D03*
X0230077Y0077284D03*
X0230018Y0077107D03*
X0230018Y0077048D03*
X0230018Y0076989D03*
X0230018Y0076930D03*
X0230018Y0076871D03*
X0230018Y0076812D03*
X0226829Y0076812D03*
X0226829Y0076871D03*
X0226829Y0076930D03*
X0226829Y0076989D03*
X0226829Y0077048D03*
X0226829Y0077107D03*
X0226829Y0077166D03*
X0226829Y0077225D03*
X0226829Y0077284D03*
X0226829Y0077343D03*
X0226829Y0077402D03*
X0226829Y0077461D03*
X0226829Y0077520D03*
X0226829Y0077579D03*
X0226829Y0077638D03*
X0226829Y0077697D03*
X0226829Y0077756D03*
X0226829Y0077815D03*
X0226829Y0077875D03*
X0226829Y0077934D03*
X0226829Y0077993D03*
X0226829Y0078052D03*
X0226829Y0078111D03*
X0226829Y0078170D03*
X0226829Y0078229D03*
X0226829Y0078288D03*
X0226829Y0078347D03*
X0226829Y0078406D03*
X0226829Y0078465D03*
X0226829Y0078524D03*
X0226829Y0078583D03*
X0226829Y0078642D03*
X0226829Y0078701D03*
X0226829Y0078760D03*
X0226829Y0078819D03*
X0226829Y0078878D03*
X0226829Y0078938D03*
X0226829Y0078997D03*
X0226829Y0079056D03*
X0226829Y0079115D03*
X0226829Y0079174D03*
X0226829Y0079233D03*
X0226829Y0079292D03*
X0226829Y0079351D03*
X0226829Y0079410D03*
X0226829Y0079469D03*
X0226829Y0079528D03*
X0226829Y0079587D03*
X0226829Y0079646D03*
X0226829Y0079705D03*
X0226829Y0079764D03*
X0226829Y0079823D03*
X0228778Y0079705D03*
X0228778Y0080768D03*
X0222104Y0080237D03*
X0222104Y0080178D03*
X0222104Y0080119D03*
X0222104Y0080060D03*
X0222104Y0080000D03*
X0222104Y0079941D03*
X0222104Y0079882D03*
X0222104Y0079823D03*
X0222104Y0079764D03*
X0222104Y0079705D03*
X0222104Y0079646D03*
X0222104Y0079587D03*
X0222104Y0079528D03*
X0222104Y0079469D03*
X0222104Y0079410D03*
X0222104Y0079351D03*
X0222104Y0079292D03*
X0222104Y0079233D03*
X0222104Y0079174D03*
X0222104Y0079115D03*
X0222104Y0079056D03*
X0222104Y0078997D03*
X0222104Y0078938D03*
X0222104Y0078878D03*
X0222104Y0078819D03*
X0222104Y0078760D03*
X0222104Y0078701D03*
X0222104Y0078642D03*
X0222104Y0078583D03*
X0222104Y0078524D03*
X0222104Y0078465D03*
X0222104Y0078406D03*
X0222104Y0078347D03*
X0222104Y0078288D03*
X0222104Y0078229D03*
X0222104Y0078170D03*
X0222104Y0078111D03*
X0222104Y0078052D03*
X0222104Y0077993D03*
X0222104Y0077934D03*
X0222104Y0077166D03*
X0222104Y0077107D03*
X0222104Y0077048D03*
X0222104Y0076989D03*
X0222104Y0076930D03*
X0222104Y0076871D03*
X0222104Y0076812D03*
X0222104Y0076752D03*
X0222104Y0076693D03*
X0222104Y0076634D03*
X0222104Y0076575D03*
X0222104Y0076516D03*
X0222104Y0076457D03*
X0222104Y0076398D03*
X0222104Y0076339D03*
X0222104Y0076280D03*
X0222104Y0076221D03*
X0222104Y0076162D03*
X0222104Y0076103D03*
X0222104Y0076044D03*
X0222104Y0075985D03*
X0222104Y0075926D03*
X0222104Y0075867D03*
X0222104Y0075808D03*
X0222104Y0075749D03*
X0222104Y0075689D03*
X0222104Y0075630D03*
X0222104Y0075571D03*
X0222104Y0075512D03*
X0222104Y0075453D03*
X0222104Y0075394D03*
X0222104Y0075335D03*
X0222104Y0075276D03*
X0222104Y0075217D03*
X0222104Y0075158D03*
X0222104Y0075099D03*
X0222104Y0075040D03*
X0222104Y0074981D03*
X0222104Y0074922D03*
X0222104Y0074863D03*
X0222104Y0074804D03*
X0222104Y0074745D03*
X0222104Y0074686D03*
X0222104Y0074626D03*
X0222104Y0074567D03*
X0222104Y0074508D03*
X0222104Y0074449D03*
X0222104Y0074390D03*
X0222104Y0074331D03*
X0222104Y0074272D03*
X0222104Y0074213D03*
X0222104Y0074154D03*
X0222104Y0074095D03*
X0222104Y0074036D03*
X0222104Y0073977D03*
X0222104Y0073918D03*
X0222104Y0073859D03*
X0222104Y0073800D03*
X0222104Y0073741D03*
X0222104Y0073682D03*
X0222104Y0073623D03*
X0222104Y0073563D03*
X0222104Y0073504D03*
X0222104Y0073445D03*
X0222104Y0073386D03*
X0222104Y0073327D03*
X0222104Y0073268D03*
X0222104Y0073209D03*
X0222104Y0073150D03*
X0222104Y0073091D03*
X0222104Y0073032D03*
X0222104Y0072973D03*
X0222104Y0072914D03*
X0222104Y0072855D03*
X0222104Y0072796D03*
X0222104Y0072737D03*
X0222104Y0072678D03*
X0222104Y0072619D03*
X0222104Y0072560D03*
X0222104Y0072500D03*
X0222104Y0072441D03*
X0222104Y0072382D03*
X0222104Y0072323D03*
X0222104Y0072264D03*
X0222104Y0072205D03*
X0222104Y0072146D03*
X0222104Y0072087D03*
X0222104Y0072028D03*
X0222104Y0071969D03*
X0222104Y0071910D03*
X0222104Y0071851D03*
X0222104Y0071792D03*
X0222104Y0071733D03*
X0222104Y0071674D03*
X0222104Y0071615D03*
X0222104Y0071556D03*
X0222104Y0071497D03*
X0222104Y0071438D03*
X0222104Y0071378D03*
X0222104Y0071319D03*
X0222104Y0071260D03*
X0222104Y0071201D03*
X0222104Y0071142D03*
X0222104Y0071083D03*
X0222104Y0071024D03*
X0222104Y0070965D03*
X0226711Y0072560D03*
X0226770Y0072796D03*
X0226770Y0072855D03*
X0226770Y0072914D03*
X0226770Y0072973D03*
X0226829Y0073209D03*
X0226829Y0073268D03*
X0226829Y0073327D03*
X0226829Y0073386D03*
X0226829Y0073445D03*
X0226829Y0073504D03*
X0226829Y0073563D03*
X0226829Y0073623D03*
X0226829Y0073682D03*
X0226829Y0073741D03*
X0226829Y0073800D03*
X0226829Y0073859D03*
X0226829Y0073918D03*
X0226829Y0073977D03*
X0226829Y0074036D03*
X0226829Y0074095D03*
X0226829Y0074154D03*
X0226829Y0074213D03*
X0226829Y0074272D03*
X0226829Y0074331D03*
X0226829Y0074390D03*
X0226829Y0074449D03*
X0226829Y0074508D03*
X0226829Y0074567D03*
X0226829Y0074626D03*
X0226829Y0074686D03*
X0226829Y0074745D03*
X0226829Y0074804D03*
X0226829Y0074863D03*
X0226829Y0074922D03*
X0226829Y0074981D03*
X0226829Y0075040D03*
X0226829Y0075099D03*
X0226829Y0075158D03*
X0226829Y0075217D03*
X0226829Y0075276D03*
X0226829Y0075335D03*
X0226829Y0075394D03*
X0226829Y0075453D03*
X0226829Y0075512D03*
X0226829Y0075571D03*
X0226829Y0075630D03*
X0226829Y0075689D03*
X0226829Y0075749D03*
X0226829Y0075808D03*
X0226829Y0075867D03*
X0226829Y0075926D03*
X0226829Y0075985D03*
X0226829Y0076044D03*
X0226829Y0076103D03*
X0226829Y0076162D03*
X0226829Y0076221D03*
X0226829Y0076280D03*
X0226829Y0076339D03*
X0226829Y0076398D03*
X0226829Y0076457D03*
X0226829Y0076516D03*
X0226829Y0076575D03*
X0226829Y0076634D03*
X0226829Y0076693D03*
X0226829Y0076752D03*
X0229959Y0071792D03*
X0216671Y0071792D03*
X0216671Y0071851D03*
X0216671Y0071910D03*
X0216671Y0071969D03*
X0216671Y0072028D03*
X0216671Y0072087D03*
X0216671Y0072146D03*
X0216671Y0072205D03*
X0216671Y0072264D03*
X0216671Y0072323D03*
X0216671Y0072382D03*
X0216671Y0072441D03*
X0216671Y0072500D03*
X0216671Y0072560D03*
X0216671Y0072619D03*
X0216671Y0072678D03*
X0216671Y0072737D03*
X0216671Y0072796D03*
X0216671Y0072855D03*
X0216671Y0072914D03*
X0216671Y0072973D03*
X0216671Y0073032D03*
X0216671Y0073091D03*
X0216671Y0073150D03*
X0216671Y0073209D03*
X0216671Y0073268D03*
X0216671Y0073327D03*
X0216671Y0073386D03*
X0216671Y0073445D03*
X0216671Y0073504D03*
X0216671Y0073563D03*
X0216671Y0073623D03*
X0216671Y0073682D03*
X0216671Y0073741D03*
X0216671Y0073800D03*
X0216671Y0073859D03*
X0216671Y0073918D03*
X0216671Y0073977D03*
X0216671Y0074036D03*
X0216671Y0074095D03*
X0216671Y0074154D03*
X0216671Y0074213D03*
X0216671Y0074272D03*
X0216671Y0074331D03*
X0216671Y0074390D03*
X0216671Y0074449D03*
X0216671Y0074508D03*
X0216671Y0074567D03*
X0216671Y0074626D03*
X0216671Y0074686D03*
X0216671Y0074745D03*
X0216671Y0074804D03*
X0216671Y0074863D03*
X0216671Y0074922D03*
X0216671Y0074981D03*
X0216671Y0075040D03*
X0216671Y0075099D03*
X0216671Y0075158D03*
X0216671Y0075217D03*
X0216671Y0075276D03*
X0216671Y0075335D03*
X0216671Y0075394D03*
X0216671Y0075453D03*
X0216671Y0075512D03*
X0216671Y0075571D03*
X0216671Y0075630D03*
X0216671Y0075689D03*
X0216671Y0075749D03*
X0216671Y0075808D03*
X0216671Y0075867D03*
X0216671Y0075926D03*
X0216671Y0075985D03*
X0216671Y0076044D03*
X0216671Y0076103D03*
X0216671Y0076162D03*
X0216671Y0076221D03*
X0216671Y0076280D03*
X0216671Y0076339D03*
X0216671Y0076398D03*
X0216671Y0076457D03*
X0216671Y0076516D03*
X0216671Y0076575D03*
X0216671Y0076634D03*
X0216671Y0076693D03*
X0216671Y0076752D03*
X0216671Y0076812D03*
X0216730Y0076930D03*
X0216730Y0076989D03*
X0216730Y0077048D03*
X0216789Y0077225D03*
X0214191Y0076752D03*
X0214191Y0076693D03*
X0214191Y0076634D03*
X0214191Y0076575D03*
X0214191Y0076516D03*
X0214250Y0076398D03*
X0214250Y0076339D03*
X0214250Y0076280D03*
X0214250Y0076221D03*
X0214250Y0076162D03*
X0214250Y0076103D03*
X0214250Y0076044D03*
X0214250Y0075985D03*
X0214250Y0075926D03*
X0214250Y0075867D03*
X0214309Y0075808D03*
X0214309Y0075749D03*
X0214309Y0075689D03*
X0214309Y0075630D03*
X0214309Y0075571D03*
X0214309Y0075512D03*
X0214309Y0075453D03*
X0214309Y0075394D03*
X0214309Y0075335D03*
X0214309Y0075276D03*
X0214309Y0075217D03*
X0214309Y0074331D03*
X0214309Y0074272D03*
X0214309Y0074213D03*
X0214309Y0074154D03*
X0214309Y0074095D03*
X0214309Y0074036D03*
X0214309Y0073977D03*
X0214250Y0073741D03*
X0214250Y0073682D03*
X0214250Y0073623D03*
X0214250Y0073563D03*
X0214250Y0073504D03*
X0214250Y0073445D03*
X0214250Y0073386D03*
X0214250Y0073327D03*
X0214250Y0073268D03*
X0214191Y0073150D03*
X0214191Y0073091D03*
X0214191Y0073032D03*
X0214191Y0072973D03*
X0214191Y0072914D03*
X0214132Y0072796D03*
X0214132Y0072737D03*
X0214132Y0072678D03*
X0214073Y0072560D03*
X0214073Y0072500D03*
X0216671Y0071733D03*
X0216671Y0071674D03*
X0216671Y0071615D03*
X0216671Y0071556D03*
X0216671Y0071497D03*
X0216671Y0071438D03*
X0216671Y0071378D03*
X0216671Y0071319D03*
X0216671Y0071260D03*
X0216671Y0071201D03*
X0216671Y0071142D03*
X0216671Y0071083D03*
X0216671Y0071024D03*
X0216671Y0070965D03*
X0206337Y0070965D03*
X0206337Y0071024D03*
X0206337Y0071083D03*
X0206337Y0071142D03*
X0206337Y0071201D03*
X0206337Y0071260D03*
X0206337Y0071319D03*
X0206337Y0071378D03*
X0206337Y0071438D03*
X0206337Y0071497D03*
X0206337Y0071556D03*
X0206337Y0071615D03*
X0206337Y0071674D03*
X0206337Y0071733D03*
X0206337Y0071792D03*
X0206337Y0071851D03*
X0206337Y0071910D03*
X0206337Y0071969D03*
X0206337Y0072028D03*
X0206337Y0072087D03*
X0206337Y0072146D03*
X0206337Y0072205D03*
X0206337Y0072264D03*
X0206337Y0072323D03*
X0206337Y0072382D03*
X0206337Y0072441D03*
X0206337Y0072500D03*
X0206337Y0072560D03*
X0206337Y0072619D03*
X0206337Y0072678D03*
X0206337Y0072737D03*
X0206337Y0072796D03*
X0206337Y0072855D03*
X0206337Y0072914D03*
X0206337Y0072973D03*
X0206337Y0073032D03*
X0206337Y0073091D03*
X0206337Y0073150D03*
X0206337Y0073209D03*
X0206337Y0073268D03*
X0206337Y0073327D03*
X0206337Y0073386D03*
X0206337Y0073445D03*
X0206337Y0073504D03*
X0206337Y0073563D03*
X0206337Y0073623D03*
X0206337Y0073682D03*
X0206337Y0073741D03*
X0206337Y0073800D03*
X0206337Y0073859D03*
X0206337Y0073918D03*
X0206337Y0073977D03*
X0206337Y0074036D03*
X0206337Y0074095D03*
X0206337Y0074154D03*
X0206337Y0074213D03*
X0206337Y0074272D03*
X0206337Y0074331D03*
X0206337Y0074390D03*
X0206337Y0074449D03*
X0206337Y0074508D03*
X0206337Y0074567D03*
X0206337Y0074626D03*
X0206337Y0074686D03*
X0206337Y0074745D03*
X0206337Y0074804D03*
X0206337Y0074863D03*
X0206337Y0074922D03*
X0206337Y0074981D03*
X0206337Y0075040D03*
X0206337Y0075099D03*
X0206337Y0075158D03*
X0206337Y0075217D03*
X0206337Y0075276D03*
X0206337Y0075335D03*
X0206337Y0075394D03*
X0206337Y0075453D03*
X0206337Y0075512D03*
X0206337Y0075571D03*
X0206337Y0075630D03*
X0206337Y0075689D03*
X0206337Y0075749D03*
X0206337Y0075808D03*
X0206337Y0075867D03*
X0206337Y0075926D03*
X0206337Y0075985D03*
X0206337Y0076044D03*
X0206337Y0076103D03*
X0206337Y0076162D03*
X0206337Y0076221D03*
X0206337Y0076280D03*
X0206337Y0076339D03*
X0206337Y0076398D03*
X0206337Y0076457D03*
X0206337Y0076516D03*
X0206337Y0076575D03*
X0206337Y0076634D03*
X0206337Y0076693D03*
X0206337Y0076752D03*
X0206337Y0076812D03*
X0206337Y0076871D03*
X0206337Y0076930D03*
X0206337Y0076989D03*
X0206337Y0077048D03*
X0206337Y0077107D03*
X0206337Y0077815D03*
X0208935Y0077107D03*
X0208935Y0077048D03*
X0208935Y0076989D03*
X0208876Y0076871D03*
X0208876Y0076812D03*
X0208876Y0076752D03*
X0208876Y0076693D03*
X0208876Y0076634D03*
X0208876Y0076575D03*
X0208876Y0076516D03*
X0208876Y0076457D03*
X0208876Y0076398D03*
X0208876Y0075808D03*
X0208876Y0075749D03*
X0208994Y0077284D03*
X0214073Y0077107D03*
X0214132Y0076930D03*
X0214132Y0076871D03*
X0214132Y0076812D03*
X0222104Y0081654D03*
X0222104Y0081713D03*
X0222104Y0081772D03*
X0222104Y0081831D03*
X0222104Y0081890D03*
X0222104Y0081949D03*
X0222104Y0082008D03*
X0222104Y0082067D03*
X0222104Y0082126D03*
X0222104Y0082186D03*
X0222104Y0082245D03*
X0222104Y0082304D03*
X0222104Y0082363D03*
X0222104Y0082422D03*
X0222104Y0082481D03*
X0222104Y0082540D03*
X0216140Y0083426D03*
X0212774Y0086024D03*
X0207872Y0090630D03*
X0207813Y0090689D03*
D19*
X0205894Y0089626D03*
X0201406Y0093170D03*
X0205185Y0086674D03*
X0209614Y0083957D03*
X0212862Y0084725D03*
X0210559Y0086083D03*
X0217232Y0081004D03*
X0203413Y0078288D03*
X0211504Y0070965D03*
X0240205Y0070965D03*
X0245520Y0082186D03*
D20*
X0232173Y0078878D03*
X0216996Y0082599D03*
X0214752Y0083485D03*
X0205953Y0083898D03*
X0208610Y0089567D03*
X0201228Y0090335D03*
X0201169Y0090453D03*
X0201169Y0090512D03*
X0204772Y0077934D03*
X0205835Y0077579D03*
X0230461Y0072146D03*
X0233709Y0070965D03*
D21*
X0229575Y0070965D03*
X0240382Y0071674D03*
X0211681Y0071674D03*
X0206720Y0078701D03*
X0214693Y0084725D03*
X0212154Y0086910D03*
X0212094Y0086969D03*
X0210736Y0088327D03*
X0210677Y0088386D03*
X0226445Y0082422D03*
X0226445Y0082363D03*
D22*
X0217380Y0082422D03*
X0218738Y0078819D03*
X0220746Y0077934D03*
X0230785Y0078111D03*
X0230372Y0072205D03*
X0224998Y0070965D03*
X0204919Y0077875D03*
X0209053Y0082126D03*
X0208522Y0089745D03*
X0208463Y0089804D03*
D23*
X0205421Y0090276D03*
X0205362Y0090335D03*
X0205303Y0090453D03*
X0205303Y0090512D03*
X0203354Y0087855D03*
X0203059Y0088091D03*
X0209201Y0087146D03*
X0210146Y0086497D03*
X0212331Y0085138D03*
X0222665Y0080709D03*
X0218945Y0078347D03*
X0211445Y0071024D03*
X0240146Y0071024D03*
X0201642Y0093052D03*
D24*
X0201169Y0091103D03*
X0208846Y0089095D03*
X0208906Y0089036D03*
X0208906Y0088977D03*
X0203354Y0086910D03*
X0209201Y0082186D03*
X0221425Y0077815D03*
X0231642Y0071792D03*
X0233650Y0071024D03*
X0225264Y0071201D03*
D25*
X0229604Y0071024D03*
X0237341Y0071851D03*
X0219919Y0081477D03*
X0215726Y0083957D03*
X0215667Y0084016D03*
X0212183Y0086851D03*
X0210766Y0088268D03*
X0207222Y0091339D03*
X0205628Y0092225D03*
X0226474Y0082304D03*
X0226474Y0082245D03*
X0226474Y0082186D03*
X0206691Y0078642D03*
X0208640Y0071851D03*
D26*
X0221573Y0077697D03*
X0222518Y0080827D03*
X0216848Y0082658D03*
X0213423Y0080827D03*
X0201317Y0090158D03*
X0201258Y0090217D03*
X0201258Y0090276D03*
X0201199Y0090394D03*
X0201140Y0090571D03*
X0201140Y0090630D03*
X0201140Y0090689D03*
X0201140Y0090749D03*
X0225116Y0071024D03*
D27*
X0233266Y0071497D03*
X0240057Y0071083D03*
X0246553Y0078524D03*
X0218974Y0078229D03*
X0213423Y0081063D03*
X0209467Y0083780D03*
X0208758Y0087619D03*
X0203620Y0087500D03*
X0203561Y0087560D03*
D28*
X0205362Y0086792D03*
X0211150Y0085493D03*
X0214516Y0081949D03*
X0213453Y0080886D03*
X0217173Y0081123D03*
X0201701Y0089922D03*
X0201287Y0091280D03*
X0225441Y0071497D03*
X0233591Y0071083D03*
D29*
X0229634Y0071083D03*
X0235185Y0077934D03*
X0226504Y0082067D03*
X0226504Y0082126D03*
X0215756Y0083898D03*
X0214752Y0084666D03*
X0212213Y0086792D03*
X0210854Y0088150D03*
X0210795Y0088209D03*
X0207252Y0091280D03*
X0213335Y0080709D03*
X0206661Y0078583D03*
X0206661Y0078524D03*
D30*
X0209821Y0077993D03*
X0202793Y0078760D03*
X0216553Y0082776D03*
X0221514Y0077756D03*
X0225766Y0071615D03*
X0225175Y0071083D03*
X0238522Y0077993D03*
X0208758Y0089331D03*
X0208758Y0089390D03*
X0201140Y0090867D03*
X0201140Y0090926D03*
D31*
X0203650Y0087441D03*
X0203709Y0087382D03*
X0208610Y0087737D03*
X0208669Y0087678D03*
X0211386Y0071083D03*
D32*
X0213453Y0081123D03*
X0208256Y0088150D03*
X0208197Y0088209D03*
X0246760Y0078760D03*
X0239969Y0071142D03*
D33*
X0233561Y0071142D03*
X0214545Y0081890D03*
X0213955Y0084075D03*
X0213246Y0084430D03*
X0210884Y0085729D03*
X0206278Y0084016D03*
X0205274Y0086733D03*
X0206278Y0089095D03*
X0206219Y0089154D03*
X0204860Y0090689D03*
X0204860Y0090749D03*
X0204801Y0090808D03*
X0204506Y0091221D03*
X0202026Y0089449D03*
X0201967Y0089508D03*
D34*
X0205687Y0092166D03*
X0207341Y0091221D03*
X0210884Y0088091D03*
X0210943Y0088032D03*
X0212242Y0086733D03*
X0212301Y0086674D03*
X0214781Y0084607D03*
X0214841Y0084548D03*
X0220510Y0081300D03*
X0226533Y0081890D03*
X0226533Y0081949D03*
X0226533Y0082008D03*
X0206632Y0078465D03*
X0229663Y0071142D03*
D35*
X0225234Y0071142D03*
X0213069Y0077993D03*
X0205687Y0077697D03*
X0216317Y0082894D03*
X0214486Y0083662D03*
X0205451Y0086851D03*
X0208817Y0089154D03*
X0208817Y0089213D03*
X0201494Y0089981D03*
X0201140Y0091044D03*
X0200844Y0093406D03*
D36*
X0202085Y0092756D03*
X0214722Y0081536D03*
X0212419Y0074390D03*
X0211297Y0071142D03*
X0231848Y0075630D03*
X0232793Y0078583D03*
X0241120Y0074390D03*
D37*
X0231996Y0075571D03*
X0232823Y0078524D03*
X0240146Y0078229D03*
X0239909Y0071201D03*
X0214752Y0081477D03*
X0211445Y0078229D03*
X0211209Y0071201D03*
X0204831Y0086319D03*
X0204772Y0086378D03*
D38*
X0206041Y0089390D03*
X0202321Y0089036D03*
X0202262Y0089095D03*
X0210707Y0085906D03*
X0213010Y0084607D03*
X0214604Y0081831D03*
X0233502Y0071201D03*
D39*
X0229693Y0071201D03*
X0206602Y0078406D03*
X0219713Y0081536D03*
X0222370Y0081536D03*
X0226563Y0081713D03*
X0226563Y0081772D03*
X0226563Y0081831D03*
X0215815Y0083839D03*
X0212331Y0086615D03*
X0210972Y0087973D03*
X0207370Y0091162D03*
X0205776Y0092107D03*
D40*
X0202409Y0092461D03*
X0205244Y0085965D03*
X0205303Y0085906D03*
X0209319Y0083603D03*
X0232705Y0078288D03*
X0240146Y0078111D03*
X0239850Y0071260D03*
D41*
X0233443Y0071260D03*
X0233738Y0074922D03*
X0232498Y0078760D03*
X0245549Y0082126D03*
X0246140Y0077993D03*
X0212774Y0084784D03*
X0210470Y0086142D03*
X0205864Y0089686D03*
X0205805Y0089745D03*
X0202557Y0088741D03*
X0202498Y0088800D03*
D42*
X0205864Y0092048D03*
X0207459Y0091103D03*
X0211002Y0087914D03*
X0211061Y0087855D03*
X0212360Y0086556D03*
X0212419Y0086497D03*
X0214900Y0084489D03*
X0214959Y0084430D03*
X0215844Y0083780D03*
X0220746Y0081241D03*
X0226593Y0081595D03*
X0226593Y0081654D03*
X0228778Y0080886D03*
X0228778Y0079587D03*
X0206573Y0078347D03*
X0229722Y0071260D03*
D43*
X0225618Y0071556D03*
X0225323Y0071260D03*
X0205598Y0077756D03*
X0215992Y0083071D03*
X0208965Y0088800D03*
X0208965Y0088859D03*
X0245638Y0082422D03*
D44*
X0240175Y0078052D03*
X0232675Y0078229D03*
X0211474Y0078052D03*
X0211179Y0071260D03*
X0205392Y0085847D03*
X0202439Y0092402D03*
D45*
X0202469Y0092343D03*
X0202469Y0092284D03*
X0202528Y0092225D03*
X0205421Y0085788D03*
X0214752Y0081418D03*
X0217232Y0080650D03*
X0217409Y0080709D03*
X0232646Y0078170D03*
X0232173Y0075453D03*
X0240795Y0074508D03*
X0239909Y0071319D03*
X0212094Y0074508D03*
X0211209Y0071319D03*
D46*
X0211415Y0078642D03*
X0210825Y0081772D03*
X0211179Y0081890D03*
X0206455Y0084134D03*
X0212478Y0085020D03*
X0210293Y0086319D03*
X0210234Y0086378D03*
X0209348Y0086969D03*
X0203502Y0087796D03*
X0205628Y0089981D03*
X0205569Y0090040D03*
X0203561Y0078111D03*
X0218915Y0078406D03*
X0233443Y0071319D03*
X0240116Y0078642D03*
X0246258Y0078170D03*
X0245667Y0081772D03*
D47*
X0226622Y0081536D03*
X0226622Y0081477D03*
X0226622Y0081418D03*
X0219535Y0081595D03*
X0214988Y0084371D03*
X0211091Y0087796D03*
X0207488Y0091044D03*
X0206543Y0078288D03*
X0201996Y0077993D03*
X0229752Y0071378D03*
X0229752Y0071319D03*
D48*
X0231848Y0071733D03*
X0225352Y0071319D03*
X0221337Y0077875D03*
X0218797Y0078701D03*
X0222754Y0080768D03*
X0215844Y0083130D03*
X0214368Y0083780D03*
X0214486Y0082008D03*
X0208994Y0088682D03*
X0208994Y0088741D03*
X0206573Y0088623D03*
X0201258Y0091221D03*
D49*
X0202557Y0092166D03*
X0205510Y0085729D03*
X0226770Y0080060D03*
X0232203Y0075394D03*
X0239939Y0071378D03*
X0211238Y0071378D03*
D50*
X0233384Y0071378D03*
X0246376Y0078288D03*
X0212242Y0085197D03*
X0212183Y0085256D03*
X0210057Y0086556D03*
X0209112Y0087205D03*
X0204978Y0086615D03*
X0203148Y0088032D03*
X0205333Y0090394D03*
X0209526Y0083839D03*
D51*
X0205657Y0085611D03*
X0205598Y0085670D03*
X0202587Y0092107D03*
X0211268Y0071438D03*
X0239969Y0071438D03*
D52*
X0233354Y0071438D03*
X0246465Y0078406D03*
X0218945Y0078288D03*
X0214693Y0081654D03*
X0209909Y0086733D03*
X0208965Y0087382D03*
X0208906Y0087441D03*
D53*
X0211120Y0087737D03*
X0211179Y0087678D03*
X0211179Y0087619D03*
X0211238Y0087500D03*
X0212478Y0086437D03*
X0215018Y0084312D03*
X0215077Y0084252D03*
X0215904Y0083721D03*
X0215963Y0083662D03*
X0219388Y0081654D03*
X0226652Y0081359D03*
X0226652Y0081300D03*
X0206514Y0078229D03*
X0203384Y0086851D03*
X0205982Y0091930D03*
X0205923Y0091989D03*
X0207577Y0090985D03*
X0229781Y0071438D03*
D54*
X0225411Y0071438D03*
X0214250Y0083839D03*
X0209644Y0084134D03*
X0206514Y0088741D03*
X0201022Y0093347D03*
D55*
X0202616Y0092048D03*
X0205746Y0085552D03*
X0205805Y0085493D03*
X0212774Y0082067D03*
X0212006Y0074567D03*
X0211297Y0071497D03*
X0232262Y0075335D03*
X0240707Y0074567D03*
X0239998Y0071556D03*
X0239998Y0071497D03*
D56*
X0229811Y0071497D03*
X0206484Y0078111D03*
X0206484Y0078170D03*
X0220953Y0081182D03*
X0226681Y0081182D03*
X0226681Y0081241D03*
X0226681Y0081123D03*
X0212508Y0086378D03*
X0211386Y0087146D03*
X0211327Y0087264D03*
X0211327Y0087323D03*
X0211268Y0087382D03*
X0211268Y0087441D03*
X0211209Y0087560D03*
X0207606Y0090926D03*
X0206189Y0091634D03*
X0206130Y0091693D03*
X0206071Y0091812D03*
X0206012Y0091871D03*
D57*
X0208492Y0087855D03*
X0203886Y0087205D03*
X0203827Y0087264D03*
X0216642Y0080591D03*
X0211445Y0078465D03*
X0233236Y0074981D03*
X0233236Y0071556D03*
X0240146Y0078465D03*
D58*
X0228778Y0079646D03*
X0228778Y0080827D03*
X0226711Y0080945D03*
X0226711Y0081004D03*
X0226711Y0081063D03*
X0219211Y0081713D03*
X0216022Y0083603D03*
X0212596Y0086260D03*
X0212537Y0086319D03*
X0211474Y0086910D03*
X0211474Y0086969D03*
X0211415Y0087028D03*
X0211415Y0087087D03*
X0211356Y0087205D03*
X0206396Y0091280D03*
X0206337Y0091398D03*
X0206278Y0091457D03*
X0206278Y0091516D03*
X0206219Y0091575D03*
X0206100Y0091752D03*
X0206455Y0078052D03*
X0229841Y0071556D03*
D59*
X0240028Y0071615D03*
X0211327Y0071556D03*
X0205953Y0085375D03*
X0205894Y0085434D03*
X0202705Y0091871D03*
X0202646Y0091989D03*
D60*
X0208285Y0088091D03*
X0204152Y0086969D03*
X0240116Y0078406D03*
X0233207Y0071615D03*
D61*
X0229870Y0071615D03*
X0237606Y0071792D03*
X0226740Y0080827D03*
X0226740Y0080886D03*
X0222193Y0081595D03*
X0216051Y0083544D03*
X0212626Y0086201D03*
X0207724Y0090808D03*
X0207665Y0090867D03*
X0206543Y0090985D03*
X0206484Y0091103D03*
X0206425Y0091221D03*
X0206366Y0091339D03*
X0206425Y0077993D03*
X0208906Y0071792D03*
D62*
X0211356Y0071615D03*
X0211947Y0074626D03*
X0232321Y0075276D03*
X0240648Y0074626D03*
X0209230Y0083544D03*
X0206041Y0085315D03*
X0202734Y0091812D03*
X0202675Y0091930D03*
D63*
X0201110Y0090808D03*
X0201346Y0090099D03*
X0208669Y0089508D03*
X0208728Y0089449D03*
X0205480Y0086910D03*
X0214634Y0083544D03*
X0216701Y0082717D03*
X0205776Y0077638D03*
X0213157Y0071674D03*
X0241858Y0071674D03*
D64*
X0238787Y0071674D03*
X0210087Y0071674D03*
X0203295Y0078406D03*
X0209614Y0084016D03*
X0213098Y0084548D03*
X0213807Y0084193D03*
X0203945Y0087678D03*
X0202232Y0089154D03*
X0202173Y0089213D03*
X0206071Y0089331D03*
X0206130Y0089272D03*
X0201287Y0093229D03*
X0245461Y0082304D03*
D65*
X0221780Y0077520D03*
X0217646Y0082304D03*
X0214988Y0083308D03*
X0209555Y0077934D03*
X0230283Y0072264D03*
X0234772Y0071674D03*
X0208374Y0089981D03*
D66*
X0206425Y0088859D03*
X0206366Y0088918D03*
X0201819Y0089745D03*
X0211031Y0085611D03*
X0213394Y0084312D03*
X0214102Y0083957D03*
X0210736Y0081654D03*
X0218827Y0078642D03*
X0232350Y0078819D03*
X0233945Y0078111D03*
X0230874Y0071910D03*
X0232173Y0071674D03*
D67*
X0225943Y0071674D03*
X0220569Y0077993D03*
X0217085Y0082540D03*
X0208581Y0089626D03*
X0245726Y0082481D03*
D68*
X0238108Y0077875D03*
X0234860Y0074745D03*
X0237931Y0071733D03*
X0221927Y0080945D03*
X0213128Y0085493D03*
X0208226Y0090158D03*
X0209407Y0077875D03*
X0206100Y0077343D03*
X0209230Y0071733D03*
D69*
X0209201Y0075276D03*
X0213630Y0077815D03*
X0217291Y0077934D03*
X0221898Y0077402D03*
X0230520Y0077993D03*
X0234949Y0074686D03*
X0237902Y0075276D03*
X0234890Y0071733D03*
X0230165Y0072323D03*
X0226327Y0071851D03*
X0213571Y0071792D03*
X0218118Y0082126D03*
X0213098Y0085552D03*
X0213039Y0085611D03*
X0208197Y0090217D03*
X0242272Y0077815D03*
X0246819Y0081713D03*
X0242272Y0071792D03*
D70*
X0242921Y0073268D03*
X0242980Y0074036D03*
X0242980Y0074095D03*
X0242980Y0074154D03*
X0242980Y0075571D03*
X0229929Y0071733D03*
X0214220Y0073209D03*
X0214280Y0073800D03*
X0214280Y0073859D03*
X0214280Y0073918D03*
X0214220Y0076457D03*
X0206366Y0077875D03*
X0218886Y0081831D03*
X0216110Y0083485D03*
X0212685Y0086083D03*
X0226799Y0080591D03*
D71*
X0217557Y0078052D03*
X0213364Y0077934D03*
X0216494Y0080532D03*
X0205096Y0077815D03*
X0202793Y0078819D03*
X0209348Y0075217D03*
X0226061Y0071733D03*
X0238049Y0075217D03*
X0238226Y0077934D03*
X0240057Y0078819D03*
X0242065Y0077934D03*
X0208404Y0089922D03*
D72*
X0208167Y0090276D03*
X0200372Y0093524D03*
X0218266Y0082067D03*
X0228778Y0080591D03*
X0230431Y0077934D03*
X0237990Y0077815D03*
X0234978Y0071792D03*
X0242360Y0071851D03*
X0213659Y0071851D03*
X0206159Y0077284D03*
D73*
X0213512Y0077875D03*
X0217409Y0077993D03*
X0221839Y0077461D03*
X0230638Y0078052D03*
X0226209Y0071792D03*
X0242213Y0077875D03*
X0217941Y0082186D03*
X0215047Y0083249D03*
X0213157Y0085434D03*
X0208315Y0090040D03*
X0208256Y0090099D03*
D74*
X0208049Y0090394D03*
X0212951Y0085729D03*
X0216317Y0083249D03*
X0218561Y0081949D03*
X0228778Y0080650D03*
X0228778Y0079823D03*
X0230372Y0077875D03*
X0230313Y0077815D03*
X0235096Y0074567D03*
X0235096Y0071910D03*
X0235037Y0071851D03*
X0230077Y0072382D03*
X0226474Y0072028D03*
X0226415Y0071969D03*
X0213778Y0071969D03*
X0213719Y0071910D03*
X0209053Y0075394D03*
X0206219Y0077225D03*
X0237872Y0077697D03*
X0237931Y0077756D03*
X0242419Y0077697D03*
X0242478Y0077638D03*
X0242478Y0071969D03*
X0242419Y0071910D03*
D75*
X0230992Y0071851D03*
X0218827Y0078583D03*
X0217173Y0081063D03*
X0213157Y0084489D03*
X0203236Y0078465D03*
X0202114Y0089331D03*
X0202055Y0089390D03*
D76*
X0208079Y0090335D03*
X0212980Y0085670D03*
X0218413Y0082008D03*
X0221661Y0081004D03*
X0213394Y0080768D03*
X0213689Y0077756D03*
X0213748Y0077697D03*
X0217173Y0077815D03*
X0217232Y0077875D03*
X0221957Y0077343D03*
X0226386Y0071910D03*
X0235008Y0074626D03*
X0237783Y0075335D03*
X0242390Y0077756D03*
X0246937Y0081654D03*
X0209319Y0077815D03*
X0209260Y0077756D03*
X0209083Y0075335D03*
D77*
X0208994Y0075453D03*
X0208935Y0075512D03*
X0208935Y0075571D03*
X0209053Y0077461D03*
X0209112Y0077579D03*
X0206278Y0077166D03*
X0213896Y0077461D03*
X0213896Y0077520D03*
X0213955Y0077402D03*
X0216848Y0077343D03*
X0216907Y0077461D03*
X0216907Y0077520D03*
X0216967Y0077579D03*
X0228778Y0079764D03*
X0228778Y0080709D03*
X0230254Y0077697D03*
X0230195Y0077638D03*
X0230195Y0077579D03*
X0235215Y0074390D03*
X0235215Y0074331D03*
X0235274Y0074213D03*
X0235215Y0072087D03*
X0235156Y0072028D03*
X0237636Y0075512D03*
X0237754Y0077461D03*
X0237754Y0077520D03*
X0237813Y0077579D03*
X0242596Y0077461D03*
X0242656Y0077402D03*
X0247085Y0081477D03*
X0242656Y0072264D03*
X0242596Y0072146D03*
X0230018Y0072441D03*
X0226652Y0072382D03*
X0226593Y0072205D03*
X0213955Y0072205D03*
X0213896Y0072146D03*
X0216258Y0083308D03*
X0212833Y0085906D03*
D78*
X0214427Y0083721D03*
X0216081Y0083012D03*
X0216199Y0082953D03*
X0209644Y0084193D03*
X0208935Y0088918D03*
X0201199Y0091162D03*
X0202911Y0078701D03*
X0230667Y0072028D03*
D79*
X0230579Y0072087D03*
X0220303Y0078052D03*
X0218768Y0078760D03*
X0210618Y0081595D03*
X0216465Y0082835D03*
X0214575Y0083603D03*
X0208787Y0089272D03*
X0201406Y0090040D03*
X0201169Y0090985D03*
X0204535Y0077993D03*
X0241740Y0077993D03*
D80*
X0242685Y0077343D03*
X0242685Y0077284D03*
X0242744Y0077225D03*
X0242744Y0077166D03*
X0242803Y0076989D03*
X0242980Y0075217D03*
X0242803Y0072678D03*
X0242744Y0072500D03*
X0242744Y0072441D03*
X0242685Y0072382D03*
X0242685Y0072323D03*
X0242626Y0072205D03*
X0235362Y0072619D03*
X0235362Y0072678D03*
X0235362Y0072737D03*
X0235362Y0072796D03*
X0235362Y0072855D03*
X0235362Y0072914D03*
X0235362Y0072973D03*
X0235362Y0073032D03*
X0235362Y0073091D03*
X0235362Y0073150D03*
X0235362Y0073209D03*
X0235362Y0073268D03*
X0235362Y0073327D03*
X0235362Y0073386D03*
X0235362Y0073445D03*
X0235362Y0073504D03*
X0235362Y0073563D03*
X0235362Y0073623D03*
X0235362Y0073682D03*
X0235362Y0073741D03*
X0235362Y0073800D03*
X0235362Y0073859D03*
X0235303Y0074095D03*
X0235303Y0074154D03*
X0235244Y0074272D03*
X0237606Y0075571D03*
X0237606Y0075630D03*
X0237547Y0075808D03*
X0237547Y0075867D03*
X0237547Y0076457D03*
X0237547Y0076516D03*
X0237606Y0076989D03*
X0237606Y0077048D03*
X0237665Y0077225D03*
X0237665Y0077284D03*
X0237724Y0077343D03*
X0237724Y0077402D03*
X0230165Y0077520D03*
X0230106Y0077461D03*
X0230106Y0077402D03*
X0230106Y0077343D03*
X0230047Y0077225D03*
X0230047Y0077166D03*
X0229988Y0076752D03*
X0229988Y0076693D03*
X0229988Y0076634D03*
X0229988Y0076575D03*
X0229988Y0076516D03*
X0229988Y0076457D03*
X0229988Y0076398D03*
X0229988Y0076339D03*
X0229988Y0076280D03*
X0229988Y0076221D03*
X0229988Y0076162D03*
X0229988Y0076103D03*
X0229988Y0076044D03*
X0229988Y0075985D03*
X0229988Y0075926D03*
X0229988Y0075867D03*
X0229988Y0075808D03*
X0229988Y0075749D03*
X0229988Y0075689D03*
X0229988Y0074981D03*
X0229988Y0074922D03*
X0229988Y0074863D03*
X0229988Y0074804D03*
X0229988Y0074745D03*
X0229988Y0074686D03*
X0229988Y0074626D03*
X0229988Y0074567D03*
X0229988Y0074508D03*
X0229988Y0074449D03*
X0229988Y0074390D03*
X0229988Y0074331D03*
X0229988Y0074272D03*
X0229988Y0074213D03*
X0229988Y0074154D03*
X0229988Y0074095D03*
X0229988Y0074036D03*
X0229988Y0073977D03*
X0229988Y0073918D03*
X0229988Y0073859D03*
X0229988Y0073800D03*
X0229988Y0073741D03*
X0229988Y0073682D03*
X0229988Y0073623D03*
X0229988Y0073563D03*
X0229988Y0073504D03*
X0229988Y0073445D03*
X0229988Y0073386D03*
X0229988Y0073327D03*
X0229988Y0073268D03*
X0229988Y0073209D03*
X0229988Y0073150D03*
X0229988Y0073091D03*
X0229988Y0073032D03*
X0229988Y0072973D03*
X0229988Y0072914D03*
X0229988Y0072855D03*
X0229988Y0072796D03*
X0229988Y0072737D03*
X0229988Y0072678D03*
X0229988Y0072619D03*
X0229988Y0072560D03*
X0229988Y0072500D03*
X0226799Y0073032D03*
X0226799Y0073091D03*
X0226799Y0073150D03*
X0226740Y0072737D03*
X0226740Y0072678D03*
X0226740Y0072619D03*
X0226681Y0072500D03*
X0226681Y0072441D03*
X0226622Y0072323D03*
X0226622Y0072264D03*
X0235244Y0072205D03*
X0235244Y0072146D03*
X0235303Y0072264D03*
X0235303Y0072323D03*
X0235303Y0072382D03*
X0222075Y0077225D03*
X0216878Y0077402D03*
X0216819Y0077284D03*
X0216760Y0077166D03*
X0216760Y0077107D03*
X0216701Y0076871D03*
X0214102Y0076989D03*
X0214102Y0077048D03*
X0214043Y0077166D03*
X0214043Y0077225D03*
X0213984Y0077284D03*
X0213984Y0077343D03*
X0209083Y0077520D03*
X0209024Y0077402D03*
X0209024Y0077343D03*
X0208965Y0077225D03*
X0208965Y0077166D03*
X0208906Y0076930D03*
X0208846Y0076339D03*
X0208846Y0076280D03*
X0208846Y0076221D03*
X0208846Y0076162D03*
X0208846Y0076103D03*
X0208846Y0076044D03*
X0208846Y0075985D03*
X0208846Y0075926D03*
X0208846Y0075867D03*
X0208906Y0075689D03*
X0208906Y0075630D03*
X0214161Y0072855D03*
X0214102Y0072619D03*
X0214043Y0072441D03*
X0214043Y0072382D03*
X0213984Y0072323D03*
X0213984Y0072264D03*
X0210559Y0081536D03*
X0216228Y0083367D03*
X0218709Y0081890D03*
X0221425Y0081063D03*
X0212803Y0085965D03*
X0207902Y0090571D03*
X0247114Y0081418D03*
X0247114Y0081359D03*
X0247173Y0081300D03*
X0247173Y0081241D03*
X0247173Y0081182D03*
X0247232Y0080945D03*
X0247232Y0080886D03*
D81*
X0232734Y0078347D03*
X0232085Y0075512D03*
X0240884Y0074449D03*
X0211474Y0078111D03*
X0205156Y0086024D03*
X0205096Y0086083D03*
X0202380Y0092520D03*
D82*
X0202350Y0092579D03*
X0204890Y0086260D03*
X0204949Y0086201D03*
X0205008Y0086142D03*
X0212803Y0082126D03*
X0211445Y0078170D03*
X0212213Y0074449D03*
X0232764Y0078406D03*
X0240146Y0078170D03*
D83*
X0240589Y0074686D03*
X0232380Y0075158D03*
X0223463Y0080591D03*
X0214781Y0081359D03*
X0206278Y0085138D03*
X0202793Y0091634D03*
X0202793Y0091693D03*
X0211888Y0074686D03*
D84*
X0211858Y0074745D03*
X0232409Y0075099D03*
X0240559Y0074745D03*
X0206425Y0085020D03*
X0206366Y0085079D03*
X0202882Y0091516D03*
X0202823Y0091575D03*
D85*
X0202941Y0091339D03*
X0206602Y0084902D03*
X0206780Y0084784D03*
X0226504Y0080119D03*
X0240500Y0074804D03*
D86*
X0234713Y0074804D03*
X0234476Y0078052D03*
X0222193Y0080886D03*
X0217528Y0082363D03*
X0214870Y0083367D03*
X0211386Y0078819D03*
X0205953Y0077461D03*
X0221720Y0077579D03*
X0208433Y0089863D03*
D87*
X0202911Y0091398D03*
X0202911Y0091457D03*
X0206514Y0084961D03*
X0206691Y0084843D03*
X0211829Y0074804D03*
X0232439Y0075040D03*
D88*
X0240470Y0074863D03*
X0211770Y0074863D03*
X0206868Y0084725D03*
D89*
X0206957Y0084666D03*
X0207016Y0084607D03*
X0207134Y0084548D03*
X0211740Y0074981D03*
X0211740Y0074922D03*
X0240441Y0074922D03*
X0240441Y0074981D03*
D90*
X0240411Y0075040D03*
X0214781Y0081300D03*
X0207222Y0084489D03*
X0211711Y0075040D03*
D91*
X0211681Y0075099D03*
X0211681Y0075158D03*
X0209142Y0083485D03*
X0207488Y0084312D03*
X0207370Y0084371D03*
X0207311Y0084430D03*
X0240382Y0075099D03*
D92*
X0240352Y0075158D03*
X0207577Y0084252D03*
D93*
X0206189Y0085197D03*
X0206130Y0085256D03*
X0202764Y0091752D03*
X0232350Y0075217D03*
D94*
X0221661Y0077638D03*
X0217232Y0082481D03*
X0214811Y0083426D03*
X0208551Y0089686D03*
X0200638Y0093465D03*
X0205894Y0077520D03*
D95*
X0203472Y0078229D03*
X0211563Y0082008D03*
X0214634Y0081772D03*
X0218886Y0078465D03*
X0212685Y0084843D03*
X0203709Y0087737D03*
X0202646Y0088623D03*
X0202587Y0088682D03*
X0205776Y0089804D03*
X0245579Y0082067D03*
X0246169Y0078052D03*
D96*
X0246317Y0078229D03*
X0217262Y0080945D03*
X0214663Y0081713D03*
X0213423Y0081004D03*
X0210943Y0081831D03*
X0212419Y0085079D03*
X0210175Y0086437D03*
X0209230Y0087087D03*
X0203030Y0088150D03*
X0202970Y0088209D03*
X0205451Y0090217D03*
X0205510Y0090158D03*
X0205274Y0090571D03*
X0205274Y0090630D03*
X0203620Y0078052D03*
D97*
X0203531Y0078170D03*
X0211386Y0081949D03*
X0209555Y0083898D03*
X0212567Y0084961D03*
X0209378Y0086910D03*
X0202823Y0088386D03*
X0202764Y0088445D03*
X0205657Y0089922D03*
X0205717Y0089863D03*
X0201524Y0093111D03*
X0245638Y0081890D03*
X0245638Y0081831D03*
X0246228Y0078111D03*
D98*
X0246701Y0078701D03*
X0219063Y0078111D03*
X0217350Y0080827D03*
X0211445Y0078406D03*
X0209437Y0083721D03*
X0204713Y0086556D03*
X0204063Y0087028D03*
X0204004Y0087087D03*
X0208374Y0088032D03*
X0201996Y0092815D03*
D99*
X0201907Y0092875D03*
X0203797Y0087323D03*
X0208581Y0087796D03*
X0214722Y0081595D03*
X0219033Y0078170D03*
X0232734Y0078642D03*
X0246612Y0078583D03*
D100*
X0240146Y0078288D03*
X0211445Y0078288D03*
X0209378Y0083662D03*
X0207902Y0088504D03*
D101*
X0209083Y0087264D03*
X0210028Y0086615D03*
X0211976Y0085375D03*
X0212094Y0085315D03*
X0206543Y0084193D03*
X0203236Y0087914D03*
X0203177Y0087973D03*
X0227449Y0079941D03*
X0232587Y0078701D03*
X0240146Y0078583D03*
X0246406Y0078347D03*
X0211445Y0078583D03*
D102*
X0211445Y0078347D03*
X0212803Y0082186D03*
X0208138Y0088268D03*
X0208079Y0088327D03*
X0208020Y0088386D03*
X0240146Y0078347D03*
D103*
X0213453Y0080945D03*
X0210795Y0081713D03*
X0203354Y0078347D03*
X0212921Y0084666D03*
X0210677Y0085965D03*
X0206012Y0089449D03*
X0202350Y0088977D03*
D104*
X0208787Y0087560D03*
X0208846Y0087500D03*
X0209791Y0086851D03*
X0201819Y0092934D03*
X0211445Y0078524D03*
X0240146Y0078524D03*
X0246524Y0078465D03*
D105*
X0232793Y0078465D03*
D106*
X0240116Y0078701D03*
X0245490Y0082245D03*
X0218856Y0078524D03*
X0211415Y0078701D03*
X0206337Y0084075D03*
X0210589Y0086024D03*
X0205982Y0089508D03*
X0205923Y0089567D03*
X0202439Y0088859D03*
X0202380Y0088918D03*
D107*
X0201907Y0089626D03*
X0201848Y0089686D03*
X0206337Y0088977D03*
X0209644Y0084075D03*
X0213305Y0084371D03*
X0203148Y0078524D03*
X0245549Y0082363D03*
D108*
X0240116Y0078760D03*
X0214191Y0083898D03*
X0213482Y0084252D03*
X0211061Y0085552D03*
X0206455Y0088800D03*
X0201789Y0089804D03*
X0201730Y0089863D03*
X0203089Y0078583D03*
X0211415Y0078760D03*
D109*
X0208463Y0087914D03*
X0208404Y0087973D03*
X0203974Y0087146D03*
X0246671Y0078642D03*
D110*
X0227892Y0079882D03*
X0213896Y0084134D03*
X0210825Y0085788D03*
X0210766Y0085847D03*
X0206159Y0089213D03*
X0202144Y0089272D03*
X0204447Y0091280D03*
D111*
X0202203Y0092697D03*
X0207990Y0088445D03*
X0227065Y0080000D03*
D112*
X0226268Y0080178D03*
D113*
X0226031Y0080237D03*
X0210559Y0082658D03*
X0210441Y0082717D03*
X0210323Y0082776D03*
D114*
X0225559Y0080355D03*
X0225559Y0080296D03*
D115*
X0225500Y0080414D03*
D116*
X0225352Y0080473D03*
D117*
X0225175Y0080532D03*
D118*
X0222813Y0080650D03*
X0217380Y0080768D03*
X0204683Y0086437D03*
X0204624Y0086497D03*
X0207872Y0088563D03*
X0202262Y0092638D03*
D119*
X0203502Y0087619D03*
X0209821Y0086792D03*
X0217321Y0080886D03*
D120*
X0214781Y0081182D03*
X0210707Y0082599D03*
D121*
X0214781Y0081241D03*
D122*
X0212656Y0084902D03*
X0210411Y0086201D03*
X0210352Y0086260D03*
X0202734Y0088504D03*
X0202675Y0088563D03*
X0245608Y0082008D03*
X0245608Y0081949D03*
D123*
X0211504Y0082245D03*
D124*
X0211356Y0082304D03*
X0211238Y0082363D03*
X0211061Y0082422D03*
X0210943Y0082481D03*
D125*
X0210795Y0082540D03*
D126*
X0210175Y0082835D03*
X0210057Y0082894D03*
X0209939Y0082953D03*
D127*
X0209850Y0083012D03*
D128*
X0209703Y0083071D03*
X0209585Y0083130D03*
X0209467Y0083189D03*
D129*
X0209378Y0083249D03*
X0209260Y0083308D03*
X0209142Y0083367D03*
D130*
X0209053Y0083426D03*
D131*
X0210972Y0085670D03*
X0214043Y0084016D03*
X0206307Y0089036D03*
X0204772Y0090867D03*
X0204772Y0090926D03*
X0204713Y0090985D03*
X0204654Y0091044D03*
X0204654Y0091103D03*
X0204594Y0091162D03*
X0201169Y0093288D03*
X0201937Y0089567D03*
D132*
X0208994Y0087323D03*
X0209939Y0086674D03*
X0201730Y0092993D03*
D133*
X0205539Y0090099D03*
X0202941Y0088268D03*
X0202882Y0088327D03*
X0209260Y0087028D03*
M02*
